<svg width="40" height="40" viewBox="0 0 40 40" fill="none" xmlns="http://www.w3.org/2000/svg">
<circle cx="20" cy="20" r="20" fill="white"/>
<path fill-rule="evenodd" clip-rule="evenodd" d="M24.4415 26.5479C24.8693 26.092 25.1432 25.5133 25.2245 24.8934L29.8895 26.9664C30.1178 27.0682 30.368 27.1112 30.6172 27.0917C30.8664 27.0722 31.1068 26.9907 31.3165 26.8546C31.5262 26.7185 31.6986 26.5322 31.8179 26.3125C31.9373 26.0929 31.9999 25.8469 32 25.5969V14.4039C31.9998 14.1541 31.9372 13.9084 31.8179 13.6889C31.6986 13.4694 31.5264 13.2832 31.3169 13.1472C31.1074 13.0112 30.8673 12.9296 30.6183 12.9099C30.3693 12.8902 30.1193 12.933 29.891 13.0344L25.2245 15.1074C25.1292 14.3861 24.7749 13.7239 24.2277 13.2443C23.6805 12.7647 22.9776 12.5003 22.25 12.5004H14.408L15.479 14.0004H22.25C22.6478 14.0004 23.0294 14.1585 23.3107 14.4398C23.592 14.7211 23.75 15.1026 23.75 15.5004V24.5004C23.7503 24.7743 23.6756 25.043 23.534 25.2774L24.4415 26.5479ZM10.142 14.2704C9.94376 14.4085 9.78185 14.5925 9.67007 14.8067C9.55828 15.0208 9.49994 15.2588 9.5 15.5004V24.5004C9.5 24.8983 9.65804 25.2798 9.93934 25.5611C10.2206 25.8424 10.6022 26.0004 11 26.0004H18.521L19.592 27.5004H11C10.2044 27.5004 9.44129 27.1844 8.87868 26.6217C8.31607 26.0591 8 25.2961 8 24.5004V15.5004C8 14.4879 8.501 13.5924 9.2705 13.0494L10.1405 14.2704H10.142ZM30.5 25.5954L25.25 23.2629V16.7379L30.5 14.4039V25.5969V25.5954ZM23.8895 30.9354L8.8895 9.93543L10.1105 9.06543L25.1105 30.0654L23.8895 30.9354Z" fill="#2B2A29"/>
</svg>
