<svg width="20" height="20" viewBox="0 0 20 20" fill="none" xmlns="http://www.w3.org/2000/svg">
<path d="M7.20727 10.057L9.7709 12.6206C9.81 12.6594 9.84104 12.7055 9.86225 12.7564C9.88346 12.8072 9.89442 12.8617 9.89451 12.9168C9.89459 12.9719 9.8838 13.0264 9.86274 13.0773C9.84169 13.1282 9.81079 13.1744 9.77181 13.2133L9.32181 13.6633C9.28307 13.7028 9.23684 13.7341 9.18584 13.7554C9.13484 13.7768 9.08009 13.7877 9.0248 13.7876C8.96952 13.7876 8.9148 13.7764 8.86387 13.7549C8.81293 13.7334 8.7668 13.702 8.72818 13.6624L5.36454 10.2988C5.32531 10.26 5.29415 10.2138 5.27286 10.1629C5.25157 10.112 5.24057 10.0573 5.24048 10.0022C5.2404 9.94698 5.25123 9.89233 5.27237 9.84135C5.29351 9.79038 5.32452 9.74409 5.36363 9.70516L5.54181 9.52698C5.55041 9.51653 5.55951 9.50652 5.56909 9.49698L8.73181 6.33425C8.81167 6.25659 8.91901 6.21368 9.0304 6.21487C9.14179 6.21606 9.24818 6.26126 9.32636 6.34061L9.82454 6.83879C9.90411 6.91686 9.94947 7.02329 9.95066 7.13475C9.95185 7.24621 9.90879 7.35359 9.8309 7.43334L7.20727 10.057Z" fill="#3772FF"/>
<path d="M10.8366 10.0575L13.3993 12.6211C13.4385 12.6599 13.4696 12.706 13.4909 12.7568C13.5122 12.8076 13.5232 12.8621 13.5234 12.9171C13.5236 12.9722 13.5128 13.0268 13.4919 13.0777C13.4709 13.1286 13.4401 13.1749 13.4011 13.2139L12.9502 13.6639C12.9115 13.7032 12.8653 13.7344 12.8144 13.7556C12.7635 13.7769 12.7089 13.7878 12.6537 13.7877C12.5985 13.7876 12.5439 13.7766 12.493 13.7551C12.4422 13.7337 12.3961 13.7024 12.3575 13.663L8.99387 10.2993C8.95458 10.2606 8.92335 10.2144 8.90198 10.1635C8.88061 10.1127 8.86952 10.0581 8.86935 10.0029C8.86918 9.9477 8.87994 9.89303 8.901 9.84202C8.92205 9.79101 8.953 9.74468 8.99205 9.70568L9.17023 9.5275C9.17882 9.51706 9.18793 9.50705 9.1975 9.4975L12.3611 6.33478C12.441 6.25739 12.5481 6.21465 12.6593 6.21584C12.7704 6.21704 12.8766 6.26206 12.9548 6.34114L13.453 6.83932C13.5325 6.91738 13.5779 7.02382 13.5791 7.13528C13.5803 7.24674 13.5372 7.35412 13.4593 7.43387L10.8357 10.0575H10.8366Z" fill="#3772FF"/>
</svg>
