<svg width="35" height="35" viewBox="0 0 35 35" fill="none" xmlns="http://www.w3.org/2000/svg">
<path fill-rule="evenodd" clip-rule="evenodd" d="M14.937 11.8861L14.9599 11.7861C15.0037 11.6002 15.0753 11.3269 15.2232 11.0577C15.3741 10.7836 15.6078 10.5057 15.9745 10.3227C16.3399 10.1407 16.7978 10.0727 17.3641 10.1477C17.9891 10.2311 19.2445 10.4377 20.3537 11.0019C21.4691 11.5694 22.5141 12.5457 22.5141 14.1715C22.5141 15.0115 22.1891 15.9127 21.8741 16.5002C21.7228 16.7827 21.5432 17.0527 21.3632 17.1982C21.322 17.2315 21.2632 17.2732 21.1903 17.3023C20.9903 17.9596 20.5922 18.5391 20.0503 18.9616C19.5085 19.384 18.8493 19.6288 18.1631 19.6625C17.4768 19.6961 16.797 19.517 16.2164 19.1496C15.6358 18.7822 15.1828 18.2444 14.9195 17.6098L14.9095 17.6115L14.7616 17.4319L15.0832 17.1669L14.7616 17.4319L14.7612 17.4311L14.7603 17.4302L14.7582 17.4273L14.7512 17.419C14.7155 17.3746 14.6812 17.3292 14.6482 17.2827C14.5583 17.1579 14.4735 17.0295 14.3941 16.8977C14.1982 16.5736 13.962 16.1119 13.8107 15.5732C13.6599 15.0344 13.5907 14.4027 13.7491 13.7511C13.9032 13.1169 14.267 12.4927 14.9257 11.9352L14.937 11.8861ZM15.637 17.1519C15.8177 17.6716 16.1647 18.1172 16.6243 18.4197C17.0839 18.7222 17.6304 18.8647 18.1792 18.8252C18.728 18.7856 19.2484 18.5663 19.6599 18.201C20.0714 17.8358 20.351 17.345 20.4553 16.8048L20.5024 16.8207C20.5007 16.7971 20.4999 16.7735 20.4999 16.7498C20.4999 16.0602 20.4041 15.579 20.3149 15.279C20.2975 15.2206 20.2782 15.1628 20.257 15.1057L20.2399 15.1065H20.2232C19.9117 15.1132 19.6002 15.0895 19.2932 15.0357C18.5778 14.9148 17.6091 14.6132 16.4682 13.9144C16.4432 13.9702 16.4182 14.0332 16.3932 14.1032C16.3116 14.3344 16.2445 14.609 16.1866 14.899C16.1353 15.1544 16.0932 15.4115 16.0532 15.6523L16.0378 15.7473C15.9949 16.0057 15.952 16.2594 15.902 16.4432C15.8145 16.7623 15.7253 16.989 15.637 17.1515V17.1519ZM15.0537 16.3757C14.8655 16.0526 14.7177 15.7077 14.6137 15.3486C14.4891 14.9044 14.4432 14.4236 14.5591 13.9482C14.6716 13.4857 14.9437 12.9994 15.5032 12.5386C15.6041 12.4702 15.6499 12.3786 15.6624 12.354V12.3536C15.6843 12.3085 15.7019 12.2615 15.7149 12.2132C15.7282 12.1657 15.7428 12.1007 15.7566 12.0423L15.7712 11.9769C15.8107 11.809 15.862 11.6261 15.9537 11.459C16.0428 11.2973 16.1649 11.159 16.3466 11.0686C16.5291 10.9773 16.8116 10.9148 17.2541 10.974C17.8595 11.0544 18.9982 11.2473 19.9757 11.7448C20.9466 12.2386 21.6807 12.9861 21.6807 14.1715C21.6807 14.7173 21.4974 15.3382 21.2766 15.8277C21.2349 15.5086 21.1749 15.2477 21.1132 15.0411C21.0703 14.8934 21.0166 14.749 20.9528 14.609C20.9288 14.5571 20.9023 14.5064 20.8737 14.4569L20.8666 14.4457L20.8641 14.4415L20.8628 14.4394L20.862 14.4382L20.512 14.6632L20.862 14.4382L20.7078 14.199L20.432 14.2544L20.4262 14.2557L20.3857 14.2611C20.3237 14.268 20.2614 14.2721 20.1991 14.2736C19.9422 14.2785 19.6854 14.2584 19.4324 14.2136C18.7603 14.1002 17.7728 13.7915 16.5732 12.9927L16.2816 12.7982L16.0403 13.0523C15.8416 13.2615 15.7066 13.5469 15.6078 13.8248C15.507 14.1102 15.4307 14.429 15.3695 14.7348C15.3187 14.9951 15.2726 15.2562 15.2312 15.5182L15.2153 15.6115C15.1707 15.8827 15.1345 16.0898 15.0978 16.224C15.0841 16.2748 15.0694 16.3254 15.0537 16.3757ZM20.8374 16.5515L20.8391 16.5507L20.8374 16.5515ZM20.8391 16.5507L20.8374 16.5515L20.8387 16.5507H20.8391Z" fill="#4C956C"/>
<path fill-rule="evenodd" clip-rule="evenodd" d="M15.4642 20.0231C15.3758 19.8473 15.2671 19.6302 15.0833 19.6723C12.8317 20.1848 10.5 21.6644 10.5 23.2377V25.5002H25.5V23.2377C25.5 21.9985 24.0533 20.8173 22.3387 20.121L22.3367 20.1169C22.3348 20.1131 22.3328 20.1094 22.3308 20.1056L22.3171 20.1123C21.8617 19.929 21.3875 19.779 20.9167 19.6723C20.7071 19.6244 20.4904 19.9127 20.3958 20.0931H15.5C15.4883 20.0715 15.4767 20.0473 15.4642 20.0231ZM21.0846 20.5731C21.2667 20.6235 21.4479 20.6802 21.6267 20.7427C21.6317 20.8852 21.6208 21.0535 21.5975 21.2252C21.5737 21.4029 21.5358 21.5785 21.4842 21.7502H20.9167C20.8393 21.7502 20.7635 21.7718 20.6977 21.8125C20.6319 21.8532 20.5787 21.9114 20.5442 21.9806L20.1275 22.814C20.0985 22.8718 20.0834 22.9355 20.0833 23.0002V23.8335C20.0833 23.944 20.1272 24.05 20.2054 24.1282C20.2835 24.2063 20.3895 24.2502 20.5 24.2502H21.3333V23.4169H20.9167V23.0985L21.1742 22.5835H22.3258L22.5833 23.0985V23.4169H22.1667V24.2502H23C23.1105 24.2502 23.2165 24.2063 23.2946 24.1282C23.3728 24.05 23.4167 23.944 23.4167 23.8335V23.0002C23.4166 22.9355 23.4015 22.8718 23.3725 22.814L22.9558 21.9806C22.9213 21.9114 22.8681 21.8532 22.8023 21.8125C22.7365 21.7718 22.6607 21.7502 22.5833 21.7502H22.3475C22.399 21.5297 22.4335 21.3056 22.4508 21.0798C22.8571 21.2719 23.2346 21.4923 23.5617 21.7306C24.3625 22.3148 24.6667 22.8615 24.6667 23.2377V24.6669H11.3333V23.2377C11.3333 22.8615 11.6375 22.3148 12.4383 21.7306C12.8408 21.4369 13.3212 21.171 13.8362 20.951C13.8506 21.2831 13.9038 21.6123 13.995 21.9319L13.9983 21.9435C13.7492 22.1011 13.5638 22.3417 13.4749 22.6227C13.3859 22.9037 13.3992 23.2071 13.5122 23.4793C13.6253 23.7516 13.8309 23.9751 14.0928 24.1104C14.3546 24.2457 14.6559 24.2841 14.9433 24.2189C15.2308 24.1536 15.4859 23.9889 15.6637 23.7538C15.8415 23.5187 15.9304 23.2283 15.9149 22.934C15.8993 22.6396 15.7803 22.3602 15.5787 22.1451C15.3771 21.9301 15.1061 21.7931 14.8133 21.7585C14.7601 21.5842 14.7211 21.4058 14.6967 21.2252C14.6735 21.0637 14.6639 20.9004 14.6679 20.7373C14.6691 20.7061 14.6712 20.675 14.6742 20.644C14.7242 20.6285 14.7742 20.6135 14.8242 20.5994L14.9971 20.9269H20.8988L21.0846 20.5735V20.5731ZM14.6667 23.4235C14.8908 23.4235 15.0833 23.2402 15.0833 23.0006C15.0833 22.7615 14.8908 22.5777 14.6667 22.5777C14.4425 22.5777 14.25 22.761 14.25 23.0006C14.25 23.2398 14.4425 23.4235 14.6667 23.4235Z" fill="#4C956C"/>
<circle cx="17.5" cy="17.5" r="17" stroke="#4C956C"/>
</svg>
