<svg width="181" height="130" viewBox="0 0 181 130" fill="none" xmlns="http://www.w3.org/2000/svg">
<rect width="181" height="130" fill="white"/>
<path d="M135.31 31.3233C136.54 25.6992 133.305 20.0655 128.085 18.7401C122.865 17.4148 117.635 20.8996 116.405 26.5238C115.175 32.148 118.41 37.7817 123.63 39.107C128.85 40.4324 134.08 36.9475 135.31 31.3233Z" fill="#E0E0E0"/>
<path d="M130.276 29.25C130.163 29.2694 130.048 29.2781 129.934 29.276L128.988 29.2942C128.189 29.2942 127.072 29.315 125.812 29.3176H125.749V28.5714C125.749 27.0556 125.749 25.6828 125.768 24.6922C125.768 24.2112 125.783 23.816 125.788 23.5144C125.786 23.37 125.794 23.2258 125.812 23.0828C125.831 23.2256 125.84 23.37 125.836 23.5144C125.836 23.816 125.848 24.2112 125.858 24.6922C125.858 25.6828 125.875 27.0556 125.875 28.5714V29.25L125.812 29.1824C127.072 29.1824 128.189 29.1824 128.988 29.2058L129.934 29.2266C130.048 29.2247 130.163 29.2325 130.276 29.25Z" fill="#FAFAFA"/>
<path d="M125.841 20.1838C125.906 20.4712 125.928 20.7678 125.907 21.0626C125.928 21.3574 125.906 21.654 125.841 21.9414C125.779 21.6535 125.758 21.3572 125.778 21.0626C125.758 20.7679 125.779 20.4717 125.841 20.1838Z" fill="#FAFAFA"/>
<path d="M130.267 21.5956C130.124 21.8432 129.948 22.0659 129.743 22.256C129.566 22.4766 129.36 22.6668 129.13 22.8202C129.272 22.5726 129.449 22.3499 129.654 22.1598C129.83 21.9392 130.037 21.7489 130.267 21.5956Z" fill="#FAFAFA"/>
<path d="M132.854 24.6402C132.65 24.8289 132.425 24.9904 132.185 25.1212C131.967 25.2905 131.73 25.431 131.48 25.5398C131.87 25.1329 132.339 24.8254 132.854 24.6402Z" fill="#FAFAFA"/>
<path d="M134.372 29.159C133.632 29.2491 132.886 29.2491 132.146 29.159C132.886 29.0688 133.632 29.0688 134.372 29.159Z" fill="#FAFAFA"/>
<path d="M118.943 29.0004C118.246 29.0905 117.541 29.0905 116.844 29.0004C117.541 28.9103 118.246 28.9103 118.943 29.0004Z" fill="#FAFAFA"/>
<path d="M120.037 32.3648C119.801 32.6569 119.534 32.9186 119.243 33.1448C118.977 33.4046 118.684 33.6298 118.369 33.8156C118.604 33.5228 118.871 33.261 119.163 33.0356C119.428 32.7748 119.721 32.5496 120.037 32.3648Z" fill="#FAFAFA"/>
<path d="M122.727 34.9648C122.572 35.3157 122.391 35.653 122.187 35.9736C122.021 36.3194 121.829 36.6498 121.612 36.9616C121.717 36.5865 121.874 36.2306 122.078 35.906C122.248 35.5582 122.467 35.2407 122.727 34.9648Z" fill="#FAFAFA"/>
<path d="M125.841 38.3214C125.779 37.9256 125.758 37.5236 125.778 37.1228C125.758 36.722 125.779 36.32 125.841 35.9242C125.906 36.3196 125.928 36.7219 125.907 37.1228C125.928 37.5237 125.906 37.926 125.841 38.3214Z" fill="#FAFAFA"/>
<path d="M130.635 36.725C130.296 36.5561 129.986 36.3266 129.718 36.0464C129.424 35.8004 129.172 35.5013 128.973 35.1624C129.262 35.4059 129.539 35.6663 129.803 35.9424C130.094 36.1859 130.372 36.4472 130.635 36.725Z" fill="#FAFAFA"/>
<path d="M132.888 34.1146C132.62 33.9153 132.377 33.6803 132.164 33.4152C131.917 33.1817 131.699 32.9152 131.515 32.6222C131.787 32.8204 132.035 33.0545 132.253 33.319C132.495 33.5543 132.708 33.8216 132.888 34.1146Z" fill="#FAFAFA"/>
<path d="M119.942 25.7764C119.7 25.61 119.481 25.4068 119.293 25.1732C119.075 24.9695 118.886 24.7331 118.73 24.4712C118.974 24.6384 119.193 24.8424 119.382 25.077C119.599 25.2799 119.788 25.5155 119.942 25.7764Z" fill="#FAFAFA"/>
<path d="M122.71 22.62C122.471 22.4586 122.255 22.2597 122.071 22.0298C121.856 21.8323 121.671 21.6008 121.521 21.3434C121.759 21.5058 121.974 21.7046 122.16 21.9336C122.373 22.1324 122.559 22.3637 122.71 22.62Z" fill="#FAFAFA"/>
<path d="M14.0959 53.4689H14.2503H14.692L16.362 53.4482L22.3085 53.391L22.2578 53.4482C22.2433 50.2554 22.224 46.4126 22.2047 42.2682L22.2674 42.3358H21.1645H20.0785H17.9669H14.0549L14.1104 42.2734C14.1104 45.5806 14.1104 48.3652 14.1104 50.3334C14.1104 51.3135 14.1104 52.0884 14.1104 52.6266C14.1104 52.8866 14.1104 53.0894 14.1104 53.235C14.1104 53.3026 14.1104 53.352 14.1104 53.3936C14.1128 53.4125 14.1128 53.4318 14.1104 53.4508C14.1093 53.4343 14.1093 53.4178 14.1104 53.4014C14.1104 53.3624 14.1104 53.313 14.1104 53.2506C14.1104 53.1076 14.1104 52.9073 14.1104 52.6525C14.1104 52.117 14.0983 51.3526 14.0887 50.375C14.0742 48.399 14.0525 45.6014 14.0283 42.2812V42.2188H14.0838L17.9983 42.1953H20.1099H21.1959H22.2964C22.2409 42.1355 22.376 42.2786 22.3616 42.2656C22.3616 46.3996 22.3833 50.2424 22.3929 53.4456V53.5028H16.3596H14.7041H14.2721L14.0959 53.4689Z" fill="#E0E0E0"/>
<path d="M18.6205 53.2818H17.4814V53.5808H18.6205V53.2818Z" fill="#EBEBEB"/>
<path d="M19.2962 46.2696H16.8057V50.1462H19.2962V46.2696Z" fill="#E0E0E0"/>
<path d="M18.9399 42.1261L17.8008 42.131L17.8017 42.3858L18.9408 42.3809L18.9399 42.1261Z" fill="#EBEBEB"/>
<path d="M155.283 22.704L146.862 23.5648L147.401 29.6786L155.822 28.8178L155.283 22.704Z" fill="white"/>
<path d="M155.819 28.8236C155.812 28.7859 155.807 28.7477 155.804 28.7092C155.804 28.626 155.783 28.5194 155.768 28.3816C155.742 28.0904 155.701 27.6744 155.648 27.1492C155.549 26.0806 155.406 24.5492 155.23 22.7136L155.286 22.763L146.868 23.6366L146.923 23.5638V23.608V23.66V23.7614L146.94 23.9642L146.977 24.3698C146.998 24.6298 147.022 24.9054 147.046 25.1706C147.093 25.701 147.138 26.221 147.182 26.7306C147.271 27.755 147.358 28.7378 147.437 29.6712L147.375 29.614L153.43 29.0264L155.17 28.8652L155.636 28.8262H155.756C155.785 28.8262 155.8 28.8262 155.8 28.8262C155.75 28.8379 155.7 28.8457 155.65 28.8496L155.196 28.9016L153.473 29.094L147.387 29.7492H147.329V29.6868C147.244 28.756 147.158 27.7706 147.066 26.7488C147.019 26.2288 146.972 25.7088 146.926 25.1888C146.904 24.9288 146.88 24.6688 146.856 24.388L146.82 23.9824L146.803 23.7796V23.6782V23.6262V23.582L146.861 23.5066L155.281 22.659H155.331V22.711C155.484 24.5752 155.609 26.1092 155.698 27.1856C155.739 27.7056 155.771 28.119 155.792 28.4102C155.792 28.5428 155.809 28.6468 155.817 28.7274C155.819 28.7594 155.82 28.7915 155.819 28.8236Z" fill="#E0E0E0"/>
<path d="M155.281 22.7084C155.206 22.8318 155.12 22.9476 155.025 23.0542L154.287 23.9694C153.659 24.7494 152.783 25.7894 151.801 26.975L151.767 27.0166L151.721 26.9854L151.497 26.832C150.208 25.948 149.045 25.1394 148.205 24.5492L147.213 23.8446L146.948 23.647C146.887 23.6002 146.856 23.5742 146.859 23.569C146.894 23.5824 146.928 23.6008 146.96 23.6236L147.24 23.8004L148.251 24.4686C149.101 25.038 150.273 25.8336 151.562 26.7176L151.787 26.8736H151.707C152.692 25.7088 153.58 24.6584 154.212 23.92L154.979 23.0334C155.073 22.9173 155.173 22.8087 155.281 22.7084Z" fill="#E0E0E0"/>
<path d="M108.182 21.593C108.257 21.5809 108.328 21.5517 108.392 21.5072C108.464 21.4471 108.516 21.363 108.539 21.268C108.554 21.1334 108.558 20.9977 108.551 20.8624C108.551 20.228 108.551 19.331 108.566 18.226C108.566 17.9478 108.566 17.6566 108.566 17.3524C108.566 17.2016 108.566 17.0456 108.566 16.887C108.572 16.8118 108.572 16.7361 108.566 16.6608C108.551 16.5916 108.519 16.5279 108.474 16.4762C108.427 16.4255 108.368 16.3911 108.303 16.3774C108.229 16.3733 108.155 16.3733 108.081 16.3774H106.604H102.161C102.078 16.3817 102 16.4185 101.942 16.4809C101.883 16.5432 101.847 16.6267 101.842 16.7154C101.842 16.9234 101.842 17.1314 101.842 17.3368C101.842 17.7502 101.842 18.1558 101.825 18.5562C101.813 19.357 101.801 20.1162 101.789 20.865C101.789 20.9586 101.789 21.0496 101.789 21.1406C101.783 21.2191 101.801 21.2975 101.84 21.3642C101.875 21.4303 101.931 21.4816 101.997 21.5098C102.069 21.5316 102.144 21.5395 102.219 21.5332H103.16H104.849L107.296 21.554H107.962H108.134H108.194H108.134H107.962L107.296 21.567L104.849 21.5878H103.16H102.219C102.131 21.5946 102.042 21.584 101.958 21.5566C101.869 21.5199 101.793 21.4522 101.743 21.3642C101.694 21.2767 101.669 21.1754 101.673 21.073C101.673 20.982 101.673 20.891 101.673 20.813C101.673 20.0746 101.693 19.3024 101.702 18.5042C101.702 18.1038 101.702 17.6956 101.717 17.2822C101.717 17.0742 101.717 16.8636 101.717 16.653C101.726 16.5299 101.777 16.4149 101.86 16.3303C101.944 16.2457 102.053 16.1976 102.168 16.1954H106.611H108.088C108.168 16.1893 108.249 16.1893 108.329 16.1954C108.415 16.214 108.493 16.2603 108.554 16.328C108.614 16.3946 108.654 16.4787 108.669 16.5698C108.678 16.6562 108.678 16.7434 108.669 16.8298C108.669 16.9884 108.669 17.1418 108.669 17.2952C108.669 17.5968 108.657 17.888 108.653 18.1688C108.631 19.2712 108.612 20.1682 108.6 20.8026C108.601 20.9418 108.592 21.081 108.573 21.2186C108.548 21.3244 108.488 21.4168 108.404 21.4786C108.354 21.5141 108.297 21.5364 108.238 21.5436C108.222 21.564 108.203 21.5808 108.182 21.593Z" fill="#E0E0E0"/>
<path d="M105.433 18.5042L106.256 19.0424L105.414 19.5754L104.574 20.1058L104.591 19.0372L104.608 17.966L105.433 18.5042Z" fill="#E0E0E0"/>
<path d="M36.8541 15.9432H24.8984V32.7366L36.8541 33.059V15.9432Z" fill="#EBEBEB"/>
<path d="M35.9945 16.5412H25.5352V31.772L35.9945 32.1516V16.5412Z" fill="#FAFAFA"/>
<path d="M34.2352 19.3076L27.292 19.0242V29.6686H34.2352V19.3076Z" fill="#E0E0E0"/>
<path d="M27.292 29.6686L34.2352 24.2008L27.292 19.0242V29.6686Z" fill="#F5F5F5"/>
<path d="M125.932 105.609C121.556 102.318 120.565 96.2052 120.738 90.7114C120.767 89.7936 120.673 88.8264 121.079 88.023C121.484 87.2196 122.428 86.6684 123.19 87.0532C123.823 87.3756 124.098 88.166 124.452 88.8212C124.924 89.6956 125.616 90.4079 126.448 90.8752C126.991 91.1794 127.655 91.364 128.196 91.0468C128.92 90.61 129.016 89.518 129.011 88.6054L128.982 83.5042C128.982 82.5942 128.982 81.6608 129.238 80.795C129.494 79.9292 130.083 79.1258 130.889 78.884C131.695 78.6422 132.689 79.144 132.861 80.0332C132.892 80.4109 132.9 80.7905 132.885 81.1694C132.906 81.5464 133.07 81.9676 133.404 82.0716C133.737 82.1756 134.082 81.9208 134.335 81.653C135.209 80.7326 135.802 79.547 136.355 78.3666C136.908 77.1862 137.448 75.9772 138.24 74.9736C139.031 73.97 140.129 73.1744 141.343 73.099C142.557 73.0236 143.846 73.8322 144.152 75.114C144.459 76.3958 143.764 77.714 143.006 78.754C141.882 80.2975 140.557 81.6583 139.072 82.7944C138.783 82.9655 138.552 83.2326 138.414 83.5562C138.23 84.1646 138.764 84.7678 139.321 84.968C139.953 85.1942 140.639 85.124 141.298 85.2072C141.956 85.2904 142.673 85.605 142.922 86.2784C143.269 87.2092 142.545 88.1868 141.833 88.8264C140.407 90.109 138.787 91.117 137.043 91.806C136.42 92.053 135.764 92.2688 135.262 92.7394C134.76 93.21 135.539 94.8792 135.843 95.5214C136.147 96.1636 135.843 95.5214 136.495 95.3914C137.147 95.2614 137.731 94.8714 138.353 94.627C139.516 94.1538 141.008 94.2396 141.763 95.3238C142.246 96.0362 142.297 97.0268 142.048 97.877C141.765 98.7131 141.329 99.4796 140.767 100.131C138.922 102.517 136.523 104.333 133.814 105.394C131.116 106.402 128.615 106.675 125.932 105.617" fill="#EBEBEB"/>
<path d="M125.867 109.684C126.104 107.135 126.567 104.617 127.25 102.164C128.097 99.1719 129.102 96.2342 130.262 93.366C130.564 92.6016 130.865 91.8476 131.16 91.104C131.454 90.3604 131.751 89.6246 132.079 88.9252C132.713 87.5831 133.415 86.2794 134.181 85.02C134.905 83.8136 135.629 82.6956 136.324 81.6556C137.019 80.6156 137.676 79.6588 138.313 78.8164C139.313 77.4806 140.41 76.2321 141.592 75.0828C142.01 74.6772 142.343 74.373 142.572 74.1702L142.833 73.9414C142.862 73.9141 142.894 73.8897 142.927 73.8686C142.901 73.8995 142.873 73.9282 142.843 73.9544L142.601 74.1962C142.379 74.4068 142.053 74.7162 141.636 75.1322C140.472 76.2968 139.391 77.5535 138.402 78.8918C137.772 79.7394 137.116 80.6962 136.43 81.7362C135.745 82.7762 135.023 83.8994 134.302 85.1162C133.541 86.3747 132.844 87.6766 132.214 89.0162C131.888 89.713 131.596 90.441 131.3 91.1872C131.003 91.9334 130.704 92.6848 130.402 93.4492C129.244 96.3116 128.237 99.2422 127.385 102.227C126.699 104.663 126.227 107.163 125.976 109.694" fill="#E0E0E0"/>
<path d="M132.124 88.92C132.085 88.7943 132.057 88.6645 132.042 88.5326C131.996 88.2726 131.943 87.9138 131.885 87.4588C131.765 86.5514 131.644 85.2904 131.506 83.8994C131.369 82.5084 131.229 81.2552 131.099 80.3504C131.033 79.898 130.978 79.534 130.935 79.2818C130.905 79.1524 130.89 79.0198 130.889 78.8866C130.936 79.0099 130.971 79.138 130.995 79.2688C131.055 79.5158 131.128 79.8798 131.205 80.3296C131.367 81.2318 131.526 82.4902 131.661 83.8812C131.796 85.2722 131.902 86.4942 131.994 87.4432C132.035 87.8722 132.071 88.2232 132.1 88.5222C132.122 88.6534 132.13 88.7868 132.124 88.92Z" fill="#E0E0E0"/>
<path d="M143.009 86.7256C142.866 86.7598 142.72 86.779 142.574 86.7828C142.297 86.8088 141.891 86.8452 141.394 86.9076C140.397 87.0246 139.024 87.2352 137.533 87.542C136.041 87.8488 134.663 88.192 133.698 88.4676C133.215 88.6028 132.822 88.7276 132.552 88.8056C132.414 88.8585 132.272 88.896 132.127 88.9174C132.257 88.8465 132.393 88.7882 132.532 88.7432C132.798 88.6418 133.186 88.504 133.669 88.3532C134.634 88.0438 135.986 87.685 137.494 87.373C138.781 87.1076 140.079 86.9124 141.384 86.788C141.886 86.7412 142.294 86.723 142.574 86.7178C142.719 86.707 142.864 86.7097 143.009 86.7256Z" fill="#E0E0E0"/>
<path d="M127.383 101.949C127.353 101.904 127.328 101.856 127.308 101.806L127.122 101.382C126.963 101.013 126.743 100.472 126.483 99.801C125.957 98.4568 125.276 96.577 124.571 94.4918C123.867 92.4066 123.201 90.519 122.704 89.167C122.462 88.5092 122.257 87.9684 122.107 87.5654L121.948 87.1286C121.927 87.0789 121.911 87.0265 121.902 86.9726C121.934 87.0161 121.959 87.0642 121.977 87.1156C122.028 87.23 122.091 87.3756 122.163 87.5394C122.325 87.9086 122.542 88.4494 122.805 89.1202C123.331 90.4644 124.012 92.3442 124.716 94.432C125.421 96.5198 126.085 98.4022 126.584 99.7542L127.178 101.356C127.243 101.53 127.294 101.676 127.337 101.793C127.36 101.842 127.375 101.894 127.383 101.949Z" fill="#E0E0E0"/>
<path d="M141.848 96.928C141.802 96.9545 141.753 96.9755 141.703 96.9904L141.283 97.1438L139.731 97.6846C138.423 98.1396 136.625 98.7948 134.637 99.5176C132.648 100.24 130.843 100.88 129.525 101.309C128.866 101.522 128.333 101.689 127.961 101.798L127.532 101.917C127.483 101.937 127.432 101.947 127.38 101.949C127.426 101.922 127.474 101.901 127.525 101.886L127.945 101.735L129.492 101.195C130.8 100.737 132.6 100.082 134.589 99.359C136.577 98.6362 138.382 97.9966 139.7 97.5676C140.359 97.3544 140.892 97.188 141.264 97.0788L141.693 96.9592C141.743 96.9398 141.795 96.9292 141.848 96.928Z" fill="#E0E0E0"/>
<path d="M14.0557 115.786C14.0557 115.747 49.4424 115.718 93.0851 115.718C136.728 115.718 172.122 115.747 172.122 115.786C172.122 115.825 136.742 115.853 93.0851 115.853C49.4279 115.853 14.0557 115.822 14.0557 115.786Z" fill="#667499"/>
<path d="M42.0304 45.6404C42.0304 45.6404 37.5102 98.215 46.9295 115.118L130.706 116.184C130.706 116.184 116.829 70.6108 118.031 44.265L42.0304 45.6404Z" fill="#E0E0E0"/>
<path d="M42.0302 45.6404C42.0302 45.6404 36.7209 99.853 53.2643 111.439H134.005C134.005 111.439 119.674 84.9732 118.545 45.6404H42.0302Z" fill="#EBEBEB"/>
<path d="M120.169 32.9628H41.6201V46.5322H120.169V32.9628Z" fill="#667499"/>
<path d="M48.6406 33.0694C48.6406 33.0694 49.4322 30.004 52.3185 30.004C54.7777 30.004 55.9965 32.1308 55.9965 34.0808C55.9965 36.0308 54.8791 38.0926 52.3185 38.2408" stroke="#E0E0E0" stroke-width="3" stroke-linecap="round" stroke-linejoin="round"/>
<path d="M51.3485 32.916H47.4727V34.7802H51.3485V32.916Z" fill="#667499"/>
<path d="M63.5625 33.0694C63.5625 33.0694 64.3541 30.004 67.2404 30.004C69.6996 30.004 70.9183 32.1308 70.9183 34.0808C70.9183 36.0308 69.801 38.0926 67.2404 38.2408" stroke="#E0E0E0" stroke-width="3" stroke-linecap="round" stroke-linejoin="round"/>
<path d="M66.2723 32.916H62.3965V34.7802H66.2723V32.916Z" fill="#667499"/>
<path d="M78.4863 33.0694C78.4863 33.0694 79.2779 30.004 82.1642 30.004C84.6234 30.004 85.8422 32.1308 85.8422 34.0808C85.8422 36.0308 84.7248 38.0926 82.1642 38.2408" stroke="#E0E0E0" stroke-width="3" stroke-linecap="round" stroke-linejoin="round"/>
<path d="M81.1942 32.916H77.3184V34.7802H81.1942V32.916Z" fill="#667499"/>
<path d="M93.4082 33.0694C93.4082 33.0694 94.1998 30.004 97.0861 30.004C99.5453 30.004 100.764 32.1308 100.764 34.0808C100.764 36.0308 99.6467 38.0926 97.0861 38.2408" stroke="#E0E0E0" stroke-width="3" stroke-linecap="round" stroke-linejoin="round"/>
<path d="M96.118 32.916H92.2422V34.7802H96.118V32.916Z" fill="#667499"/>
<path d="M108.332 33.0694C108.332 33.0694 109.124 30.004 112.01 30.004C114.469 30.004 115.688 32.1308 115.688 34.0808C115.688 36.0308 114.57 38.0926 112.01 38.2408" stroke="#E0E0E0" stroke-width="3" stroke-linecap="round" stroke-linejoin="round"/>
<path d="M111.04 32.916H107.164V34.7802H111.04V32.916Z" fill="#667499"/>
<path d="M41.6277 47.0366C41.6277 47.0366 40.7589 107.453 58.9361 107.453L133.602 107.481C133.602 107.481 122.93 95.7502 119.769 47.0366H41.6277Z" fill="#F5F5F5"/>
<path d="M122.949 99.996C122.933 99.944 122.853 99.6996 122.677 99.1693C122.501 98.6389 122.228 97.8276 121.902 96.7617C121.234 94.6427 120.3 91.5097 119.23 87.4615C117.08 79.3703 114.488 67.5792 112.473 53.0478L112.524 53.0947H49.2149H48.6115L48.6743 53.0167C49.8134 61.7631 50.9838 70.2884 52.8783 78.273C53.7858 82.1762 54.933 86.0102 56.3125 89.7495C57.6217 93.2928 59.209 96.7094 61.0571 99.9622L61.0088 99.9336L122.947 99.996L61.0088 100.056H60.9774L60.9605 100.027C59.1061 96.7732 57.5124 93.3548 56.1966 89.8093C54.8151 86.0656 53.6655 82.2274 52.7552 78.3199C50.8559 70.3249 49.6855 61.7968 48.5439 53.0478V52.9698H49.2197L112.529 52.9828H112.572V53.0297C114.578 67.5611 117.157 79.3521 119.286 87.4432C120.348 91.494 121.27 94.6296 121.941 96.7512C122.612 98.8728 122.918 99.8895 122.949 99.996Z" fill="#667499"/>
<path d="M116.242 76.4817C116.242 76.5207 101.984 76.5493 84.4009 76.5493C66.8174 76.5493 52.5449 76.5207 52.5449 76.4817C52.5449 76.4427 66.8005 76.4141 84.4009 76.4141C102.001 76.4141 116.242 76.4401 116.242 76.4817Z" fill="#667499"/>
<path d="M119.675 89.0318C119.675 89.0682 105.412 89.0994 87.8189 89.0994C70.2257 89.0994 55.9629 89.0682 55.9629 89.0318C55.9629 88.9954 70.2209 88.9642 87.8189 88.9642C105.417 88.9642 119.675 88.9928 119.675 89.0318Z" fill="#667499"/>
<path d="M114.088 64.389C114.088 64.4254 99.8302 64.4566 82.2466 64.4566C64.6631 64.4566 50.3906 64.4254 50.3906 64.389C50.3906 64.3526 64.6462 64.3214 82.2466 64.3214C99.8471 64.3214 114.088 64.35 114.088 64.389Z" fill="#667499"/>
<path d="M71.386 99.9961C71.386 99.9961 71.3715 99.9571 71.3473 99.879C71.3232 99.801 71.287 99.6788 71.2436 99.5307C71.1519 99.216 71.0215 98.7637 70.8526 98.1865C70.5147 97.0191 70.0417 95.3265 69.4698 93.2283C68.3331 89.0319 66.8272 83.213 65.3671 76.7286C64.6431 73.4864 63.9939 70.3846 63.4364 67.5558C62.8789 64.727 62.4228 62.1713 62.0681 60.0159C61.8822 58.9395 61.7302 57.9645 61.5854 57.1091C61.4406 56.2537 61.3441 55.5153 61.2524 54.9121C61.1607 54.3089 61.1003 53.8435 61.0545 53.5211C61.0352 53.3651 61.0183 53.2455 61.0062 53.1571C60.9941 53.0687 60.9941 53.0349 60.9941 53.0349C61.0051 53.0741 61.014 53.1141 61.0207 53.1545C61.0352 53.2429 61.0545 53.3625 61.081 53.5159L61.3006 54.9017C61.3923 55.5049 61.513 56.2433 61.6554 57.0961C61.7978 57.9489 61.9546 58.9161 62.1381 59.9977C62.5049 62.1479 62.9827 64.6985 63.533 67.5377C64.0832 70.3769 64.7396 73.463 65.4636 76.7052C66.9116 83.187 68.4103 89.0084 69.5253 93.2101C70.0852 95.3083 70.5437 97.006 70.8695 98.1786C71.0264 98.761 71.1494 99.2186 71.2363 99.528L71.328 99.8817C71.3787 99.9545 71.386 99.9961 71.386 99.9961Z" fill="#667499"/>
<path d="M83.7426 99.996C83.7426 99.996 83.7281 99.957 83.704 99.8764L83.6026 99.528L83.2213 98.1812C82.8907 97.0138 82.4273 95.3212 81.8626 93.2178C80.7428 89.0162 79.2272 83.2 77.7599 76.7208C76.2926 70.2416 75.127 64.3266 74.4126 60.0236C74.2292 58.9498 74.0699 57.9748 73.9444 57.1168C73.8189 56.2588 73.7031 55.523 73.6186 54.9172C73.5342 54.3114 73.4738 53.8512 73.4304 53.5262C73.4111 53.3702 73.3966 53.2506 73.3845 53.1622C73.3725 53.0738 73.3652 53.04 73.3652 53.04C73.3652 53.04 73.3652 53.079 73.3894 53.1622L73.4473 53.521C73.498 53.846 73.568 54.301 73.6597 54.9094C73.7514 55.5178 73.8672 56.251 74.0048 57.1064C74.1423 57.9618 74.304 58.9264 74.4874 60.008C75.2235 64.3032 76.3843 70.213 77.8661 76.6896C79.3479 83.1662 80.8393 88.9824 81.9374 93.1892L83.2599 98.1682C83.4144 98.7506 83.5326 99.2082 83.6171 99.5202L83.7064 99.8738C83.7211 99.9136 83.7332 99.9544 83.7426 99.996Z" fill="#667499"/>
<path d="M96.6542 99.996C96.6387 99.9578 96.625 99.9188 96.6132 99.879C96.589 99.7932 96.5528 99.6788 96.507 99.5306L96.1136 98.1864C95.7685 97.0216 95.2882 95.3264 94.7018 93.2464C93.5434 89.0552 91.9772 83.252 90.4809 76.7754C88.9846 70.2988 87.8455 64.3656 87.1891 60.06C87.0226 58.9836 86.8754 58.006 86.7644 57.1454C86.6533 56.2848 86.5472 55.5464 86.482 54.938C86.4168 54.3296 86.3613 53.8668 86.3251 53.5392C86.3082 53.3858 86.2962 53.2636 86.2865 53.1752C86.2769 53.0868 86.2865 53.053 86.2865 53.053C86.2865 53.053 86.2865 53.092 86.3058 53.1752L86.3565 53.5366C86.3999 53.8616 86.4603 54.3166 86.5375 54.9302C86.6147 55.5438 86.7185 56.277 86.8416 57.135C86.9647 57.993 87.1119 58.968 87.2832 60.0444C87.9638 64.3552 89.1029 70.2728 90.6088 76.7442C92.1147 83.2156 93.6568 89.024 94.7959 93.2204C95.3727 95.3134 95.8409 97.006 96.1667 98.1838C96.326 98.7662 96.4515 99.2238 96.5384 99.5358C96.5786 99.6849 96.61 99.8019 96.6325 99.8868C96.647 99.9544 96.6542 99.996 96.6542 99.996Z" fill="#667499"/>
<path d="M109.565 99.996C109.549 99.9578 109.536 99.9188 109.524 99.879L109.415 99.5306C109.319 99.2186 109.174 98.7688 109.007 98.1916C108.655 97.0294 108.158 95.3316 107.559 93.2516C106.353 89.0708 104.745 83.278 103.215 76.8066C102.443 73.5722 101.767 70.473 101.236 67.6364C100.952 66.222 100.727 64.8674 100.512 63.6038C100.411 62.9694 100.314 62.3576 100.22 61.7682C100.126 61.1806 100.039 60.6138 99.9791 60.073C99.3371 55.744 99.1875 53.04 99.1875 53.04C99.1875 53.04 99.1875 53.0816 99.2044 53.1622C99.2213 53.2428 99.2285 53.3702 99.2454 53.5262C99.2792 53.8538 99.3251 54.3244 99.3878 54.9276C99.4506 55.5308 99.5399 56.277 99.6436 57.1376C99.7474 57.9982 99.885 58.9784 100.037 60.0574C100.109 60.5982 100.201 61.165 100.298 61.7526C100.394 62.3402 100.493 62.9512 100.594 63.5856C100.824 64.8466 101.053 66.1986 101.338 67.6104C101.886 70.4418 102.557 73.541 103.326 76.7754C104.859 83.2416 106.464 89.037 107.637 93.223L109.051 98.176C109.217 98.7558 109.348 99.216 109.437 99.5228C109.478 99.6736 109.509 99.7828 109.533 99.8738C109.558 99.9648 109.565 99.996 109.565 99.996Z" fill="#667499"/>
<path d="M62.944 57.6888C62.944 57.6888 63.487 63.3854 65.5866 66.9422H77.9501C77.9501 66.9422 74.9455 61.1806 74.5714 57.1766L74.3011 54.9328H62.7461L62.944 57.6888Z" fill="#455A64"/>
<path d="M73.2054 58.6872C73.2054 58.7262 71.4461 58.7548 69.2741 58.7548C67.1021 58.7548 65.3428 58.7262 65.3428 58.6872C65.3428 58.6482 67.1021 58.6196 69.2741 58.6196C71.4461 58.6196 73.2054 58.6508 73.2054 58.6872Z" fill="#FAFAFA"/>
<path d="M73.6068 60.1277C73.6068 60.1667 71.8475 60.1953 69.6755 60.1953C67.5035 60.1953 65.7441 60.1667 65.7441 60.1277C65.7441 60.0887 67.5035 60.0601 69.6755 60.0601C71.8475 60.0601 73.6068 60.0913 73.6068 60.1277Z" fill="#FAFAFA"/>
<path d="M73.9925 61.568C73.9925 61.6044 72.2331 61.6356 70.0611 61.6356C67.8891 61.6356 66.125 61.6044 66.125 61.568C66.125 61.5316 67.8843 61.5004 70.0563 61.5004C72.2283 61.5004 73.9925 61.5316 73.9925 61.568Z" fill="#FAFAFA"/>
<path d="M74.3861 63.0085C74.3861 63.0449 72.6268 63.0761 70.4548 63.0761C68.2828 63.0761 66.5234 63.0449 66.5234 63.0085C66.5234 62.9721 68.2828 62.9409 70.4548 62.9409C72.6268 62.9409 74.3861 62.9695 74.3861 63.0085Z" fill="#FAFAFA"/>
<path d="M105.374 71.7314C105.374 71.7314 105.917 77.428 108.016 80.9822H120.375C120.375 80.9822 117.37 75.2232 116.996 71.2192L116.726 68.9728H105.166L105.374 71.7314Z" fill="#667499"/>
<path d="M115.635 72.4438C115.635 72.4828 113.876 72.5114 111.704 72.5114C109.532 72.5114 107.772 72.4828 107.772 72.4438C107.772 72.4048 109.534 72.3762 111.704 72.3762C113.873 72.3762 115.635 72.4074 115.635 72.4438Z" fill="#E0E0E0"/>
<path d="M116.028 73.8843C116.028 73.9207 114.268 73.9518 112.096 73.9518C109.924 73.9518 108.165 73.9207 108.165 73.8843C108.165 73.8479 109.924 73.8167 112.096 73.8167C114.268 73.8167 116.028 73.8401 116.028 73.8843Z" fill="#E0E0E0"/>
<path d="M116.421 75.3246C116.421 75.361 114.662 75.3922 112.49 75.3922C110.318 75.3922 108.559 75.361 108.559 75.3246C108.559 75.2882 110.318 75.257 112.49 75.257C114.662 75.257 116.421 75.2882 116.421 75.3246Z" fill="#E0E0E0"/>
<path d="M116.805 76.7651C116.805 76.8015 115.046 76.8327 112.874 76.8327C110.702 76.8327 108.942 76.8015 108.942 76.7651C108.942 76.7287 110.702 76.6974 112.874 76.6974C115.046 76.6974 116.805 76.7261 116.805 76.7651Z" fill="#E0E0E0"/>
<path d="M97.3974 54.1035C97.5253 54.2153 95.9253 56.5111 93.5071 58.8875C91.0889 61.2639 88.8349 62.7875 88.7432 62.6445C88.6515 62.5015 90.7052 60.7413 93.0872 58.3883C95.4692 56.0353 97.2574 53.9761 97.3974 54.1035Z" fill="#D1E1FC"/>
<path d="M99.7404 62.8602C99.639 63.0136 96.9385 61.1208 93.6129 58.7834C90.2873 56.446 87.5965 54.5402 87.6858 54.3634C87.775 54.1866 90.6204 55.8532 93.9604 58.2036C97.3005 60.554 99.8393 62.7094 99.7404 62.8602Z" fill="#D1E1FC"/>
<path d="M76.4205 61.802C76.3143 61.6538 78.093 60.0054 80.3905 58.1204C82.688 56.2354 84.6355 54.8288 84.7345 54.977C84.8334 55.1252 83.062 56.7736 80.7645 58.6586C78.467 60.5436 76.5243 61.9502 76.4205 61.802Z" fill="#D1E1FC"/>
<path d="M86.1823 62.6054C86.0713 62.7614 83.7062 60.9648 80.7016 58.9004C77.697 56.836 75.1992 55.2604 75.2813 55.0966C75.3633 54.9328 78.0156 56.2406 81.0419 58.331C84.0682 60.4214 86.2861 62.465 86.1823 62.6054Z" fill="#D1E1FC"/>
<path d="M86.8631 77.779C86.8631 77.7582 86.9862 77.727 87.2275 77.7088C87.583 77.6964 87.9385 77.7349 88.2846 77.8232C88.838 77.9614 89.3642 78.2044 89.8388 78.5408C90.4782 78.9868 91.0127 79.5867 91.4002 80.2932C91.867 81.1624 92.1126 82.149 92.1121 83.1532C92.1161 83.7095 92.0511 84.2638 91.9191 84.8016C91.7733 85.3734 91.5505 85.9192 91.2578 86.4214C90.5938 87.5345 89.6387 88.4107 88.513 88.9396C87.3873 89.4685 86.1414 89.6264 84.9325 89.3932C83.6774 89.1622 82.5164 88.5278 81.6021 87.5732C80.757 86.6694 80.1944 85.5043 79.9924 84.24C79.802 83.1059 79.9021 81.9374 80.282 80.86C80.6142 79.923 81.1805 79.1033 81.9182 78.4914C82.5169 77.9914 83.2056 77.631 83.9406 77.4332C84.4915 77.2787 85.063 77.2276 85.6299 77.2824C85.7394 77.2885 85.8483 77.3032 85.9557 77.3266C86.0571 77.3448 86.1512 77.3578 86.2381 77.3812C86.4094 77.4332 86.5542 77.4696 86.6677 77.519C86.8921 77.6178 87.0055 77.6802 86.9983 77.701C86.979 77.766 86.5156 77.5502 85.6179 77.545C85.0832 77.5434 84.5516 77.6311 84.0419 77.805C83.3689 78.0253 82.7436 78.3887 82.203 78.8736C81.5524 79.4519 81.0595 80.2093 80.7767 81.0654C80.4533 82.0495 80.3816 83.1092 80.5692 84.1334C80.7619 85.2608 81.2726 86.2967 82.0316 87.1C82.8615 87.9535 83.9098 88.5195 85.0411 88.725C86.1689 88.9477 87.3329 88.7926 88.3763 88.2804C89.3504 87.8055 90.1802 87.044 90.7703 86.0834C91.039 85.6378 91.2463 85.1527 91.3857 84.643C91.5143 84.1582 91.5833 83.6573 91.5909 83.1532C91.6065 82.2479 91.408 81.3531 91.0141 80.5532C90.6773 79.8907 90.2073 79.3178 89.6385 78.8762C89.2076 78.5354 88.7284 78.272 88.2194 78.0962C87.3748 77.7946 86.8607 77.8414 86.8631 77.779Z" fill="#D1E1FC"/>
<path d="M52.5312 74.9736C52.4009 74.8566 53.9213 72.6336 56.0571 70.1116C58.1567 67.6338 60.0825 65.7254 60.237 65.8944C60.3914 66.0634 58.6418 68.0654 56.5205 70.5744C54.3991 73.0834 52.6688 75.0932 52.5312 74.9736Z" fill="#D1E1FC"/>
<path d="M62.3191 73.9128C62.2274 74.0714 59.7586 72.6128 56.8046 70.6394C53.8507 68.666 51.5291 66.9474 51.6208 66.7888C51.7125 66.6302 54.1524 68.0888 57.1087 70.0622C60.065 72.0356 62.4108 73.7542 62.3191 73.9128Z" fill="#D1E1FC"/>
<path d="M85.7958 79.8408L86.7394 81.2994C86.7771 81.3597 86.8282 81.4088 86.8881 81.4424C86.9479 81.476 87.0146 81.493 87.0821 81.4918H88.7328C88.8105 81.4915 88.8868 81.5145 88.9531 81.5583C89.0193 81.6021 89.0729 81.665 89.1078 81.7399C89.1426 81.8147 89.1574 81.8986 89.1504 81.982C89.1435 82.0654 89.115 82.1451 89.0683 82.212L88.0715 83.629C88.031 83.6869 88.004 83.7545 87.9931 83.8261C87.9822 83.8976 87.9876 83.971 88.0088 84.0398L88.5277 85.7272C88.5524 85.8066 88.5559 85.8918 88.5379 85.9733C88.5198 86.0547 88.4809 86.129 88.4256 86.1878C88.3703 86.2466 88.3008 86.2875 88.2249 86.3058C88.1491 86.3241 88.0701 86.3191 87.9967 86.2914L86.4377 85.709C86.3737 85.6861 86.3056 85.6797 86.2389 85.6906C86.1722 85.7014 86.1088 85.7291 86.054 85.7714L84.7243 86.827C84.6617 86.8767 84.5874 86.9065 84.5099 86.9129C84.4324 86.9194 84.3548 86.9023 84.2859 86.8635C84.217 86.8248 84.1596 86.766 84.1202 86.6938C84.0807 86.6216 84.0609 86.5389 84.063 86.4552L84.0944 84.6794C84.0955 84.6066 84.0804 84.5345 84.0501 84.4693C84.0199 84.4041 83.9754 84.3477 83.9206 84.305L82.5812 83.265C82.5204 83.2162 82.4732 83.1503 82.4449 83.0745C82.4166 82.9987 82.4082 82.916 82.4207 82.8354C82.4331 82.7548 82.466 82.6794 82.5156 82.6176C82.5652 82.5558 82.6297 82.5099 82.7019 82.485L84.2826 81.965C84.347 81.9435 84.4056 81.9055 84.4535 81.8544C84.5014 81.8032 84.5371 81.7404 84.5577 81.6712L85.0573 79.9786C85.0792 79.8979 85.1217 79.8255 85.18 79.7695C85.2382 79.7136 85.3098 79.6763 85.3867 79.6619C85.4636 79.6476 85.5427 79.6567 85.615 79.6884C85.6873 79.72 85.7499 79.7728 85.7958 79.8408Z" fill="#D1E1FC"/>
<path d="M111.496 54.1658C111.612 54.3036 109.51 56.537 106.8 59.15C104.089 61.763 101.799 63.7676 101.683 63.6272C101.567 63.4868 103.669 61.2586 106.38 58.6456C109.09 56.0326 111.378 54.0254 111.496 54.1658Z" fill="#D1E1FC"/>
<path d="M113.07 62.1972C112.992 62.3636 110.046 60.9414 106.491 59.0226C102.936 57.1038 100.112 55.4086 100.192 55.2396C100.272 55.0706 103.214 56.4954 106.771 58.4168C110.328 60.3382 113.147 62.0308 113.07 62.1972Z" fill="#D1E1FC"/>
<path d="M108.559 57.1584H122.949L126.403 60.0366L123.357 62.7276L109.56 62.712L108.559 57.1584Z" fill="#455A64"/>
<path opacity="0.2" d="M85.7958 79.8408L86.7394 81.2994C86.7771 81.3597 86.8282 81.4088 86.8881 81.4424C86.9479 81.476 87.0146 81.493 87.0821 81.4918H88.7328C88.8105 81.4915 88.8868 81.5145 88.9531 81.5583C89.0193 81.6021 89.0729 81.665 89.1078 81.7399C89.1426 81.8147 89.1574 81.8986 89.1504 81.982C89.1435 82.0654 89.115 82.1451 89.0683 82.212L88.0715 83.629C88.031 83.6869 88.004 83.7545 87.9931 83.8261C87.9822 83.8976 87.9876 83.971 88.0088 84.0398L88.5277 85.7272C88.5524 85.8066 88.5559 85.8918 88.5379 85.9733C88.5198 86.0547 88.4809 86.129 88.4256 86.1878C88.3703 86.2466 88.3008 86.2875 88.2249 86.3058C88.1491 86.3241 88.0701 86.3191 87.9967 86.2914L86.4377 85.709C86.3737 85.6861 86.3056 85.6797 86.2389 85.6906C86.1722 85.7014 86.1088 85.7291 86.054 85.7714L84.7243 86.827C84.6617 86.8767 84.5874 86.9065 84.5099 86.9129C84.4324 86.9194 84.3548 86.9023 84.2859 86.8635C84.217 86.8248 84.1596 86.766 84.1202 86.6938C84.0807 86.6216 84.0609 86.5389 84.063 86.4552L84.0944 84.6794C84.0955 84.6066 84.0804 84.5345 84.0501 84.4693C84.0199 84.4041 83.9754 84.3477 83.9206 84.305L82.5812 83.265C82.5204 83.2162 82.4732 83.1503 82.4449 83.0745C82.4166 82.9987 82.4082 82.916 82.4207 82.8354C82.4331 82.7548 82.466 82.6794 82.5156 82.6176C82.5652 82.5558 82.6297 82.5099 82.7019 82.485L84.2826 81.965C84.347 81.9435 84.4056 81.9055 84.4535 81.8544C84.5014 81.8032 84.5371 81.7404 84.5577 81.6712L85.0573 79.9786C85.0792 79.8979 85.1217 79.8255 85.18 79.7695C85.2382 79.7136 85.3098 79.6763 85.3867 79.6619C85.4636 79.6476 85.5427 79.6567 85.615 79.6884C85.6873 79.72 85.7499 79.7728 85.7958 79.8408Z" fill="white"/>
<path d="M146.47 114.478L146.482 112.289H150.288L150.302 115.489L150.061 115.508C149.011 115.57 144.718 115.752 144.027 115.523C143.238 115.263 146.47 114.478 146.47 114.478Z" fill="#D1E1FC"/>
<g opacity="0.6">
<path d="M148.927 115.508C148.982 115.162 149.154 114.851 149.409 114.634C149.66 114.418 149.977 114.312 150.298 114.335V115.482L148.927 115.508Z" fill="white"/>
</g>
<g opacity="0.6">
<path d="M144.896 114.92C144.896 114.92 143.765 115.274 143.907 115.474C144.049 115.674 148.391 115.669 150.307 115.474V115.383L145.239 115.437C145.239 115.437 145.118 114.92 144.896 114.92Z" fill="white"/>
</g>
<path d="M150.329 115.362H150.264H150.075L149.383 115.393C148.799 115.417 147.993 115.437 147.1 115.44C146.207 115.443 145.41 115.424 144.817 115.404L144.126 115.375L143.938 115.362H143.873H144.126L144.819 115.378C145.403 115.378 146.209 115.401 147.1 115.398C147.99 115.396 148.789 115.38 149.383 115.367L150.075 115.349H150.317L150.329 115.362Z" fill="#667499"/>
<path d="M145.235 115.526C145.204 115.403 145.161 115.284 145.105 115.172C145.034 115.068 144.953 114.972 144.863 114.886C144.981 114.934 145.079 115.026 145.138 115.146C145.213 115.256 145.247 115.391 145.235 115.526Z" fill="#667499"/>
<path d="M146.429 114.816C146.429 114.816 146.364 114.754 146.309 114.657C146.253 114.561 146.217 114.483 146.229 114.475C146.241 114.468 146.292 114.538 146.347 114.631C146.387 114.685 146.415 114.749 146.429 114.816Z" fill="#667499"/>
<path d="M146.731 114.639C146.731 114.639 146.661 114.605 146.596 114.543C146.531 114.481 146.485 114.421 146.492 114.41C146.499 114.4 146.56 114.444 146.627 114.507C146.695 114.569 146.745 114.629 146.731 114.639Z" fill="#667499"/>
<path d="M146.931 114.252C146.931 114.267 146.842 114.278 146.734 114.28C146.625 114.283 146.533 114.28 146.533 114.257C146.597 114.232 146.666 114.223 146.734 114.231C146.8 114.222 146.868 114.229 146.931 114.252Z" fill="#667499"/>
<path d="M146.999 113.979C146.933 114.026 146.855 114.05 146.776 114.049C146.695 114.065 146.611 114.054 146.535 114.018C146.609 114.003 146.684 113.997 146.76 114C146.838 113.985 146.918 113.978 146.999 113.979Z" fill="#667499"/>
<path d="M146.299 114.457C146.219 114.472 146.137 114.472 146.058 114.457C145.969 114.445 145.882 114.424 145.797 114.395C145.745 114.379 145.695 114.357 145.647 114.33C145.618 114.311 145.596 114.282 145.587 114.247C145.583 114.227 145.585 114.207 145.592 114.188C145.599 114.17 145.61 114.154 145.626 114.143C145.718 114.093 145.824 114.08 145.925 114.106C146.026 114.132 146.115 114.194 146.178 114.283C146.216 114.334 146.244 114.394 146.258 114.457C146.27 114.504 146.258 114.53 146.258 114.53C146.234 114.448 146.196 114.371 146.147 114.304C146.09 114.236 146.017 114.186 145.937 114.158C145.89 114.141 145.84 114.135 145.79 114.139C145.74 114.143 145.692 114.157 145.647 114.182C145.609 114.213 145.623 114.262 145.667 114.288C145.71 114.315 145.756 114.336 145.804 114.351C145.882 114.382 145.963 114.405 146.045 114.421C146.207 114.449 146.299 114.449 146.299 114.457Z" fill="#667499"/>
<path d="M146.248 114.47C146.218 114.415 146.208 114.351 146.219 114.288C146.228 114.219 146.251 114.154 146.287 114.096C146.308 114.057 146.337 114.025 146.373 114.001C146.408 113.977 146.448 113.964 146.49 113.961C146.515 113.966 146.536 113.982 146.55 114.005C146.564 114.028 146.569 114.056 146.564 114.083C146.561 114.125 146.547 114.166 146.523 114.2C146.492 114.258 146.454 114.312 146.41 114.361C146.372 114.408 146.324 114.445 146.27 114.468C146.27 114.468 146.318 114.421 146.386 114.335C146.424 114.287 146.458 114.234 146.487 114.179C146.521 114.122 146.543 114.023 146.487 114.01C146.432 113.997 146.364 114.07 146.326 114.122C146.292 114.173 146.269 114.232 146.258 114.293C146.249 114.352 146.246 114.411 146.248 114.47Z" fill="#667499"/>
<path d="M150.35 114.317C150.35 114.317 150.242 114.317 150.071 114.33C149.848 114.355 149.636 114.444 149.458 114.59C149.283 114.743 149.151 114.944 149.074 115.172C149.016 115.349 149.011 115.466 149.001 115.466C148.998 115.438 148.998 115.41 149.001 115.383C149.009 115.308 149.023 115.234 149.042 115.162C149.111 114.921 149.245 114.708 149.428 114.551C149.61 114.394 149.833 114.3 150.066 114.28C150.136 114.273 150.206 114.273 150.276 114.28C150.302 114.288 150.327 114.3 150.35 114.317Z" fill="#667499"/>
<path d="M149.958 112.484C149.996 113.044 150.003 113.607 149.98 114.169C149.942 113.608 149.934 113.045 149.958 112.484Z" fill="#667499"/>
<path d="M148.519 114.975C148.338 115.021 148.151 115.041 147.964 115.034C147.778 115.046 147.591 115.03 147.409 114.988C147.409 114.972 147.651 114.988 147.964 114.988C148.278 114.988 148.519 114.959 148.519 114.975Z" fill="#667499"/>
<path d="M149.265 114.972C149.265 114.972 149.246 115.029 149.222 115.092C149.197 115.154 149.18 115.206 149.168 115.206C149.156 115.206 149.149 115.141 149.168 115.071C149.188 115.001 149.258 114.962 149.265 114.972Z" fill="#667499"/>
<path d="M149.548 114.595C149.548 114.595 149.531 114.647 149.492 114.691C149.453 114.735 149.412 114.761 149.405 114.751C149.397 114.741 149.419 114.699 149.458 114.655C149.497 114.611 149.538 114.585 149.548 114.595Z" fill="#667499"/>
<path d="M149.948 114.423C149.948 114.436 149.895 114.436 149.839 114.457C149.784 114.478 149.743 114.512 149.733 114.501C149.723 114.491 149.755 114.436 149.825 114.41C149.895 114.384 149.953 114.4 149.948 114.423Z" fill="#667499"/>
<path d="M150.235 114.34C150.235 114.353 150.218 114.374 150.187 114.387C150.155 114.401 150.124 114.403 150.119 114.387C150.114 114.372 150.138 114.353 150.17 114.34C150.201 114.327 150.23 114.327 150.235 114.34Z" fill="#667499"/>
<path d="M133.569 42.2266L167.061 43.68V52L133.074 50.6558L133.569 42.2266Z" fill="#D1E1FC"/>
<path d="M127.588 45.3206C127.588 45.3206 125.682 45.0762 125.23 45.9602C125.23 45.9602 125.617 47.0834 127.506 47.0002L127.588 45.3206Z" fill="#D1E1FC"/>
<path d="M127.424 44.9332L127.233 47.2342L129.528 47.476C129.528 47.476 130.472 47.5592 131.561 48.8202C132.649 50.0812 133.078 50.6558 133.078 50.6558L133.573 42.2266L132.065 43.7502C131.765 44.0514 131.421 44.2966 131.046 44.4756C130.593 44.7163 130.112 44.8911 129.615 44.9956C128.884 45.0276 128.152 45.0067 127.424 44.9332Z" fill="#667499"/>
<path d="M167.061 43.68C167.061 43.68 169.081 44.9254 168.677 48.1442C168.332 50.9184 167.061 52.0026 167.061 52.0026V43.68Z" fill="#667499"/>
<path opacity="0.4" d="M133.41 45.2998L167.061 46.6258V48.8774L133.284 47.4292L133.41 45.2998Z" fill="white"/>
<g opacity="0.3">
<path d="M152.765 43.5994C153.288 43.641 153.638 44.187 154.099 44.46C154.56 44.733 155.108 44.72 155.547 44.9982C155.742 45.1182 155.909 45.2855 156.033 45.4867C156.158 45.688 156.238 45.9178 156.266 46.1579C156.294 46.398 156.27 46.6419 156.195 46.8702C156.121 47.0985 155.998 47.305 155.837 47.4734C155.443 47.8764 154.809 48.0974 154.693 48.6694C154.642 48.9294 154.608 49.3142 154.369 49.2726C154.237 49.2518 154.171 49.0906 154.075 48.9918C153.87 48.7786 153.513 48.8722 153.308 49.0854C153.121 49.3201 152.959 49.5765 152.825 49.8498C152.758 49.9852 152.659 50.0993 152.539 50.1805C152.418 50.2617 152.279 50.3073 152.137 50.3126C152.137 50.6558 152.137 51.0692 152.137 51.4124L150.486 51.324L150.672 44.083L152.765 43.5994Z" fill="black"/>
</g>
<path d="M158.131 114.608V112.421H154.313L154.299 115.622L154.54 115.638C155.59 115.703 159.881 115.882 160.573 115.653C161.363 115.396 158.131 114.608 158.131 114.608Z" fill="#D1E1FC"/>
<g opacity="0.6">
<path d="M155.674 115.64C155.62 115.294 155.448 114.982 155.192 114.764C154.941 114.548 154.624 114.442 154.304 114.468V115.612L155.674 115.64Z" fill="white"/>
</g>
<g opacity="0.6">
<path d="M159.705 115.05C159.705 115.05 160.836 115.404 160.694 115.604C160.552 115.804 156.21 115.799 154.294 115.617V115.523L159.362 115.578C159.362 115.578 159.483 115.06 159.705 115.05Z" fill="white"/>
</g>
<path d="M154.272 115.492C154.294 115.495 154.316 115.495 154.338 115.492H154.526L155.218 115.526C155.803 115.549 156.609 115.57 157.502 115.573C158.394 115.575 159.191 115.557 159.785 115.536L160.475 115.505H160.663H160.728H160.487L159.794 115.518C159.21 115.531 158.404 115.541 157.514 115.539C156.623 115.536 155.824 115.523 155.231 115.508L154.538 115.492H154.35H154.272Z" fill="#667499"/>
<path d="M159.367 115.658C159.397 115.534 159.441 115.415 159.497 115.302C159.568 115.198 159.649 115.102 159.739 115.016C159.621 115.065 159.524 115.157 159.464 115.276C159.388 115.386 159.354 115.523 159.367 115.658Z" fill="#667499"/>
<path d="M158.172 114.946C158.172 114.946 158.237 114.884 158.293 114.79C158.348 114.696 158.385 114.613 158.372 114.605C158.36 114.598 158.31 114.668 158.254 114.761C158.199 114.855 158.16 114.938 158.172 114.946Z" fill="#667499"/>
<path d="M157.864 114.769C157.864 114.769 157.934 114.738 157.999 114.673C158.064 114.608 158.11 114.551 158.103 114.54C158.096 114.53 158.033 114.574 157.968 114.637C157.903 114.699 157.857 114.761 157.864 114.769Z" fill="#667499"/>
<path d="M157.671 114.384C157.734 114.409 157.802 114.418 157.869 114.41C157.937 114.424 158.007 114.42 158.074 114.4C158.074 114.384 157.985 114.374 157.874 114.371C157.763 114.369 157.671 114.369 157.671 114.384Z" fill="#667499"/>
<path d="M157.603 114.111C157.669 114.155 157.746 114.179 157.825 114.179C157.902 114.195 157.982 114.184 158.054 114.148C157.98 114.137 157.906 114.134 157.832 114.14C157.756 114.122 157.68 114.113 157.603 114.111Z" fill="#667499"/>
<path d="M158.314 114.59C158.394 114.605 158.476 114.605 158.556 114.59C158.644 114.577 158.731 114.557 158.816 114.53C158.868 114.513 158.918 114.49 158.966 114.462C158.995 114.445 159.017 114.416 159.026 114.382C159.03 114.362 159.028 114.341 159.021 114.322C159.015 114.304 159.003 114.287 158.988 114.275C158.895 114.226 158.789 114.213 158.688 114.239C158.587 114.264 158.498 114.327 158.435 114.416C158.398 114.468 158.37 114.528 158.353 114.592C158.347 114.615 158.347 114.64 158.353 114.663C158.377 114.581 158.415 114.506 158.464 114.439C158.519 114.369 158.592 114.318 158.674 114.293C158.721 114.275 158.771 114.268 158.821 114.272C158.871 114.275 158.919 114.29 158.964 114.314C159.002 114.345 158.988 114.395 158.944 114.423C158.9 114.449 158.854 114.47 158.807 114.486C158.728 114.515 158.647 114.538 158.565 114.556C158.394 114.579 158.314 114.582 158.314 114.59Z" fill="#667499"/>
<path d="M158.366 114.603C158.395 114.547 158.405 114.481 158.395 114.418C158.386 114.349 158.363 114.284 158.327 114.226C158.307 114.187 158.278 114.154 158.242 114.131C158.206 114.108 158.166 114.095 158.124 114.093C158.1 114.098 158.078 114.114 158.063 114.136C158.049 114.158 158.043 114.186 158.047 114.213C158.053 114.256 158.068 114.297 158.091 114.332C158.123 114.389 158.161 114.443 158.204 114.491C158.242 114.538 158.29 114.575 158.344 114.598C158.344 114.598 158.296 114.551 158.228 114.468C158.189 114.419 158.155 114.366 158.127 114.309C158.093 114.252 158.071 114.153 158.127 114.14C158.182 114.127 158.25 114.2 158.289 114.254C158.323 114.305 158.346 114.362 158.356 114.423C158.364 114.483 158.367 114.543 158.366 114.603Z" fill="#667499"/>
<path d="M154.248 114.449C154.248 114.449 154.357 114.449 154.528 114.449C154.751 114.474 154.963 114.564 155.141 114.709C155.316 114.864 155.448 115.066 155.525 115.294C155.553 115.39 155.576 115.487 155.595 115.586C155.595 115.586 155.595 115.557 155.595 115.502C155.587 115.427 155.572 115.353 155.551 115.281C155.484 115.041 155.35 114.828 155.168 114.671C154.985 114.514 154.763 114.42 154.53 114.403C154.461 114.394 154.39 114.394 154.32 114.403C154.294 114.414 154.27 114.43 154.248 114.449Z" fill="#667499"/>
<path d="M154.644 112.614C154.618 112.894 154.607 113.175 154.61 113.456C154.598 113.737 154.602 114.018 154.622 114.299C154.66 113.738 154.667 113.175 154.644 112.614Z" fill="#667499"/>
<path d="M156.08 115.105C156.262 115.15 156.448 115.171 156.635 115.164C156.822 115.176 157.01 115.16 157.193 115.118C157.193 115.105 156.951 115.118 156.638 115.118C156.324 115.118 156.082 115.092 156.08 115.105Z" fill="#667499"/>
<path d="M155.334 115.102C155.334 115.102 155.356 115.159 155.38 115.222C155.404 115.284 155.421 115.339 155.433 115.336C155.446 115.333 155.453 115.271 155.433 115.201C155.414 115.131 155.344 115.094 155.334 115.102Z" fill="#667499"/>
<path d="M155.055 114.725C155.055 114.725 155.072 114.78 155.11 114.821C155.149 114.863 155.188 114.891 155.198 114.881C155.208 114.871 155.183 114.829 155.144 114.787C155.106 114.746 155.064 114.717 155.055 114.725Z" fill="#667499"/>
<path d="M154.654 114.553C154.654 114.566 154.707 114.566 154.762 114.587C154.818 114.608 154.859 114.642 154.868 114.631C154.878 114.621 154.847 114.566 154.777 114.54C154.707 114.514 154.649 114.54 154.654 114.553Z" fill="#667499"/>
<path d="M154.366 114.473C154.366 114.486 154.383 114.507 154.415 114.52C154.446 114.533 154.478 114.533 154.48 114.52C154.483 114.507 154.463 114.486 154.432 114.473C154.4 114.46 154.371 114.46 154.366 114.473Z" fill="#667499"/>
<path d="M144.406 53.2792C144.406 53.2792 138.506 55.9676 138.318 55.8792C138.129 55.7908 137.992 50.8638 137.992 50.8638L135.047 50.7468C135.047 50.7468 134.497 58.2504 136.254 59.4672C138.667 61.1312 144.527 57.6706 144.527 57.6706L144.406 53.2792Z" fill="#FFBE9D"/>
<path d="M147.377 51.519C147.377 50.7234 147.377 50.0318 147.377 50.0318C147.377 50.0318 145.888 49.8628 145.797 48.2716C145.705 46.6804 145.797 43.0118 145.797 43.0118L148.509 41.5844L151.492 44.018L151.178 51.5918C151.156 52.117 150.947 52.6127 150.594 52.9758C150.241 53.339 149.772 53.5417 149.284 53.5418C148.782 53.5453 148.3 53.3343 147.942 52.9551C147.585 52.5759 147.382 52.0594 147.377 51.519Z" fill="#FFBE9D"/>
<path d="M146.104 45.6872C146.103 45.728 146.114 45.7681 146.135 45.8023C146.155 45.8364 146.185 45.8632 146.22 45.879C146.255 45.8949 146.294 45.8992 146.331 45.8914C146.368 45.8835 146.402 45.8639 146.429 45.835C146.456 45.8061 146.474 45.7693 146.481 45.7292C146.489 45.6891 146.485 45.6476 146.47 45.61C146.455 45.5723 146.43 45.5403 146.399 45.5179C146.367 45.4956 146.33 45.4839 146.292 45.4844C146.242 45.4844 146.194 45.5058 146.159 45.5438C146.123 45.5818 146.104 45.6334 146.104 45.6872Z" fill="#667499"/>
<path d="M145.92 45.4636C145.944 45.4922 146.084 45.3622 146.289 45.3518C146.495 45.3414 146.644 45.4454 146.666 45.4168C146.688 45.3882 146.651 45.3544 146.584 45.305C146.494 45.2417 146.387 45.2116 146.28 45.2192C146.173 45.2252 146.071 45.269 145.99 45.344C145.93 45.4012 145.908 45.4532 145.92 45.4636Z" fill="#667499"/>
<path d="M148.295 45.6872C148.295 45.7273 148.306 45.7666 148.327 45.7999C148.347 45.8333 148.377 45.8592 148.411 45.8746C148.446 45.8899 148.483 45.894 148.52 45.8861C148.556 45.8783 148.59 45.859 148.616 45.8306C148.643 45.8023 148.661 45.7661 148.668 45.7268C148.675 45.6875 148.671 45.6467 148.657 45.6096C148.643 45.5726 148.619 45.5409 148.588 45.5186C148.557 45.4963 148.52 45.4844 148.483 45.4844C148.433 45.4844 148.385 45.5058 148.35 45.5438C148.315 45.5819 148.295 45.6334 148.295 45.6872Z" fill="#667499"/>
<path d="M148.179 45.4636C148.203 45.4922 148.343 45.3622 148.546 45.3518C148.748 45.3414 148.903 45.4454 148.925 45.4168C148.946 45.3882 148.908 45.3544 148.843 45.305C148.752 45.2423 148.646 45.2122 148.539 45.2193C148.431 45.2263 148.329 45.27 148.247 45.344C148.179 45.4012 148.164 45.4532 148.179 45.4636Z" fill="#667499"/>
<path d="M147.455 47.32C147.346 47.3523 147.233 47.3638 147.12 47.3538C147.089 47.3572 147.057 47.3572 147.026 47.3538C147.004 47.3482 146.984 47.337 146.967 47.3211C146.95 47.3053 146.937 47.2853 146.929 47.2628C146.908 47.1825 146.914 47.097 146.946 47.021L147.076 46.5634C147.176 46.1662 147.314 45.7811 147.487 45.4142C147.432 45.8215 147.334 46.2209 147.197 46.605L147.045 47.06C147.02 47.1094 147.01 47.1653 147.014 47.2212C147.014 47.2498 147.057 47.2628 147.11 47.2654C147.315 47.2758 147.455 47.2966 147.455 47.32Z" fill="#667499"/>
<path d="M148.42 47.424C148.42 47.606 148.683 47.736 148.997 47.7438C149.31 47.7516 149.573 47.632 149.581 47.4526C149.588 47.2732 149.339 47.0964 149.004 47.0886C148.668 47.0808 148.42 47.2446 148.42 47.424Z" fill="#EB996E"/>
<path d="M148.114 47.5228C148.322 47.3772 147.547 47.8894 147.132 47.8894C147.206 48.0006 147.313 48.0814 147.435 48.1187C147.557 48.156 147.688 48.1476 147.805 48.0948C148.24 47.8972 148.114 47.5228 148.114 47.5228Z" fill="white"/>
<path d="M147.296 50.0318C147.997 50.0007 148.676 49.7535 149.251 49.3194C149.251 49.3194 148.807 50.4894 147.32 50.4218L147.296 50.0318Z" fill="#EB996E"/>
<path d="M153.662 45.344V45.6274C153.631 45.3336 153.554 44.6628 153.51 44.4808C152.704 41.1632 149.999 40.5444 149.463 40.5444C148.889 40.5444 147.885 40.2064 146.42 41.8444C146.005 42.2731 145.721 42.8269 145.604 43.433C145.488 44.0391 145.544 44.6691 145.766 45.24L146.007 44.9956L148.179 44.395C148.008 43.7684 148.259 42.9884 148.401 42.627L148.416 42.6114C148.845 44.993 151.28 45.24 151.28 45.24L151.075 49.66C153.971 49.0022 153.662 45.344 153.662 45.344Z" fill="#667499"/>
<path d="M153.589 45.1828C153.586 44.9916 153.643 44.8048 153.751 44.6528C153.858 44.5008 154.011 44.3925 154.183 44.3456C154.533 44.2622 154.899 44.3245 155.209 44.5198C155.372 44.5964 155.519 44.7112 155.636 44.856C155.754 45.0008 155.84 45.1719 155.889 45.357C155.971 45.8146 155.696 46.2514 155.421 46.6154C155.263 46.8494 155.069 47.0532 154.849 47.2186C154.738 47.3002 154.611 47.3541 154.477 47.3761C154.344 47.3981 154.208 47.3879 154.079 47.346C153.869 47.2482 153.698 47.0731 153.596 46.852C153.412 46.4771 153.349 46.0465 153.418 45.6287C153.486 45.2108 153.683 44.8297 153.975 44.5458" fill="#667499"/>
<path d="M148.273 41.3868C148.049 41.4827 147.82 41.5643 147.587 41.6312C147.052 41.8354 146.57 42.1761 146.183 42.6243C145.796 43.0725 145.515 43.6149 145.365 44.2052C145.241 44.6576 145.227 44.9592 145.186 44.9566C145.145 44.954 145.109 44.6524 145.186 44.161C145.299 43.5168 145.579 42.9203 145.994 42.4404C146.409 41.9605 146.941 41.6169 147.529 41.4492C147.983 41.3244 148.273 41.3556 148.273 41.3868Z" fill="#667499"/>
<path d="M151.661 47.2498C151.639 46.9869 151.665 46.7218 151.738 46.4698C151.778 46.3437 151.849 46.2313 151.943 46.1445C152.036 46.0576 152.15 45.9994 152.272 45.9758C152.413 45.9698 152.552 46.0191 152.662 46.1148C152.772 46.2104 152.846 46.3458 152.87 46.4958C152.886 46.6477 152.859 46.8011 152.795 46.937C152.73 47.0729 152.629 47.1853 152.506 47.2602C152.38 47.3311 152.24 47.3702 152.098 47.3747C151.956 47.3792 151.815 47.349 151.685 47.2862" fill="#FFBE9D"/>
<path d="M152.096 47.125C152.096 47.1042 152.154 47.0834 152.224 47.0158C152.268 46.9746 152.305 46.9242 152.331 46.8674C152.357 46.8107 152.372 46.7488 152.376 46.6856C152.375 46.6223 152.362 46.5598 152.338 46.5021C152.314 46.4444 152.279 46.3927 152.236 46.3502C152.168 46.28 152.108 46.254 152.113 46.2332C152.117 46.2124 152.187 46.2072 152.289 46.2722C152.355 46.3155 152.409 46.3766 152.446 46.4495C152.483 46.5223 152.502 46.6044 152.5 46.6875C152.499 46.7706 152.477 46.8518 152.438 46.9231C152.398 46.9944 152.342 47.0533 152.274 47.0938C152.171 47.1536 152.096 47.1406 152.096 47.125Z" fill="#EB996E"/>
<path d="M147.569 45.5858C147.569 45.5858 147.569 45.5598 147.569 45.5078C147.567 45.43 147.574 45.3523 147.59 45.2764C147.647 44.992 147.795 44.738 148.008 44.5588C148.167 44.4252 148.355 44.3368 148.555 44.3018C148.754 44.2668 148.959 44.2864 149.149 44.3586C149.386 44.447 149.592 44.6129 149.738 44.8331C149.883 45.0533 149.961 45.3168 149.961 45.5871C149.961 45.8574 149.883 46.121 149.738 46.3412C149.592 46.5614 149.386 46.7272 149.149 46.8156C148.959 46.8879 148.754 46.9075 148.555 46.8725C148.355 46.8375 148.167 46.7491 148.008 46.6154C147.795 46.4363 147.647 46.1823 147.59 45.8978C147.574 45.822 147.567 45.7442 147.569 45.6664C147.569 45.6144 147.569 45.5858 147.569 45.5858C147.569 45.5858 147.569 45.6976 147.629 45.8848C147.699 46.1478 147.849 46.3783 148.054 46.54C148.218 46.6717 148.412 46.7515 148.616 46.7708C148.82 46.79 149.025 46.7479 149.207 46.649C149.39 46.5502 149.544 46.3985 149.651 46.211C149.759 46.0235 149.815 45.8075 149.815 45.5871C149.815 45.3668 149.759 45.1508 149.651 44.9633C149.544 44.7758 149.39 44.6241 149.207 44.5253C149.025 44.4264 148.82 44.3842 148.616 44.4035C148.412 44.4227 148.218 44.5026 148.054 44.6342C147.849 44.796 147.699 45.0264 147.629 45.2894C147.581 45.4766 147.581 45.5884 147.569 45.5858Z" fill="#667499"/>
<path d="M144.902 45.5858C144.902 45.5858 144.902 45.5598 144.902 45.5078C144.9 45.43 144.907 45.3523 144.923 45.2764C144.98 44.992 145.128 44.738 145.341 44.5588C145.5 44.4252 145.688 44.3368 145.888 44.3018C146.087 44.2668 146.292 44.2864 146.482 44.3586C146.719 44.447 146.925 44.6129 147.071 44.8331C147.216 45.0533 147.294 45.3168 147.294 45.5871C147.294 45.8574 147.216 46.121 147.071 46.3412C146.925 46.5614 146.719 46.7272 146.482 46.8156C146.292 46.8879 146.087 46.9075 145.888 46.8725C145.688 46.8375 145.5 46.7491 145.341 46.6154C145.128 46.4363 144.98 46.1823 144.923 45.8978C144.907 45.822 144.9 45.7442 144.902 45.6664C144.902 45.6144 144.902 45.5858 144.902 45.5858C144.902 45.5858 144.902 45.6976 144.962 45.8848C145.032 46.1472 145.181 46.3774 145.384 46.54C145.533 46.658 145.707 46.7343 145.891 46.762C146.074 46.7897 146.261 46.7679 146.434 46.6986C146.645 46.6144 146.826 46.4628 146.955 46.2641C147.083 46.0654 147.152 45.8292 147.152 45.5871C147.152 45.3451 147.083 45.1089 146.955 44.9102C146.826 44.7115 146.645 44.5599 146.434 44.4756C146.261 44.4064 146.074 44.3846 145.891 44.4123C145.707 44.44 145.533 44.5162 145.384 44.6342C145.181 44.7968 145.032 45.0271 144.962 45.2894C144.911 45.4766 144.914 45.5884 144.902 45.5858Z" fill="#667499"/>
<path d="M147.214 45.6274C147.214 45.5884 147.308 45.5598 147.426 45.5598C147.544 45.5598 147.639 45.5884 147.639 45.6274C147.639 45.6664 147.542 45.695 147.426 45.695C147.31 45.695 147.214 45.6638 147.214 45.6274Z" fill="#667499"/>
<path d="M149.844 45.8484C150.193 45.8545 150.541 45.9051 150.879 45.9992C151.226 46.0497 151.567 46.1448 151.893 46.2826C151.542 46.2782 151.194 46.2275 150.855 46.1318C150.509 46.0811 150.169 45.986 149.844 45.8484Z" fill="#667499"/>
<path d="M143.154 71.682L145.003 113.732L150.928 113.867L149.39 77.5294L153.401 113.714L159.452 113.875L154.717 71.2218" fill="#667499"/>
<path d="M147.792 113.797C147.759 113.797 147.331 104.4 146.841 92.807C146.352 81.2136 145.98 71.8146 146.016 71.812C146.052 71.8094 146.489 81.2058 146.972 92.8018C147.454 104.398 147.829 113.794 147.792 113.797Z" fill="#455A64"/>
<path d="M156.638 113.456C156.602 113.456 155.538 104.335 154.258 93.0748C152.979 81.8142 151.971 72.6804 152.007 72.6752C152.043 72.67 153.105 81.796 154.384 93.0592C155.663 104.322 156.672 113.454 156.638 113.456Z" fill="#455A64"/>
<path d="M156.228 61.893L159.264 57.8032L155.533 53.7498C154.815 52.9437 153.934 52.3287 152.958 51.9532C152.482 51.7715 151.985 51.6638 151.481 51.6334V51.3084L149.845 51.3422C149.845 51.3422 149.76 51.6204 149.671 51.935C149.584 52.195 149.54 52.6994 149.429 52.6994C149.318 52.6994 149.159 52.1794 149 51.9194L148.72 51.3136L147.209 51.2356V51.6438C146.22 51.7819 145.258 52.0919 144.361 52.5616L138.789 54.9952L140.575 60.3018L144.354 58.9316C144.33 59.0044 144.304 59.0772 144.284 59.1526C144.168 59.5965 144.164 60.0658 144.271 60.5121C144.379 60.9585 144.595 61.366 144.897 61.6928L144.825 65.9724L143.135 71.6716L154.698 71.8016L153.382 65.6474L153.981 59.5478L156.228 61.893Z" fill="#455A64"/>
<path d="M148.688 51.3838C148.683 51.5136 148.656 51.6414 148.609 51.7608L148.49 52.1534C148.464 52.2288 148.445 52.3016 148.411 52.39C148.393 52.4452 148.357 52.4915 148.309 52.52C148.282 52.5345 148.251 52.5409 148.22 52.5386C148.189 52.5363 148.159 52.5254 148.133 52.507C147.787 52.2834 147.464 52.022 147.168 51.727C147.533 51.9106 147.88 52.1336 148.203 52.3926C148.293 52.4836 148.336 52.2522 148.392 52.117L148.536 51.7322C148.569 51.6078 148.62 51.49 148.688 51.3838Z" fill="#667499"/>
<path d="M151.616 51.7166C151.361 52.1494 151.024 52.519 150.626 52.8008L150.542 52.8658L150.491 52.9048L150.455 52.8476C150.191 52.4665 150.005 52.0284 149.912 51.5632C149.946 51.5632 150.153 52.1326 150.559 52.7722L150.472 52.754L150.552 52.6916C151.179 52.208 151.587 51.6906 151.616 51.7166Z" fill="#667499"/>
<path d="M148.956 71.76C148.945 71.6966 148.94 71.6321 148.942 71.5676C148.942 71.4272 148.942 71.2426 148.925 71.0112C148.925 70.5302 148.925 69.8308 148.925 68.9676C148.954 67.2412 149.029 64.8596 149.123 62.2284C149.217 59.5972 149.299 57.2286 149.364 55.4918C149.383 54.639 149.4 53.9318 149.412 53.4482C149.412 53.2177 149.412 53.0331 149.412 52.8944C149.41 52.8291 149.414 52.7637 149.424 52.6994C149.424 52.6994 149.424 52.767 149.439 52.8918C149.453 53.0166 149.439 53.2168 149.456 53.4482C149.456 53.9318 149.456 54.6312 149.456 55.4918C149.427 57.2182 149.352 59.6024 149.255 62.2336C149.159 64.8648 149.082 67.2334 149.014 68.9702C148.992 69.8204 148.975 70.5146 148.963 71.0112C148.963 71.2426 148.963 71.4272 148.963 71.5676C148.966 71.6318 148.964 71.6962 148.956 71.76Z" fill="#667499"/>
<path d="M150.402 55.8376C150.402 55.822 150.501 55.8038 150.59 55.9286C150.616 55.9651 150.634 56.0075 150.642 56.0526C150.651 56.0977 150.649 56.1442 150.638 56.1886C150.622 56.2456 150.59 56.2962 150.547 56.334C150.504 56.3719 150.452 56.3955 150.397 56.4018C150.343 56.4122 150.288 56.4054 150.238 56.3823C150.187 56.3592 150.145 56.3208 150.114 56.2718C150.093 56.233 150.08 56.1896 150.076 56.1447C150.071 56.0998 150.076 56.0544 150.09 56.0118C150.143 55.8662 150.247 55.8506 150.247 55.8662C150.247 55.8818 150.192 55.9286 150.177 56.0378C150.168 56.0967 150.18 56.1571 150.211 56.2068C150.231 56.2321 150.257 56.2511 150.286 56.2621C150.316 56.273 150.347 56.2755 150.377 56.2692C150.409 56.2663 150.439 56.254 150.464 56.2338C150.489 56.2136 150.508 56.1863 150.52 56.1548C150.537 56.0981 150.532 56.0366 150.508 55.9832C150.472 55.8792 150.397 55.8584 150.402 55.8376Z" fill="#667499"/>
<path d="M150.44 60.1432C150.44 60.1276 150.527 60.112 150.609 60.216C150.632 60.2472 150.648 60.2833 150.657 60.3219C150.666 60.3605 150.667 60.4006 150.66 60.4396C150.649 60.4899 150.623 60.5354 150.588 60.5701C150.552 60.6049 150.507 60.6273 150.46 60.6346C150.413 60.6426 150.366 60.6357 150.323 60.6149C150.28 60.5942 150.244 60.5603 150.218 60.5176C150.2 60.4818 150.19 60.4416 150.19 60.4006C150.19 60.3597 150.2 60.3194 150.218 60.2836C150.286 60.1614 150.387 60.1796 150.38 60.1978C150.373 60.216 150.322 60.2368 150.298 60.3226C150.289 60.3449 150.285 60.3697 150.289 60.3939C150.292 60.4182 150.301 60.441 150.316 60.4598C150.33 60.4785 150.35 60.4924 150.371 60.4999C150.393 60.5074 150.416 60.5081 150.438 60.502C150.461 60.4979 150.483 60.4875 150.502 60.472C150.52 60.4565 150.535 60.4362 150.545 60.413C150.554 60.3898 150.558 60.3644 150.557 60.3391C150.555 60.3138 150.547 60.2894 150.535 60.268C150.498 60.1874 150.438 60.164 150.44 60.1432Z" fill="#667499"/>
<path d="M141.501 59.9118C141.386 59.6688 141.287 59.4168 141.207 59.1578C141.024 58.6508 140.792 58.0216 140.538 57.3248L139.839 55.5048C139.729 55.2588 139.637 55.0042 139.563 54.743C139.702 54.9718 139.821 55.2137 139.918 55.4658C140.121 55.9208 140.386 56.5604 140.654 57.2858C140.922 58.0112 141.137 58.6586 141.291 59.1396C141.384 59.3893 141.454 59.6478 141.501 59.9118Z" fill="#667499"/>
<path d="M158.798 57.2494C158.822 57.2754 158.074 58.1594 157.108 59.2202C156.548 59.8777 155.956 60.5042 155.337 61.0974C155.868 60.4097 156.432 59.7519 157.026 59.1266C157.977 58.0658 158.771 57.2234 158.798 57.2494Z" fill="#667499"/>
<path d="M147.966 69.4133L147.734 68.2013C147.638 67.711 147.634 67.2053 147.721 66.7131C147.807 66.221 147.984 65.7522 148.239 65.3336C148.495 64.9151 148.824 64.5551 149.209 64.2743C149.594 63.9935 150.027 63.7975 150.483 63.6975L158.145 61.9925L159.805 70.6498L152.143 72.3548C151.689 72.4571 151.221 72.4622 150.766 72.3697C150.311 72.2773 149.877 72.0891 149.489 71.816C149.101 71.5428 148.767 71.1901 148.506 70.7778C148.244 70.3656 148.061 69.9019 147.966 69.4133Z" fill="#D1E1FC"/>
<path d="M164.348 60.606L152.021 63.3516C151.971 63.0909 152.02 62.8196 152.155 62.5973C152.291 62.3749 152.503 62.2198 152.745 62.166L163.25 59.826C163.492 59.7722 163.744 59.8242 163.951 59.9705C164.157 60.1167 164.301 60.3453 164.351 60.606H164.348Z" fill="#D1E1FC"/>
<g opacity="0.4">
<path d="M158.3 61.9502C158.086 62.0367 157.865 62.1019 157.639 62.1452C157.229 62.2518 156.659 62.3844 156.029 62.5274C155.4 62.6704 154.823 62.7874 154.408 62.868C154.185 62.9248 153.958 62.9597 153.729 62.972C153.943 62.8839 154.163 62.8178 154.388 62.7744C154.801 62.6704 155.371 62.5352 156 62.3948C156.63 62.2544 157.207 62.1348 157.62 62.0542C157.843 61.9974 158.071 61.9626 158.3 61.9502Z" fill="black"/>
</g>
<g opacity="0.3">
<path d="M158.764 65.3666C158.735 65.1612 158.706 64.9558 158.679 64.753C157.239 66.0102 155.912 67.4099 154.714 68.9338C154.35 69.3473 154.054 69.8247 153.838 70.3456C153.731 70.607 153.682 70.8913 153.693 71.1767C153.704 71.462 153.776 71.7408 153.903 71.9914L157.106 71.2114L158.764 65.3666Z" fill="black"/>
</g>
<path d="M161.966 67.2438C162.554 66.5153 162.877 65.5813 162.874 64.6157C162.871 63.65 162.542 62.7185 161.949 61.9944L158.87 58.24L156.425 61.503C156.534 61.581 159.06 64.8128 159.06 64.8128L155.199 69.9946C154.605 70.7954 154.282 71.9186 154.591 72.8884L155.105 74.0506C155.284 74.4519 155.601 74.7623 155.989 74.9157C156.377 75.0691 156.805 75.0535 157.183 74.8722L158.107 74.425C158.16 74.3999 158.206 74.3609 158.241 74.3115C158.276 74.2622 158.299 74.2041 158.308 74.1426C158.316 74.0812 158.31 74.0183 158.29 73.96C158.271 73.9016 158.237 73.8496 158.194 73.8088L157.967 73.5982C157.886 73.5208 157.79 73.4624 157.687 73.4266C157.583 73.3909 157.474 73.3784 157.366 73.3902L156.191 73.5202L156.135 73.2862L161.966 67.2438Z" fill="#FFBE9D"/>
<path d="M158.296 73.9726C158.176 74.0331 158.052 74.0835 157.924 74.1234C157.625 74.2645 157.305 74.3455 156.978 74.3626C156.789 74.344 156.612 74.2516 156.481 74.1026C156.375 73.9886 156.289 73.8558 156.225 73.71C156.153 73.583 156.122 73.4342 156.136 73.2862C156.158 73.2862 156.18 73.4448 156.303 73.6658C156.373 73.794 156.46 73.9104 156.561 74.0116C156.675 74.1352 156.825 74.214 156.986 74.2352C157.296 74.2127 157.603 74.1472 157.898 74.0402C158.024 73.9836 158.16 73.9604 158.296 73.9726Z" fill="#EB996E"/>
<path d="M157.967 73.58C157.688 73.736 157.39 73.8489 157.082 73.9154C156.855 73.9831 156.613 73.959 156.401 73.8478C156.242 73.7516 156.196 73.6294 156.208 73.6242C156.22 73.619 156.292 73.6996 156.449 73.762C156.648 73.8362 156.862 73.8434 157.065 73.7828C157.356 73.6739 157.66 73.6057 157.967 73.58Z" fill="#EB996E"/>
<path d="M27.91 68.5516C27.799 68.5204 25.6053 71.9914 25.5329 74.9788C25.5271 75.2712 25.5367 75.5638 25.5619 75.855C25.6563 76.9004 25.8895 77.9257 26.2545 78.8996C28.1079 83.9462 30.0217 89.9314 30.0531 91.2938C30.1496 95.4954 31.8365 114.356 31.8365 114.356L35.5362 114.46L36.125 91.2964L34.8122 68.3618L27.91 68.5516Z" fill="#FFBE9D"/>
<path d="M34.9736 71.5312C34.9736 71.5312 39.9765 89.024 39.6627 94.6712C39.349 100.318 35.5359 114.379 35.5359 114.379L34.9736 71.5312Z" fill="#EB996E"/>
<path d="M26.4117 68.5776C26.4117 68.5776 23.6267 72.4412 25.5815 78.52C27.5122 84.5546 26.1293 91.9256 26.1293 91.9256C26.1293 91.9256 28.5934 89.934 30.3406 90.8128C32.3292 91.8138 33.6541 93.0098 36.1326 91.8528C38.7076 90.6412 40.7541 89.96 43.1071 92.3312L39.4678 78.6552L37.3634 69.9478L26.4117 68.5776Z" fill="#667499"/>
<path d="M41.0098 64.0562C40.3992 63.9964 39.3012 57.9618 39.3012 57.9618L34.7882 59.5868C34.7882 59.5868 34.6531 60.5046 37.3705 66.3468C37.3705 66.3468 38.9705 69.4148 40.9688 69.2744L41.0098 64.0562Z" fill="#EB996E"/>
<path d="M34.5106 52.1898C34.5106 52.1898 37.9279 51.8284 39.5183 56.3004L39.5328 56.342C39.5617 56.4252 39.5883 56.511 39.6172 56.602L40.947 60.6346L37.2835 62.6028V63.05L37.6817 71.1386L25.9964 68.7596L26.94 67.2958C27.8474 65.9464 27.6423 64.051 27.2706 62.4338L27.1451 61.8826L25.562 62.7744C24.8434 61.0068 24.5495 59.0728 24.7076 57.1506C24.7076 57.1012 24.7076 57.0544 24.7076 57.0076C24.8336 55.5367 25.4891 54.1773 26.5337 53.2205C27.5783 52.2637 28.9291 51.7855 30.2969 51.8882L34.5106 52.1898Z" fill="#D1E1FC"/>
<g opacity="0.3">
<path d="M28.9121 56.8542C29.5565 59.4776 30.7462 62.101 31.9433 64.4852C32.0591 64.7166 32.3125 64.9766 32.4959 64.8076C32.6359 64.6802 32.5611 64.4358 32.4766 64.2616L28.9121 56.8542Z" fill="black"/>
</g>
<path d="M36.9912 58.2816C37.0895 58.4775 37.1703 58.6829 37.2325 58.8952C37.3605 59.28 37.5415 59.8052 37.7152 60.4084C37.7995 60.6964 37.8298 60.9995 37.8045 61.3002C37.7734 61.5434 37.7041 61.779 37.5994 61.997C37.5147 62.2011 37.4034 62.3911 37.2687 62.5612C37.338 62.3552 37.4186 62.1538 37.5101 61.958C37.5995 61.7455 37.6573 61.5191 37.6814 61.2872C37.6997 61.0025 37.6678 60.7167 37.5873 60.4448C37.4232 59.8754 37.2736 59.3606 37.1457 58.9238C37.0726 58.7164 37.0208 58.5011 36.9912 58.2816Z" fill="#667499"/>
<path d="M36.029 44.8864C36.0295 45.4107 36.1547 45.9261 36.3926 46.3835C36.6304 46.8409 36.973 47.2251 37.3877 47.4994C37.6196 47.6267 37.8437 47.77 38.0586 47.9284C38.1659 48.009 38.2544 48.1152 38.3172 48.2388C38.38 48.3624 38.4154 48.5 38.4206 48.6408C38.4037 49.0802 37.991 49.361 37.6266 49.5612C37.7344 49.6597 37.8218 49.7813 37.8833 49.9184C37.9447 50.0555 37.9788 50.205 37.9834 50.3571C37.9879 50.5093 37.9628 50.6608 37.9097 50.8018C37.8566 50.9429 37.7766 51.0704 37.6749 51.1761C37.5732 51.2818 37.4521 51.3634 37.3193 51.4156C37.1866 51.4678 37.0452 51.4894 36.9042 51.4791C36.7632 51.4688 36.6258 51.4267 36.5008 51.3557C36.3758 51.2846 36.2661 51.1862 36.1786 51.0666C36.1492 51.4787 36.0021 51.8708 35.7575 52.1893C35.5129 52.5077 35.1829 52.7367 34.8127 52.845C34.4402 52.9433 34.052 52.9511 33.6764 52.8679C33.3007 52.7847 32.947 52.6126 32.6407 52.364C32.0295 51.8618 31.5525 51.1944 31.2578 50.4296" fill="#667499"/>
<path d="M38.0104 46.5634C38.0104 46.5634 38.0587 46.6206 38.0563 46.7532C38.052 46.8452 38.028 46.9349 37.9861 47.0152C37.9443 47.0955 37.8857 47.1642 37.8149 47.216C37.7027 47.2844 37.5759 47.3203 37.4469 47.3203C37.3179 47.3203 37.1912 47.2844 37.0789 47.216C36.81 47.0622 36.5886 46.8272 36.4418 46.54C36.1686 46.0384 35.9937 45.4818 35.9277 44.9046C35.89 44.6689 35.89 44.4279 35.9277 44.1922C35.947 44.1922 35.9543 44.4522 36.0267 44.8916C36.1195 45.447 36.3007 45.9809 36.5624 46.4698C36.6899 46.7401 36.8845 46.967 37.1247 47.125C37.2209 47.1842 37.329 47.2171 37.4397 47.2207C37.5504 47.2244 37.6602 47.1986 37.7594 47.1458C37.8228 47.1039 37.8771 47.0479 37.9188 46.9815C37.9604 46.9152 37.9883 46.84 38.0008 46.761C38.0225 46.6336 37.9984 46.566 38.0104 46.5634Z" fill="#667499"/>
<path d="M34.149 52.4004C34.2021 51.402 34.2672 50.4114 34.2672 50.4114C34.2672 50.4114 35.749 50.2424 35.8383 48.659C35.9276 47.0756 35.8383 43.4304 35.8383 43.4304L33.1402 42.0108L30.167 44.4314L30.4711 52.3692C30.4894 52.8594 30.6761 53.3247 30.995 53.675C31.3138 54.0252 31.7421 54.2353 32.1966 54.2646C32.4387 54.2818 32.6816 54.2472 32.9112 54.1625C33.1408 54.0779 33.3525 53.9451 33.5341 53.7717C33.7157 53.5983 33.8635 53.3878 33.9691 53.1524C34.0746 52.917 34.1358 52.6614 34.149 52.4004Z" fill="#FFBE9D"/>
<path d="M35.5435 46.0902C35.5435 46.1303 35.5324 46.1695 35.5117 46.2029C35.4911 46.2362 35.4617 46.2622 35.4273 46.2776C35.3929 46.2929 35.355 46.2969 35.3185 46.2891C35.282 46.2813 35.2485 46.262 35.2221 46.2336C35.1958 46.2052 35.1779 46.1691 35.1706 46.1298C35.1633 46.0904 35.1671 46.0496 35.1813 46.0126C35.1956 45.9755 35.2197 45.9439 35.2507 45.9216C35.2816 45.8993 35.318 45.8874 35.3552 45.8874C35.4052 45.8874 35.453 45.9088 35.4883 45.9468C35.5236 45.9848 35.5435 46.0364 35.5435 46.0902Z" fill="#667499"/>
<path d="M35.7169 45.8692C35.6928 45.8952 35.5552 45.7678 35.3525 45.7574C35.1498 45.747 34.9977 45.8484 34.976 45.8198C34.9543 45.7912 34.9905 45.76 35.0581 45.7106C35.1475 45.6479 35.2532 45.6178 35.3597 45.6248C35.4662 45.6319 35.5677 45.6756 35.6493 45.7496C35.7169 45.8068 35.7362 45.8562 35.7169 45.8692Z" fill="#667499"/>
<path d="M33.3643 46.0902C33.3646 46.1167 33.36 46.143 33.3509 46.1676C33.3417 46.1922 33.328 46.2146 33.3107 46.2334C33.2934 46.2523 33.2729 46.2673 33.2501 46.2775C33.2274 46.2877 33.2031 46.293 33.1785 46.293C33.1285 46.293 33.0807 46.2716 33.0454 46.2336C33.0101 46.1956 32.9902 46.144 32.9902 46.0902C32.9902 46.0364 33.0101 45.9848 33.0454 45.9468C33.0807 45.9088 33.1285 45.8874 33.1785 45.8874C33.2031 45.8874 33.2274 45.8927 33.2501 45.9029C33.2729 45.9131 33.2934 45.9281 33.3107 45.9469C33.328 45.9658 33.3417 45.9882 33.3509 46.0128C33.36 46.0374 33.3646 46.0637 33.3643 46.0902Z" fill="#667499"/>
<path d="M33.4825 45.8692C33.4584 45.8952 33.3184 45.7678 33.1157 45.7574C32.913 45.747 32.7634 45.8484 32.7416 45.8198C32.7199 45.7912 32.7561 45.76 32.8237 45.7106C32.9131 45.6479 33.0188 45.6178 33.1253 45.6248C33.2318 45.6319 33.3333 45.6756 33.415 45.7496C33.4753 45.8068 33.4946 45.8562 33.4825 45.8692Z" fill="#667499"/>
<path d="M34.211 47.697C34.319 47.6668 34.4301 47.652 34.5416 47.6528C34.5923 47.6528 34.6454 47.6528 34.6575 47.6008C34.665 47.5409 34.6549 47.48 34.6285 47.4266C34.5827 47.2784 34.5368 47.1328 34.491 46.9768C34.3944 46.6596 34.31 46.3684 34.2496 46.1578C34.2113 46.0455 34.1861 45.9284 34.1748 45.8094C34.2291 45.9129 34.272 46.0228 34.3027 46.137C34.3727 46.345 34.4644 46.6336 34.5609 46.9534C34.6044 47.1068 34.6478 47.255 34.6937 47.4032C34.7237 47.4741 34.7297 47.5542 34.7106 47.6294C34.6926 47.6597 34.6669 47.6838 34.6364 47.6986C34.606 47.7133 34.5722 47.7182 34.5392 47.7126C34.4296 47.7197 34.3196 47.7145 34.211 47.697Z" fill="#667499"/>
<path d="M33.5451 47.9154C33.3424 47.7698 34.1122 48.2794 34.5249 48.2794C34.4509 48.39 34.3443 48.4704 34.2226 48.5077C34.1008 48.545 33.971 48.5369 33.854 48.4848C33.4196 48.2872 33.5451 47.9154 33.5451 47.9154Z" fill="white"/>
<path d="M34.2694 50.4114C33.5715 50.379 32.8967 50.1328 32.3242 49.7016C32.3242 49.7016 32.7659 50.8638 34.238 50.7988L34.2694 50.4114Z" fill="#EB996E"/>
<path d="M35.2199 42.2682C33.7719 40.6406 32.7655 40.9682 32.1936 40.9682C31.5654 41.044 30.9586 41.2589 30.4113 41.5994C29.8639 41.9399 29.3878 42.3986 29.0128 42.9468C28.6074 43.4018 28.0282 44.8838 27.9606 45.4064C27.9341 45.934 27.9389 46.4629 27.9751 46.9898C27.9751 47.5098 27.8592 48.087 27.4924 48.438C27.2511 48.659 26.9325 48.7864 26.7925 49.0854C26.7283 49.2685 26.7254 49.4701 26.7845 49.6552C26.8435 49.8404 26.9608 49.9975 27.1159 50.0994C27.4342 50.2921 27.8003 50.373 28.1633 50.3308C28.1339 50.7245 28.2409 51.1159 28.4638 51.4295C28.6867 51.7431 29.0095 51.9566 29.37 52.0286C29.7375 52.0809 30.1096 51.9774 30.4077 51.74C30.6543 51.998 30.9154 52.2394 31.1896 52.4628C31.2508 50.1609 31.2057 47.8599 31.0545 45.5598C32.0343 45.3726 33.7912 44.8032 34.0977 43.1132C34.4887 44.0752 35.0823 44.6004 35.8715 45.3284C35.8763 45.331 36.6824 43.8984 35.2199 42.2682Z" fill="#667499"/>
<path d="M31.168 44.9514C31.3675 44.9244 31.5694 44.9244 31.7689 44.9514C32.2395 45.0071 32.7157 44.9466 33.1614 44.7746C33.3969 44.6701 33.599 44.4939 33.743 44.2676C33.8603 44.0785 33.9422 43.8665 33.9843 43.6436C34.0543 43.2614 34.0205 43.0118 34.0422 43.0092C34.1037 43.2203 34.1153 43.4446 34.076 43.6618C34.0466 43.9018 33.9701 44.1322 33.8516 44.3378C33.6991 44.5905 33.4797 44.788 33.2217 44.9046C32.7586 45.0861 32.26 45.1362 31.7737 45.0502C31.5694 45.0379 31.3666 45.0048 31.168 44.9514Z" fill="#667499"/>
<path d="M27.3457 48.8228C27.4274 48.8248 27.509 48.8125 27.587 48.7864C27.6888 48.7431 27.7787 48.6727 27.8484 48.5818C27.918 48.4908 27.9651 48.3823 27.9852 48.2664C28.0248 47.9133 27.9624 47.5556 27.8067 47.242C27.7225 47.0428 27.6531 46.8368 27.5991 46.6258C27.5477 46.3935 27.5338 46.1534 27.5581 45.916C27.6077 45.46 27.7575 45.0233 27.9949 44.642C28.1858 44.335 28.4084 44.0524 28.6586 43.7996C28.8685 43.5812 29.0495 43.42 29.175 43.3108C29.2358 43.2474 29.3049 43.1939 29.3801 43.1522C29.3946 43.1704 29.1388 43.4278 28.7237 43.8698C28.4886 44.126 28.2784 44.4074 28.0962 44.7096C27.8761 45.0777 27.7359 45.4945 27.686 45.929C27.665 46.1515 27.6772 46.3763 27.7222 46.5946C27.7735 46.7989 27.8388 46.9988 27.9177 47.1926C28.0781 47.5307 28.1331 47.9154 28.0745 48.2898C28.0473 48.4167 27.9894 48.5335 27.9068 48.6285C27.8241 48.7234 27.7197 48.7932 27.6039 48.8306C27.5404 48.8468 27.4743 48.8468 27.4109 48.8306C27.365 48.8384 27.3457 48.828 27.3457 48.8228Z" fill="#667499"/>
<path d="M35.4131 114.975V114.455L31.5977 114.377V115.981L31.839 115.996C32.8888 116.061 37.1797 116.241 37.8723 116.012C38.6446 115.762 35.4131 114.975 35.4131 114.975Z" fill="#D1E1FC"/>
<g opacity="0.6">
<path d="M32.9591 116.007C32.903 115.662 32.7312 115.351 32.4765 115.133C32.225 114.917 31.9071 114.81 31.5859 114.834V115.978L32.9591 116.007Z" fill="white"/>
</g>
<g opacity="0.6">
<path d="M36.9869 115.419C36.9869 115.419 38.1187 115.77 37.9787 115.973C37.8388 116.176 33.4924 116.165 31.5762 115.973V115.882L36.6442 115.934C36.6442 115.934 36.7648 115.44 36.9869 115.419Z" fill="white"/>
</g>
<path d="M31.5566 115.859H31.6218L31.81 115.872L32.5003 115.905C33.0843 115.929 33.8927 115.95 34.7833 115.952C35.6738 115.955 36.4726 115.937 37.0663 115.916L37.7589 115.885H37.9472H38.0123H37.7565L37.0663 115.898C36.4823 115.898 35.6738 115.921 34.7833 115.921C33.8927 115.921 33.0939 115.903 32.5003 115.887L31.81 115.872H31.6218L31.5566 115.859Z" fill="#667499"/>
<path d="M36.6485 116.025C36.6796 115.901 36.7233 115.782 36.7788 115.669C36.8485 115.564 36.9295 115.468 37.0201 115.383C36.9023 115.431 36.8045 115.523 36.745 115.643C36.6718 115.754 36.6376 115.889 36.6485 116.025Z" fill="#667499"/>
<path d="M35.4547 115.313C35.4667 115.313 35.5198 115.25 35.5753 115.157C35.6154 115.103 35.6434 115.039 35.6574 114.972C35.6453 114.972 35.5922 115.034 35.5367 115.131C35.4812 115.227 35.445 115.305 35.4547 115.313Z" fill="#667499"/>
<path d="M35.1477 115.138C35.1477 115.138 35.2153 115.105 35.2804 115.042C35.3456 114.98 35.3939 114.917 35.3842 114.907C35.3746 114.897 35.3167 114.941 35.2515 115.003C35.1863 115.066 35.1381 115.128 35.1477 115.138Z" fill="#667499"/>
<path d="M34.9521 114.751C35.0163 114.776 35.0847 114.785 35.1525 114.777C35.219 114.786 35.2867 114.779 35.3503 114.756C35.287 114.732 35.2195 114.722 35.1525 114.728C35.0414 114.728 34.9521 114.735 34.9521 114.751Z" fill="#667499"/>
<path d="M34.8867 114.478C34.9526 114.525 35.0299 114.549 35.1087 114.548C35.1858 114.562 35.265 114.551 35.3356 114.514C35.2613 114.503 35.1862 114.497 35.1112 114.499C35.0371 114.485 34.962 114.478 34.8867 114.478Z" fill="#667499"/>
<path d="M35.585 114.956C35.6648 114.972 35.7465 114.972 35.8263 114.956C35.9148 114.946 36.0021 114.926 36.0869 114.897C36.1391 114.88 36.1893 114.858 36.2366 114.829C36.2656 114.812 36.2873 114.783 36.2969 114.748C36.3005 114.729 36.299 114.708 36.2927 114.69C36.2863 114.671 36.2752 114.654 36.2607 114.642C36.1674 114.592 36.061 114.579 35.9598 114.605C35.8586 114.63 35.7687 114.693 35.7056 114.782C35.6678 114.834 35.6406 114.895 35.626 114.959C35.6212 114.982 35.6212 115.006 35.626 115.029C35.6522 114.948 35.6905 114.873 35.7394 114.806C35.7935 114.736 35.8658 114.685 35.947 114.66C36.043 114.625 36.148 114.633 36.239 114.681C36.2776 114.712 36.2631 114.761 36.2197 114.79C36.1754 114.815 36.1294 114.835 36.0821 114.852C35.9995 114.883 35.9148 114.906 35.8287 114.923C35.6791 114.949 35.585 114.949 35.585 114.956Z" fill="#667499"/>
<path d="M35.6471 114.969C35.6785 114.915 35.6889 114.85 35.6761 114.787C35.6688 114.719 35.6465 114.653 35.6109 114.595C35.5907 114.555 35.5611 114.522 35.5251 114.498C35.4891 114.474 35.448 114.461 35.4058 114.46C35.3809 114.465 35.3591 114.481 35.3451 114.504C35.331 114.527 35.326 114.555 35.331 114.582C35.3373 114.624 35.3512 114.663 35.372 114.699C35.4038 114.757 35.4428 114.811 35.4878 114.858C35.5258 114.905 35.5738 114.941 35.6278 114.964C35.6278 114.964 35.5796 114.917 35.512 114.834C35.4723 114.785 35.4376 114.732 35.4082 114.676C35.3768 114.621 35.3527 114.52 35.4082 114.509C35.4637 114.499 35.5313 114.566 35.5675 114.621C35.6023 114.672 35.6262 114.731 35.6375 114.793C35.6458 114.851 35.649 114.91 35.6471 114.969Z" fill="#667499"/>
<path d="M31.5303 114.816C31.5303 114.816 31.6389 114.816 31.8126 114.816C32.0362 114.845 32.2481 114.94 32.4256 115.089C32.6003 115.242 32.7323 115.445 32.8069 115.674C32.8648 115.848 32.8697 115.968 32.8793 115.965C32.884 115.939 32.884 115.911 32.8793 115.885C32.873 115.81 32.8593 115.735 32.8383 115.664C32.7683 115.423 32.635 115.21 32.4546 115.05C32.2705 114.896 32.0476 114.806 31.815 114.79C31.7453 114.782 31.6749 114.782 31.6051 114.79C31.5791 114.795 31.5538 114.803 31.5303 114.816Z" fill="#667499"/>
<path d="M33.3643 115.474C33.7315 115.549 34.1082 115.554 34.4768 115.487C34.4768 115.471 34.2355 115.487 33.9193 115.487C33.6032 115.487 33.3667 115.458 33.3643 115.474Z" fill="#667499"/>
<path d="M32.6182 115.471C32.6182 115.471 32.6376 115.526 32.6643 115.588C32.691 115.651 32.7031 115.705 32.7152 115.703C32.7274 115.7 32.7371 115.638 32.7152 115.567C32.6934 115.497 32.6254 115.461 32.6182 115.471Z" fill="#667499"/>
<path d="M32.3389 115.094C32.3389 115.094 32.3534 115.146 32.3923 115.188C32.4311 115.229 32.4723 115.258 32.482 115.25C32.4917 115.242 32.4651 115.196 32.4262 115.154C32.3874 115.112 32.3389 115.084 32.3389 115.094Z" fill="#667499"/>
<path d="M31.9356 114.92C31.9356 114.936 31.9887 114.933 32.0442 114.956C32.0997 114.98 32.1408 115.008 32.1504 115.001C32.1601 114.993 32.1287 114.933 32.0611 114.907C31.9935 114.881 31.9332 114.92 31.9356 114.92Z" fill="#667499"/>
<path d="M31.6504 114.839C31.6504 114.853 31.6674 114.874 31.6989 114.887C31.7305 114.9 31.7596 114.9 31.7644 114.887C31.7693 114.874 31.7475 114.853 31.7159 114.839C31.6844 114.826 31.6552 114.826 31.6504 114.839Z" fill="#667499"/>
<path opacity="0.3" d="M27.3867 66.313C27.3867 66.313 27.8211 69.9192 31.0791 69.7892C33.2583 69.6835 35.4285 69.4229 37.5758 69.0092L37.542 68.3254L27.3867 66.313Z" fill="black"/>
<path d="M46.2587 64.0224C45.9691 63.5206 43.9781 64.7166 43.8019 64.8024C43.6257 64.8882 43.5027 64.6178 43.6644 64.5424C43.9057 64.441 46.319 63.3178 46.0463 62.8238C45.8919 62.5638 45.4623 62.894 45.4623 62.894C45.4623 62.894 43.2613 64.1264 43.1382 63.8872C43.0152 63.648 44.2798 62.8758 44.7238 62.6496C45.1679 62.4234 45.2451 62.1088 44.9893 61.9814C44.8179 61.8956 43.4399 62.556 43.0055 62.79C42.5711 63.024 41.3862 63.6948 41.7216 62.855C42.0571 62.0152 42.0185 61.2326 41.8712 61.035C41.8331 60.9919 41.7833 60.9628 41.729 60.9516C41.6747 60.9404 41.6185 60.9478 41.5683 60.9727C41.518 60.9976 41.4763 61.0388 41.4488 61.0906C41.4214 61.1423 41.4096 61.2019 41.4151 61.2612C41.3935 61.5686 41.3326 61.8714 41.2341 62.1608C41.1632 62.3971 41.0554 62.6186 40.9156 62.816C40.7515 63.0474 40.6042 63.2346 40.4739 63.3906C39.2045 63.869 35.5821 65.078 32.1986 64.7452C31.5856 64.6854 30.0266 60.2758 30.0266 60.2758L25.8129 62.6158C25.8129 62.6158 25.7357 62.8628 27.6567 66.8902C30.2728 72.3736 42.0909 66.6848 42.0909 66.6848V66.6718C42.9872 66.4803 43.8733 66.2373 44.7455 65.9438C45.9329 65.481 45.8967 65.364 45.8219 65.2262C45.624 64.8492 43.703 65.9542 43.9877 65.4576C44.2725 64.961 46.4807 64.4046 46.2587 64.0224Z" fill="#FFBE9D"/>
</svg>
