<svg width="24" height="24" viewBox="0 0 24 24" fill="none" xmlns="http://www.w3.org/2000/svg">
<g clip-path="url(#clip0_23_196)">
<path d="M13.9999 8.79993C13.0524 8.79993 12.1775 9.09557 11.4615 9.59994H6.79989C6.55989 9.59994 6.3999 9.75993 6.3999 9.99993C6.3999 10.2399 6.55989 10.3999 6.79989 10.3999H10.5991C10.2182 10.8627 9.93057 11.4053 9.76389 11.9999H6.79989C6.55989 11.9999 6.3999 12.1599 6.3999 12.3999C6.3999 12.6399 6.55989 12.7999 6.79989 12.7999H9.61797C9.60625 12.9316 9.59992 13.0649 9.59992 13.1998C9.59992 13.6163 9.65711 14.0187 9.76393 14.3998H6.79993C6.55993 14.3998 6.39995 14.5598 6.39995 14.7998C6.39995 15.0398 6.55993 15.1998 6.79993 15.1998H10.0757C10.8009 16.6274 12.2814 17.5998 13.9999 17.5998C16.4399 17.5998 18.4 15.6398 18.4 13.1998C18.3999 10.76 16.4399 8.79993 13.9999 8.79993ZM13.9999 16.7999C11.9999 16.7999 10.3999 15.2 10.3999 13.1999C10.3999 12.9709 10.4218 12.7474 10.462 12.5306C10.4693 12.5055 10.4743 12.4789 10.4771 12.4511C10.6551 11.5977 11.1321 10.8593 11.7949 10.3477C11.8266 10.33 11.8561 10.3081 11.8824 10.2823C12.4752 9.85288 13.2058 9.59994 13.9999 9.59994C15.9999 9.59994 17.5999 11.1999 17.5999 13.1999C17.5999 15.2 15.9999 16.7999 13.9999 16.7999Z" fill="#828282"/>
<path d="M16.2001 11.24C16.0001 11.12 15.7601 11.16 15.6401 11.36L13.5201 14.56L12.2801 13.32C12.1201 13.16 11.8801 13.16 11.7201 13.32C11.5601 13.48 11.5601 13.72 11.7201 13.88L13.3201 15.48C13.4001 15.56 13.4801 15.6 13.6001 15.6C13.76 15.6 13.88 15.52 13.9201 15.4L16.3201 11.8C16.4401 11.6 16.4001 11.36 16.2001 11.24Z" fill="#828282"/>
<path d="M21.6 0H6C4.88002 0 3.99998 0.879984 3.99998 2.00002V18.4H1.2C0.519984 18.4 0 18.92 0 19.6V21.6C0 22.92 1.08 24 2.4 24H17.36H17.6C18.2 24 18.76 23.76 19.2 23.36C19.72 22.92 20 22.28 20 21.6V5.60002H22.8C23.48 5.60002 24 5.08003 24 4.40002V2.4C24 1.08 22.92 0 21.6 0ZM2.4 23.2C1.52002 23.2 0.800016 22.48 0.800016 21.6V19.6C0.800016 19.4 0.96 19.2 1.2 19.2H4.40002H15.2V21.52V21.6C15.2 22.2 15.4 22.76 15.8 23.2H2.4ZM19.2 2.4V21.6C19.2 22.08 19 22.48 18.68 22.8C18.379 23.0341 18.022 23.1839 17.6558 23.2034C17.6377 23.2014 17.6192 23.2 17.6 23.2C17.3288 23.2 17.0728 23.1314 16.8484 23.011C16.3467 22.728 16 22.1675 16 21.52V18.8C16 18.56 15.84 18.4 15.6 18.4H4.8V2.00002C4.8 1.32 5.31998 0.800016 6 0.800016H19.8C19.723 0.894141 19.6519 0.994031 19.5871 1.09833C19.3622 1.44412 19.2235 1.85039 19.2029 2.28642C19.201 2.32411 19.2 2.36198 19.2 2.4ZM23.2 4.40002C23.2 4.60003 23.04 4.8 22.8 4.8H20V2.4C20 1.52002 20.72 0.800016 21.6 0.800016C22.48 0.800016 23.2 1.52002 23.2 2.4V4.40002Z" fill="#828282"/>
<path d="M9.60018 3.20004H14.4002C14.6402 3.20004 14.8002 3.04006 14.8002 2.80006C14.8002 2.56006 14.6402 2.40002 14.4002 2.40002H9.60018C9.36018 2.40002 9.2002 2.56001 9.2002 2.80001C9.2002 3.04001 9.36018 3.20004 9.60018 3.20004Z" fill="#828282"/>
<path d="M6.79989 5.60002H17.1999C17.4399 5.60002 17.5999 5.44003 17.5999 5.20003C17.5999 4.96003 17.4399 4.80005 17.1999 4.80005H6.79989C6.55989 4.80005 6.3999 4.96003 6.3999 5.20003C6.3999 5.44003 6.55989 5.60002 6.79989 5.60002Z" fill="#828282"/>
<path d="M6.79989 8.00004H17.1999C17.4399 8.00004 17.5999 7.84006 17.5999 7.60006C17.5999 7.36006 17.4399 7.20007 17.1999 7.20007H6.79989C6.55989 7.20007 6.3999 7.36006 6.3999 7.60006C6.3999 7.84006 6.55989 8.00004 6.79989 8.00004Z" fill="#828282"/>
</g>
<defs>
<clipPath id="clip0_23_196">
<rect width="24" height="24" fill="white"/>
</clipPath>
</defs>
</svg>
