<svg width="24" height="24" viewBox="0 0 24 24" fill="none" xmlns="http://www.w3.org/2000/svg">
<g clip-path="url(#clip0_6_1997)">
<path d="M7.5524 11.5308C6.29463 11.5308 5.27127 12.5541 5.27127 13.8119C5.27127 15.0698 6.29463 16.0931 7.5524 16.0931C8.81018 16.0931 9.83354 15.0698 9.83354 13.8119C9.83354 12.5541 8.81018 11.5308 7.5524 11.5308ZM7.5524 14.4959C7.17527 14.4959 6.86853 14.1891 6.86853 13.812C6.86853 13.4349 7.17527 13.1282 7.5524 13.1282C7.92953 13.1282 8.23628 13.4349 8.23628 13.812C8.23628 14.1891 7.92953 14.4959 7.5524 14.4959Z" fill="#828282"/>
<path d="M9.52913 7.90674C8.63459 7.90674 7.90683 8.63458 7.90683 9.52904C7.90683 10.4235 8.63459 11.1513 9.52913 11.1513C10.4236 11.1513 11.1514 10.4235 11.1514 9.52904C11.1514 8.63458 10.4236 7.90674 9.52913 7.90674ZM9.52913 9.55393C9.51539 9.55393 9.50416 9.5427 9.50416 9.52896C9.50416 9.51522 9.51539 9.50399 9.52913 9.50399C9.54287 9.50399 9.5541 9.51522 9.5541 9.52896C9.55402 9.54278 9.54287 9.55393 9.52913 9.55393Z" fill="#828282"/>
<path d="M21.8836 2.63556H12.6466V1.59733H13.4698C13.9109 1.59733 14.2685 1.23976 14.2685 0.798707C14.2685 0.357657 13.9109 0 13.4698 0H3.73842C3.29737 0 2.93972 0.357657 2.93972 0.798707C2.93972 1.23976 3.29737 1.59733 3.73842 1.59733H4.56162V2.63564H2.11644C1.67539 2.63564 1.31774 2.99329 1.31774 3.43434C1.31774 3.87539 1.67539 4.23305 2.11644 4.23305H4.56162V7.71346C2.54958 9.05875 1.31774 11.3398 1.31774 13.7741C1.31774 17.7918 4.58634 21.0604 8.60404 21.0604C12.6217 21.0604 15.8904 17.7918 15.8904 13.7741C15.8904 11.3398 14.6587 9.05883 12.6465 7.71346V4.23305H21.0848V22.4028H3.43426C2.99321 22.4028 2.63556 22.7604 2.63556 23.2015C2.63556 23.6425 2.99321 24.0002 3.43426 24.0002H21.8836C22.3246 24.0002 22.6823 23.6425 22.6823 23.2015V3.43426C22.6822 2.99321 22.3246 2.63556 21.8836 2.63556ZM6.15895 1.59733H11.0494V2.63564H6.15895V1.59733ZM11.4479 8.84768C13.2029 9.86327 14.2932 11.751 14.2932 13.774C14.2932 16.9109 11.7411 19.4629 8.60412 19.4629C5.46731 19.4629 2.91523 16.9109 2.91523 13.774C2.91523 11.751 4.00541 9.86335 5.7604 8.84768C6.00711 8.70489 6.15903 8.44145 6.15903 8.15636V4.23297H11.0495V8.15644C11.0493 8.44145 11.2012 8.70489 11.4479 8.84768Z" fill="#828282"/>
</g>
<defs>
<clipPath id="clip0_6_1997">
<rect width="24" height="24" fill="white"/>
</clipPath>
</defs>
</svg>
