<svg width="24" height="24" viewBox="0 0 24 24" fill="none" xmlns="http://www.w3.org/2000/svg">
<path d="M11.1004 8.76841C10.9084 8.98921 10.8004 9.29401 10.8004 9.60001C10.8004 9.75914 10.7372 9.91175 10.6247 10.0243C10.5121 10.1368 10.3595 10.2 10.2004 10.2C10.0413 10.2 9.88866 10.1368 9.77614 10.0243C9.66361 9.91175 9.6004 9.75914 9.6004 9.60001C9.6004 9.03241 9.7936 8.43601 10.2004 7.97521C10.6168 7.50241 11.2324 7.20001 12.0004 7.20001C12.7684 7.20001 13.384 7.50241 13.8004 7.97521C14.2072 8.43721 14.4004 9.03121 14.4004 9.60001C14.4004 10.188 14.2612 10.644 14.038 11.028C13.8424 11.3628 13.5868 11.628 13.384 11.8404L13.3336 11.892C13.1104 12.126 12.9388 12.3168 12.8128 12.5568C12.6928 12.786 12.6004 13.0896 12.6004 13.5516C12.6004 13.7107 12.5372 13.8634 12.4247 13.9759C12.3121 14.0884 12.1595 14.1516 12.0004 14.1516C11.8413 14.1516 11.6887 14.0884 11.5761 13.9759C11.4636 13.8634 11.4004 13.7107 11.4004 13.5516C11.4004 12.9132 11.5324 12.4152 11.7496 12C11.962 11.5956 12.2416 11.2992 12.4672 11.0628L12.4936 11.0352C12.7192 10.7988 12.88 10.6308 13.0012 10.4232C13.1152 10.2276 13.2004 9.98041 13.2004 9.60001C13.2004 9.29401 13.0936 8.98801 12.9004 8.76841C12.7168 8.56081 12.4324 8.40001 12.0004 8.40001C11.5684 8.40001 11.284 8.56081 11.1004 8.76841ZM12.0004 17.0544C12.1133 17.0587 12.2259 17.0401 12.3315 16.9999C12.437 16.9596 12.5334 16.8985 12.6148 16.8201C12.6962 16.7417 12.7609 16.6478 12.8051 16.5438C12.8494 16.4398 12.8721 16.328 12.8721 16.215C12.8721 16.102 12.8494 15.9902 12.8051 15.8862C12.7609 15.7823 12.6962 15.6883 12.6148 15.6099C12.5334 15.5316 12.437 15.4704 12.3315 15.4302C12.2259 15.3899 12.1133 15.3713 12.0004 15.3756C11.7776 15.3756 11.564 15.4641 11.4064 15.6216C11.2489 15.7792 11.1604 15.9928 11.1604 16.2156C11.1604 16.4384 11.2489 16.652 11.4064 16.8096C11.564 16.9671 11.7776 17.0556 12.0004 17.0556V17.0544ZM2.4004 12C2.40092 9.9022 3.08859 7.8623 4.35822 6.19232C5.62786 4.52233 7.40956 3.3142 9.43083 2.75269C11.4521 2.19118 13.6017 2.30721 15.5507 3.08304C17.4998 3.85887 19.1411 5.25178 20.2236 7.04873C21.3061 8.84568 21.7702 10.9477 21.5449 13.0334C21.3196 15.1191 20.4173 17.0736 18.976 18.5979C17.5348 20.1222 15.6339 21.1325 13.5641 21.4742C11.4943 21.8159 9.36953 21.4702 7.5148 20.49L3.1468 21.582C3.04627 21.6073 2.94091 21.6061 2.84099 21.5785C2.74106 21.5509 2.64998 21.498 2.57663 21.4247C2.50327 21.3515 2.45014 21.2605 2.42241 21.1606C2.39468 21.0607 2.3933 20.9554 2.4184 20.8548L3.5104 16.4856C2.77923 15.1036 2.3981 13.5635 2.4004 12ZM12.0004 3.60001C10.5345 3.59956 9.09391 3.98276 7.82195 4.71153C6.54998 5.4403 5.49088 6.48925 4.7499 7.75414C4.00892 9.01903 3.61187 10.4558 3.5982 11.9217C3.58454 13.3876 3.95473 14.8315 4.672 16.11C4.74733 16.2434 4.7688 16.4005 4.732 16.5492L3.8248 20.1756L7.4512 19.2684C7.59989 19.2316 7.75703 19.2531 7.8904 19.3284C9.01031 19.9558 10.2591 20.3182 11.5409 20.3877C12.8227 20.4572 14.1034 20.232 15.2846 19.7295C16.4657 19.2269 17.5161 18.4603 18.3548 17.4885C19.1935 16.5167 19.7984 15.3657 20.1229 14.1237C20.4475 12.8817 20.4831 11.5819 20.2269 10.3241C19.9708 9.06619 19.4298 7.88376 18.6455 6.86757C17.8612 5.85139 16.8544 5.02847 15.7024 4.46204C14.5505 3.8956 13.2841 3.60071 12.0004 3.60001Z" fill="#828282"/>
</svg>
