<svg width="20" height="20" viewBox="0 0 20 20" fill="none" xmlns="http://www.w3.org/2000/svg">
<path d="M9.9425 1.71498C10.0457 1.58585 10.1735 1.47847 10.3185 1.39906C10.4634 1.31964 10.6227 1.26977 10.7871 1.25234C10.9515 1.2349 11.1177 1.25024 11.2761 1.29747C11.4345 1.3447 11.582 1.42288 11.71 1.52748L15.7875 4.85748C16.0117 5.04057 16.1655 5.29582 16.2225 5.57964C16.2795 5.86347 16.2362 6.15827 16.1 6.41373C15.7435 6.30478 15.3728 6.24959 15 6.24998H14.625L14.9975 5.82498L12.85 4.07123L11.0787 6.25123H9.4675L11.8813 3.28123L10.9187 2.49498L7.92125 6.24998H6.32125L9.9425 1.71498ZM13.125 12.5C12.9592 12.5 12.8003 12.5658 12.6831 12.683C12.5658 12.8003 12.5 12.9592 12.5 13.125C12.5 13.2907 12.5658 13.4497 12.6831 13.5669C12.8003 13.6841 12.9592 13.75 13.125 13.75H14.375C14.5408 13.75 14.6997 13.6841 14.8169 13.5669C14.9342 13.4497 15 13.2907 15 13.125C15 12.9592 14.9342 12.8003 14.8169 12.683C14.6997 12.5658 14.5408 12.5 14.375 12.5H13.125ZM3.75 6.87498C3.75 6.70922 3.81585 6.55025 3.93306 6.43304C4.05027 6.31583 4.20924 6.24998 4.375 6.24998H5.0725L6.06625 4.99998H4.375C3.87772 4.99998 3.40081 5.19753 3.04917 5.54916C2.69754 5.90079 2.5 6.3777 2.5 6.87498V14.375C2.5 15.2038 2.82924 15.9986 3.41529 16.5847C4.00134 17.1707 4.7962 17.5 5.625 17.5H15C15.663 17.5 16.2989 17.2366 16.7678 16.7677C17.2366 16.2989 17.5 15.663 17.5 15V9.99998C17.5 9.33694 17.2366 8.70106 16.7678 8.23222C16.2989 7.76338 15.663 7.49998 15 7.49998H4.375C4.20924 7.49998 4.05027 7.43414 3.93306 7.31693C3.81585 7.19972 3.75 7.04074 3.75 6.87498ZM3.75 14.375V8.64373C3.945 8.71248 4.15625 8.74998 4.375 8.74998H15C15.3315 8.74998 15.6495 8.88168 15.8839 9.1161C16.1183 9.35052 16.25 9.66846 16.25 9.99998V15C16.25 15.3315 16.1183 15.6494 15.8839 15.8839C15.6495 16.1183 15.3315 16.25 15 16.25H5.625C5.12772 16.25 4.65081 16.0524 4.29917 15.7008C3.94754 15.3492 3.75 14.8723 3.75 14.375Z" fill="#D12B2F"/>
</svg>
