<svg width="16" height="16" viewBox="0 0 16 16" fill="none" xmlns="http://www.w3.org/2000/svg">
<g clip-path="url(#clip0_25_2801)">
<path d="M9.33326 5.86621C8.70163 5.86621 8.11835 6.0633 7.64098 6.39955H4.53326C4.37326 6.39955 4.2666 6.50621 4.2666 6.66621C4.2666 6.82621 4.37326 6.93287 4.53326 6.93287H7.06604C6.81216 7.24137 6.62038 7.60315 6.50926 7.99952H4.53326C4.37326 7.99952 4.2666 8.10618 4.2666 8.26618C4.2666 8.42618 4.37326 8.53284 4.53326 8.53284H6.41198C6.40416 8.62065 6.39995 8.70955 6.39995 8.79949C6.39995 9.07712 6.43807 9.3454 6.50929 9.59949H4.53329C4.37329 9.59949 4.26663 9.70615 4.26663 9.86615C4.26663 10.0261 4.37329 10.1328 4.53329 10.1328H6.71716C7.20063 11.0845 8.18757 11.7328 9.33329 11.7328C10.9599 11.7328 12.2666 10.4261 12.2666 8.79946C12.2666 7.1729 10.9599 5.86621 9.33326 5.86621ZM9.33326 11.1996C7.99991 11.1996 6.93326 10.1329 6.93326 8.79955C6.93326 8.64684 6.94788 8.49787 6.97466 8.35334C6.97951 8.33659 6.98285 8.31887 6.98473 8.3003C7.10341 7.73137 7.42138 7.23915 7.86326 6.89809C7.88441 6.88624 7.90407 6.87165 7.92157 6.85443C8.31682 6.56818 8.80385 6.39955 9.33326 6.39955C10.6666 6.39955 11.7333 7.46621 11.7333 8.79955C11.7333 10.1329 10.6666 11.1996 9.33326 11.1996Z" fill="#3772FF"/>
<path d="M10.8001 7.49324C10.6667 7.41324 10.5067 7.4399 10.4267 7.57324L9.01339 9.70659L8.18673 8.87993C8.08008 8.77328 7.92008 8.77328 7.81339 8.87993C7.70673 8.98659 7.70673 9.14659 7.81339 9.25328L8.88005 10.3199C8.93339 10.3733 8.9867 10.3999 9.0667 10.3999C9.17336 10.3999 9.25336 10.3466 9.28005 10.2666L10.88 7.86659C10.9601 7.73324 10.9334 7.57324 10.8001 7.49324Z" fill="#3772FF"/>
<path d="M14.4 0H4C3.25334 0 2.66666 0.586656 2.66666 1.33334V12.2667H0.8C0.346656 12.2667 0 12.6133 0 13.0667V14.4C0 15.28 0.72 16 1.6 16H11.5733H11.7333C12.1333 16 12.5067 15.84 12.8 15.5733C13.1467 15.28 13.3333 14.8533 13.3333 14.4V3.73334H15.2C15.6533 3.73334 16 3.38669 16 2.93334V1.6C16 0.72 15.28 0 14.4 0ZM1.6 15.4667C1.01334 15.4667 0.533344 14.9867 0.533344 14.4V13.0667C0.533344 12.9333 0.64 12.8 0.8 12.8H2.93334H10.1333V14.3467V14.4C10.1333 14.8 10.2667 15.1733 10.5333 15.4667H1.6ZM12.8 1.6V14.4C12.8 14.72 12.6667 14.9867 12.4533 15.2C12.2527 15.3561 12.0147 15.4559 11.7706 15.4689C11.7585 15.4676 11.7462 15.4667 11.7333 15.4667C11.5525 15.4667 11.3819 15.4209 11.2323 15.3407C10.8978 15.152 10.6667 14.7783 10.6667 14.3467V12.5333C10.6667 12.3733 10.56 12.2667 10.4 12.2667H3.2V1.33334C3.2 0.88 3.54666 0.533344 4 0.533344H13.2C13.1487 0.596094 13.1013 0.662687 13.0581 0.732219C12.9082 0.96275 12.8157 1.23359 12.8019 1.52428C12.8007 1.54941 12.8 1.57466 12.8 1.6ZM15.4667 2.93334C15.4667 3.06669 15.36 3.2 15.2 3.2H13.3333V1.6C13.3333 1.01334 13.8133 0.533344 14.4 0.533344C14.9867 0.533344 15.4667 1.01334 15.4667 1.6V2.93334Z" fill="#3772FF"/>
<path d="M6.40045 2.13295H9.60045C9.76045 2.13295 9.8671 2.0263 9.8671 1.8663C9.8671 1.7063 9.76045 1.59961 9.60045 1.59961H6.40045C6.24045 1.59961 6.13379 1.70627 6.13379 1.86627C6.13379 2.02627 6.24045 2.13295 6.40045 2.13295Z" fill="#3772FF"/>
<path d="M4.53326 3.73351H11.4666C11.6266 3.73351 11.7333 3.62685 11.7333 3.46685C11.7333 3.30685 11.6266 3.2002 11.4666 3.2002H4.53326C4.37326 3.2002 4.2666 3.30685 4.2666 3.46685C4.2666 3.62685 4.37326 3.73351 4.53326 3.73351Z" fill="#3772FF"/>
<path d="M4.53326 5.33312H11.4666C11.6266 5.33312 11.7333 5.22646 11.7333 5.06646C11.7333 4.90646 11.6266 4.7998 11.4666 4.7998H4.53326C4.37326 4.7998 4.2666 4.90646 4.2666 5.06646C4.2666 5.22646 4.37326 5.33312 4.53326 5.33312Z" fill="#3772FF"/>
</g>
<defs>
<clipPath id="clip0_25_2801">
<rect width="16" height="16" fill="white"/>
</clipPath>
</defs>
</svg>
