<svg width="24" height="24" viewBox="0 0 24 24" fill="none" xmlns="http://www.w3.org/2000/svg">
<g clip-path="url(#clip0_23_1282)">
<path d="M1.5 11.2725H10.71C10.8592 11.2725 11.0023 11.2132 11.1078 11.1078C11.2133 11.0023 11.2725 10.8592 11.2725 10.71V1.5C11.2725 1.35082 11.2133 1.20774 11.1078 1.10225C11.0023 0.996765 10.8592 0.9375 10.71 0.9375H1.5C1.35082 0.9375 1.20774 0.996765 1.10225 1.10225C0.996765 1.20774 0.9375 1.35082 0.9375 1.5V10.71C0.9375 10.8592 0.996765 11.0023 1.10225 11.1078C1.20774 11.2132 1.35082 11.2725 1.5 11.2725ZM2.0625 2.0625H10.1475V10.1475H2.0625V2.0625Z" fill="#828282"/>
<path d="M13.2334 3.26257H22.4996C22.5735 3.26257 22.6467 3.24802 22.7149 3.21975C22.7832 3.19148 22.8452 3.15005 22.8974 3.09782C22.9496 3.04559 22.9911 2.98358 23.0194 2.91533C23.0476 2.84708 23.0621 2.77394 23.0621 2.70007C23.0621 2.6262 23.0476 2.55306 23.0194 2.48481C22.9911 2.41657 22.9496 2.35456 22.8974 2.30233C22.8452 2.25009 22.7832 2.20866 22.7149 2.18039C22.6467 2.15212 22.5735 2.13757 22.4996 2.13757H13.2334C13.0842 2.13757 12.9412 2.19683 12.8357 2.30233C12.7302 2.40781 12.6709 2.55089 12.6709 2.70007C12.6709 2.84926 12.7302 2.99233 12.8357 3.09782C12.9412 3.20331 13.0842 3.26257 13.2334 3.26257Z" fill="#828282"/>
<path d="M22.4996 5.54242H13.2334C13.0842 5.54242 12.9412 5.60167 12.8357 5.70716C12.7302 5.81264 12.6709 5.95574 12.6709 6.10492C12.6709 6.25409 12.7302 6.39716 12.8357 6.50264C12.9412 6.60817 13.0842 6.66742 13.2334 6.66742H22.4996C22.6489 6.66742 22.7919 6.60817 22.8974 6.50264C23.0029 6.39716 23.0621 6.25409 23.0621 6.10492C23.0621 5.95574 23.0029 5.81264 22.8974 5.70716C22.7919 5.60167 22.6489 5.54242 22.4996 5.54242Z" fill="#828282"/>
<path d="M22.4996 8.94745H13.2334C13.0842 8.94745 12.9412 9.0067 12.8357 9.11219C12.7302 9.21767 12.6709 9.36074 12.6709 9.50995C12.6709 9.65912 12.7302 9.80219 12.8357 9.90767C12.9412 10.0132 13.0842 10.0724 13.2334 10.0724H22.4996C22.6489 10.0724 22.7919 10.0132 22.8974 9.90767C23.0029 9.80219 23.0621 9.65912 23.0621 9.50995C23.0621 9.36074 23.0029 9.21767 22.8974 9.11219C22.7919 9.0067 22.6489 8.94745 22.4996 8.94745Z" fill="#828282"/>
<path d="M22.5 12.7275H13.29C13.1409 12.7275 12.9978 12.7868 12.8923 12.8923C12.7868 12.9977 12.7275 13.1408 12.7275 13.29V22.5C12.7275 22.6492 12.7868 22.7923 12.8923 22.8977C12.9978 23.0032 13.1409 23.0625 13.29 23.0625H22.5C22.6493 23.0625 22.7923 23.0032 22.8978 22.8977C23.0033 22.7923 23.0625 22.6492 23.0625 22.5V13.29C23.0625 13.1408 23.0033 12.9977 22.8978 12.8923C22.7923 12.7868 22.6493 12.7275 22.5 12.7275ZM21.9375 21.9375H13.8525V13.8525H21.9375V21.9375Z" fill="#828282"/>
<path d="M10.7662 20.7374H1.5C1.35082 20.7374 1.20774 20.7967 1.10225 20.9022C0.996765 21.0077 0.9375 21.1508 0.9375 21.2999C0.9375 21.4491 0.996765 21.5922 1.10225 21.6977C1.20774 21.8032 1.35082 21.8624 1.5 21.8624H10.7662C10.9154 21.8624 11.0585 21.8032 11.164 21.6977C11.2695 21.5922 11.3287 21.4491 11.3287 21.2999C11.3287 21.1508 11.2695 21.0077 11.164 20.9022C11.0585 20.7967 10.9154 20.7374 10.7662 20.7374Z" fill="#828282"/>
<path d="M10.7662 17.3326H1.5C1.35082 17.3326 1.20774 17.3918 1.10225 17.4974C0.996765 17.6028 0.9375 17.7459 0.9375 17.8951C0.9375 18.0443 0.996765 18.1874 1.10225 18.2928C1.20774 18.3983 1.35082 18.4576 1.5 18.4576H10.7662C10.9154 18.4576 11.0585 18.3983 11.164 18.2928C11.2695 18.1874 11.3287 18.0443 11.3287 17.8951C11.3287 17.7459 11.2695 17.6028 11.164 17.4974C11.0585 17.3918 10.9154 17.3326 10.7662 17.3326Z" fill="#828282"/>
<path d="M10.7662 13.9276H1.5C1.35082 13.9276 1.20774 13.9868 1.10225 14.0923C0.996765 14.1978 0.9375 14.3409 0.9375 14.4901C0.9375 14.6393 0.996765 14.7823 1.10225 14.8878C1.20774 14.9933 1.35082 15.0526 1.5 15.0526H10.7662C10.9154 15.0526 11.0585 14.9933 11.164 14.8878C11.2695 14.7823 11.3287 14.6393 11.3287 14.4901C11.3287 14.3409 11.2695 14.1978 11.164 14.0923C11.0585 13.9868 10.9154 13.9276 10.7662 13.9276Z" fill="#828282"/>
</g>
<defs>
<clipPath id="clip0_23_1282">
<rect width="24" height="24" fill="white"/>
</clipPath>
</defs>
</svg>
