<svg width="24" height="24" viewBox="0 0 24 24" fill="none" xmlns="http://www.w3.org/2000/svg">
<path d="M14.712 10.0171H12.3847V7.68994C12.3847 7.36412 12.1205 7.10001 11.7948 7.10001H9.0091C8.68334 7.10001 8.41917 7.36412 8.41917 7.68994V10.0171H6.09187C5.76611 10.0171 5.50195 10.2812 5.50195 10.607V13.3929C5.50195 13.7187 5.76611 13.9828 6.09187 13.9828H8.41917V16.3101C8.41917 16.6359 8.68334 16.9 9.0091 16.9H11.7948C12.1205 16.9 12.3847 16.6359 12.3847 16.3101V13.9828H14.712C15.0378 13.9828 15.3019 13.7187 15.3019 13.3929V10.607C15.3019 10.2812 15.0378 10.0171 14.712 10.0171ZM14.1221 12.803H11.7948C11.469 12.803 11.2048 13.0671 11.2048 13.3929V15.7201H9.59902V13.3929C9.59902 13.0671 9.33485 12.803 9.0091 12.803H6.68179V11.197H9.0091C9.33485 11.197 9.59902 10.9329 9.59902 10.607V8.27986H11.2048V10.607C11.2048 10.9329 11.469 11.197 11.7948 11.197H14.1221V12.803ZM22.7456 8.28835C22.7456 8.28452 22.7457 8.28063 22.7457 8.27679C22.7457 8.27296 22.7456 8.26906 22.7456 8.26523V0.589923C22.7456 0.264108 22.4814 0 22.1556 0C21.8299 0 21.5657 0.264108 21.5657 0.589923V7.68687H19.5497V5.0521C19.5497 3.83904 18.5628 2.85216 17.3498 2.85216H3.45415C2.24109 2.85216 1.25415 3.83904 1.25415 5.0521V18.9478C1.25415 20.1609 2.24103 21.1478 3.45415 21.1478H17.3498C18.5629 21.1478 19.5497 20.1609 19.5497 18.9478V16.313H21.5657V23.4101C21.5657 23.7359 21.8299 24 22.1556 24C22.4814 24 22.7456 23.7359 22.7456 23.4101V15.7347C22.7456 15.7309 22.7457 15.727 22.7457 15.7231C22.7457 15.7193 22.7456 15.7154 22.7456 15.7116V8.28835ZM18.3699 18.9478C18.3699 19.5103 17.9123 19.9679 17.3498 19.9679H3.45415C2.89166 19.9679 2.434 19.5103 2.434 18.9478V5.0521C2.434 4.48961 2.89166 4.032 3.45415 4.032H17.3498C17.9123 4.032 18.3699 4.48961 18.3699 5.0521V18.9478ZM21.5657 15.1332H19.5497V8.86671H21.5657V15.1332Z" fill="#D12B2F"/>
</svg>
