<svg width="16" height="16" viewBox="0 0 16 16" fill="none" xmlns="http://www.w3.org/2000/svg">
<path d="M12.6665 9.33366V4.00033C12.6665 3.26699 12.0665 2.66699 11.3332 2.66699H1.99984C1.2665 2.66699 0.666504 3.26699 0.666504 4.00033V9.33366C0.666504 10.067 1.2665 10.667 1.99984 10.667H11.3332C12.0665 10.667 12.6665 10.067 12.6665 9.33366ZM11.3332 9.33366H1.99984V4.00033H11.3332V9.33366ZM6.6665 4.66699C5.55984 4.66699 4.6665 5.56033 4.6665 6.66699C4.6665 7.77366 5.55984 8.66699 6.6665 8.66699C7.77317 8.66699 8.6665 7.77366 8.6665 6.66699C8.6665 5.56033 7.77317 4.66699 6.6665 4.66699ZM15.3332 4.66699V12.0003C15.3332 12.7337 14.7332 13.3337 13.9998 13.3337H2.6665V12.0003H13.9998V4.66699H15.3332Z" fill="#3772FF"/>
</svg>
