<svg width="20" height="20" viewBox="0 0 20 20" fill="none" xmlns="http://www.w3.org/2000/svg">
<path d="M15.8333 9.16669H5.94998L8.97498 5.53336C9.11643 5.36318 9.18448 5.14378 9.16416 4.92342C9.14385 4.70307 9.03683 4.49981 8.86665 4.35836C8.69647 4.21691 8.47707 4.14886 8.25671 4.16918C8.03635 4.18949 7.83309 4.29651 7.69165 4.46669L3.52498 9.46669C3.49695 9.50646 3.47188 9.54824 3.44998 9.59169C3.44998 9.63336 3.44998 9.65836 3.39165 9.70003C3.35387 9.79558 3.3341 9.89728 3.33331 10C3.3341 10.1028 3.35387 10.2045 3.39165 10.3C3.39165 10.3417 3.39165 10.3667 3.44998 10.4084C3.47188 10.4518 3.49695 10.4936 3.52498 10.5334L7.69165 15.5334C7.77 15.6274 7.86811 15.7031 7.97902 15.7549C8.08992 15.8068 8.21089 15.8336 8.33331 15.8334C8.52802 15.8337 8.71672 15.7659 8.86665 15.6417C8.95103 15.5717 9.02078 15.4858 9.07191 15.3889C9.12303 15.2919 9.15453 15.1858 9.16459 15.0767C9.17466 14.9675 9.16309 14.8575 9.13055 14.7528C9.09801 14.6481 9.04515 14.5509 8.97498 14.4667L5.94998 10.8334H15.8333C16.0543 10.8334 16.2663 10.7456 16.4226 10.5893C16.5788 10.433 16.6666 10.221 16.6666 10C16.6666 9.77901 16.5788 9.56705 16.4226 9.41077C16.2663 9.25449 16.0543 9.16669 15.8333 9.16669Z" fill="#2B2A29"/>
</svg>
