<svg width="24" height="24" viewBox="0 0 24 24" fill="none" xmlns="http://www.w3.org/2000/svg">
<path d="M14.7121 10.0171H12.3848V7.68994C12.3848 7.36412 12.1206 7.10001 11.7949 7.10001H9.00918C8.68343 7.10001 8.41926 7.36412 8.41926 7.68994V10.0171H6.09195C5.7662 10.0171 5.50203 10.2812 5.50203 10.607V13.3929C5.50203 13.7187 5.7662 13.9828 6.09195 13.9828H8.41926V16.3101C8.41926 16.6359 8.68343 16.9 9.00918 16.9H11.7949C12.1206 16.9 12.3848 16.6359 12.3848 16.3101V13.9828H14.7121C15.0378 13.9828 15.302 13.7187 15.302 13.3929V10.607C15.302 10.2812 15.0379 10.0171 14.7121 10.0171ZM14.1222 12.803H11.7949C11.4691 12.803 11.2049 13.0671 11.2049 13.3929V15.7201H9.5991V13.3929C9.5991 13.0671 9.33494 12.803 9.00918 12.803H6.68188V11.197H9.00918C9.33494 11.197 9.5991 10.9329 9.5991 10.607V8.27986H11.2049V10.607C11.2049 10.9329 11.4691 11.197 11.7949 11.197H14.1222V12.803ZM22.7456 8.28835C22.7457 8.28452 22.7458 8.28063 22.7458 8.27679C22.7458 8.27296 22.7457 8.26906 22.7456 8.26523V0.589923C22.7456 0.264108 22.4815 0 22.1557 0C21.83 0 21.5658 0.264108 21.5658 0.589923V7.68687H19.5498V5.0521C19.5498 3.83904 18.5629 2.85216 17.3499 2.85216H3.45423C2.24117 2.85216 1.25423 3.83904 1.25423 5.0521V18.9478C1.25423 20.1609 2.24112 21.1478 3.45423 21.1478H17.3499C18.563 21.1478 19.5498 20.1609 19.5498 18.9478V16.313H21.5658V23.4101C21.5658 23.7359 21.83 24 22.1557 24C22.4815 24 22.7456 23.7359 22.7456 23.4101V15.7347C22.7457 15.7309 22.7458 15.727 22.7458 15.7231C22.7458 15.7193 22.7457 15.7154 22.7456 15.7116V8.28835ZM18.37 18.9478C18.37 19.5103 17.9124 19.9679 17.3499 19.9679H3.45423C2.89174 19.9679 2.43408 19.5103 2.43408 18.9478V5.0521C2.43408 4.48961 2.89174 4.032 3.45423 4.032H17.3499C17.9124 4.032 18.37 4.48961 18.37 5.0521V18.9478ZM21.5658 15.1332H19.5498V8.86671H21.5658V15.1332Z" fill="#828282"/>
</svg>
