<svg width="24" height="24" viewBox="0 0 24 24" fill="none" xmlns="http://www.w3.org/2000/svg">
<g clip-path="url(#clip0_23_175)">
<path d="M23.9518 20.8909L23.0004 17.5837C22.9777 17.5158 22.9324 17.4478 22.8871 17.4025C22.2982 15.613 20.8484 14.2312 19.0136 13.7556L18.7418 13.7102C18.3341 13.597 17.881 13.7329 17.5865 14.0727C16.5899 15.2053 15.3213 15.2959 13.9849 15.2959C12.6484 15.2959 11.3799 15.2053 10.3832 14.0727C10.0887 13.7329 9.63568 13.597 9.22795 13.7102L8.95612 13.7782C7.57435 14.1406 6.39644 15.0241 5.64893 16.202H2.79477C2.77212 16.202 2.77212 16.202 2.74947 16.1793C2.74947 16.1567 2.72681 16.134 2.72681 16.0887L3.31577 13.9821C3.83676 12.3285 4.83345 11.8301 6.78153 11.3318C6.87214 11.3091 6.94009 11.2638 6.9854 11.2185C7.14396 11.3544 7.32518 11.4677 7.50639 11.5583C7.57435 11.6036 7.6423 11.6036 7.71026 11.6036C7.86883 11.6036 8.02739 11.513 8.118 11.3544C8.23126 11.1279 8.14065 10.8561 7.91413 10.7428C6.87214 10.1992 6.12462 8.65884 6.12462 7.0732C6.12462 5.66878 7.27987 4.51352 8.6843 4.51352C8.95612 4.51352 9.2053 4.55883 9.45447 4.62678C9.2053 5.23839 9.06938 5.8953 9.06938 6.59751C9.06938 10.471 11.4025 13.7329 14.1661 13.7329C16.8843 13.7329 19.2854 10.4031 19.2854 6.59751C19.2854 3.766 16.9976 1.47815 14.1661 1.47815C12.3766 1.47815 10.7909 2.40688 9.88486 3.81131C9.49977 3.6754 9.09204 3.60744 8.6843 3.60744C7.46109 3.60744 6.37379 4.26435 5.76219 5.23839C5.71688 5.19308 5.67158 5.17043 5.62627 5.14778C5.28649 4.96656 4.94671 4.89861 4.56163 4.89861C3.29311 4.87595 2.27377 5.8953 2.27377 7.16381C2.27377 7.88867 2.47764 8.56824 2.79477 9.11188C1.75278 9.38371 0.824042 9.79145 0.393654 11.1732L0.0312212 12.487C-0.036735 12.7136 0.00856911 12.9627 0.144481 13.1439C0.280394 13.3478 0.529566 13.4611 0.778738 13.4611H2.52294C2.50029 13.5517 2.45499 13.6423 2.43234 13.7329L1.84338 15.8622C1.75278 16.1567 1.82073 16.4738 2.0246 16.723C2.20582 16.9721 2.47764 17.1081 2.79477 17.1081H5.19589C5.12793 17.2666 5.08262 17.4252 5.03732 17.5837L4.08594 20.9136C3.99533 21.2987 4.06328 21.7064 4.31246 22.0235C4.56163 22.3407 4.92406 22.5219 5.30915 22.5219H18.9004H19.6705H22.7286C23.1136 22.5219 23.4987 22.3407 23.7252 22.0235C23.9744 21.7064 24.065 21.2987 23.9518 20.8909ZM10.4285 4.69474C10.4512 4.67209 10.4738 4.64943 10.4965 4.60413C10.5191 4.58148 10.5191 4.53617 10.5418 4.51352C11.244 3.24501 12.6031 2.38423 14.1661 2.38423C16.0462 2.38423 17.6319 3.63009 18.1755 5.32899C17.3827 5.48756 16.5446 5.17043 16.0462 4.49087C15.8876 4.287 15.6158 4.2417 15.412 4.40026C15.3213 4.46822 15.276 4.53617 15.2534 4.62678C15.2307 4.64943 15.2307 4.67209 15.2081 4.69474C14.5738 5.9859 12.4445 6.52955 10.0208 6.05386C10.0887 5.57817 10.2246 5.12513 10.4285 4.69474ZM11.697 7.11851C13.5092 7.11851 15.0042 6.55221 15.7744 5.48756C16.3407 5.9859 17.0429 6.25773 17.7904 6.25773C17.9716 6.25773 18.1755 6.23508 18.3567 6.18977C18.3794 6.32568 18.3794 6.43894 18.3794 6.57486C18.3794 9.90471 16.4086 12.8268 14.1661 12.8268C12.0141 12.8268 10.134 10.1312 9.97546 6.95994C10.5644 7.0732 11.1534 7.11851 11.697 7.11851ZM0.959955 12.555L1.27708 11.4224C1.54891 10.4937 2.11521 10.2218 3.24781 9.95001C3.31577 9.92736 3.38372 9.90471 3.42903 9.8594C3.54229 9.95001 3.63289 10.018 3.76881 10.0859C3.83676 10.1312 3.90472 10.1312 3.97268 10.1312C4.13124 10.1312 4.2898 10.0406 4.38041 9.88205C4.49367 9.65553 4.40306 9.38371 4.1992 9.27045C3.61024 8.95332 3.17985 8.06989 3.17985 7.16381C3.17985 6.39364 3.79146 5.78204 4.56163 5.78204C4.8108 5.78204 5.01467 5.82734 5.21854 5.9406C5.28649 5.96325 5.3318 5.9859 5.39975 5.9859C5.28649 6.32568 5.21854 6.68812 5.21854 7.0732C5.21854 8.36437 5.64893 9.63288 6.32849 10.5163C4.96936 10.8561 3.76881 11.3091 2.97599 12.555H0.959955ZM23.023 21.4799C22.9777 21.5252 22.8871 21.6158 22.7286 21.6158H19.6705H18.9004H5.30915C5.15058 21.6158 5.05997 21.5252 5.01467 21.4799C4.94671 21.3893 4.92406 21.2534 4.94671 21.1628L5.8981 17.8556C6.35114 16.2926 7.597 15.0694 9.18264 14.6616L9.45447 14.5937C9.52242 14.571 9.63568 14.6163 9.70364 14.6843C10.9495 16.1114 12.4898 16.2246 13.9849 16.2246C15.4799 16.2246 17.0202 16.1114 18.2661 14.6843C18.3341 14.6163 18.4247 14.571 18.5379 14.5937L18.8098 14.6616C20.3727 15.0694 21.6413 16.2926 22.0943 17.8556L22.502 19.26C22.5247 19.328 22.5473 19.3733 22.5926 19.4186L23.091 21.1401C23.1136 21.2534 23.091 21.3893 23.023 21.4799Z" fill="#D12B2F"/>
</g>
<defs>
<clipPath id="clip0_23_175">
<rect width="24" height="24" fill="white"/>
</clipPath>
</defs>
</svg>
