<svg width="30" height="30" viewBox="0 0 30 30" fill="none" xmlns="http://www.w3.org/2000/svg">
<circle cx="15" cy="15" r="14.75" fill="white" stroke="#C2C7D6" stroke-width="0.5"/>
<path d="M14.4998 22.4167C15.3707 22.4167 16.0832 21.7042 16.0832 20.8334H12.9165C12.9165 21.7042 13.629 22.4167 14.4998 22.4167ZM19.2498 17.6667V13.7084C19.2498 11.2779 17.9594 9.24335 15.6873 8.70502V8.16669C15.6873 7.5096 15.1569 6.97919 14.4998 6.97919C13.8428 6.97919 13.3123 7.5096 13.3123 8.16669V8.70502C11.0482 9.24335 9.74984 11.27 9.74984 13.7084V17.6667L8.1665 19.25V20.0417H20.8332V19.25L19.2498 17.6667ZM17.6665 18.4584H11.3332V13.7084C11.3332 11.745 12.5286 10.1459 14.4998 10.1459C16.4711 10.1459 17.6665 11.745 17.6665 13.7084V18.4584Z" fill="#2B2A29"/>
<circle cx="24" cy="3" r="3" fill="#D12B2F"/>
</svg>
