<svg width="16" height="16" viewBox="0 0 16 16" fill="none" xmlns="http://www.w3.org/2000/svg">
<g clip-path="url(#clip0_6_2147)">
<path d="M3.7814 13.0213V15.0052H3.78143C3.78143 15.2451 3.61377 15.4466 3.38962 15.4983H3.25996V15.5109C2.98893 15.5022 2.77108 15.2787 2.77108 15.0052V0.997951C2.77108 0.813076 2.72027 0.639951 2.63215 0.491514L9.26946 0.50592C9.54546 0.50592 9.74577 0.712857 9.74577 0.997951V12.7605H10.2346V0.997951C10.2346 0.44792 9.81068 0.0170137 9.26999 0.0170137L1.76608 0.000732422C1.22305 0.00663867 0.782959 0.453045 0.782959 0.997951V7.25248H1.98887V6.76361H1.27183V0.997982C1.27183 0.718982 1.49846 0.492014 1.77702 0.492014C2.05558 0.492014 2.28218 0.718951 2.28218 0.997951V15.0052C2.28218 15.5537 2.72815 16 3.27624 16C3.33062 16 3.38402 15.9956 3.43602 15.9871H10.7702C11.3195 15.9871 11.7665 15.5466 11.7665 15.0052V13.0213H3.7814ZM11.2776 15.0052C11.2776 15.2817 11.0547 15.4983 10.7702 15.4983H4.1394C4.22265 15.3528 4.27027 15.1845 4.27027 15.0052V13.5101H11.2776V15.0052H11.2776Z" fill="#667499"/>
<path d="M8.50719 1.77686H8.01831V2.26573H8.50719V1.77686Z" fill="#667499"/>
<path d="M6.25832 1.77686H3.5206V2.26573H6.25832V1.77686Z" fill="#667499"/>
<path d="M4.7591 2.75464H3.5206V3.24351H4.7591V2.75464Z" fill="#667499"/>
<path d="M8.76791 3.73242H3.5206V4.2213H8.76791V3.73242Z" fill="#667499"/>
<path d="M4.49835 4.77539H3.5206V5.26427H4.49835V4.77539Z" fill="#667499"/>
<path d="M7.00796 4.77539H5.01984V5.26427H7.00796V4.77539Z" fill="#667499"/>
<path d="M8.76792 4.77539H7.52942V5.26427H8.76792V4.77539Z" fill="#667499"/>
<path d="M8.76795 5.75317H5.54132V6.24205H8.76795V5.75317Z" fill="#667499"/>
<path d="M5.01985 5.75317H3.5206V6.24205H5.01985V5.75317Z" fill="#667499"/>
<path d="M8.76791 6.76343H3.5206V7.2523H8.76791V6.76343Z" fill="#667499"/>
<path d="M8.76791 7.77393H7.79016V8.2628H8.76791V7.77393Z" fill="#667499"/>
<path d="M7.26868 7.77393H6.03018V8.2628H7.26868V7.77393Z" fill="#667499"/>
<path d="M5.54132 7.77393H3.5206V8.2628H5.54132V7.77393Z" fill="#667499"/>
<path d="M6.74722 8.75171H3.5206V9.24058H6.74722V8.75171Z" fill="#667499"/>
<path d="M6.25836 11.7827H4.27023V12.2716H6.25836V11.7827Z" fill="#667499"/>
<path d="M8.76794 11.7827H6.74722V12.2716H8.76794V11.7827Z" fill="#667499"/>
<path d="M8.7679 10.0227H8.27902V10.5116H8.7679V10.0227Z" fill="#667499"/>
<path d="M12.2736 9.75513V15.2528H13.7693V9.75513H12.2736ZM13.2741 14.7577H12.7687V10.2503H13.2741V14.7577Z" fill="#667499"/>
<path d="M13.0204 5.95605L11.9955 7.98074L12.2554 8.79027V9.46877H13.7547V8.79252L14.0304 7.98393L13.0204 5.95605ZM13.2657 8.71146V8.9799H12.7443V8.71371L12.5223 8.02243L13.0168 7.04555L13.5018 8.01924L13.2657 8.71146Z" fill="#667499"/>
<path d="M13.7871 15.4983H12.2553V15.9872H13.7871V15.4983Z" fill="#667499"/>
<path d="M13.2656 7.77393H12.7767V8.2628H13.2656V7.77393Z" fill="#667499"/>
<path d="M13.0214 0.750488C12.3332 0.750488 11.7733 1.31039 11.7733 1.99858C11.7733 2.6868 12.3332 3.24668 13.0214 3.24668C13.7096 3.24668 14.2695 2.68677 14.2695 1.99858C14.2695 1.31039 13.7096 0.750488 13.0214 0.750488ZM13.0214 2.75152C12.6063 2.75152 12.2685 2.41374 12.2685 1.99858C12.2685 1.58343 12.6062 1.24564 13.0214 1.24564C13.4366 1.24564 13.7743 1.58339 13.7743 1.99858C13.7743 2.41371 13.4366 2.75152 13.0214 2.75152Z" fill="#667499"/>
<path d="M13.2656 1.77686H12.7767V2.26573H13.2656V1.77686Z" fill="#667499"/>
<path d="M14.3042 3.52934C14.7413 3.16247 15.0199 2.61247 15.0199 1.99844C15.0199 0.8965 14.1234 0 13.0214 0C11.9195 0 11.0229 0.8965 11.0229 1.99847C11.0229 2.61247 11.3015 3.16247 11.7386 3.52938L10.8258 5.65937L11.8643 5.31319L12.2251 6.39572L13.0214 4.80325L13.8176 6.39572L14.1785 5.31319L15.217 5.65937L14.3042 3.52934ZM12.3169 5.10506L12.1775 4.68684L11.7152 4.84091L12.1606 3.80175C12.3794 3.90663 12.6203 3.97231 12.874 3.99091L12.3169 5.10506ZM13.0214 3.50178C12.1925 3.50178 11.5181 2.82737 11.5181 1.99844C11.5181 1.1695 12.1925 0.495125 13.0214 0.495125C13.8503 0.495125 14.5247 1.16953 14.5247 1.99844C14.5247 2.82741 13.8503 3.50178 13.0214 3.50178ZM13.8653 4.68684L13.7259 5.10506L13.2982 4.24962L13.4477 3.95072C13.5996 3.91756 13.7452 3.86741 13.8822 3.80178L14.3276 4.84094L13.8653 4.68684Z" fill="#667499"/>
</g>
<defs>
<clipPath id="clip0_6_2147">
<rect width="16" height="16" fill="white"/>
</clipPath>
</defs>
</svg>
