<svg width="20" height="20" viewBox="0 0 20 20" fill="none" xmlns="http://www.w3.org/2000/svg">
<circle cx="10.334" cy="10.333" r="5" fill="#FFF1F1"/>
<path d="M15.1786 2.14258C15.3517 2.14258 15.5125 2.22606 15.6124 2.36389L15.6513 2.42619L18.5132 7.79244L18.5439 7.86558L18.5521 7.89258L18.5643 7.94779L18.5709 8.01065L18.5694 8.08165L18.5714 8.03544C18.5714 8.11051 18.556 8.18201 18.5281 8.24694L18.5075 8.28951L18.4785 8.33708L18.4409 8.38601L10.4285 17.6459C10.357 17.7419 10.2591 17.8052 10.1527 17.8357L10.1113 17.8457L10.0417 17.8554L9.99986 17.8569L9.928 17.852L9.86721 17.8405L9.79343 17.8163L9.77507 17.8076C9.71057 17.7791 9.65129 17.7366 9.60171 17.6808L1.55051 8.37565L1.50614 8.31308L1.47192 8.24658L1.44715 8.17565L1.43062 8.08201L1.43042 7.99101L1.44103 7.92051L1.44788 7.89251L1.4721 7.82386L1.49163 7.78336L4.34877 2.42619C4.43023 2.27344 4.57956 2.17086 4.74816 2.14761L4.82146 2.14258H15.1786ZM12.79 8.57115H7.20786L10.0007 15.8283L12.79 8.57115ZM6.06074 8.57115H3.13503L8.40143 14.6554L6.06074 8.57115ZM16.8629 8.57115H13.9393L11.6014 14.6504L16.8629 8.57115ZM7.16 3.21329H5.14217L2.85574 7.49972H6.01646L7.16 3.21329ZM11.7307 3.21329H8.26857L7.12503 7.49972H12.8736L11.7307 3.21329ZM14.8571 3.21329H12.8393L13.9829 7.49972H17.1421L14.8571 3.21329Z" fill="#D12B2F"/>
</svg>
