<svg width="30" height="30" viewBox="0 0 30 30" fill="none" xmlns="http://www.w3.org/2000/svg">
<rect width="30" height="30" rx="5" fill="white"/>
<path d="M10.7883 7.29097C10.8802 7.19882 10.9894 7.1257 11.1096 7.07581C11.2299 7.02592 11.3588 7.00024 11.4889 7.00024C11.6191 7.00024 11.748 7.02592 11.8682 7.07581C11.9884 7.1257 12.0976 7.19882 12.1895 7.29097L18.7683 13.8697C18.8417 13.943 18.8999 14.03 18.9396 14.1257C18.9794 14.2215 18.9998 14.3242 18.9998 14.4278C18.9998 14.5315 18.9794 14.6342 18.9396 14.73C18.8999 14.8257 18.8417 14.9127 18.7683 14.986L12.1895 21.5647C11.8016 21.9526 11.1762 21.9526 10.7883 21.5647C10.4004 21.1768 10.4004 20.5514 10.7883 20.1635L16.52 14.4239L10.7804 8.6843C10.4004 8.3043 10.4004 7.67097 10.7883 7.29097Z" fill="#333333"/>
</svg>
