<svg width="40" height="40" viewBox="0 0 40 40" fill="none" xmlns="http://www.w3.org/2000/svg">
<path d="M20.0002 3.33301C10.7835 3.33301 3.3335 10.783 3.3335 19.9997C3.3335 29.2163 10.7835 36.6663 20.0002 36.6663C29.2168 36.6663 36.6668 29.2163 36.6668 19.9997C36.6668 10.783 29.2168 3.33301 20.0002 3.33301ZM27.1668 27.1663C27.0126 27.3208 26.8295 27.4434 26.6279 27.5271C26.4262 27.6107 26.2101 27.6537 25.9918 27.6537C25.7736 27.6537 25.5574 27.6107 25.3558 27.5271C25.1542 27.4434 24.971 27.3208 24.8168 27.1663L20.0002 22.3497L15.1835 27.1663C14.8719 27.478 14.4492 27.653 14.0085 27.653C13.5678 27.653 13.1451 27.478 12.8335 27.1663C12.5219 26.8547 12.3468 26.4321 12.3468 25.9913C12.3468 25.7731 12.3898 25.557 12.4733 25.3554C12.5568 25.1538 12.6792 24.9706 12.8335 24.8163L17.6502 19.9997L12.8335 15.183C12.5219 14.8714 12.3468 14.4487 12.3468 14.008C12.3468 13.5673 12.5219 13.1446 12.8335 12.833C13.1451 12.5214 13.5678 12.3463 14.0085 12.3463C14.4492 12.3463 14.8719 12.5214 15.1835 12.833L20.0002 17.6497L24.8168 12.833C24.9711 12.6787 25.1543 12.5563 25.3559 12.4728C25.5575 12.3893 25.7736 12.3463 25.9918 12.3463C26.21 12.3463 26.4261 12.3893 26.6277 12.4728C26.8293 12.5563 27.0125 12.6787 27.1668 12.833C27.3211 12.9873 27.4435 13.1705 27.527 13.3721C27.6105 13.5737 27.6535 13.7898 27.6535 14.008C27.6535 14.2262 27.6105 14.4423 27.527 14.6439C27.4435 14.8455 27.3211 15.0287 27.1668 15.183L22.3502 19.9997L27.1668 24.8163C27.8002 25.4497 27.8002 26.5163 27.1668 27.1663Z" fill="#D12B2F"/>
</svg>
