<svg width="24" height="24" viewBox="0 0 24 24" fill="none" xmlns="http://www.w3.org/2000/svg">
<g clip-path="url(#clip0_23_1012)">
<path d="M12.5538 11.8898C10.1223 14.321 9.94876 18.1545 12.0319 20.7862L21.4498 11.3686C18.8179 9.28539 14.985 9.45892 12.5538 11.8898Z" fill="white"/>
<path d="M22.558 12.4763L13.1401 21.894C15.7723 23.9778 19.6053 23.8043 22.0365 21.3724C24.4677 18.9415 24.6412 15.108 22.558 12.4763Z" fill="white"/>
<path d="M13.4953 1.22299C10.5193 -0.166433 6.9801 1.11963 5.59068 4.09591L3.64893 8.25508L10.7505 11.5707C10.9643 11.2951 11.1963 11.0318 11.4463 10.7819C12.2353 9.99297 13.1562 9.38182 14.1833 8.96533C14.9768 8.64354 15.806 8.44915 16.6561 8.38422C17.5343 5.58429 16.2268 2.49832 13.4953 1.22299ZM11.9016 4.63633C10.8123 4.12793 9.51243 4.60033 9.00402 5.68929L7.58446 5.02666C8.45821 3.15485 10.6921 2.34302 12.5641 3.21672L11.9016 4.63633Z" fill="white"/>
<path d="M9.62893 19.7431C9.22693 18.7517 9.02312 17.7047 9.02317 16.6311C9.02317 15.5574 9.22707 14.5104 9.62912 13.5191C9.71382 13.3103 9.80701 13.106 9.9077 12.9062L2.98632 9.67468L0.559558 14.8727C-0.829488 17.849 0.456574 21.3875 3.43243 22.7769C5.89984 23.9291 8.75406 23.2416 10.4494 21.2767C10.1235 20.7975 9.84882 20.2853 9.62893 19.7431Z" fill="white"/>
</g>
<defs>
<clipPath id="clip0_23_1012">
<rect width="24" height="24" fill="white"/>
</clipPath>
</defs>
</svg>
