<svg width="20" height="20" viewBox="0 0 20 20" fill="none" xmlns="http://www.w3.org/2000/svg">
<path d="M9.99967 18.333C10.9163 18.333 11.6663 17.583 11.6663 16.6663H8.33301C8.33301 17.583 9.08301 18.333 9.99967 18.333ZM14.9997 13.333V9.16634C14.9997 6.60801 13.6413 4.46634 11.2497 3.89967V3.33301C11.2497 2.64134 10.6913 2.08301 9.99967 2.08301C9.30801 2.08301 8.74967 2.64134 8.74967 3.33301V3.89967C6.36634 4.46634 4.99967 6.59967 4.99967 9.16634V13.333L3.33301 14.9997V15.833H16.6663V14.9997L14.9997 13.333ZM13.333 14.1663H6.66634V9.16634C6.66634 7.09967 7.92467 5.41634 9.99967 5.41634C12.0747 5.41634 13.333 7.09967 13.333 9.16634V14.1663Z" fill="#FDC500"/>
</svg>
