<svg width="24" height="24" viewBox="0 0 24 24" fill="none" xmlns="http://www.w3.org/2000/svg">
<g clip-path="url(#clip0_15_2369)">
<path d="M22.1294 9.48983L16.692 1.52709C16.1661 0.756583 15.368 0.23634 14.4454 0.062341C13.5228 -0.112096 12.5901 0.0825022 11.8196 0.608881C11.0491 1.13526 10.5289 1.93294 10.3549 2.85553C10.1809 3.77811 10.375 4.71078 10.9014 5.48129L16.3388 13.444C16.8647 14.2145 17.6628 14.7348 18.5854 14.9088C18.8059 14.9504 19.0272 14.971 19.2464 14.971C19.9445 14.971 20.6248 14.7628 21.2112 14.3622C22.8074 13.2727 23.2194 11.0865 22.1294 9.48983ZM11.2161 3.01813C11.3467 2.32564 11.7364 1.72694 12.3136 1.33293C12.7523 1.03314 13.2625 0.87755 13.7858 0.87755C13.9506 0.87755 14.1171 0.892889 14.2828 0.924008C14.9753 1.05462 15.574 1.44425 15.968 2.02147L18.1923 5.2788L13.8489 8.24467L11.6246 4.9869C11.2306 4.41012 11.0855 3.71062 11.2161 3.01813ZM20.7168 13.6391C20.1391 14.0331 19.4392 14.1777 18.7476 14.048C18.0551 13.9174 17.4564 13.5277 17.0624 12.9505L14.3437 8.96915L18.6871 6.00328L21.4058 9.98466C22.2232 11.1816 21.9142 12.8212 20.7168 13.6391Z" fill="#D12B2F"/>
<path d="M18.3304 17.012L12.357 16.3007L13.6907 14.7382C14.9459 13.2677 14.7706 11.05 13.3002 9.79477C12.5906 9.18906 11.6842 8.89717 10.748 8.96992C9.81186 9.04399 8.9629 9.4757 8.35676 10.1853L2.09675 17.5191C1.49104 18.2291 1.19826 19.1355 1.27189 20.0712C1.34596 21.0074 1.77767 21.8564 2.48726 22.4625C3.12496 23.0068 3.92132 23.2987 4.75538 23.2987C4.84961 23.2987 4.94428 23.2948 5.03939 23.2873C5.73757 23.2321 6.38711 22.9779 6.92357 22.5576C7.24308 22.7 7.5788 22.7943 7.92636 22.8355L17.5011 23.9755C17.6414 23.9921 17.7803 24.0004 17.9179 24.0004C19.6676 24.0004 21.1853 22.6878 21.397 20.9083C21.6262 18.9882 20.25 17.2403 18.3304 17.012ZM9.02383 10.7546C9.47745 10.223 10.1143 9.89952 10.8173 9.84386C10.8887 9.83816 10.9602 9.83509 11.0307 9.83509C11.6566 9.83509 12.2535 10.0538 12.7308 10.4614C13.834 11.4028 13.965 13.0661 13.0236 14.1688L10.4627 17.1689L6.46249 13.7542L9.02383 10.7546ZM3.05659 21.7954C1.95343 20.854 1.82238 19.1911 2.76381 18.0884L5.8936 14.4217L9.89382 17.8364L6.76403 21.5031L6.76359 21.5035C6.69873 21.5794 6.62992 21.6495 6.55892 21.7161L6.55541 21.7196C5.59118 22.6181 4.08217 22.6707 3.05659 21.7954ZM7.59809 21.8756L11.6728 17.1018L13.4391 17.3122L12.8176 22.5348L8.03024 21.9646C7.88341 21.9475 7.73922 21.9177 7.59809 21.8756ZM20.527 20.8045C20.3557 22.2442 19.0469 23.2781 17.605 23.105L13.6885 22.6387L14.31 17.4161L18.2269 17.8824C18.9212 17.9648 19.5435 18.3155 19.9796 18.869C20.4157 19.4226 20.6099 20.1102 20.527 20.8045Z" fill="#D12B2F"/>
</g>
<defs>
<clipPath id="clip0_15_2369">
<rect width="24" height="24" fill="white"/>
</clipPath>
</defs>
</svg>
