<svg width="24" height="24" viewBox="0 0 24 24" fill="none" xmlns="http://www.w3.org/2000/svg">
<path d="M15.8025 3.41907C15.7136 3.33569 15.6022 3.28013 15.4821 3.25924C15.362 3.23836 15.2384 3.25305 15.1265 3.30151C15.0147 3.34998 14.9194 3.4301 14.8525 3.53201C14.7856 3.63392 14.75 3.75317 14.75 3.87507V6.61107C14.571 6.61507 14.3625 6.62607 14.13 6.64707C13.3625 6.71807 12.322 6.91007 11.242 7.39957C9.041 8.39707 6.779 10.5866 6.254 15.1796C6.2397 15.3053 6.26391 15.4324 6.32342 15.5441C6.38293 15.6558 6.47494 15.7468 6.58728 15.805C6.69962 15.8633 6.82699 15.8861 6.95256 15.8704C7.07813 15.8547 7.19597 15.8012 7.2905 15.7171C9.458 13.7901 11.489 12.9606 12.9585 12.6076C13.5298 12.4671 14.1137 12.3838 14.7015 12.3591L14.75 12.3576V15.1251C14.75 15.247 14.7856 15.3662 14.8525 15.4681C14.9194 15.5701 15.0147 15.6502 15.1265 15.6986C15.2384 15.7471 15.362 15.7618 15.4821 15.7409C15.6022 15.72 15.7136 15.6645 15.8025 15.5811L21.8025 9.95607C21.8649 9.89762 21.9146 9.82699 21.9486 9.74856C21.9825 9.67012 22.0001 9.58555 22.0001 9.50007C22.0001 9.4146 21.9825 9.33003 21.9486 9.25159C21.9146 9.17316 21.8649 9.10253 21.8025 9.04407L15.8025 3.41907ZM15.303 7.87107L15.313 7.87207H15.314H15.3135C15.4003 7.88066 15.488 7.87097 15.5709 7.84362C15.6538 7.81627 15.73 7.77186 15.7946 7.71327C15.8593 7.65468 15.911 7.58319 15.9464 7.50342C15.9817 7.42364 16 7.33734 16 7.25007V5.31757L20.461 9.50007L16 13.6826V11.7501C16 11.4351 15.773 11.1701 15.4525 11.1301H15.451L15.449 11.1296L15.444 11.1291L15.43 11.1276C15.3618 11.1209 15.2934 11.1159 15.225 11.1126C15.0361 11.1036 14.847 11.1026 14.658 11.1096C14.175 11.1266 13.493 11.1946 12.6665 11.3926C11.3265 11.7141 9.617 12.3781 7.7775 13.7191C8.5205 10.6791 10.209 9.24007 11.7575 8.53807C12.678 8.12107 13.575 7.95407 14.245 7.89207C14.579 7.86107 14.853 7.85707 15.0405 7.86007C15.1281 7.8614 15.2156 7.86507 15.303 7.87107ZM6.125 4.00007C5.2962 4.00007 4.50134 4.32931 3.91529 4.91537C3.32924 5.50142 3 6.29627 3 7.12507V17.8751C3 18.7039 3.32924 19.4987 3.91529 20.0848C4.50134 20.6708 5.2962 21.0001 6.125 21.0001H16.875C17.7038 21.0001 18.4987 20.6708 19.0847 20.0848C19.6708 19.4987 20 18.7039 20 17.8751V16.7501C20 16.5843 19.9342 16.4253 19.8169 16.3081C19.6997 16.1909 19.5408 16.1251 19.375 16.1251C19.2092 16.1251 19.0503 16.1909 18.9331 16.3081C18.8158 16.4253 18.75 16.5843 18.75 16.7501V17.8751C18.75 18.3724 18.5525 18.8493 18.2008 19.2009C17.8492 19.5525 17.3723 19.7501 16.875 19.7501H6.125C5.62772 19.7501 5.15081 19.5525 4.79917 19.2009C4.44754 18.8493 4.25 18.3724 4.25 17.8751V7.12507C4.25 6.62779 4.44754 6.15088 4.79917 5.79925C5.15081 5.44762 5.62772 5.25007 6.125 5.25007H10.25C10.4158 5.25007 10.5747 5.18423 10.6919 5.06702C10.8092 4.94981 10.875 4.79083 10.875 4.62507C10.875 4.45931 10.8092 4.30034 10.6919 4.18313C10.5747 4.06592 10.4158 4.00007 10.25 4.00007H6.125Z" fill="#4C956C"/>
</svg>
