<svg width="24" height="24" viewBox="0 0 24 24" fill="none" xmlns="http://www.w3.org/2000/svg">
<g clip-path="url(#clip0_18_1046)">
<path d="M22.5098 12.7846V21.9111H5.00177V12.7846H22.5098ZM23.9999 11.2946H3.51172V23.4012H23.9999V11.2946Z" fill="white"/>
<path d="M18.4121 11.2946L20.5094 13.3918C20.4935 13.4691 20.4628 13.5408 20.4628 13.6228C20.4628 14.2905 21.0039 14.8306 21.6716 14.8306C21.7535 14.8306 21.8243 14.7999 21.9016 14.785L23.9998 16.8822V11.2946H18.4121Z" fill="white"/>
<path d="M19.8094 18.5566C20.477 18.5566 21.0182 18.0154 21.0182 17.3478C21.0182 16.6802 20.477 16.139 19.8094 16.139C19.1418 16.139 18.6006 16.6802 18.6006 17.3478C18.6006 18.0154 19.1418 18.5566 19.8094 18.5566Z" fill="white"/>
<path d="M13.7558 20.5272C15.7751 20.5272 17.412 19.1038 17.412 17.3478C17.412 15.5919 15.7751 14.1685 13.7558 14.1685C11.7365 14.1685 10.0996 15.5919 10.0996 17.3478C10.0996 19.1038 11.7365 20.5272 13.7558 20.5272Z" fill="white"/>
<path d="M7.70201 18.5558C8.3691 18.5558 8.90988 18.015 8.90988 17.3479C8.90988 16.6808 8.3691 16.14 7.70201 16.14C7.03492 16.14 6.49414 16.6808 6.49414 17.3479C6.49414 18.015 7.03492 18.5558 7.70201 18.5558Z" fill="white"/>
<path d="M3.51172 16.8822L5.60896 14.785C5.68626 14.8008 5.75796 14.8316 5.83992 14.8316C6.50764 14.8316 7.04779 14.2905 7.04779 13.6228C7.04779 13.5408 7.01705 13.47 7.00122 13.3927L9.09939 11.2946H3.51172V16.8822Z" fill="white"/>
<path d="M7.04872 21.073C7.04872 20.4052 6.50764 19.8651 5.83992 19.8651C5.75796 19.8651 5.68719 19.8958 5.60989 19.9107L3.51172 17.8135V23.4012H9.09939L7.00215 21.3039C7.01799 21.2266 7.04872 21.154 7.04872 21.073Z" fill="white"/>
<path d="M21.6716 19.8642C21.0039 19.8642 20.4637 20.4052 20.4637 21.073C20.4637 21.1549 20.4945 21.2257 20.5103 21.303L18.4121 23.4012H23.9998V17.8135L21.9025 19.9107C21.8252 19.8949 21.7535 19.8642 21.6716 19.8642Z" fill="white"/>
<path d="M17.204 9.12839C17.871 9.12839 18.4118 8.5876 18.4118 7.92052C18.4118 7.25343 17.871 6.71265 17.204 6.71265C16.5369 6.71265 15.9961 7.25343 15.9961 7.92052C15.9961 8.5876 16.5369 9.12839 17.204 9.12839Z" fill="white"/>
<path d="M2.11494 11.2945C2.11494 10.5234 2.74076 9.89758 3.51185 9.89758H4.2755L4.30996 9.77838L15.0914 3.87406L15.9156 4.11433C15.9388 4.18884 15.9472 4.26706 15.9873 4.33877C16.3076 4.92548 17.0415 5.13874 17.6282 4.81838C17.699 4.77927 17.7474 4.71873 17.8061 4.66751L18.6321 4.90965L20.5105 8.33862L20.2693 9.16373C20.1957 9.18608 20.1175 9.19446 20.0458 9.23358C19.7729 9.38258 19.5913 9.62658 19.4954 9.89758H23.0631L20.6548 5.49915H20.6558L17.9709 0.598755L13.0686 3.2827H13.0696L4.90132 7.75564L0 10.4396L2.11494 14.3016V11.2945Z" fill="white"/>
<path d="M10.3664 8.04055C9.55528 8.48384 8.97137 9.15622 8.64355 9.89752H15.3795C15.3255 9.61348 15.2445 9.33503 15.101 9.07334C14.2564 7.533 12.1377 7.07109 10.3664 8.04055Z" fill="white"/>
</g>
<defs>
<clipPath id="clip0_18_1046">
<rect width="24" height="24" fill="white"/>
</clipPath>
</defs>
</svg>
