<svg width="16" height="16" viewBox="0 0 16 16" fill="none" xmlns="http://www.w3.org/2000/svg">
<path d="M7.954 1.37204C8.03656 1.26873 8.13879 1.18283 8.25477 1.11929C8.37076 1.05576 8.49819 1.01587 8.62969 1.00192C8.7612 0.987967 8.89416 1.00024 9.0209 1.03802C9.14763 1.07581 9.2656 1.13835 9.368 1.22204L12.63 3.88604C12.8094 4.03251 12.9324 4.2367 12.978 4.46376C13.0236 4.69082 12.9889 4.92667 12.88 5.13104C12.5948 5.04387 12.2982 4.99972 12 5.00004H11.7L11.998 4.66004L10.28 3.25704L8.863 5.00104H7.574L9.505 2.62504L8.735 1.99604L6.337 5.00004H5.057L7.954 1.37204ZM10.5 10C10.3674 10 10.2402 10.0527 10.1464 10.1465C10.0527 10.2402 10 10.3674 10 10.5C10 10.6326 10.0527 10.7598 10.1464 10.8536C10.2402 10.9474 10.3674 11 10.5 11H11.5C11.6326 11 11.7598 10.9474 11.8536 10.8536C11.9473 10.7598 12 10.6326 12 10.5C12 10.3674 11.9473 10.2402 11.8536 10.1465C11.7598 10.0527 11.6326 10 11.5 10H10.5ZM3 5.50004C3 5.36743 3.05268 5.24025 3.14645 5.14648C3.24021 5.05271 3.36739 5.00004 3.5 5.00004H4.058L4.853 4.00004H3.5C3.10218 4.00004 2.72064 4.15807 2.43934 4.43938C2.15804 4.72068 2 5.10221 2 5.50004V11.5C2 12.1631 2.26339 12.799 2.73223 13.2678C3.20107 13.7366 3.83696 14 4.5 14H12C12.5304 14 13.0391 13.7893 13.4142 13.4142C13.7893 13.0392 14 12.5305 14 12V8.00004C14 7.4696 13.7893 6.9609 13.4142 6.58582C13.0391 6.21075 12.5304 6.00004 12 6.00004H3.5C3.36739 6.00004 3.24021 5.94736 3.14645 5.85359C3.05268 5.75982 3 5.63264 3 5.50004ZM3 11.5V6.91504C3.156 6.97004 3.325 7.00004 3.5 7.00004H12C12.2652 7.00004 12.5196 7.10539 12.7071 7.29293C12.8946 7.48047 13 7.73482 13 8.00004V12C13 12.2653 12.8946 12.5196 12.7071 12.7071C12.5196 12.8947 12.2652 13 12 13H4.5C4.10218 13 3.72064 12.842 3.43934 12.5607C3.15804 12.2794 3 11.8979 3 11.5Z" fill="#9B51E0"/>
</svg>
