<svg width="24" height="24" viewBox="0 0 24 24" fill="none" xmlns="http://www.w3.org/2000/svg">
<g clip-path="url(#clip0_6_1964)">
<path d="M23.1632 8.72173L12.9934 0.356052C12.7048 0.118684 12.3524 0 12 0C11.6476 0 11.2952 0.118684 11.0066 0.356052L7.91017 2.90319V2.41538C7.91017 1.98359 7.56012 1.63353 7.12833 1.63353H3.37809C2.9463 1.63353 2.59624 1.98359 2.59624 2.41538V7.27443L0.836833 8.72173C0.327018 9.14111 0.135467 9.83554 0.35824 10.457C0.551668 10.9966 1.0214 11.3803 1.57401 11.4719V22.4363C1.57401 23.2999 2.27412 24 3.13769 24H8.52945C9.39302 24 10.0931 23.2999 10.0931 22.4363V18.4503C10.0931 18.1732 10.2129 18.008 10.2687 17.9657H13.7313C13.7871 18.008 13.9069 18.1732 13.9069 18.4503V22.4363C13.9069 23.2999 14.6069 24 15.4705 24H20.8623C21.7259 24 22.426 23.2999 22.426 22.4363V11.472C22.9786 11.3804 23.4483 10.9967 23.6418 10.457C23.8646 9.83554 23.673 9.14116 23.1632 8.72173ZM4.15993 3.19727H6.34649V4.18954L4.15993 5.98819V3.19727ZM20.8624 9.92936V22.4364H15.4705V18.4503C15.4705 17.3191 14.7047 16.4021 13.76 16.4021H10.2401C9.29534 16.4021 8.5295 17.3191 8.5295 18.4503V22.4364H3.13769V9.92936H1.83019L12 1.56369L22.1698 9.92936H20.8624Z" fill="#828282"/>
</g>
<defs>
<clipPath id="clip0_6_1964">
<rect width="24" height="24" fill="white"/>
</clipPath>
</defs>
</svg>
