<svg width="30" height="30" viewBox="0 0 30 30" fill="none" xmlns="http://www.w3.org/2000/svg">
<g clip-path="url(#clip0_22_843)">
<path d="M7.5 0C6.46875 0 5.625 0.84375 5.625 1.875V28.125C5.625 29.1562 6.46875 30 7.5 30H26.25C27.2812 30 28.125 29.1562 28.125 28.125V7.5L20.625 0H7.5Z" fill="#E2E5E7"/>
<path d="M22.5 7.5H28.125L20.625 0V5.625C20.625 6.65625 21.4688 7.5 22.5 7.5Z" fill="#B0B7BD"/>
<path d="M28.125 13.125L22.5 7.5H28.125V13.125Z" fill="#CAD1D8"/>
<path d="M24.375 24.375C24.375 24.8906 23.9531 25.3125 23.4375 25.3125H2.8125C2.29688 25.3125 1.875 24.8906 1.875 24.375V15C1.875 14.4844 2.29688 14.0625 2.8125 14.0625H23.4375C23.9531 14.0625 24.375 14.4844 24.375 15V24.375Z" fill="#EB5757"/>
<path d="M5.96191 17.7626C5.96191 17.5151 6.15691 17.2451 6.47098 17.2451H8.20254C9.17754 17.2451 10.055 17.8976 10.055 19.1482C10.055 20.3332 9.17754 20.9932 8.20254 20.9932H6.95098V21.9832C6.95098 22.3132 6.74098 22.4998 6.47098 22.4998C6.22348 22.4998 5.96191 22.3132 5.96191 21.9832V17.7626ZM6.95098 18.1892V20.0567H8.20254C8.70504 20.0567 9.10254 19.6132 9.10254 19.1482C9.10254 18.6242 8.70504 18.1892 8.20254 18.1892H6.95098Z" fill="white"/>
<path d="M11.5234 22.4997C11.2759 22.4997 11.0059 22.3647 11.0059 22.0356V17.7775C11.0059 17.5084 11.2759 17.3125 11.5234 17.3125H13.2399C16.6655 17.3125 16.5905 22.4997 13.3074 22.4997H11.5234ZM11.9959 18.2275V21.5856H13.2399C15.264 21.5856 15.354 18.2275 13.2399 18.2275H11.9959Z" fill="white"/>
<path d="M17.8048 18.2875V19.479H19.7164C19.9864 19.479 20.2564 19.749 20.2564 20.0106C20.2564 20.2581 19.9864 20.4606 19.7164 20.4606H17.8048V22.0347C17.8048 22.2972 17.6183 22.4987 17.3558 22.4987C17.0258 22.4987 16.8242 22.2972 16.8242 22.0347V17.7765C16.8242 17.5075 17.0267 17.3115 17.3558 17.3115H19.9873C20.3173 17.3115 20.5123 17.5075 20.5123 17.7765C20.5123 18.0165 20.3173 18.2865 19.9873 18.2865H17.8048V18.2875Z" fill="white"/>
<path d="M23.4375 25.3125H5.625V26.25H23.4375C23.9531 26.25 24.375 25.8281 24.375 25.3125V24.375C24.375 24.8906 23.9531 25.3125 23.4375 25.3125Z" fill="#CAD1D8"/>
</g>
<defs>
<clipPath id="clip0_22_843">
<rect width="30" height="30" fill="white"/>
</clipPath>
</defs>
</svg>
