<svg width="24" height="24" viewBox="0 0 24 24" fill="none" xmlns="http://www.w3.org/2000/svg">
<g clip-path="url(#clip0_6_1991)">
<path d="M22.1294 9.48983L16.692 1.52709C16.1661 0.756583 15.368 0.23634 14.4454 0.062341C13.5228 -0.112096 12.5901 0.0825022 11.8196 0.608881C11.0491 1.13526 10.5289 1.93294 10.3549 2.85553C10.1809 3.77811 10.3751 4.71078 10.9014 5.48129L16.3388 13.444C16.8647 14.2145 17.6628 14.7348 18.5854 14.9088C18.8059 14.9504 19.0272 14.971 19.2464 14.971C19.9446 14.971 20.6248 14.7628 21.2112 14.3622C22.8074 13.2727 23.2194 11.0865 22.1294 9.48983ZM11.2161 3.01813C11.3467 2.32564 11.7364 1.72694 12.3136 1.33293C12.7523 1.03314 13.2625 0.87755 13.7858 0.87755C13.9506 0.87755 14.1171 0.892889 14.2828 0.924008C14.9753 1.05462 15.574 1.44425 15.968 2.02147L18.1923 5.2788L13.8489 8.24467L11.6246 4.9869C11.2306 4.41012 11.0855 3.71062 11.2161 3.01813ZM20.7168 13.6391C20.1392 14.0331 19.4392 14.1777 18.7476 14.048C18.0551 13.9174 17.4564 13.5277 17.0624 12.9505L14.3437 8.96915L18.6871 6.00328L21.4058 9.98466C22.2232 11.1816 21.9142 12.8212 20.7168 13.6391Z" fill="#828282"/>
<path d="M18.3304 17.0118L12.357 16.3004L13.6907 14.7379C14.9459 13.2675 14.7706 11.0498 13.3002 9.79453C12.5906 9.18882 11.6842 8.89692 10.748 8.96968C9.81187 9.04375 8.96291 9.47546 8.35676 10.185L2.09675 17.5188C1.49104 18.2289 1.19827 19.1352 1.2719 20.071C1.34597 21.0071 1.77768 21.8561 2.48726 22.4623C3.12497 23.0066 3.92133 23.2985 4.75538 23.2985C4.84961 23.2985 4.94428 23.2946 5.03939 23.2871C5.73758 23.2319 6.38711 22.9777 6.92357 22.5574C7.24308 22.6998 7.57881 22.794 7.92637 22.8352L17.5011 23.9752C17.6414 23.9919 17.7803 24.0002 17.9179 24.0002C19.6676 24.0002 21.1853 22.6875 21.397 20.9081C21.6263 18.988 20.25 17.2401 18.3304 17.0118ZM9.02383 10.7544C9.47746 10.2227 10.1143 9.89928 10.8173 9.84362C10.8887 9.83792 10.9602 9.83485 11.0307 9.83485C11.6566 9.83485 12.2535 10.0536 12.7308 10.4612C13.834 11.4026 13.965 13.0659 13.0236 14.1686L10.4627 17.1687L6.4625 13.754L9.02383 10.7544ZM3.05659 21.7952C1.95343 20.8538 1.82239 19.1909 2.76382 18.0882L5.89361 14.4215L9.89383 17.8362L6.76404 21.5029L6.7636 21.5033C6.69873 21.5791 6.62992 21.6492 6.55892 21.7159L6.55542 21.7194C5.59119 22.6178 4.08218 22.6704 3.05659 21.7952ZM7.59809 21.8754L11.6728 17.1016L13.4391 17.312L12.8176 22.5346L8.03024 21.9644C7.88342 21.9473 7.73922 21.9175 7.59809 21.8754ZM20.527 20.8042C20.3557 22.244 19.047 23.2779 17.605 23.1048L13.6885 22.6384L14.31 17.4159L18.2269 17.8822C18.9212 17.9646 19.5435 18.3152 19.9796 18.8688C20.4157 19.4223 20.6099 20.11 20.527 20.8042Z" fill="#828282"/>
</g>
<defs>
<clipPath id="clip0_6_1991">
<rect width="24" height="24" fill="white"/>
</clipPath>
</defs>
</svg>
