<svg width="16" height="16" viewBox="0 0 16 16" fill="none" xmlns="http://www.w3.org/2000/svg">
<g clip-path="url(#clip0_7_21)">
<path d="M15.9507 0.757185C15.9245 0.814267 15.8884 0.866267 15.844 0.910785L5.75978 10.9929L8.60778 15.7407C8.65823 15.8251 8.73105 15.8939 8.81819 15.9396C8.90532 15.9852 9.00338 16.0058 9.10152 15.9992C9.19966 15.9926 9.29405 15.959 9.37427 15.902C9.45448 15.8451 9.5174 15.7671 9.55604 15.6767L15.9507 0.757185ZM5.00671 10.2399L0.258978 7.38972C0.174541 7.33927 0.105702 7.26645 0.0600702 7.17931C0.014439 7.09217 -0.00620623 6.99411 0.000417294 6.89597C0.00704081 6.79784 0.040675 6.70344 0.0976011 6.62323C0.154527 6.54301 0.232528 6.4801 0.322978 6.44145L15.2456 0.0478516C15.1877 0.0741856 15.135 0.110672 15.0899 0.155585L5.00671 10.2399Z" fill="white"/>
</g>
<defs>
<clipPath id="clip0_7_21">
<rect width="16" height="16" fill="white"/>
</clipPath>
</defs>
</svg>
