<svg width="20" height="20" viewBox="0 0 20 20" fill="none" xmlns="http://www.w3.org/2000/svg">
<circle cx="10.334" cy="10.333" r="5" fill="#FFF1F1"/>
<path d="M10.3333 11.333C9.1556 11.333 8.33325 12.1554 8.33325 13.333V13.6663C8.33325 15.2863 9.24927 16.333 10.6666 16.333C12.0839 16.333 12.9999 15.2863 12.9999 13.6663V13.333C12.9999 12.1554 12.1772 11.333 10.9999 11.333H10.3333ZM12.3333 13.333V13.6663C12.3333 14.2677 12.1706 15.6663 10.6666 15.6663C9.16224 15.6663 8.99989 14.2677 8.99989 13.6663V13.333C8.99989 12.523 9.52321 11.9997 10.3332 11.9997H10.9999C11.8096 11.9997 12.3333 12.523 12.3333 13.333Z" fill="#D12B2F"/>
<path d="M10.01 13.333H10.0064C9.8227 13.333 9.67505 13.4823 9.67505 13.6663C9.67505 13.8503 9.82571 13.9996 10.01 13.9996C10.194 13.9996 10.3434 13.8503 10.3434 13.6663C10.3434 13.4823 10.194 13.333 10.01 13.333Z" fill="#D12B2F"/>
<path d="M11.6409 8.99898C11.8266 9.01098 11.9849 8.87566 11.9989 8.6923L12.3319 4.3643C12.4059 3.57098 13.4723 2.66664 14.3333 2.66664H14.9999C15.8772 2.66664 16.9432 3.5673 17.0009 4.35898L17.3342 8.6923C17.3476 8.86695 17.4936 8.99996 17.6662 8.99996C17.6745 8.99996 17.6836 8.99965 17.6922 8.99895C17.8756 8.98496 18.0129 8.82461 17.9989 8.64094L17.6656 4.30895C17.5766 3.08734 16.1006 2 14.9999 2H14.3332C13.1199 2 11.7749 3.16199 11.6676 4.30766L11.3342 8.64098C11.3202 8.82465 11.4576 8.985 11.6409 8.99898Z" fill="#D12B2F"/>
<path d="M14.6494 4.22801C14.6041 4.09168 14.4767 4 14.3334 4C14.1897 4 14.0624 4.09168 14.0171 4.22801C13.7667 4.97969 13.0291 4.99969 13.0001 5C12.8157 5 12.6667 5.14934 12.6667 5.33332V6.66664C12.6667 7.77996 13.4274 9.33332 14.6667 9.33332C15.9057 9.33332 16.6667 7.78 16.6667 6.66664V5.33332C16.6667 5.14934 16.5174 5 16.3334 5C16.3191 5 14.9001 4.97898 14.6494 4.22801ZM16.0001 6.66668C16.0001 7.5727 15.4054 8.66668 14.6667 8.66668C13.9281 8.66668 13.3334 7.5727 13.3334 6.66668V5.62602C13.6598 5.55203 14.0628 5.36602 14.3588 4.98734C14.8255 5.45434 15.5705 5.60035 16.0001 5.64602V6.66668H16.0001Z" fill="#D12B2F"/>
<path d="M6.66657 4.66664H6.99989C7.18388 4.66664 7.33321 4.5173 7.33321 4.33332C7.33321 4.14934 7.18388 4 6.99989 4H6.66657C6.48224 4 6.33325 4.14934 6.33325 4.33332C6.33321 4.5173 6.48224 4.66664 6.66657 4.66664Z" fill="#D12B2F"/>
<path d="M11.3433 13.9996C11.5273 13.9996 11.6766 13.8503 11.6766 13.6663C11.6766 13.4823 11.5273 13.333 11.3433 13.333H11.3396C11.156 13.333 11.0083 13.4823 11.0083 13.6663C11.0083 13.8503 11.159 13.9996 11.3433 13.9996Z" fill="#D12B2F"/>
<path d="M3.34602 5.25066C3.40969 5.89133 3.68836 6.45531 3.70168 6.48199C4.00367 7.08633 4.46066 7.99965 6 7.99965C7.53934 7.99965 7.99602 7.08633 8.29801 6.48199C8.31133 6.45531 8.59 5.89133 8.65402 5.25066C8.86004 5.13734 9.00004 4.91766 9.00004 4.66633V3.99965C9.00004 3.75332 8.8657 3.53797 8.66672 3.42266V3.33301C8.66672 2.23 7.76937 1.33301 6.66672 1.33301H5.3334C4.23039 1.33301 3.3334 2.23 3.3334 3.33301V3.42266C3.13398 3.53797 3 3.75332 3 3.99965V4.66633C3 4.91766 3.14 5.1373 3.34602 5.25066ZM3.66668 3.99965C3.85066 3.99965 4 3.85031 4 3.66633V3.33301C4 2.59766 4.59801 1.99969 5.33332 1.99969H6.66664C7.40199 1.99969 7.99996 2.5977 7.99996 3.33301V3.66633C7.99996 3.85031 8.14894 3.99965 8.33328 3.99965V4.66633C8.14894 4.66633 7.99996 4.81566 7.99996 4.99965C7.99996 5.57633 7.70465 6.17832 7.70164 6.18398C7.35465 6.87797 7.04863 7.33297 5.99996 7.33297C4.95098 7.33297 4.64496 6.87797 4.29828 6.1843C4.29496 6.17828 3.99996 5.57629 3.99996 4.99965C3.99996 4.81566 3.85062 4.66633 3.66664 4.66633V3.99965H3.66668Z" fill="#D12B2F"/>
<path d="M11.6666 16.6661C11.6006 16.6661 11.5362 16.6857 11.4816 16.7221L10.6666 17.2654L9.85122 16.722C9.79657 16.6857 9.73224 16.666 9.66657 16.666C7.73825 16.666 7.33325 17.5723 7.33325 18.3327C7.33325 18.5167 7.48224 18.666 7.66657 18.666C7.85056 18.666 7.99989 18.5167 7.99989 18.3327C7.99989 18.0647 7.99989 17.362 9.56688 17.3334L10.4815 17.9434C10.5935 18.018 10.7392 18.018 10.8512 17.9434L11.7662 17.3334C13.3332 17.362 13.3332 18.0647 13.3332 18.3327C13.3332 18.5167 13.4822 18.666 13.6665 18.666C13.8505 18.666 13.9998 18.5167 13.9998 18.3327C13.9999 17.5724 13.5949 16.6661 11.6666 16.6661Z" fill="#D12B2F"/>
<path d="M17.6886 12.666H17.6872C17.5036 12.666 17.3546 12.8143 17.3539 12.998L17.3333 18.3313C17.3326 18.5153 17.4809 18.6653 17.6652 18.666H17.6666C17.8502 18.666 17.9992 18.5177 17.9999 18.334L18.0206 13.0007C18.0212 12.8167 17.8729 12.6667 17.6886 12.666Z" fill="#D12B2F"/>
<path d="M5.00007 4.66664H5.33339C5.51737 4.66664 5.66671 4.5173 5.66671 4.33332C5.66671 4.14934 5.51737 4 5.33339 4H5.00007C4.81573 4 4.66675 4.14934 4.66675 4.33332C4.66675 4.5173 4.81573 4.66664 5.00007 4.66664Z" fill="#D12B2F"/>
<path d="M7.65995 10.7323L7.93894 9.3403C9.62194 9.3783 10.8333 9.79764 11.2046 10.4796C11.2923 10.6413 11.4939 10.701 11.6566 10.613C11.8183 10.5249 11.8779 10.3226 11.7899 10.161C11.2669 9.19963 9.81023 8.67096 7.68792 8.67096C7.52226 8.66795 7.37257 8.77596 7.3396 8.93862L7.00628 10.601C6.97026 10.7816 7.08694 10.9573 7.26761 10.9933C7.28995 10.998 7.31159 11 7.33362 11C7.48929 10.9999 7.62796 10.8906 7.65995 10.7323Z" fill="#D12B2F"/>
<path d="M19.1827 10.3332C18.5294 9.68125 17.5477 9.33691 16.3433 9.33691C16.1507 9.34059 16.001 9.48258 16 9.66926C15.9997 9.73727 15.9764 11.3329 14.6667 11.3329C13.3567 11.3329 13.3337 9.73758 13.3334 9.66961C13.333 9.48594 13.1837 9.33727 13.0001 9.33727C12.8157 9.33727 12.6667 9.48625 12.6667 9.67059C12.6667 10.4159 13.0267 11.7736 14.3334 11.9726V13.6663C14.3334 13.8502 14.4824 13.9996 14.6667 13.9996C14.8507 13.9996 15.0001 13.8502 15.0001 13.6663V11.9722C16.1251 11.8005 16.5487 10.7712 16.6441 10.0119C17.5284 10.0615 18.2387 10.3329 18.7114 10.8052C19.1127 11.2055 19.3334 11.7479 19.3334 12.3329V17.6662C19.3334 17.8502 19.4824 17.9995 19.6667 17.9995C19.8507 17.9995 20 17.8502 20 17.6662V12.3329C20 11.5696 19.7097 10.8596 19.1827 10.3332Z" fill="#D12B2F"/>
<path d="M5.99993 8.66602C5.63228 8.66602 5.33325 8.965 5.33325 9.3327C5.33325 9.57836 5.46825 9.79102 5.66657 9.90668V12.3327C5.66657 12.5167 5.81556 12.666 5.99989 12.666C6.18388 12.666 6.33321 12.5167 6.33321 12.3327V9.90668C6.53122 9.79102 6.66653 9.57836 6.66653 9.3327C6.66661 8.965 6.36728 8.66602 5.99993 8.66602Z" fill="#D12B2F"/>
<path d="M2.33332 12.666C2.14898 12.666 2 12.8154 2 12.9993V18.3327C2 18.5166 2.14898 18.666 2.33332 18.666C2.5173 18.666 2.66664 18.5166 2.66664 18.3327V12.9993C2.66668 12.8154 2.51734 12.666 2.33332 12.666Z" fill="#D12B2F"/>
<path d="M4.65934 8.93625C4.62602 8.77426 4.46898 8.67125 4.31066 8.6709C2.55965 8.6709 1.22031 9.0459 0.537344 9.72723C0.181016 10.0832 0 10.5116 0 10.9999V17.6666C0 17.8506 0.148984 17.9999 0.33332 17.9999C0.517305 17.9999 0.666641 17.8506 0.666641 17.6666V10.9999C0.666641 10.6906 0.778633 10.4286 1.00832 10.1989C1.52766 9.68059 2.6323 9.37223 4.06266 9.34023L5.67367 17.0679C5.71102 17.2479 5.88832 17.3636 6.06801 17.3262C6.24836 17.2886 6.36402 17.1119 6.32602 16.9319L4.65934 8.93625Z" fill="#D12B2F"/>
</svg>
