<svg width="20" height="20" viewBox="0 0 20 20" fill="none" xmlns="http://www.w3.org/2000/svg">
<circle cx="10.334" cy="10.333" r="5" fill="#FFF1F1"/>
<g clip-path="url(#clip0_14_108)">
<path d="M11.1976 17.3959C10.7741 17.7807 10.3034 18.1919 10.0009 18.2844C9.64354 18.1773 9.0605 17.6359 8.2077 16.8441C8.06289 16.7096 7.90909 16.5668 7.7454 16.4159C4.57647 13.4933 1.17657 9.21676 1.13789 5.97883C1.12464 4.87111 1.4953 3.96785 2.27098 3.21736C3.2798 2.24142 4.59604 1.70394 5.97734 1.70394C7.3343 1.70394 8.62477 2.21685 9.61118 3.1482C9.83033 3.35512 10.1729 3.35512 10.3921 3.1482C11.3787 2.21685 12.6693 1.70394 14.0263 1.70394C15.4075 1.70394 16.7238 2.24142 17.7326 3.21731C19.3296 4.76236 19.2408 7.09708 17.469 10.1566C17.3116 10.4285 17.4043 10.7764 17.6762 10.9339C17.948 11.0913 18.296 10.9986 18.4534 10.7267C21.0286 6.27982 19.913 3.74398 18.5236 2.39976C17.3013 1.21753 15.7042 0.566406 14.0262 0.566406C12.5512 0.566406 11.1407 1.06527 10.0016 1.9807C8.86263 1.06521 7.45221 0.566406 5.97728 0.566406C4.29931 0.566406 2.70216 1.21753 1.48 2.39982C0.481307 3.3661 -0.0164764 4.57478 0.000415882 5.99237C0.0545623 10.5222 5.35187 15.7558 6.97416 17.2521C7.13688 17.4022 7.28971 17.544 7.43366 17.6776C8.62255 18.7816 9.21936 19.3356 9.92747 19.4287C9.95204 19.4319 9.97684 19.4335 10.0016 19.4335C10.0263 19.4335 10.0511 19.4319 10.0756 19.4287C10.6449 19.354 11.1577 18.969 11.9625 18.2378C12.1949 18.0266 12.2122 17.6669 12.001 17.4344C11.7898 17.2019 11.4301 17.1847 11.1976 17.3959Z" fill="#D12B2F"/>
<path d="M18.0603 11.8631H16.2336V10.0365C16.2336 9.72247 15.979 9.46777 15.6649 9.46777H13.3776C13.0634 9.46777 12.8088 9.72247 12.8088 10.0365V11.8631H10.9821C10.668 11.8631 10.4133 12.1178 10.4133 12.4318V14.7194C10.4133 15.0334 10.668 15.2881 10.9821 15.2881H12.8088V17.1146C12.8088 17.4287 13.0634 17.6834 13.3776 17.6834H15.6649C15.979 17.6834 16.2336 17.4287 16.2336 17.1146V15.2881H18.0603C18.3744 15.2881 18.6291 15.0334 18.6291 14.7194V12.4318C18.6291 12.1177 18.3744 11.8631 18.0603 11.8631ZM17.4916 14.1506H15.6649C15.3507 14.1506 15.0961 14.4053 15.0961 14.7194V16.5459H13.9463V14.7194C13.9463 14.4053 13.6917 14.1506 13.3776 14.1506H11.5509V13.0006H13.3776C13.6917 13.0006 13.9463 12.7459 13.9463 12.4318V10.6053H15.0961V12.4318C15.0961 12.7459 15.3507 13.0006 15.6649 13.0006H17.4916V14.1506Z" fill="#D12B2F"/>
</g>
<defs>
<clipPath id="clip0_14_108">
<rect width="20" height="20" fill="white"/>
</clipPath>
</defs>
</svg>
