<svg width="386" height="388" viewBox="0 0 386 388" fill="none" xmlns="http://www.w3.org/2000/svg">
<path d="M386 296.742H0V296.938H386V296.742Z" fill="#EBEBEB"/>
<path d="M66.0678 304.13H40.4991V304.326H66.0678V304.13Z" fill="#EBEBEB"/>
<path d="M168.211 302.027H132.12V302.223H168.211V302.027Z" fill="#EBEBEB"/>
<path d="M101.896 310.128H87.0815V310.324H101.896V310.128Z" fill="#EBEBEB"/>
<path d="M264.441 306.761H241.119V306.957H264.441V306.761Z" fill="#EBEBEB"/>
<path d="M286.227 306.761H271.312V306.957H286.227V306.761Z" fill="#EBEBEB"/>
<path d="M347.331 310.035H302.122V310.231H347.331V310.035Z" fill="#EBEBEB"/>
<path d="M182.964 262.133H33.8986C32.7308 262.131 31.6116 261.663 30.7865 260.832C29.9615 260.002 29.4982 258.876 29.4982 257.702V47.0722C29.5083 45.9051 29.9762 44.7891 30.8001 43.9668C31.624 43.1444 32.7375 42.682 33.8986 42.68H182.964C184.133 42.68 185.254 43.1468 186.081 43.9778C186.908 44.8088 187.372 45.9358 187.372 47.111V257.702C187.372 258.877 186.908 260.004 186.081 260.835C185.254 261.666 184.133 262.133 182.964 262.133ZM33.8986 42.8352C32.782 42.8372 31.7118 43.2845 30.923 44.0789C30.1342 44.8733 29.6912 45.9498 29.6912 47.0722V257.702C29.6912 258.824 30.1342 259.901 30.923 260.695C31.7118 261.489 32.782 261.937 33.8986 261.939H182.964C184.081 261.937 185.152 261.49 185.942 260.696C186.732 259.901 187.177 258.825 187.179 257.702V47.0722C187.177 45.9491 186.732 44.8726 185.942 44.0784C185.152 43.2843 184.081 42.8372 182.964 42.8352H33.8986Z" fill="#EBEBEB"/>
<path d="M349.955 262.133H200.882C199.714 262.131 198.594 261.663 197.767 260.833C196.941 260.002 196.476 258.876 196.474 257.702V47.0722C196.486 45.9044 196.956 44.7884 197.781 43.9663C198.606 43.1441 199.72 42.682 200.882 42.68H349.955C351.115 42.684 352.227 43.1473 353.049 43.9695C353.871 44.7916 354.338 45.9064 354.348 47.0722V257.702C354.348 258.874 353.886 259.999 353.062 260.83C352.239 261.66 351.122 262.129 349.955 262.133ZM200.882 42.8352C199.765 42.8372 198.694 43.2843 197.904 44.0784C197.114 44.8726 196.669 45.9491 196.667 47.0722V257.702C196.669 258.825 197.114 259.901 197.904 260.696C198.694 261.49 199.765 261.937 200.882 261.939H349.955C351.073 261.937 352.144 261.49 352.934 260.696C353.724 259.901 354.168 258.825 354.17 257.702V47.0722C354.168 45.9491 353.724 44.8726 352.934 44.0784C352.144 43.2843 351.073 42.8372 349.955 42.8352H200.882Z" fill="#EBEBEB"/>
<path d="M69.1017 190.291L252.784 190.291V74.7521L69.1017 74.7521V190.291Z" fill="#F0F0F0"/>
<path d="M249.186 184.859V80.1841L72.6915 80.1841V184.859H249.186Z" fill="#FAFAFA"/>
<path d="M225.957 184.859L207.846 80.1841H194.498L212.601 184.859H225.957Z" fill="white"/>
<path d="M209.521 184.859L191.417 80.1841H185.45L203.553 184.859H209.521Z" fill="white"/>
<path d="M180.308 184.859L162.205 80.1841H148.857L166.96 184.859H180.308Z" fill="white"/>
<path d="M146.657 184.859L128.546 80.1841H122.578L140.682 184.859H146.657Z" fill="white"/>
<path d="M202.812 184.859V80.1841H201.901V184.859H202.812Z" fill="#E0E0E0"/>
<path d="M249.186 184.866V80.1918H248.275V184.866H249.186Z" fill="#E0E0E0"/>
<path d="M206.41 184.859V80.1841H202.812V184.859H206.41Z" fill="#F0F0F0"/>
<path d="M158.26 184.859V80.1841H157.349V184.859H158.26Z" fill="#E0E0E0"/>
<path d="M161.85 184.859V80.1841H158.252V184.859H161.85Z" fill="#F0F0F0"/>
<path d="M113.677 184.859V80.1841H112.766V184.859H113.677Z" fill="#E0E0E0"/>
<path d="M117.275 184.866V80.1918H113.677V184.866H117.275Z" fill="#F0F0F0"/>
<path d="M69.094 190.291V74.7521H68.183V190.291H69.094Z" fill="#E0E0E0"/>
<path d="M50.4348 66.8213H260.936C261.254 66.8214 261.559 66.6949 261.785 66.4695C262.011 66.2442 262.138 65.9383 262.14 65.6185C262.14 65.2975 262.013 64.9896 261.788 64.7626C261.562 64.5355 261.255 64.408 260.936 64.408H50.4348C50.1167 64.41 49.8124 64.5385 49.5882 64.7653C49.364 64.9921 49.2382 65.2988 49.2382 65.6185C49.2402 65.9369 49.3669 66.2417 49.5909 66.4668C49.8148 66.6919 50.118 66.8193 50.4348 66.8213Z" fill="#E0E0E0"/>
<g opacity="0.6">
<path d="M178.124 272.896H257.995V62.08H178.124L178.124 272.896Z" fill="#F5F5F5"/>
<path d="M226.69 274.619H233.383L231.507 63.8027H228.512L226.69 274.619Z" fill="#E6E6E6"/>
<path d="M241.458 274.619H244.693L243.782 63.8027H242.338L241.458 274.619Z" fill="#E6E6E6"/>
<path d="M207.282 274.619H210.509L209.606 63.8027H208.162L207.282 274.619Z" fill="#E6E6E6"/>
<path d="M190.838 274.619H194.065L193.162 63.8027H191.718L190.838 274.619Z" fill="#E6E6E6"/>
</g>
<g opacity="0.6">
<path d="M54.5572 272.896H94.4928L94.4928 62.08H54.5572L54.5572 272.896Z" fill="#F5F5F5"/>
<path d="M78.8444 274.619H82.1871L81.253 63.8027H79.7553L78.8444 274.619Z" fill="#E6E6E6"/>
<path d="M86.2247 274.619H87.8382L87.3904 63.8027H86.6648L86.2247 274.619Z" fill="#E6E6E6"/>
<path d="M69.1404 274.619H70.7539L70.2984 63.8027H69.5804L69.1404 274.619Z" fill="#E6E6E6"/>
<path d="M60.9186 274.619H62.5321L62.0766 63.8027H61.3509L60.9186 274.619Z" fill="#E6E6E6"/>
</g>
<path d="M331.752 94.672H278.769V161.144H331.752V94.672Z" fill="#E6E6E6"/>
<path d="M334.083 94.672H279.564V161.144H334.083V94.672Z" fill="#F5F5F5"/>
<path d="M329.906 156.426V99.3901H283.749V156.426H329.906Z" fill="#FAFAFA"/>
<path d="M329.906 156.426V99.3901H329.474V156.426H329.906Z" fill="#E6E6E6"/>
<path d="M322.095 124.16C324.7 121.542 324.7 117.297 322.095 114.678C319.49 112.06 315.267 112.06 312.662 114.678C310.057 117.297 310.057 121.542 312.662 124.16C315.267 126.779 319.49 126.779 322.095 124.16Z" fill="#F0F0F0"/>
<path d="M316.31 139.111C321.604 133.79 321.604 125.162 316.31 119.84C311.016 114.519 302.433 114.519 297.139 119.84C291.845 125.162 291.845 133.79 297.139 139.111C302.433 144.433 311.016 144.433 316.31 139.111Z" fill="white"/>
<path d="M303.198 120.949C304.044 117.346 301.823 113.735 298.238 112.884C294.653 112.033 291.06 114.265 290.214 117.869C289.368 121.473 291.588 125.084 295.174 125.935C298.759 126.785 302.351 124.553 303.198 120.949Z" fill="#F0F0F0"/>
<path d="M277.194 217.559H269.953V291.761H277.194V217.559Z" fill="#F0F0F0"/>
<path d="M345.254 213.121H268.193V217.559H345.254V213.121Z" fill="#F0F0F0"/>
<path d="M340.537 291.76H272.902V296.742H340.537V291.76Z" fill="#F0F0F0"/>
<path d="M343.494 217.559H277.194V291.761H343.494V217.559Z" fill="#FAFAFA"/>
<path d="M283.231 248.592H337.449V225.824H283.231V248.592Z" fill="#F0F0F0"/>
<path d="M283.231 282.076H337.449V259.308H283.231V282.076Z" fill="#F0F0F0"/>
<path d="M316.52 224.481H304.16C303.384 224.481 302.755 225.114 302.755 225.894V226.607C302.755 227.387 303.384 228.02 304.16 228.02H316.52C317.296 228.02 317.925 227.387 317.925 226.607V225.894C317.925 225.114 317.296 224.481 316.52 224.481Z" fill="#FAFAFA"/>
<path d="M316.52 257.973H304.16C303.384 257.973 302.755 258.606 302.755 259.386V260.1C302.755 260.88 303.384 261.512 304.16 261.512H316.52C317.296 261.512 317.925 260.88 317.925 260.1V259.386C317.925 258.606 317.296 257.973 316.52 257.973Z" fill="#FAFAFA"/>
<path d="M147.892 296.518C156.966 295.038 163.127 286.444 161.655 277.323C160.182 268.202 151.632 262.009 142.558 263.489C133.485 264.97 127.323 273.564 128.796 282.684C130.269 291.805 138.818 297.999 147.892 296.518Z" fill="#EBEBEB"/>
<path d="M122.986 296.469C134.311 294.621 142.002 283.895 140.163 272.511C138.325 261.127 127.654 253.396 116.329 255.244C105.003 257.092 97.3128 267.819 99.1511 279.203C100.989 290.586 111.661 298.317 122.986 296.469Z" fill="#F5F5F5"/>
<path d="M193 331.787C275.668 331.787 342.683 327.854 342.683 323.002C342.683 318.151 275.668 314.218 193 314.218C110.332 314.218 43.3169 318.151 43.3169 323.002C43.3169 327.854 110.332 331.787 193 331.787Z" fill="#F5F5F5"/>
<path d="M97.7429 153.291C92.64 153.291 90.2391 148.131 90.1387 147.913C90.0514 147.672 90.0575 147.406 90.156 147.169C90.2545 146.932 90.4381 146.74 90.6704 146.633C90.9027 146.525 91.1666 146.51 91.4099 146.589C91.6532 146.668 91.8581 146.836 91.9838 147.06C91.9838 147.13 94.0142 151.359 97.8973 151.25C98.1526 151.265 98.3931 151.375 98.5712 151.559C98.7492 151.744 98.8519 151.989 98.8587 152.246C98.8655 152.503 98.7759 152.753 98.6079 152.946C98.4398 153.14 98.2055 153.263 97.9514 153.291H97.7429Z" fill="#3772FF"/>
<path d="M164.436 81.6275C163.992 81.6294 163.548 81.6009 163.108 81.5421C162.976 81.5222 162.85 81.4765 162.735 81.4074C162.621 81.3383 162.522 81.2474 162.442 81.1396C162.363 81.0319 162.306 80.9095 162.274 80.7795C162.242 80.6495 162.235 80.5145 162.255 80.382C162.275 80.2495 162.32 80.1222 162.389 80.0074C162.458 79.8927 162.548 79.7926 162.655 79.713C162.763 79.6333 162.884 79.5757 163.014 79.5434C163.143 79.511 163.277 79.5046 163.409 79.5245C163.455 79.5245 168.103 80.1841 170.141 76.8551C170.21 76.7409 170.302 76.6417 170.409 76.5629C170.517 76.4842 170.639 76.4275 170.768 76.3962C170.898 76.3648 171.032 76.3594 171.163 76.3802C171.295 76.401 171.421 76.4477 171.534 76.5175C171.648 76.5873 171.747 76.6789 171.825 76.7871C171.903 76.8952 171.96 77.0179 171.991 77.1479C172.022 77.278 172.028 77.413 172.007 77.5451C171.986 77.6773 171.94 77.804 171.87 77.9182C169.84 81.1463 166.327 81.6275 164.436 81.6275Z" fill="#3772FF"/>
<path opacity="0.6" d="M164.436 81.6275C163.992 81.6294 163.548 81.6009 163.108 81.5421C162.976 81.5222 162.85 81.4765 162.735 81.4074C162.621 81.3383 162.522 81.2474 162.442 81.1396C162.363 81.0319 162.306 80.9095 162.274 80.7795C162.242 80.6495 162.235 80.5145 162.255 80.382C162.275 80.2495 162.32 80.1222 162.389 80.0074C162.458 79.8927 162.548 79.7926 162.655 79.713C162.763 79.6333 162.884 79.5757 163.014 79.5434C163.143 79.511 163.277 79.5046 163.409 79.5245C163.455 79.5245 168.103 80.1841 170.141 76.8551C170.21 76.7409 170.302 76.6417 170.409 76.5629C170.517 76.4842 170.639 76.4275 170.768 76.3962C170.898 76.3648 171.032 76.3594 171.163 76.3802C171.295 76.401 171.421 76.4477 171.534 76.5175C171.648 76.5873 171.747 76.6789 171.825 76.7871C171.903 76.8952 171.96 77.0179 171.991 77.1479C172.022 77.278 172.028 77.413 172.007 77.5451C171.986 77.6773 171.94 77.804 171.87 77.9182C169.84 81.1463 166.327 81.6275 164.436 81.6275Z" fill="white"/>
<path d="M49.8711 120.49C47.9125 120.422 46.0103 119.813 44.3745 118.728C44.2591 118.654 44.1599 118.557 44.083 118.443C44.0061 118.328 43.9531 118.2 43.9271 118.065C43.9012 117.929 43.9028 117.79 43.932 117.656C43.9612 117.521 44.0173 117.394 44.0969 117.282C44.1765 117.169 44.278 117.075 44.3951 117.003C44.5123 116.932 44.6427 116.885 44.7784 116.866C44.9141 116.846 45.0523 116.855 45.1846 116.891C45.3169 116.927 45.4405 116.99 45.5479 117.075C45.5865 117.075 49.4774 119.721 52.7584 117.618C52.8708 117.536 52.9987 117.478 53.1342 117.447C53.2698 117.417 53.4102 117.414 53.5467 117.44C53.6832 117.466 53.8131 117.52 53.9282 117.598C54.0433 117.676 54.1413 117.777 54.2162 117.895C54.2911 118.012 54.3412 118.144 54.3635 118.282C54.3859 118.42 54.3799 118.561 54.3461 118.696C54.3122 118.832 54.2511 118.959 54.1666 119.07C54.0821 119.181 53.976 119.273 53.8547 119.341C52.6654 120.103 51.2816 120.502 49.8711 120.49Z" fill="#3772FF"/>
<path opacity="0.6" d="M49.8711 120.49C47.9125 120.422 46.0103 119.813 44.3745 118.728C44.2591 118.654 44.1599 118.557 44.083 118.443C44.0061 118.328 43.9531 118.2 43.9271 118.065C43.9012 117.929 43.9028 117.79 43.932 117.656C43.9612 117.521 44.0173 117.394 44.0969 117.282C44.1765 117.169 44.278 117.075 44.3951 117.003C44.5123 116.932 44.6427 116.885 44.7784 116.866C44.9141 116.846 45.0523 116.855 45.1846 116.891C45.3169 116.927 45.4405 116.99 45.5479 117.075C45.5865 117.075 49.4774 119.721 52.7584 117.618C52.8708 117.536 52.9987 117.478 53.1342 117.447C53.2698 117.417 53.4102 117.414 53.5467 117.44C53.6832 117.466 53.8131 117.52 53.9282 117.598C54.0433 117.676 54.1413 117.777 54.2162 117.895C54.2911 118.012 54.3412 118.144 54.3635 118.282C54.3859 118.42 54.3799 118.561 54.3461 118.696C54.3122 118.832 54.2511 118.959 54.1666 119.07C54.0821 119.181 53.976 119.273 53.8547 119.341C52.6654 120.103 51.2816 120.502 49.8711 120.49Z" fill="white"/>
<path d="M314.69 93.2752C312.735 93.2222 310.831 92.6318 309.186 91.568C308.965 91.4147 308.813 91.1793 308.765 90.9138C308.716 90.6482 308.775 90.3741 308.927 90.1518C309.08 89.9295 309.314 89.7773 309.578 89.7285C309.842 89.6798 310.115 89.7385 310.336 89.8918C310.375 89.8918 314.273 92.5303 317.554 90.4351C317.666 90.3632 317.791 90.3142 317.922 90.291C318.053 90.2677 318.187 90.2705 318.317 90.2994C318.447 90.3282 318.57 90.3824 318.678 90.459C318.787 90.5355 318.88 90.6328 318.952 90.7455C319.023 90.8581 319.072 90.9837 319.095 91.1152C319.118 91.2468 319.115 91.3816 319.087 91.512C319.058 91.6424 319.004 91.7659 318.928 91.8754C318.852 91.9848 318.755 92.0782 318.643 92.15C317.462 92.9024 316.089 93.2933 314.69 93.2752Z" fill="#3772FF"/>
<path opacity="0.6" d="M314.69 93.2752C312.735 93.2222 310.831 92.6318 309.186 91.568C308.965 91.4147 308.813 91.1793 308.765 90.9138C308.716 90.6482 308.775 90.3741 308.927 90.1518C309.08 89.9295 309.314 89.7773 309.578 89.7285C309.842 89.6798 310.115 89.7385 310.336 89.8918C310.375 89.8918 314.273 92.5303 317.554 90.4351C317.666 90.3632 317.791 90.3142 317.922 90.291C318.053 90.2677 318.187 90.2705 318.317 90.2994C318.447 90.3282 318.57 90.3824 318.678 90.459C318.787 90.5355 318.88 90.6328 318.952 90.7455C319.023 90.8581 319.072 90.9837 319.095 91.1152C319.118 91.2468 319.115 91.3816 319.087 91.512C319.058 91.6424 319.004 91.7659 318.928 91.8754C318.852 91.9848 318.755 92.0782 318.643 92.15C317.462 92.9024 316.089 93.2933 314.69 93.2752Z" fill="white"/>
<path d="M190.537 173.428C185.805 173.428 183.226 168.819 183.111 168.609C182.981 168.373 182.949 168.094 183.024 167.834C183.099 167.574 183.273 167.355 183.508 167.224C183.744 167.093 184.021 167.062 184.28 167.137C184.538 167.212 184.756 167.387 184.886 167.624C184.886 167.686 187.202 171.752 191.062 171.356C191.32 171.347 191.572 171.437 191.767 171.608C191.962 171.778 192.085 172.017 192.111 172.275C192.138 172.533 192.066 172.792 191.909 172.999C191.753 173.206 191.525 173.345 191.271 173.389C191.039 173.413 190.784 173.428 190.537 173.428Z" fill="#3772FF"/>
<path opacity="0.6" d="M190.537 173.428C185.805 173.428 183.226 168.819 183.111 168.609C182.981 168.373 182.949 168.094 183.024 167.834C183.099 167.574 183.273 167.355 183.508 167.224C183.744 167.093 184.021 167.062 184.28 167.137C184.538 167.212 184.756 167.387 184.886 167.624C184.886 167.686 187.202 171.752 191.062 171.356C191.32 171.347 191.572 171.437 191.767 171.608C191.962 171.778 192.085 172.017 192.111 172.275C192.138 172.533 192.066 172.792 191.909 172.999C191.753 173.206 191.525 173.345 191.271 173.389C191.039 173.413 190.784 173.428 190.537 173.428Z" fill="white"/>
<path d="M60.9879 194.155C60.742 194.153 60.5054 194.061 60.3221 193.896C60.1389 193.732 60.0217 193.505 59.9923 193.26C59.963 193.015 60.0236 192.767 60.1628 192.563C60.302 192.359 60.5102 192.214 60.7486 192.153C60.7949 192.153 65.3265 190.95 65.9441 187.086C65.9654 186.954 66.0124 186.827 66.0823 186.714C66.1522 186.6 66.2437 186.501 66.3516 186.423C66.4595 186.345 66.5816 186.289 66.7111 186.258C66.8405 186.227 66.9747 186.223 67.106 186.244C67.2373 186.265 67.3631 186.312 67.4762 186.383C67.5894 186.453 67.6876 186.545 67.7654 186.653C67.8432 186.762 67.899 186.885 67.9296 187.015C67.9601 187.145 67.9649 187.28 67.9436 187.412C67.1176 192.619 61.4742 194.07 61.2349 194.132C61.1535 194.147 61.0708 194.155 60.9879 194.155Z" fill="#3772FF"/>
<path opacity="0.6" d="M60.9879 194.155C60.742 194.153 60.5054 194.061 60.3221 193.896C60.1389 193.732 60.0217 193.505 59.9923 193.26C59.963 193.015 60.0236 192.767 60.1628 192.563C60.302 192.359 60.5102 192.214 60.7486 192.153C60.7949 192.153 65.3265 190.95 65.9441 187.086C65.9654 186.954 66.0124 186.827 66.0823 186.714C66.1522 186.6 66.2437 186.501 66.3516 186.423C66.4595 186.345 66.5816 186.289 66.7111 186.258C66.8405 186.227 66.9747 186.223 67.106 186.244C67.2373 186.265 67.3631 186.312 67.4762 186.383C67.5894 186.453 67.6876 186.545 67.7654 186.653C67.8432 186.762 67.899 186.885 67.9296 187.015C67.9601 187.145 67.9649 187.28 67.9436 187.412C67.1176 192.619 61.4742 194.07 61.2349 194.132C61.1535 194.147 61.0708 194.155 60.9879 194.155Z" fill="black"/>
<path d="M286.412 123.423C286.159 123.432 285.913 123.345 285.721 123.18C285.528 123.015 285.405 122.784 285.374 122.531C285.343 122.279 285.407 122.025 285.553 121.818C285.7 121.611 285.918 121.466 286.165 121.413C286.211 121.413 290.743 120.218 291.361 116.353C291.373 116.214 291.414 116.078 291.482 115.955C291.549 115.831 291.64 115.723 291.751 115.637C291.861 115.551 291.988 115.489 292.123 115.454C292.259 115.419 292.4 115.413 292.538 115.435C292.676 115.458 292.808 115.508 292.925 115.584C293.043 115.66 293.144 115.759 293.222 115.876C293.3 115.993 293.353 116.124 293.378 116.262C293.403 116.401 293.399 116.543 293.368 116.679C292.534 121.886 286.891 123.337 286.651 123.392C286.573 123.414 286.493 123.424 286.412 123.423Z" fill="#3772FF"/>
<path opacity="0.6" d="M286.412 123.423C286.159 123.432 285.913 123.345 285.721 123.18C285.528 123.015 285.405 122.784 285.374 122.531C285.343 122.279 285.407 122.025 285.553 121.818C285.7 121.611 285.918 121.466 286.165 121.413C286.211 121.413 290.743 120.218 291.361 116.353C291.373 116.214 291.414 116.078 291.482 115.955C291.549 115.831 291.64 115.723 291.751 115.637C291.861 115.551 291.988 115.489 292.123 115.454C292.259 115.419 292.4 115.413 292.538 115.435C292.676 115.458 292.808 115.508 292.925 115.584C293.043 115.66 293.144 115.759 293.222 115.876C293.3 115.993 293.353 116.124 293.378 116.262C293.403 116.401 293.399 116.543 293.368 116.679C292.534 121.886 286.891 123.337 286.651 123.392C286.573 123.414 286.493 123.424 286.412 123.423Z" fill="black"/>
<path d="M327.891 162.114H327.722C327.475 162.068 321.746 161.012 320.565 155.906C320.534 155.775 320.53 155.638 320.553 155.505C320.575 155.372 320.623 155.244 320.695 155.13C320.767 155.016 320.861 154.918 320.971 154.84C321.081 154.763 321.206 154.708 321.337 154.68C321.468 154.65 321.603 154.647 321.736 154.67C321.868 154.693 321.994 154.741 322.107 154.814C322.221 154.886 322.319 154.98 322.396 155.09C322.473 155.2 322.528 155.325 322.557 155.456C323.437 159.259 328.038 160.112 328.084 160.112C328.328 160.164 328.543 160.304 328.691 160.505C328.839 160.706 328.908 160.955 328.886 161.204C328.865 161.453 328.753 161.685 328.573 161.857C328.392 162.029 328.155 162.129 327.907 162.137L327.891 162.114Z" fill="#3772FF"/>
<path d="M309.796 199.525C308.028 199.553 306.308 198.945 304.948 197.81C304.834 197.729 304.739 197.624 304.667 197.504C304.596 197.384 304.55 197.25 304.532 197.111C304.515 196.972 304.526 196.83 304.565 196.696C304.605 196.561 304.671 196.437 304.761 196.329C304.851 196.222 304.962 196.134 305.087 196.072C305.212 196.01 305.348 195.974 305.487 195.968C305.627 195.961 305.766 195.983 305.896 196.033C306.027 196.083 306.145 196.16 306.245 196.258C309.232 198.757 313.424 196.662 313.47 196.638C313.71 196.515 313.989 196.492 314.245 196.575C314.501 196.658 314.714 196.84 314.837 197.081C314.96 197.321 314.982 197.601 314.9 197.859C314.817 198.117 314.636 198.331 314.397 198.454C312.958 199.142 311.389 199.507 309.796 199.525Z" fill="#3772FF"/>
<path d="M262.48 72.168C262.304 72.1694 262.131 72.1238 261.978 72.0361C261.77 71.9197 256.729 68.9864 257.346 63.7484C257.377 63.4798 257.512 63.2345 257.723 63.0664C257.934 62.8983 258.202 62.8213 258.469 62.8521C258.737 62.883 258.981 63.0193 259.148 63.231C259.315 63.4428 259.392 63.7126 259.361 63.9812C258.921 67.8612 262.966 70.2435 263.005 70.2668C263.201 70.3785 263.355 70.553 263.442 70.7627C263.528 70.9723 263.542 71.205 263.482 71.4237C263.421 71.6424 263.29 71.8344 263.108 71.9693C262.927 72.1042 262.706 72.1742 262.48 72.168Z" fill="#3772FF"/>
<path d="M60.8258 76.3041C60.693 76.3097 60.5604 76.2889 60.4355 76.243C60.3107 76.1971 60.1961 76.127 60.0982 76.0365C60.0004 75.9461 59.9212 75.8372 59.8652 75.716C59.8093 75.5948 59.7776 75.4637 59.772 75.3302C59.7664 75.1967 59.7871 75.0634 59.8327 74.9379C59.8784 74.8125 59.9482 74.6973 60.0382 74.5989C60.1282 74.5005 60.2365 74.4209 60.3571 74.3647C60.4776 74.3084 60.6081 74.2766 60.7409 74.271C64.6009 73.9295 66.1449 69.4753 66.1449 69.4287C66.2345 69.1811 66.4164 68.9781 66.652 68.8627C66.8877 68.7472 67.1587 68.7282 67.408 68.8097C67.6574 68.8912 67.8654 69.0669 67.9884 69.2996C68.1113 69.5324 68.1396 69.804 68.0671 70.0573C67.9977 70.2978 66.1449 75.8462 60.9184 76.2653L60.8258 76.3041Z" fill="#3772FF"/>
<path d="M136.15 107.01C133.409 108.299 130.993 114.491 131.78 123.384C132.568 132.277 114.241 126.038 111.747 136.002C107.246 154.036 137.424 164.877 150.285 154.036C158.245 147.331 165.725 125.231 164.629 113.172C163.456 100.205 143.445 91.5059 136.15 107.01Z" fill="#263238"/>
<path d="M165.108 129.763C165.447 129.662 165.941 129.514 166.366 129.375L167.694 128.925C168.582 128.614 169.462 128.273 170.334 127.908C172.072 127.191 173.768 126.375 175.414 125.464C178.639 123.734 181.541 121.455 183.991 118.728C186.176 116.121 187.743 112.567 188.97 108.919C189.596 107.088 190.12 105.202 190.568 103.286C191.016 101.369 191.441 99.4056 191.765 97.5199L194.915 97.7139C194.92 101.91 194.467 106.095 193.564 110.192C193.104 112.291 192.482 114.352 191.703 116.353C190.896 118.467 189.813 120.463 188.484 122.29C185.765 125.794 182.393 128.733 178.556 130.942C176.707 132.041 174.789 133.015 172.812 133.86C171.824 134.279 170.828 134.636 169.809 135.016C169.307 135.195 168.798 135.365 168.265 135.521C167.732 135.676 167.262 135.823 166.629 135.978L165.108 129.763Z" fill="#7F3E3B"/>
<path d="M194.899 98.777L196.212 94.0357L191.001 94.4392C191.001 94.4392 190.63 97.5432 192.429 99.4134L194.899 98.777Z" fill="#7F3E3B"/>
<path d="M196.991 88.5183L192.236 89.7677L191.001 94.4392L196.212 94.0357L196.991 88.5183Z" fill="#7F3E3B"/>
<path d="M159.21 130.973C161.611 128.777 167.702 127.093 167.702 127.093L174.379 137.181C174.379 137.181 166.76 142.295 163.525 141.108C160.159 139.928 156.971 133.014 159.21 130.973Z" fill="#3772FF"/>
<path d="M137.215 274.463L141.376 279.057L153.319 270.506L149.158 265.912L137.215 274.463Z" fill="#7F3E3B"/>
<path d="M113.731 292.614L119.313 295.4L127.519 283.302L121.937 280.516L113.731 292.614Z" fill="#7F3E3B"/>
<path d="M120.2 294.709L115.893 289.161C115.82 289.064 115.715 288.997 115.597 288.973C115.479 288.949 115.356 288.969 115.252 289.029L110.396 291.823C110.276 291.896 110.173 291.995 110.093 292.112C110.014 292.229 109.96 292.361 109.935 292.5C109.91 292.64 109.915 292.783 109.949 292.92C109.984 293.057 110.046 293.186 110.134 293.297C111.678 295.206 112.504 296.052 114.403 298.496C115.561 299.994 117.923 303.486 119.529 305.558C121.135 307.63 123.265 306.148 122.779 305.139C120.602 300.615 120.463 297.93 120.54 295.772C120.556 295.389 120.435 295.012 120.2 294.709Z" fill="#263238"/>
<path d="M142.619 279.143L139.778 272.283C139.728 272.16 139.639 272.057 139.524 271.991C139.409 271.925 139.276 271.9 139.145 271.918L133.124 272.694C132.98 272.71 132.843 272.759 132.722 272.838C132.601 272.917 132.501 273.024 132.43 273.15C132.358 273.276 132.317 273.417 132.31 273.561C132.304 273.706 132.331 273.85 132.39 273.982C133.425 276.365 134.05 277.474 135.301 280.493C136.073 282.348 137.864 287.221 138.922 289.805C139.979 292.389 142.697 291.776 142.496 290.643C141.593 285.568 141.901 282.293 142.65 280.299C142.721 280.114 142.755 279.916 142.75 279.718C142.744 279.519 142.7 279.324 142.619 279.143Z" fill="#263238"/>
<path opacity="0.2" d="M153.312 270.506L147.159 274.914L142.504 270.677L149.15 265.912L153.312 270.506Z" fill="black"/>
<path opacity="0.2" d="M121.937 280.516L127.519 283.302L123.281 289.541L117.699 286.748L121.937 280.516Z" fill="black"/>
<path d="M167.617 131.757C167.617 131.757 167.802 131.478 164.421 168.555L139.176 170.332C138.883 159.98 139.655 152.67 134.845 131.4C138.392 130.682 141.986 130.226 145.599 130.034C149.425 129.778 153.264 129.799 157.087 130.096C162.02 130.57 167.617 131.757 167.617 131.757Z" fill="#3772FF"/>
<path d="M136.744 137.546C134.868 136.677 133.224 135.746 131.518 134.76C129.812 133.775 128.198 132.719 126.593 131.602C123.324 129.371 120.286 126.819 117.522 123.982L116.503 122.872L116.24 122.592C116.09 122.419 115.948 122.237 115.816 122.049C115.577 121.707 115.37 121.343 115.198 120.963C114.687 119.75 114.424 118.446 114.426 117.129C114.443 115.033 114.723 112.947 115.26 110.921C116.24 107.13 117.6 103.448 119.32 99.9333L122.269 101.082C121.814 102.843 121.382 104.675 120.996 106.467C120.61 108.26 120.285 110.068 120.069 111.837C119.819 113.501 119.751 115.187 119.869 116.866C119.907 117.447 120.054 118.015 120.301 118.542C120.301 118.596 120.378 118.658 120.401 118.666C120.401 118.666 120.424 118.674 120.401 118.666L120.641 118.891L121.59 119.799C124.24 122.211 127.08 124.404 130.082 126.356C131.587 127.357 133.17 128.273 134.714 129.196C136.258 130.12 137.918 130.997 139.423 131.765L136.744 137.546Z" fill="#7F3E3B"/>
<path d="M144.781 132.82C141.917 128.808 136.289 128.87 136.289 128.87L129.503 138.958C129.503 138.958 137.076 144.142 140.311 142.986C143.739 141.76 146.549 135.288 144.781 132.82Z" fill="#3772FF"/>
<path d="M157.087 130.096L145.599 130.034C143.839 130.748 142.82 135.35 154.477 139.245C162.56 134.628 158.26 130.523 157.087 130.096Z" fill="white"/>
<path d="M146.804 117.036C147.506 120.753 148.193 127.567 145.599 130.034C145.599 130.034 146.603 133.813 154.477 139.245C159.997 133.682 157.087 130.096 157.087 130.096C152.972 129.08 153.095 126.007 153.829 123.112L146.804 117.036Z" fill="#7F3E3B"/>
<path d="M170.612 153.943H170.489C170.081 153.909 169.704 153.715 169.439 153.402C169.175 153.089 169.044 152.684 169.076 152.275C169.354 148.814 166.76 146.198 163.78 143.164C160.36 139.696 156.477 135.761 156.322 129.639C156.312 129.227 156.465 128.828 156.747 128.53C157.03 128.231 157.418 128.058 157.828 128.048C158.237 128.037 158.634 128.191 158.931 128.475C159.228 128.759 159.4 129.149 159.41 129.561C159.534 134.45 162.807 137.771 165.972 140.984C169.138 144.196 172.542 147.642 172.148 152.523C172.116 152.91 171.94 153.27 171.655 153.533C171.371 153.796 170.999 153.942 170.612 153.943Z" fill="#263238"/>
<path d="M148.047 161.796C147.922 161.796 147.797 161.78 147.676 161.749C147.279 161.65 146.937 161.397 146.726 161.045C146.515 160.693 146.451 160.271 146.549 159.872C148.039 153.788 146.086 149.008 144.017 143.979C142.164 139.463 140.249 134.791 141.176 129.328C141.256 128.933 141.486 128.584 141.817 128.356C142.149 128.128 142.556 128.039 142.951 128.108C143.347 128.177 143.701 128.397 143.937 128.724C144.173 129.05 144.274 129.456 144.217 129.856C143.445 134.434 145.105 138.501 146.865 142.8C148.934 147.836 151.274 153.547 149.544 160.648C149.456 160.978 149.261 161.27 148.99 161.478C148.719 161.686 148.387 161.798 148.047 161.796Z" fill="#263238"/>
<path opacity="0.2" d="M152.377 121.832L149.289 122.197C149.439 123.032 149.737 123.834 150.17 124.564C150.779 125.487 152.138 125.89 153.481 125.929C153.48 124.969 153.61 124.014 153.867 123.089L152.377 121.832Z" fill="black"/>
<path d="M139.971 113.296C142.233 119.085 143.059 121.584 147.004 123.648C152.933 126.752 159.511 122.709 159.017 116.361C158.577 110.642 154.956 102.137 148.448 101.656C147.015 101.544 145.577 101.801 144.27 102.404C142.964 103.008 141.833 103.936 140.983 105.102C140.134 106.268 139.596 107.633 139.419 109.067C139.241 110.501 139.432 111.957 139.971 113.296Z" fill="#7F3E3B"/>
<path d="M146.171 100.818C150.563 103.534 146.804 119.512 139.369 118.666C131.935 117.82 139.678 96.806 146.171 100.818Z" fill="#263238"/>
<path d="M146.008 100.88C142.697 103.092 144.958 106.941 156.122 104.659C156.122 104.651 151.505 97.2018 146.008 100.88Z" fill="#263238"/>
<path d="M140.774 118.922C141.262 120.019 142.161 120.877 143.276 121.312C144.765 121.871 145.638 120.536 145.344 119.085C145.074 117.758 143.978 115.857 142.434 115.934C142.097 115.957 141.77 116.064 141.484 116.246C141.199 116.428 140.963 116.679 140.798 116.976C140.633 117.272 140.544 117.606 140.54 117.946C140.536 118.286 140.617 118.621 140.774 118.922Z" fill="#7F3E3B"/>
<path d="M164.436 168.555C164.436 168.555 177.946 212.888 179.035 231.962C180.162 251.804 150.849 275.348 150.849 275.348L143.553 267.301C143.553 267.301 167.37 246.97 164.104 232.241C159.588 211.941 145.908 169.859 145.908 169.859L164.436 168.555Z" fill="#263238"/>
<path opacity="0.2" d="M156.014 183.066C154.778 179.186 152.03 181.793 151.073 185.906C152.98 192.114 155.188 199.378 157.287 206.649C158.098 200.208 158.43 190.671 156.014 183.066Z" fill="black"/>
<path d="M141.577 266.913L150.833 276.512L154.786 274.316L145.005 263.615L141.577 266.913Z" fill="#3772FF"/>
<path d="M157.758 169.028C157.758 169.028 153.898 212.484 150.038 236.688C146.912 256.243 125.674 288.183 125.674 288.183L117.892 284.544C117.892 284.544 132.166 250.345 134.39 237.052C141.523 194.504 131.889 182.228 139.184 170.316L157.758 169.028Z" fill="#263238"/>
<path d="M117.344 284.629L126.122 288.959L129.001 285.366L118.734 280.501L117.344 284.629Z" fill="#3772FF"/>
<path d="M138.698 168.873L137.717 171.201C137.64 171.38 137.856 171.55 138.15 171.527L164.629 169.665C164.853 169.665 165.038 169.525 165.038 169.378L165.108 167.05C165.108 166.894 164.907 166.778 164.66 166.793L139.091 168.594C139.006 168.597 138.923 168.625 138.853 168.674C138.783 168.724 138.729 168.793 138.698 168.873Z" fill="white"/>
<path d="M142.326 171.496L141.647 171.543C141.508 171.543 141.4 171.488 141.4 171.403L141.515 168.431C141.515 168.345 141.639 168.26 141.77 168.252L142.457 168.206C142.596 168.206 142.704 168.26 142.696 168.345L142.581 171.318C142.581 171.418 142.465 171.496 142.326 171.496Z" fill="#263238"/>
<path d="M162.722 170.068L162.035 170.115C161.896 170.115 161.788 170.06 161.796 169.975L161.912 167.003C161.912 166.918 162.027 166.84 162.166 166.825L162.846 166.778C162.985 166.778 163.093 166.832 163.093 166.918L162.977 169.897C162.969 169.983 162.892 170.06 162.722 170.068Z" fill="#263238"/>
<path d="M152.524 170.79L151.837 170.836C151.706 170.836 151.598 170.782 151.598 170.697L151.713 167.717C151.713 167.632 151.829 167.554 151.968 167.546L152.655 167.5C152.787 167.5 152.895 167.554 152.895 167.639L152.779 170.611C152.779 170.72 152.663 170.774 152.524 170.79Z" fill="#263238"/>
<path d="M149.274 111.123C148.903 111.247 148.749 111.806 148.934 112.38L150.285 111.946C150.1 111.372 149.645 110.968 149.274 111.123Z" fill="#263238"/>
<path d="M155.172 109.245C154.794 109.369 154.639 109.936 154.825 110.51L156.183 110.068C155.944 109.494 155.504 109.129 155.172 109.245Z" fill="#263238"/>
<path d="M154.979 109.331L156.222 108.493C156.222 108.493 155.867 109.796 154.979 109.331Z" fill="#263238"/>
<path d="M153.628 111.589C154.404 112.547 155.308 113.393 156.315 114.103C156.128 114.358 155.888 114.568 155.612 114.72C155.336 114.871 155.03 114.96 154.717 114.98L153.628 111.589Z" fill="#630F0F"/>
<path d="M153.721 117.393C153.743 117.374 153.76 117.348 153.768 117.319C153.776 117.29 153.776 117.259 153.767 117.23C153.755 117.193 153.728 117.163 153.694 117.145C153.659 117.128 153.619 117.125 153.582 117.137C152.991 117.343 152.361 117.406 151.742 117.323C151.122 117.239 150.531 117.011 150.015 116.656C150.001 116.642 149.985 116.631 149.967 116.624C149.949 116.616 149.93 116.612 149.911 116.612C149.892 116.612 149.872 116.616 149.854 116.624C149.837 116.631 149.82 116.642 149.807 116.656C149.792 116.669 149.78 116.685 149.772 116.703C149.764 116.721 149.76 116.741 149.76 116.761C149.76 116.781 149.764 116.8 149.772 116.818C149.78 116.836 149.792 116.853 149.807 116.866C150.359 117.263 150.998 117.52 151.67 117.615C152.342 117.709 153.028 117.639 153.667 117.409L153.721 117.393Z" fill="#263238"/>
<path d="M147.321 110.774C147.36 110.741 147.389 110.698 147.406 110.65C147.512 110.289 147.704 109.959 147.964 109.688C148.225 109.418 148.548 109.215 148.903 109.098C148.941 109.089 148.976 109.072 149.007 109.049C149.039 109.026 149.065 108.998 149.085 108.964C149.105 108.931 149.118 108.894 149.124 108.856C149.13 108.818 149.129 108.779 149.12 108.741C149.11 108.703 149.094 108.668 149.071 108.636C149.048 108.605 149.02 108.578 148.987 108.558C148.954 108.538 148.917 108.525 148.879 108.519C148.841 108.513 148.802 108.514 148.764 108.524C148.317 108.665 147.91 108.912 147.577 109.245C147.244 109.577 146.994 109.984 146.85 110.433C146.825 110.507 146.831 110.587 146.866 110.657C146.901 110.727 146.962 110.78 147.035 110.805C147.081 110.827 147.132 110.835 147.182 110.829C147.233 110.824 147.281 110.805 147.321 110.774Z" fill="#263238"/>
<path d="M156.569 106.941C156.586 106.932 156.599 106.918 156.608 106.902C156.633 106.871 156.651 106.836 156.662 106.799C156.673 106.761 156.677 106.721 156.673 106.682C156.668 106.643 156.656 106.606 156.637 106.571C156.618 106.537 156.592 106.507 156.562 106.483C156.2 106.182 155.773 105.973 155.315 105.872C154.858 105.771 154.382 105.78 153.929 105.901C153.892 105.913 153.857 105.933 153.828 105.958C153.798 105.984 153.774 106.016 153.756 106.051C153.739 106.087 153.729 106.125 153.727 106.165C153.725 106.204 153.731 106.244 153.744 106.281C153.77 106.354 153.823 106.414 153.892 106.448C153.961 106.483 154.041 106.49 154.114 106.467C154.474 106.374 154.85 106.37 155.211 106.453C155.572 106.537 155.909 106.707 156.191 106.948C156.245 106.992 156.312 107.015 156.382 107.014C156.451 107.013 156.517 106.987 156.569 106.941Z" fill="#263238"/>
<path d="M125.643 102.222C125.456 102.222 125.272 102.171 125.11 102.075L101.626 87.5328C101.42 87.3804 101.279 87.1557 101.23 86.9034C101.181 86.6511 101.229 86.3896 101.363 86.1708C101.497 85.952 101.708 85.7919 101.954 85.7222C102.2 85.6525 102.463 85.6783 102.691 85.7946L126.176 100.337C126.365 100.452 126.511 100.627 126.592 100.834C126.673 101.041 126.685 101.27 126.624 101.484C126.564 101.698 126.435 101.886 126.258 102.02C126.08 102.153 125.864 102.224 125.643 102.222Z" fill="#3772FF"/>
<path d="M106.945 89.1391C108.265 89.0848 109.624 89.0227 109.802 87.8277C109.979 86.6326 108.705 86.1748 107.486 85.7247L107.154 85.6006C107.154 85.4842 107.1 85.3678 107.069 85.2591L107.339 84.9565C108.204 83.9942 109.107 83.001 108.404 82.0542C107.702 81.1075 106.497 81.6662 105.316 82.2172L104.953 82.3879C104.853 82.3181 104.753 82.2638 104.645 82.2017C104.537 82.1396 104.645 81.9534 104.645 81.8447C104.583 80.5255 104.521 79.1598 103.34 78.9813C102.159 78.8028 101.696 80.0832 101.248 81.3093C101.209 81.4102 101.171 81.5266 101.124 81.643L100.777 81.7283L100.484 81.4645C99.5263 80.5876 98.5381 79.6874 97.5963 80.3858C96.6545 81.0842 97.2103 82.3026 97.7584 83.4898L97.9283 83.8546C97.861 83.9519 97.7991 84.0529 97.743 84.1572H97.3879C96.0755 84.2193 94.709 84.2814 94.5315 85.4764C94.3539 86.6714 95.6354 87.1293 96.8475 87.5794L97.1794 87.7035C97.1794 87.8199 97.2335 87.9363 97.2643 88.045C97.1717 88.1536 97.0791 88.2622 96.9941 88.3476C96.1295 89.3098 95.234 90.2954 95.9288 91.2498C96.6236 92.2043 97.8356 91.6301 99.0168 91.0869L99.3873 90.9162L99.6884 91.1024C99.6884 91.2266 99.6884 91.3507 99.6884 91.4594C99.7502 92.7786 99.8119 94.1443 100.993 94.3228C102.174 94.5013 102.645 93.2209 103.093 91.9948C103.093 91.9017 103.17 91.7853 103.209 91.6611C103.326 91.64 103.442 91.6115 103.556 91.5758L103.857 91.8474C104.807 92.7165 105.795 93.6244 106.745 92.926C107.694 92.2276 107.123 91.0093 106.575 89.822C106.528 89.7211 106.467 89.5892 106.413 89.4573L106.598 89.1546L106.945 89.1391Z" fill="#3772FF"/>
<path opacity="0.7" d="M106.945 89.1391C108.265 89.0848 109.624 89.0227 109.802 87.8277C109.979 86.6326 108.705 86.1748 107.486 85.7247L107.154 85.6006C107.154 85.4842 107.1 85.3678 107.069 85.2591L107.339 84.9565C108.204 83.9942 109.107 83.001 108.404 82.0542C107.702 81.1075 106.497 81.6662 105.316 82.2172L104.953 82.3879C104.853 82.3181 104.753 82.2638 104.645 82.2017C104.537 82.1396 104.645 81.9534 104.645 81.8447C104.583 80.5255 104.521 79.1598 103.34 78.9813C102.159 78.8028 101.696 80.0832 101.248 81.3093C101.209 81.4102 101.171 81.5266 101.124 81.643L100.777 81.7283L100.484 81.4645C99.5263 80.5876 98.5381 79.6874 97.5963 80.3858C96.6545 81.0842 97.2103 82.3026 97.7584 83.4898L97.9283 83.8546C97.861 83.9519 97.7991 84.0529 97.743 84.1572H97.3879C96.0755 84.2193 94.709 84.2814 94.5315 85.4764C94.3539 86.6714 95.6354 87.1293 96.8475 87.5794L97.1794 87.7035C97.1794 87.8199 97.2335 87.9363 97.2643 88.045C97.1717 88.1536 97.0791 88.2622 96.9941 88.3476C96.1295 89.3098 95.234 90.2954 95.9288 91.2498C96.6236 92.2043 97.8356 91.6301 99.0168 91.0869L99.3873 90.9162L99.6884 91.1024C99.6884 91.2266 99.6884 91.3507 99.6884 91.4594C99.7502 92.7786 99.8119 94.1443 100.993 94.3228C102.174 94.5013 102.645 93.2209 103.093 91.9948C103.093 91.9017 103.17 91.7853 103.209 91.6611C103.326 91.64 103.442 91.6115 103.556 91.5758L103.857 91.8474C104.807 92.7165 105.795 93.6244 106.745 92.926C107.694 92.2276 107.123 91.0093 106.575 89.822C106.528 89.7211 106.467 89.5892 106.413 89.4573L106.598 89.1546L106.945 89.1391Z" fill="white"/>
<path d="M118.633 102.471L117.668 96.2628L123.968 99.3668C123.73 100.412 123.194 101.364 122.424 102.106C122.107 102.469 121.695 102.734 121.234 102.871C120.774 103.009 120.285 103.012 119.822 102.882L118.633 102.471Z" fill="#7F3E3B"/>
<path d="M121.204 93.2209L124.431 96.0688L123.968 99.328L117.668 96.255L121.204 93.2209Z" fill="#7F3E3B"/>
<path d="M122.223 297.681C122.289 297.634 122.351 297.582 122.408 297.526C122.475 297.466 122.523 297.388 122.549 297.302C122.575 297.216 122.577 297.124 122.555 297.037C122.37 296.261 120.239 295.485 120 295.431C119.973 295.419 119.944 295.417 119.916 295.424C119.888 295.431 119.863 295.447 119.845 295.47C119.829 295.494 119.821 295.522 119.821 295.551C119.821 295.58 119.829 295.609 119.845 295.633C120.193 296.409 120.888 297.681 121.667 297.813C121.863 297.842 122.061 297.795 122.223 297.681ZM120.239 295.834C121.081 296.153 122.169 296.696 122.269 297.107C122.277 297.146 122.273 297.186 122.26 297.223C122.246 297.259 122.223 297.292 122.192 297.317C122.133 297.392 122.056 297.45 121.969 297.487C121.881 297.524 121.785 297.537 121.69 297.526C121.266 297.449 120.741 296.828 120.239 295.834Z" fill="#3772FF"/>
<path d="M122.617 295.609C122.667 295.579 122.712 295.54 122.748 295.493C122.823 295.401 122.865 295.286 122.865 295.167C122.865 295.048 122.823 294.933 122.748 294.841C122.691 294.743 122.613 294.659 122.519 294.595C122.426 294.53 122.319 294.487 122.208 294.469C121.32 294.306 119.892 295.408 119.838 295.454C119.818 295.471 119.802 295.493 119.793 295.517C119.783 295.542 119.78 295.568 119.784 295.594C119.788 295.619 119.798 295.642 119.813 295.662C119.827 295.682 119.846 295.699 119.869 295.71C120.766 296.013 121.743 295.977 122.617 295.609ZM120.301 295.493C120.829 295.06 121.48 294.804 122.161 294.764C122.232 294.772 122.3 294.798 122.359 294.839C122.418 294.879 122.467 294.933 122.501 294.996C122.601 295.159 122.555 295.245 122.501 295.299C122.223 295.633 120.957 295.695 120.255 295.516L120.301 295.493Z" fill="#3772FF"/>
<path d="M142.758 282.658C142.915 283.144 143.221 283.567 143.631 283.869C143.746 283.937 143.875 283.979 144.009 283.991C144.142 284.003 144.277 283.985 144.403 283.938C144.478 283.917 144.546 283.875 144.599 283.818C144.652 283.76 144.688 283.689 144.704 283.613C144.866 282.837 142.843 280.92 142.434 280.509C142.409 280.492 142.379 280.483 142.349 280.483C142.319 280.483 142.289 280.492 142.264 280.509C142.237 280.523 142.216 280.546 142.203 280.574C142.191 280.602 142.188 280.634 142.195 280.664C142.309 281.347 142.498 282.016 142.758 282.658ZM144.364 283.24C144.408 283.329 144.427 283.428 144.418 283.527C144.418 283.566 144.418 283.605 144.31 283.636C144.22 283.671 144.123 283.685 144.027 283.676C143.931 283.668 143.837 283.639 143.754 283.589C143.283 283.31 142.851 282.379 142.573 281.059C143.276 281.691 143.88 282.426 144.364 283.24Z" fill="#3772FF"/>
<path d="M142.226 280.718C142.223 280.733 142.223 280.749 142.226 280.765C142.859 281.409 144.75 282.448 145.36 282.092C145.491 282.014 145.63 281.843 145.522 281.471C145.128 280.043 142.434 280.493 142.303 280.516C142.276 280.52 142.25 280.531 142.23 280.549C142.209 280.567 142.194 280.591 142.187 280.617C142.187 280.654 142.201 280.69 142.226 280.718ZM145.236 281.455L145.275 281.548C145.275 281.704 145.275 281.797 145.275 281.835C144.92 282.037 143.492 281.37 142.735 280.765C143.368 280.695 144.897 280.633 145.236 281.455Z" fill="#3772FF"/>
<path d="M149.12 111.209L150.363 110.363C150.363 110.363 150.007 111.674 149.12 111.209Z" fill="#263238"/>
<path d="M250.043 314.489L244.06 314.497L242.447 300.576L248.43 300.568L250.043 314.489Z" fill="#FFC3BD"/>
<path d="M301.543 288.649L297.012 292.583L286.752 283.093L291.276 279.158L301.543 288.649Z" fill="#FFC3BD"/>
<path d="M296.131 292.428L301.644 287.632C301.734 287.557 301.847 287.516 301.964 287.516C302.081 287.516 302.194 287.557 302.284 287.632L306.484 291C306.586 291.087 306.669 291.195 306.725 291.317C306.781 291.439 306.811 291.572 306.811 291.706C306.811 291.841 306.781 291.974 306.725 292.096C306.669 292.218 306.586 292.326 306.484 292.412C304.685 293.926 303.303 294.942 301.08 296.882C299.706 298.077 295.676 301.833 293.777 303.486C291.878 305.139 290.079 303.393 290.689 302.539C293.545 298.721 295.321 295.338 295.599 293.328C295.667 292.975 295.855 292.657 296.131 292.428Z" fill="#263238"/>
<path d="M244.099 313.799H250.637C250.756 313.799 250.871 313.84 250.964 313.915C251.056 313.99 251.121 314.094 251.147 314.21L252.336 319.557C252.365 319.686 252.365 319.82 252.335 319.948C252.305 320.077 252.247 320.197 252.165 320.3C252.082 320.403 251.978 320.486 251.859 320.543C251.74 320.6 251.61 320.629 251.479 320.628C249.117 320.589 245.712 320.457 242.748 320.457C239.289 320.457 237.259 320.55 233.198 320.558C230.743 320.558 230.056 318.067 231.083 317.842C235.761 316.802 238.617 316.794 242.663 314.28C243.087 313.988 243.585 313.822 244.099 313.799Z" fill="#263238"/>
<path d="M224.652 141.628C223.448 141.162 222.413 140.735 221.332 140.239C220.252 139.742 219.209 139.253 218.16 138.733C216.065 137.699 214.006 136.545 211.984 135.272C209.948 134.018 207.991 132.64 206.124 131.144C205.653 130.756 205.175 130.368 204.711 129.972L203.337 128.707C202.882 128.288 202.449 127.807 202.009 127.357C201.785 127.109 201.592 126.93 201.338 126.635C201.083 126.341 200.836 126.053 200.612 125.759C199.768 124.637 199.051 123.424 198.474 122.142C197.937 120.972 197.48 119.767 197.107 118.534C196.398 116.206 195.881 113.824 195.563 111.41C194.954 106.764 194.838 102.066 195.216 97.3958H199.709C200.018 99.4987 200.342 101.71 200.766 103.837C201.191 105.963 201.639 108.089 202.187 110.138C202.705 112.139 203.36 114.102 204.148 116.012C204.801 117.701 205.721 119.273 206.873 120.668L207.251 121.056C207.367 121.18 207.599 121.366 207.768 121.522C208.139 121.84 208.479 122.173 208.872 122.476C209.644 123.097 210.416 123.71 211.281 124.3C212.949 125.464 214.709 126.573 216.546 127.613C218.383 128.653 220.259 129.639 222.166 130.57C223.123 131.043 224.088 131.509 225.053 131.943C226.018 132.378 227.03 132.836 227.894 133.208L224.652 141.628Z" fill="#FFC3BD"/>
<path d="M225.609 146.749C222.202 144.621 218.984 142.201 215.99 139.517L218.376 127.264C222.811 128.532 227.32 129.522 231.878 130.228C239.405 131.206 230.975 149.962 225.609 146.749Z" fill="#263238"/>
<path d="M199.863 98.4511L200.288 90.792L193.957 92.8329C193.957 92.8329 192.483 98.3192 196.59 99.7626L199.863 98.4511Z" fill="#FFC3BD"/>
<path d="M199.523 86.6714L194.297 88.8598L193.957 92.8329L200.288 90.792L199.523 86.6714Z" fill="#FFC3BD"/>
<path opacity="0.2" d="M242.454 300.576L243.28 307.754L249.263 307.746L248.437 300.568L242.454 300.576Z" fill="black"/>
<path opacity="0.2" d="M291.283 279.158L286.752 283.093L292.048 287.981L296.572 284.047L291.283 279.158Z" fill="black"/>
<path d="M254.883 129.98C254.897 129.554 254.826 129.13 254.676 128.731C254.525 128.333 254.297 127.969 254.006 127.659C253.715 127.35 253.365 127.101 252.978 126.928C252.591 126.755 252.173 126.661 251.749 126.651C234.673 126.333 223.563 131.144 222.799 131.454C222.514 131.57 222.263 131.757 222.07 131.997C221.877 132.238 221.748 132.523 221.695 132.828C220.985 137.127 218.97 155.146 228.844 183.346L260.496 178.79C260.071 174.096 254.173 152.554 254.883 129.98Z" fill="#263238"/>
<path d="M229.284 129.289C227.408 131.811 226.559 137.624 232.773 141.876C240.416 136.141 244.353 129.972 245.519 126.76C240.035 127.036 234.594 127.884 229.284 129.289Z" fill="white"/>
<path d="M227.864 131.648C227.454 131.648 227.061 131.485 226.772 131.194C226.482 130.903 226.32 130.508 226.32 130.096C226.32 128.816 227.424 127.714 228.358 126.992C231.492 124.664 237.622 122.887 245.342 125.13C245.721 125.256 246.037 125.525 246.224 125.88C246.41 126.235 246.452 126.649 246.341 127.035C246.23 127.421 245.975 127.748 245.629 127.949C245.282 128.149 244.872 128.207 244.485 128.11C235.53 125.51 230.01 129.204 229.415 130.267C229.373 130.65 229.191 131.003 228.904 131.258C228.618 131.514 228.247 131.653 227.864 131.648Z" fill="#3772FF"/>
<path d="M240.694 112.008C240.463 116.485 240.748 124.587 244.191 127.054C242.169 129.747 239.474 132.906 234.356 133.829C231.268 134.38 230.21 133.231 230.079 131.78C230.036 131.08 230.19 130.382 230.523 129.766C230.856 129.15 231.355 128.64 231.963 128.296C235.29 126.356 234.626 123.237 233.43 120.288L240.694 112.008Z" fill="#FFC3BD"/>
<path d="M227.393 167.251C227.219 167.251 227.046 167.219 226.883 167.158C226.497 167.021 226.181 166.736 226.005 166.365C225.828 165.994 225.805 165.567 225.941 165.179C226.156 164.636 226.255 164.055 226.234 163.471C226.213 162.887 226.071 162.314 225.818 161.788L225.656 161.346C225.392 160.825 225.042 160.352 224.621 159.949C223.718 159.221 223.093 158.201 222.852 157.062C222.612 155.924 222.77 154.737 223.301 153.702C223.491 153.259 223.603 152.787 223.633 152.306C223.486 151.753 223.248 151.228 222.93 150.754C222.293 149.838 221.917 148.765 221.842 147.65C221.929 146.484 222.35 145.368 223.054 144.437C223.319 144.084 223.528 143.691 223.672 143.273C223.677 142.841 223.593 142.413 223.425 142.016C223.053 141.134 222.962 140.158 223.162 139.222C223.475 138.167 224.12 137.241 224.999 136.584C225.248 136.395 225.464 136.167 225.64 135.909C225.75 135.534 225.75 135.135 225.64 134.76C225.405 133.861 225.53 132.906 225.988 132.098C226.528 131.245 226.474 131.028 226.428 130.849C226.35 130.577 226.316 130.294 226.327 130.011C226.327 129.599 226.49 129.205 226.779 128.914C227.069 128.623 227.462 128.459 227.871 128.459C228.281 128.459 228.673 128.623 228.963 128.914C229.253 129.205 229.415 129.599 229.415 130.011V130.058C229.631 130.934 229.693 131.982 228.643 133.697C228.656 133.879 228.679 134.061 228.713 134.24C228.945 135.094 228.911 135.999 228.614 136.832C228.317 137.665 227.772 138.386 227.053 138.896C226.559 139.331 226.281 139.595 226.173 139.975C226.157 140.333 226.229 140.69 226.381 141.015C226.709 141.845 226.839 142.74 226.76 143.63C226.589 144.521 226.219 145.362 225.679 146.09C225.321 146.544 225.072 147.075 224.953 147.642C225.078 148.185 225.306 148.699 225.625 149.155C226.18 149.989 226.556 150.93 226.729 151.918C226.772 152.852 226.611 153.784 226.258 154.649C226.007 155.201 225.888 155.804 225.91 156.411C226.154 156.949 226.503 157.432 226.937 157.831C227.652 158.533 228.219 159.372 228.605 160.298L228.744 160.702C229.503 162.437 229.551 164.403 228.875 166.173C228.774 166.488 228.576 166.762 228.31 166.956C228.043 167.151 227.722 167.254 227.393 167.251Z" fill="#3772FF"/>
<path d="M254.598 129.724C255.439 130.5 256.142 131.152 256.852 131.897C257.562 132.642 258.257 133.363 258.944 134.108C260.318 135.598 261.615 137.166 262.866 138.764C265.472 142.078 267.653 145.707 269.359 149.566C269.789 150.599 270.165 151.653 270.486 152.725C270.648 153.268 270.787 153.834 270.918 154.408L270.964 154.618L271.034 154.983C271.08 155.223 271.103 155.479 271.126 155.759C271.164 156.276 271.148 156.796 271.08 157.311C270.966 158.238 270.686 159.137 270.254 159.965C269.893 160.654 269.455 161.299 268.949 161.889C268.113 162.85 267.149 163.69 266.085 164.388C264.27 165.582 262.315 166.547 260.264 167.259C259.292 167.616 258.311 167.919 257.323 168.175C256.335 168.431 255.378 168.671 254.305 168.85L252.915 164.559C253.687 164.124 254.513 163.666 255.293 163.201C256.072 162.735 256.837 162.246 257.609 161.757C259.044 160.846 260.395 159.807 261.646 158.653C262.126 158.188 262.549 157.667 262.905 157.101C263.175 156.659 263.152 156.364 263.074 156.457C263.069 156.483 263.069 156.509 263.074 156.535L263.028 156.395C262.912 156.038 262.804 155.673 262.65 155.301C262.364 154.544 262.037 153.803 261.669 153.082C260.894 151.549 260.012 150.073 259.029 148.666C258.049 147.207 256.968 145.779 255.825 144.383C254.683 142.986 253.509 141.612 252.266 140.254C251.657 139.579 251.031 138.92 250.398 138.268C249.765 137.616 249.101 136.933 248.538 136.39L254.598 129.724Z" fill="#FFC3BD"/>
<path d="M252.606 126.783C256.096 127.303 261.569 136.095 261.569 136.095L252.683 148.069C252.683 148.069 247.943 143.529 246.561 139.533C243.952 131.866 245.751 125.774 252.606 126.783Z" fill="#263238"/>
<path d="M247.951 156.923C247.683 156.92 247.42 156.847 247.189 156.711C246.957 156.574 246.765 156.38 246.631 156.147C246.1 155.103 245.87 153.931 245.967 152.763C246.008 152.281 245.966 151.796 245.843 151.328C245.534 150.846 245.145 150.421 244.693 150.071C243.804 149.406 243.113 148.51 242.694 147.479C242.407 146.346 242.458 145.153 242.84 144.049C242.981 143.628 243.056 143.189 243.064 142.745C242.87 142.213 242.588 141.717 242.23 141.279C241.435 140.457 240.969 139.369 240.922 138.224C240.875 137.078 241.25 135.955 241.976 135.071C242.185 134.754 242.354 134.413 242.477 134.054C242.437 133.465 242.296 132.888 242.061 132.347C241.619 131.432 241.469 130.402 241.628 129.398C241.916 127.97 242.633 126.664 243.682 125.658L243.782 125.557C244.07 125.282 244.453 125.129 244.85 125.13C245.248 125.131 245.629 125.287 245.916 125.564C246.202 125.84 246.371 126.218 246.388 126.617C246.405 127.016 246.268 127.406 246.005 127.706L245.828 127.885C245.197 128.496 244.773 129.292 244.616 130.158C244.699 130.548 244.816 130.929 244.963 131.299C245.368 132.239 245.571 133.255 245.558 134.279C245.438 135.129 245.123 135.939 244.639 136.646C244.305 137.104 244.085 137.636 243.998 138.198C244.18 138.678 244.441 139.124 244.77 139.517C245.394 140.296 245.849 141.197 246.106 142.163C246.224 143.063 246.137 143.979 245.851 144.84C245.655 145.387 245.584 145.97 245.643 146.548C245.936 147.023 246.316 147.439 246.762 147.774C247.547 148.394 248.196 149.171 248.669 150.055C249.003 150.927 249.14 151.863 249.07 152.794C249.013 153.399 249.089 154.008 249.294 154.579C249.504 154.932 249.565 155.354 249.465 155.753C249.365 156.152 249.112 156.494 248.762 156.705C248.516 156.852 248.236 156.927 247.951 156.923Z" fill="#3772FF"/>
<path opacity="0.2" d="M237.73 115.383L233.437 120.28C233.761 121.032 234.019 121.811 234.209 122.608C236.016 122.073 238.262 119.675 238.185 117.704C238.173 116.909 238.019 116.123 237.73 115.383Z" fill="black"/>
<path d="M228.705 99.2737C226.798 102.61 228.018 107.36 228.018 107.36C228.529 107.694 229.121 107.885 229.73 107.912C230.34 107.939 230.945 107.802 231.484 107.515L230.944 98.6684L228.705 99.2737Z" fill="#263238"/>
<path d="M243.736 107.748C242.277 113.537 241.713 116.998 238.208 119.442C232.936 123.12 226.25 119.069 225.964 112.962C225.702 107.46 228.134 98.9245 234.279 97.6829C235.631 97.4014 237.031 97.4723 238.348 97.8887C239.665 98.3052 240.854 99.0534 241.802 100.062C242.75 101.071 243.425 102.307 243.764 103.652C244.102 104.997 244.092 106.407 243.736 107.748Z" fill="#FFC3BD"/>
<path d="M226.922 114.483H226.713L213.628 111.697C212.916 111.546 212.294 111.117 211.897 110.504C211.5 109.892 211.362 109.146 211.513 108.431C211.663 107.715 212.09 107.09 212.7 106.691C213.309 106.292 214.051 106.153 214.763 106.304C214.892 106.332 215.015 106.385 215.124 106.46C215.233 106.536 215.326 106.632 215.398 106.744C215.469 106.856 215.519 106.981 215.542 107.112C215.566 107.243 215.563 107.377 215.535 107.507C215.477 107.769 215.319 107.997 215.095 108.143C214.871 108.288 214.599 108.338 214.338 108.283C214.246 108.261 214.15 108.258 214.057 108.275C213.964 108.293 213.876 108.33 213.798 108.384C213.719 108.435 213.652 108.501 213.599 108.578C213.546 108.655 213.508 108.742 213.489 108.834C213.455 109.021 213.491 109.215 213.589 109.377C213.696 109.532 213.855 109.642 214.037 109.688L227.122 112.473C227.366 112.527 227.581 112.668 227.727 112.871C227.873 113.074 227.939 113.323 227.913 113.572C227.887 113.821 227.771 114.052 227.587 114.22C227.402 114.388 227.163 114.482 226.914 114.483H226.922Z" fill="#3772FF"/>
<path d="M226.868 114.716L225.285 114.375L225.787 112.047L227.331 112.38C227.643 112.447 227.916 112.636 228.09 112.905C228.263 113.175 228.324 113.502 228.257 113.816C228.18 114.114 227.995 114.372 227.737 114.539C227.48 114.706 227.169 114.769 226.868 114.716Z" fill="white"/>
<path d="M240.161 104.566C240.161 102.362 238.509 100.756 232.997 101.183C228.497 101.524 226.304 99.4134 227.593 96.4723C231.237 98.3813 230.635 95.8826 237.583 95.5799C244.531 95.2773 246.546 97.9079 247.279 101.997C251.533 108.337 244.191 110.968 244.191 110.968L241.319 113.49C240.724 113.626 240.104 113.599 239.523 113.412C238.942 113.225 238.421 112.885 238.015 112.427C238.015 112.427 237.452 107.282 240.161 104.566Z" fill="#263238"/>
<path d="M232.781 94.4858L232.604 94.5789C232.438 94.6673 232.299 94.7979 232.2 94.9576C232.101 95.1172 232.046 95.3003 232.04 95.4883C232.033 95.6763 232.077 95.8627 232.165 96.0286C232.253 96.1945 232.383 96.3342 232.542 96.4335L248.661 106.452C248.813 106.545 248.985 106.599 249.163 106.608C249.34 106.617 249.518 106.582 249.678 106.505C249.838 106.428 249.977 106.311 250.081 106.167C250.185 106.022 250.252 105.853 250.275 105.676C250.35 105.175 250.278 104.664 250.066 104.204C249.855 103.745 249.514 103.358 249.086 103.092L235.344 94.5556C234.96 94.3203 234.522 94.19 234.072 94.1778C233.622 94.1655 233.177 94.2717 232.781 94.4858Z" fill="#3772FF"/>
<path d="M235.684 95.5566L239.806 89.4883C239.924 89.3154 240.103 89.1942 240.307 89.1495C240.511 89.1047 240.724 89.1399 240.903 89.2478L252.282 96.0998C252.381 96.1584 252.467 96.2376 252.534 96.3322C252.601 96.4268 252.647 96.5347 252.669 96.6485C252.691 96.7624 252.688 96.8796 252.661 96.9924C252.635 97.1052 252.584 97.211 252.513 97.3026L247.58 103.852L235.684 95.5566Z" fill="#3772FF"/>
<path d="M235.684 95.5567L237.328 92.6001L250.035 101.043L247.58 103.852L235.684 95.5567Z" fill="#3772FF"/>
<path opacity="0.6" d="M235.684 95.5567L237.328 92.6001L250.035 101.043L247.58 103.852L235.684 95.5567Z" fill="white"/>
<path d="M244.469 114.848C243.34 115.623 241.955 115.923 240.609 115.686C238.857 115.345 238.857 113.56 240.069 112.295C241.157 111.154 243.388 109.967 244.793 110.953C246.198 111.938 245.867 113.878 244.469 114.848Z" fill="#FFC3BD"/>
<path d="M241.034 306.373H251.162C251.162 306.373 249.572 270.164 247.387 251.556C246.723 245.891 247.441 238.131 247.511 229.463C247.604 218.545 248.105 206.649 248.599 197.314C249.124 187.482 249.564 180.397 249.564 180.397L228.844 183.369C228.844 183.369 226.79 234.918 230.01 252.984C233.36 271.747 241.034 306.373 241.034 306.373Z" fill="#3772FF"/>
<path opacity="0.2" d="M247.511 229.44C247.604 218.522 248.105 206.625 248.599 197.29L245.511 193.139C241.698 200.317 244.346 219.43 247.511 229.44Z" fill="black"/>
<path d="M238.718 181.925C238.718 181.925 251.587 233.01 257.701 249.531C264.395 267.611 289.045 288.75 289.045 288.75L295.275 281.859C295.275 281.859 282.236 261.427 272.624 241.771C268.031 216.248 260.527 178.79 260.527 178.79L238.718 181.925Z" fill="#3772FF"/>
<path d="M288.211 289.789L297.977 281.308L295.452 278.382L284.374 287.671L288.211 289.789Z" fill="#263238"/>
<path d="M239.76 306.605L251.834 306.59L251.826 302.671L238.34 302.485L239.76 306.605Z" fill="#263238"/>
<path d="M234.842 106.615C234.456 106.498 234.001 106.871 233.816 107.453L235.19 107.895C235.375 107.313 235.221 106.739 234.842 106.615Z" fill="#263238"/>
<path d="M228.821 105.474C228.427 105.474 228.049 105.924 228.049 106.537L229.485 106.63C229.508 106.017 229.222 105.536 228.821 105.474Z" fill="#263238"/>
<path d="M230.897 107.243C230.057 108.592 229.036 109.82 227.864 110.89C228.145 111.184 228.487 111.413 228.866 111.56C229.245 111.708 229.651 111.77 230.056 111.744L230.897 107.243Z" fill="#ED847E"/>
<path d="M236.803 105.994C236.851 106.005 236.902 106.005 236.95 105.994C237.021 105.971 237.081 105.92 237.115 105.854C237.15 105.787 237.157 105.709 237.135 105.637C237.015 105.201 236.792 104.801 236.486 104.47C236.18 104.139 235.799 103.887 235.375 103.736C235.34 103.724 235.302 103.72 235.265 103.723C235.228 103.727 235.192 103.738 235.159 103.756C235.126 103.774 235.098 103.799 235.075 103.829C235.053 103.859 235.036 103.893 235.028 103.93C235.017 103.965 235.014 104.003 235.018 104.04C235.022 104.077 235.033 104.113 235.051 104.145C235.069 104.178 235.093 104.206 235.122 104.229C235.152 104.252 235.185 104.269 235.221 104.279C235.556 104.409 235.856 104.617 236.095 104.887C236.334 105.157 236.506 105.481 236.595 105.831C236.615 105.872 236.644 105.908 236.68 105.937C236.716 105.965 236.758 105.984 236.803 105.994Z" fill="#263238"/>
<path d="M227.037 104.659C227.084 104.667 227.131 104.663 227.175 104.648C227.22 104.634 227.26 104.608 227.292 104.574C227.525 104.304 227.817 104.094 228.146 103.959C228.474 103.824 228.83 103.769 229.184 103.798C229.258 103.809 229.334 103.79 229.395 103.745C229.456 103.7 229.496 103.632 229.508 103.557C229.519 103.484 229.501 103.41 229.457 103.35C229.414 103.29 229.349 103.25 229.276 103.239C228.829 103.195 228.377 103.259 227.959 103.426C227.541 103.594 227.17 103.859 226.875 104.201C226.848 104.227 226.827 104.259 226.812 104.293C226.797 104.328 226.79 104.365 226.79 104.403C226.79 104.441 226.797 104.478 226.812 104.513C226.827 104.547 226.848 104.579 226.875 104.605C226.923 104.638 226.979 104.656 227.037 104.659Z" fill="#263238"/>
<path d="M295.282 294.554C295.675 294.193 296.027 293.79 296.332 293.351C296.348 293.328 296.356 293.301 296.356 293.274C296.356 293.246 296.348 293.219 296.332 293.196C296.321 293.17 296.3 293.149 296.275 293.136C296.25 293.124 296.221 293.12 296.193 293.126C295.946 293.126 293.746 293.491 293.46 294.197C293.429 294.275 293.418 294.359 293.429 294.442C293.44 294.525 293.472 294.604 293.522 294.671C293.595 294.79 293.697 294.889 293.819 294.958C293.94 295.028 294.077 295.065 294.217 295.066C294.62 295.025 294.997 294.844 295.282 294.554ZM295.9 293.468C295.259 294.298 294.642 294.779 294.225 294.779C294.13 294.777 294.038 294.75 293.956 294.701C293.875 294.652 293.808 294.583 293.761 294.5C293.744 294.472 293.734 294.44 293.734 294.407C293.734 294.374 293.744 294.341 293.761 294.314C293.87 293.949 295.02 293.623 295.9 293.468Z" fill="#3772FF"/>
<path d="M296.309 293.382C296.33 293.363 296.345 293.339 296.355 293.312C296.367 293.29 296.373 293.264 296.373 293.239C296.373 293.213 296.367 293.188 296.355 293.165C296.301 293.111 295.12 291.846 294.24 291.854C294.132 291.854 294.026 291.877 293.928 291.921C293.829 291.965 293.741 292.029 293.669 292.11C293.587 292.181 293.532 292.278 293.512 292.386C293.493 292.493 293.51 292.603 293.561 292.699C293.877 293.305 295.599 293.553 296.278 293.413L296.309 293.382ZM293.885 292.265C293.975 292.187 294.091 292.146 294.209 292.148C294.773 292.148 295.545 292.808 295.915 293.157C295.143 293.196 293.962 292.917 293.769 292.56C293.769 292.521 293.715 292.443 293.839 292.311L293.885 292.265Z" fill="#3772FF"/>
<path d="M243.512 314.637C243.537 314.628 243.559 314.613 243.575 314.592C243.591 314.572 243.602 314.547 243.605 314.521C243.611 314.492 243.608 314.462 243.595 314.435C243.583 314.408 243.561 314.386 243.535 314.373C243.257 314.233 240.856 313.007 240.131 313.419C240.061 313.455 240.002 313.51 239.96 313.577C239.918 313.643 239.894 313.72 239.891 313.799C239.875 313.928 239.892 314.058 239.939 314.179C239.986 314.299 240.063 314.406 240.161 314.49C240.818 315.072 242.532 314.831 243.497 314.637H243.512ZM240.316 313.644C240.771 313.488 242.076 313.985 243.026 314.42C241.705 314.645 240.71 314.59 240.347 314.257C240.282 314.201 240.233 314.13 240.203 314.05C240.173 313.97 240.164 313.883 240.177 313.799C240.177 313.768 240.186 313.738 240.202 313.712C240.218 313.686 240.242 313.665 240.27 313.651L240.316 313.644Z" fill="#3772FF"/>
<path d="M243.512 314.637H243.551C243.57 314.621 243.586 314.601 243.597 314.578C243.608 314.555 243.613 314.53 243.612 314.505C243.612 314.443 243.435 312.821 242.678 312.177C242.572 312.087 242.449 312.019 242.317 311.977C242.184 311.936 242.044 311.922 241.906 311.936C241.513 311.936 241.404 312.177 241.381 312.332C241.273 313.015 242.701 314.311 243.427 314.66C243.457 314.661 243.487 314.653 243.512 314.637ZM241.775 312.239H241.922C242.025 312.227 242.129 312.238 242.227 312.27C242.326 312.302 242.416 312.355 242.493 312.425C242.934 312.946 243.203 313.591 243.265 314.272C242.532 313.83 241.551 312.813 241.621 312.402C241.636 312.348 241.636 312.278 241.775 312.239Z" fill="#3772FF"/>
<path d="M253.641 164.155L247.881 165.986L252.351 170.456C252.351 170.456 257.57 168.182 255.933 165.87L253.641 164.155Z" fill="#FFC3BD"/>
<path d="M245.511 171.092L249.611 173.591L252.351 170.456L247.882 165.986L245.511 171.092Z" fill="#FFC3BD"/>
</svg>
