<svg width="20" height="20" viewBox="0 0 20 20" fill="none" xmlns="http://www.w3.org/2000/svg">
<path d="M15.8333 3.33335H15V2.50002C15 2.04169 14.625 1.66669 14.1667 1.66669C13.7083 1.66669 13.3333 2.04169 13.3333 2.50002V3.33335H6.66667V2.50002C6.66667 2.04169 6.29167 1.66669 5.83333 1.66669C5.375 1.66669 5 2.04169 5 2.50002V3.33335H4.16667C3.24167 3.33335 2.50833 4.08335 2.50833 5.00002L2.5 16.6667C2.5 17.1087 2.67559 17.5326 2.98816 17.8452C3.30072 18.1578 3.72464 18.3334 4.16667 18.3334H15.8333C16.75 18.3334 17.5 17.5834 17.5 16.6667V5.00002C17.5 4.08335 16.75 3.33335 15.8333 3.33335ZM15.8333 15.8334C15.8333 16.2917 15.4583 16.6667 15 16.6667H5C4.54167 16.6667 4.16667 16.2917 4.16667 15.8334V7.50002H15.8333V15.8334ZM5.83333 9.16669H7.5V10.8334H5.83333V9.16669ZM9.16667 9.16669H10.8333V10.8334H9.16667V9.16669ZM12.5 9.16669H14.1667V10.8334H12.5V9.16669Z" fill="#D12B2F"/>
</svg>
