<svg width="12" height="12" viewBox="0 0 12 12" fill="none" xmlns="http://www.w3.org/2000/svg">
<path fill-rule="evenodd" clip-rule="evenodd" d="M11.7607 0.238629C11.4425 -0.0795433 10.9266 -0.0795431 10.6085 0.23863L0.238629 10.6085C-0.0795431 10.9267 -0.0795431 11.4425 0.238629 11.7607C0.556802 12.0789 1.07266 12.0789 1.39083 11.7607L11.7607 1.39083C12.0788 1.07266 12.0788 0.556802 11.7607 0.238629ZM11.7607 4.84745C11.4425 4.52928 10.9266 4.52927 10.6085 4.84745L4.84744 10.6085C4.52927 10.9266 4.52927 11.4425 4.84744 11.7607C5.16561 12.0788 5.68147 12.0788 5.99964 11.7607L11.7607 5.99965C12.0788 5.68148 12.0788 5.16562 11.7607 4.84745Z" fill="#8E90A6"/>
</svg>
