<svg width="16" height="16" viewBox="0 0 16 16" fill="none" xmlns="http://www.w3.org/2000/svg">
<path d="M9.33334 0C10.2174 0 11.0652 0.351189 11.6904 0.976311C12.3155 1.60143 12.6667 2.44928 12.6667 3.33333V11.3333C12.6667 11.9462 12.546 12.553 12.3114 13.1192C12.0769 13.6854 11.7332 14.1998 11.2998 14.6332C10.8665 15.0665 10.3521 15.4102 9.78587 15.6448C9.21968 15.8793 8.61285 16 8.00001 16C7.38717 16 6.78034 15.8793 6.21415 15.6448C5.64797 15.4102 5.13352 15.0665 4.70018 14.6332C4.26684 14.1998 3.92309 13.6854 3.68857 13.1192C3.45405 12.553 3.33334 11.9462 3.33334 11.3333V6H4.66668V11.3333C4.66668 12.2174 5.01787 13.0652 5.64299 13.6904C6.26811 14.3155 7.11595 14.6667 8.00001 14.6667C8.88406 14.6667 9.73191 14.3155 10.357 13.6904C10.9822 13.0652 11.3333 12.2174 11.3333 11.3333V3.33333C11.3333 3.07069 11.2816 2.81062 11.1811 2.56797C11.0806 2.32532 10.9333 2.10484 10.7476 1.91912C10.5618 1.7334 10.3414 1.58608 10.0987 1.48557C9.85606 1.38506 9.59599 1.33333 9.33334 1.33333C9.0707 1.33333 8.81063 1.38506 8.56798 1.48557C8.32533 1.58608 8.10485 1.7334 7.91913 1.91912C7.73341 2.10484 7.58609 2.32532 7.48558 2.56797C7.38507 2.81062 7.33334 3.07069 7.33334 3.33333V11.3333C7.33334 11.5101 7.40358 11.6797 7.52861 11.8047C7.65363 11.9298 7.8232 12 8.00001 12C8.17682 12 8.34639 11.9298 8.47141 11.8047C8.59644 11.6797 8.66668 11.5101 8.66668 11.3333V4H10V11.3333C10 11.8638 9.7893 12.3725 9.41422 12.7475C9.03915 13.1226 8.53044 13.3333 8.00001 13.3333C7.46958 13.3333 6.96087 13.1226 6.5858 12.7475C6.21072 12.3725 6.00001 11.8638 6.00001 11.3333V3.33333C6.00001 2.44928 6.3512 1.60143 6.97632 0.976311C7.60144 0.351189 8.44929 0 9.33334 0V0Z" fill="#667499"/>
</svg>
