<svg width="24" height="24" viewBox="0 0 24 24" fill="none" xmlns="http://www.w3.org/2000/svg">
<path fill-rule="evenodd" clip-rule="evenodd" d="M17.0845 7.57768C18.5275 8.50954 19.8149 9.81303 20.8071 11.3475C20.9324 11.5417 20.9993 11.7677 21 11.9987C21.0007 12.2298 20.935 12.4562 20.8109 12.651C19.8224 14.1983 18.5376 15.5066 17.0954 16.4355C15.5058 17.4589 13.7395 18 11.9879 18C10.1969 18 8.47571 17.475 6.87635 16.4389C5.45586 15.5197 4.18124 14.2144 3.19087 12.6645C3.06229 12.465 2.99592 12.2318 3.00019 11.9945C3.00447 11.7572 3.07919 11.5265 3.21487 11.3318C4.41674 9.60866 5.80048 8.2703 7.32784 7.35418C8.82558 6.45568 10.3934 6.00006 11.9879 6.00006C13.7257 6.00006 15.4882 6.54568 17.0845 7.57768ZM10.0006 14.9933C10.5927 15.3889 11.2887 15.6 12.0007 15.6C12.9551 15.5989 13.8702 15.2193 14.545 14.5444C15.2199 13.8695 15.5996 12.9545 15.6007 12C15.6007 11.288 15.3895 10.592 14.994 9.99998C14.5984 9.40797 14.0361 8.94655 13.3783 8.67408C12.7205 8.4016 11.9967 8.33031 11.2984 8.46922C10.6 8.60812 9.95858 8.95099 9.45512 9.45445C8.95165 9.95792 8.60879 10.5994 8.46988 11.2977C8.33098 11.996 8.40227 12.7199 8.67474 13.3777C8.94722 14.0355 9.40863 14.5977 10.0006 14.9933ZM14.4007 12.0001C14.4007 13.3256 13.3262 14.4001 12.0007 14.4001C10.6752 14.4001 9.6007 13.3256 9.6007 12.0001C9.6007 10.6746 10.6752 9.60011 12.0007 9.60011C13.3262 9.60011 14.4007 10.6746 14.4007 12.0001Z" fill="#8785AD"/>
</svg>
