<svg width="16" height="16" viewBox="0 0 16 16" fill="none" xmlns="http://www.w3.org/2000/svg">
<path d="M4.8743 1.92911C4.95171 1.85151 5.04367 1.78994 5.14491 1.74793C5.24615 1.70592 5.35468 1.68429 5.46429 1.68429C5.5739 1.68429 5.68244 1.70592 5.78368 1.74793C5.88492 1.78994 5.97688 1.85151 6.05428 1.92911L11.5942 7.46904C11.656 7.53072 11.705 7.60397 11.7385 7.68462C11.772 7.76527 11.7892 7.85172 11.7892 7.93903C11.7892 8.02635 11.772 8.1128 11.7385 8.19345C11.705 8.2741 11.656 8.34735 11.5942 8.40903L6.05428 13.949C5.72762 14.2756 5.20096 14.2756 4.8743 13.949C4.54764 13.6223 4.54764 13.0956 4.8743 12.769L9.7009 7.9357L4.86763 3.10243C4.54764 2.78243 4.54764 2.24911 4.8743 1.92911Z" fill="#3772FF"/>
</svg>
