<svg width="20" height="20" viewBox="0 0 20 20" fill="none" xmlns="http://www.w3.org/2000/svg">
<g clip-path="url(#clip0_6_1772)">
<path d="M18.4412 7.90819L13.91 1.27257C13.4717 0.630486 12.8066 0.19695 12.0378 0.0519509C11.269 -0.0934134 10.4918 0.0687518 9.84969 0.507401C9.20761 0.94605 8.77407 1.61078 8.62907 2.3796C8.48407 3.14843 8.64587 3.92565 9.08452 4.56774L13.6156 11.2034C14.0539 11.8454 14.719 12.279 15.4879 12.424C15.6716 12.4587 15.856 12.4758 16.0386 12.4758C16.6204 12.4758 17.1873 12.3024 17.676 11.9685C19.0062 11.0606 19.3495 9.23875 18.4412 7.90819ZM9.34676 2.51511C9.4556 1.93803 9.7803 1.43912 10.2613 1.11077C10.6269 0.86095 11.0521 0.731291 11.4881 0.731291C11.6255 0.731291 11.7643 0.744075 11.9023 0.770006C12.4794 0.878847 12.9783 1.20354 13.3067 1.68456L15.1602 4.399L11.5407 6.87056L9.68716 4.15575C9.35881 3.6751 9.23792 3.09218 9.34676 2.51511ZM17.264 11.3659C16.7826 11.6942 16.1993 11.8148 15.623 11.7067C15.0459 11.5978 14.547 11.2731 14.2187 10.7921L11.9531 7.47429L15.5726 5.00273L17.8381 8.32055C18.5193 9.31801 18.2618 10.6844 17.264 11.3659Z" fill="#4C956C"/>
<path d="M15.2753 14.1767L10.2975 13.5839L11.4089 12.2818C12.4549 11.0564 12.3088 9.20835 11.0835 8.16231C10.4921 7.65755 9.73682 7.41431 8.95668 7.47494C8.17653 7.53666 7.46907 7.89642 6.96394 8.48774L1.74727 14.5992C1.24251 15.1909 0.998532 15.9462 1.05989 16.726C1.12162 17.5062 1.48138 18.2136 2.07269 18.7187C2.60411 19.1724 3.26775 19.4156 3.96279 19.4156C4.04132 19.4156 4.12021 19.4123 4.19947 19.4061C4.78129 19.3601 5.32257 19.1483 5.76962 18.798C6.03588 18.9167 6.31565 18.9952 6.60528 19.0296L14.5842 19.9795C14.7011 19.9934 14.8169 20.0004 14.9316 20.0004C16.3896 20.0004 17.6544 18.9065 17.8308 17.4236C18.0219 15.8235 16.875 14.367 15.2753 14.1767ZM7.51983 8.96218C7.89786 8.51915 8.42854 8.2496 9.01438 8.20322C9.07392 8.19847 9.13345 8.19591 9.19225 8.19591C9.71381 8.19591 10.2113 8.37817 10.609 8.71784C11.5283 9.50236 11.6375 10.8884 10.853 11.8074L8.71891 14.3074L5.38539 11.4619L7.51983 8.96218ZM2.54714 18.1629C1.62784 17.3783 1.51863 15.9926 2.30316 15.0737L4.91131 12.0181L8.24483 14.8637L5.63667 17.9192L5.63631 17.9196C5.58225 17.9828 5.52491 18.0412 5.46574 18.0968L5.46282 18.0997C4.6593 18.8484 3.40179 18.8922 2.54714 18.1629ZM6.33172 18.2297L9.72733 14.2515L11.1992 14.4269L10.6813 18.779L6.69184 18.3038C6.56949 18.2896 6.44933 18.2648 6.33172 18.2297ZM17.1058 17.3371C16.963 18.5369 15.8724 19.3985 14.6708 19.2542L11.4071 18.8656L11.925 14.5134L15.1891 14.902C15.7676 14.9707 16.2862 15.2629 16.6497 15.7242C17.0131 16.1855 17.1749 16.7585 17.1058 17.3371Z" fill="#4C956C"/>
</g>
<defs>
<clipPath id="clip0_6_1772">
<rect width="20" height="20" fill="white"/>
</clipPath>
</defs>
</svg>
