<svg width="20" height="20" viewBox="0 0 20 20" fill="none" xmlns="http://www.w3.org/2000/svg">
<path fill-rule="evenodd" clip-rule="evenodd" d="M6.1704 14.4643C9.02248 14.0477 10.9862 14.0835 13.8421 14.4789C14.0489 14.5089 14.2379 14.6127 14.3741 14.7712C14.5104 14.9296 14.5847 15.132 14.5833 15.341C14.5833 15.541 14.5146 15.7352 14.3904 15.8868C14.174 16.1513 13.9523 16.4113 13.7254 16.6668H14.8258C14.895 16.5843 14.9646 16.5002 15.035 16.4147C15.2821 16.1117 15.417 15.7325 15.4166 15.3414C15.4166 14.4977 14.8008 13.7706 13.9562 13.6539C11.0329 13.2493 8.98956 13.2106 6.04998 13.6402C5.19665 13.7647 4.58331 14.5031 4.58331 15.3527C4.58331 15.7297 4.70623 16.1027 4.93915 16.4047C5.0079 16.4939 5.07581 16.5814 5.14331 16.6672H6.21706C6.00599 16.4145 5.80011 16.1575 5.59956 15.8964C5.48038 15.7401 5.41609 15.5488 5.41665 15.3522C5.41665 14.9035 5.73915 14.5272 6.1704 14.4643ZM9.99998 10.4168C10.3283 10.4168 10.6534 10.3522 10.9567 10.2265C11.26 10.1009 11.5356 9.91674 11.7677 9.6846C11.9999 9.45245 12.184 9.17685 12.3097 8.87354C12.4353 8.57022 12.5 8.24513 12.5 7.91683C12.5 7.58852 12.4353 7.26343 12.3097 6.96012C12.184 6.65681 11.9999 6.38121 11.7677 6.14906C11.5356 5.91692 11.26 5.73277 10.9567 5.60713C10.6534 5.48149 10.3283 5.41683 9.99998 5.41683C9.33694 5.41683 8.70105 5.68022 8.23221 6.14906C7.76337 6.6179 7.49998 7.25379 7.49998 7.91683C7.49998 8.57987 7.76337 9.21576 8.23221 9.6846C8.70105 10.1534 9.33694 10.4168 9.99998 10.4168ZM9.99998 11.2502C10.884 11.2502 11.7319 10.899 12.357 10.2739C12.9821 9.64873 13.3333 8.80088 13.3333 7.91683C13.3333 7.03277 12.9821 6.18493 12.357 5.55981C11.7319 4.93469 10.884 4.5835 9.99998 4.5835C9.11592 4.5835 8.26808 4.93469 7.64296 5.55981C7.01784 6.18493 6.66665 7.03277 6.66665 7.91683C6.66665 8.80088 7.01784 9.64873 7.64296 10.2739C8.26808 10.899 9.11592 11.2502 9.99998 11.2502Z" fill="#3772FF"/>
<path fill-rule="evenodd" clip-rule="evenodd" d="M9.99999 17.5001C14.1421 17.5001 17.5 14.1422 17.5 10.0001C17.5 5.858 14.1421 2.50008 9.99999 2.50008C5.85791 2.50008 2.49999 5.858 2.49999 10.0001C2.49999 14.1422 5.85791 17.5001 9.99999 17.5001ZM9.99999 18.3334C14.6025 18.3334 18.3333 14.6026 18.3333 10.0001C18.3333 5.39758 14.6025 1.66675 9.99999 1.66675C5.39749 1.66675 1.66666 5.39758 1.66666 10.0001C1.66666 14.6026 5.39749 18.3334 9.99999 18.3334Z" fill="#3772FF"/>
</svg>
