<svg width="16" height="16" viewBox="0 0 16 16" fill="none" xmlns="http://www.w3.org/2000/svg">
<path fill-rule="evenodd" clip-rule="evenodd" d="M5.54978 3.10905L5.56812 3.02905C5.60312 2.88038 5.66045 2.66172 5.77878 2.44638C5.89945 2.22705 6.08645 2.00472 6.37978 1.85838C6.67212 1.71272 7.03845 1.65838 7.49145 1.71838C7.99145 1.78505 8.99578 1.95038 9.88312 2.40172C10.7755 2.85572 11.6115 3.63672 11.6115 4.93738C11.6115 5.60938 11.3515 6.33038 11.0995 6.80038C10.9785 7.02638 10.8348 7.24238 10.6908 7.35872C10.6578 7.38538 10.6108 7.41872 10.5525 7.44205C10.3924 7.9679 10.0739 8.4315 9.64044 8.76946C9.20696 9.10743 8.67967 9.30325 8.13067 9.33018C7.58167 9.3571 7.03776 9.2138 6.57329 8.91987C6.10882 8.62594 5.74647 8.19573 5.53578 7.68805L5.52778 7.68938L5.40945 7.54572L5.66678 7.33372L5.40945 7.54572L5.40912 7.54505L5.40845 7.54438L5.40678 7.54205L5.40112 7.53538C5.37259 7.49988 5.34514 7.46353 5.31878 7.42638C5.24681 7.32655 5.17897 7.2238 5.11545 7.11838C4.95878 6.85905 4.76978 6.48972 4.64878 6.05872C4.52812 5.62772 4.47278 5.12238 4.59945 4.60105C4.72278 4.09372 5.01378 3.59438 5.54078 3.14838L5.54978 3.10905ZM6.10978 7.32172C6.25435 7.73746 6.53197 8.09394 6.89964 8.33594C7.26731 8.57794 7.70452 8.69196 8.14354 8.66033C8.58257 8.62871 8.99892 8.45321 9.32811 8.16101C9.6573 7.86881 9.88096 7.47623 9.96445 7.04405L10.0021 7.05672C10.0008 7.03786 10.0001 7.01896 10.0001 7.00005C10.0001 6.44838 9.92345 6.06338 9.85212 5.82338C9.83819 5.77667 9.82274 5.73042 9.80578 5.68472L9.79212 5.68538H9.77878C9.52953 5.69077 9.28035 5.67179 9.03478 5.62872C8.46245 5.53205 7.68745 5.29072 6.77478 4.73172C6.75478 4.77638 6.73478 4.82672 6.71478 4.88272C6.64945 5.06772 6.59578 5.28738 6.54945 5.51938C6.50845 5.72372 6.47478 5.92938 6.44278 6.12205L6.43045 6.19805C6.39612 6.40472 6.36178 6.60772 6.32178 6.75472C6.25178 7.01005 6.18045 7.19138 6.10978 7.32138V7.32172ZM5.64312 6.70072C5.49256 6.44229 5.37434 6.16633 5.29112 5.87905C5.19145 5.52372 5.15478 5.13905 5.24745 4.75872C5.33745 4.38872 5.55512 3.99972 6.00278 3.63105C6.08345 3.57638 6.12012 3.50305 6.13012 3.48338V3.48305C6.14762 3.44701 6.16168 3.4094 6.17212 3.37072C6.18278 3.33272 6.19445 3.28072 6.20545 3.23405L6.21712 3.18172C6.24878 3.04738 6.28978 2.90105 6.36312 2.76738C6.43445 2.63805 6.53212 2.52738 6.67745 2.45505C6.82345 2.38205 7.04945 2.33205 7.40345 2.37938C7.88778 2.44372 8.79878 2.59805 9.58078 2.99605C10.3575 3.39105 10.9448 3.98905 10.9448 4.93738C10.9448 5.37405 10.7981 5.87072 10.6215 6.26238C10.5881 6.00705 10.5401 5.79838 10.4908 5.63305C10.4564 5.51489 10.4135 5.39936 10.3625 5.28738C10.3432 5.24589 10.3221 5.20529 10.2991 5.16572L10.2935 5.15672L10.2915 5.15338L10.2905 5.15172L10.2898 5.15072L10.0098 5.33072L10.2898 5.15072L10.1665 4.95938L9.94578 5.00372L9.94112 5.00472L9.90878 5.00905C9.85918 5.01458 9.80935 5.01791 9.75945 5.01905C9.55393 5.02302 9.34852 5.00695 9.14612 4.97105C8.60845 4.88038 7.81845 4.63338 6.85878 3.99438L6.62545 3.83872L6.43245 4.04205C6.27345 4.20938 6.16545 4.43772 6.08645 4.66005C6.00578 4.88838 5.94478 5.14338 5.89578 5.38805C5.85516 5.59626 5.81826 5.80518 5.78512 6.01472L5.77245 6.08938C5.73678 6.30638 5.70778 6.47205 5.67845 6.57938C5.66751 6.62007 5.65573 6.66052 5.64312 6.70072ZM10.2701 6.84138L10.2715 6.84072L10.2701 6.84138ZM10.2715 6.84072L10.2701 6.84138L10.2711 6.84072H10.2715Z" fill="#3772FF"/>
<path fill-rule="evenodd" clip-rule="evenodd" d="M5.97133 9.61889C5.90067 9.47822 5.81367 9.30456 5.66667 9.33822C3.86533 9.74822 2 10.9319 2 12.1906V14.0006H14V12.1906C14 11.1992 12.8427 10.2542 11.471 9.69722L11.4693 9.69389C11.4678 9.69087 11.4663 9.68787 11.4647 9.68489L11.4537 9.69022C11.0893 9.54356 10.71 9.42356 10.3333 9.33822C10.1657 9.29989 9.99233 9.53056 9.91667 9.67489H6C5.99067 9.65756 5.98133 9.63822 5.97133 9.61889ZM10.4677 10.0589C10.6133 10.0992 10.7583 10.1446 10.9013 10.1946C10.9053 10.3086 10.8967 10.4432 10.878 10.5806C10.859 10.7227 10.8287 10.8632 10.7873 11.0006H10.3333C10.2714 11.0006 10.2108 11.0179 10.1582 11.0504C10.1055 11.083 10.063 11.1295 10.0353 11.1849L9.702 11.8516C9.67882 11.8978 9.66672 11.9488 9.66667 12.0006V12.6672C9.66667 12.7556 9.70179 12.8404 9.7643 12.9029C9.82681 12.9654 9.91159 13.0006 10 13.0006H10.6667V12.3339H10.3333V12.0792L10.5393 11.6672H11.4607L11.6667 12.0792V12.3339H11.3333V13.0006H12C12.0884 13.0006 12.1732 12.9654 12.2357 12.9029C12.2982 12.8404 12.3333 12.7556 12.3333 12.6672V12.0006C12.3333 11.9488 12.3212 11.8978 12.298 11.8516L11.9647 11.1849C11.937 11.1295 11.8945 11.083 11.8418 11.0504C11.7892 11.0179 11.7286 11.0006 11.6667 11.0006H11.478C11.5192 10.8241 11.5468 10.6448 11.5607 10.4642C11.8857 10.6179 12.1877 10.7942 12.4493 10.9849C13.09 11.4522 13.3333 11.8896 13.3333 12.1906V13.3339H2.66667V12.1906C2.66667 11.8896 2.91 11.4522 3.55067 10.9849C3.87267 10.7499 4.257 10.5372 4.669 10.3612C4.68044 10.6269 4.72307 10.8902 4.796 11.1459L4.79867 11.1552C4.59939 11.2813 4.45107 11.4737 4.37991 11.6985C4.30875 11.9234 4.31933 12.1661 4.40977 12.3839C4.50022 12.6016 4.66471 12.7804 4.8742 12.8887C5.08369 12.997 5.3247 13.0277 5.55466 12.9755C5.78461 12.9233 5.98873 12.7915 6.13095 12.6034C6.27317 12.4153 6.34434 12.183 6.3319 11.9476C6.31946 11.7121 6.2242 11.4886 6.06296 11.3165C5.90171 11.1444 5.68484 11.0349 5.45067 11.0072C5.40807 10.8678 5.37686 10.7251 5.35733 10.5806C5.33878 10.4513 5.33108 10.3207 5.33433 10.1902C5.3353 10.1653 5.33697 10.1404 5.33933 10.1156C5.37933 10.1032 5.41933 10.0912 5.45933 10.0799L5.59767 10.3419H10.319L10.4677 10.0592V10.0589ZM5.33333 12.3392C5.51267 12.3392 5.66667 12.1926 5.66667 12.0009C5.66667 11.8096 5.51267 11.6626 5.33333 11.6626C5.154 11.6626 5 11.8092 5 12.0009C5 12.1922 5.154 12.3392 5.33333 12.3392Z" fill="#3772FF"/>
</svg>
