<svg width="20" height="20" viewBox="0 0 20 20" fill="none" xmlns="http://www.w3.org/2000/svg">
<g clip-path="url(#clip0_6_2391)">
<path d="M6.29376 9.60889C5.24562 9.60889 4.39282 10.4617 4.39282 11.5098C4.39282 12.558 5.24562 13.4108 6.29376 13.4108C7.34191 13.4108 8.19471 12.558 8.19471 11.5098C8.19471 10.4617 7.34191 9.60889 6.29376 9.60889ZM6.29376 12.0798C5.97949 12.0798 5.72387 11.8242 5.72387 11.5099C5.72387 11.1957 5.97949 10.9401 6.29376 10.9401C6.60804 10.9401 6.86366 11.1957 6.86366 11.5099C6.86366 11.8242 6.60804 12.0798 6.29376 12.0798Z" fill="#FDC500"/>
<path d="M7.94103 6.58911C7.19558 6.58911 6.58911 7.19564 6.58911 7.94103C6.58911 8.68642 7.19558 9.29295 7.94103 9.29295C8.68642 9.29295 9.29295 8.68642 9.29295 7.94103C9.29295 7.19564 8.68642 6.58911 7.94103 6.58911ZM7.94103 7.96177C7.92958 7.96177 7.92022 7.95241 7.92022 7.94096C7.92022 7.92952 7.92958 7.92016 7.94103 7.92016C7.95248 7.92016 7.96184 7.92952 7.96184 7.94096C7.96177 7.95248 7.95248 7.96177 7.94103 7.96177Z" fill="#FDC500"/>
<path d="M18.2363 2.1963H10.5389V1.33111H11.2249C11.5925 1.33111 11.8905 1.03313 11.8905 0.665589C11.8905 0.298047 11.5925 0 11.2249 0H3.11538C2.74784 0 2.44979 0.298047 2.44979 0.665589C2.44979 1.03313 2.74784 1.33111 3.11538 1.33111H3.80138V2.19636H1.76373C1.39619 2.19636 1.09814 2.49441 1.09814 2.86195C1.09814 3.2295 1.39619 3.52754 1.76373 3.52754H3.80138V6.42788C2.12468 7.54896 1.09814 9.44983 1.09814 11.4784C1.09814 14.8265 3.82198 17.5503 7.17006 17.5503C10.5181 17.5503 13.2421 14.8265 13.2421 11.4784C13.2421 9.44983 12.2156 7.54902 10.5388 6.42788V3.52754H17.5707V18.669H2.86192C2.49437 18.669 2.19633 18.967 2.19633 19.3345C2.19633 19.7021 2.49437 20.0001 2.86192 20.0001H18.2363C18.6039 20.0001 18.9019 19.7021 18.9019 19.3345V2.86189C18.9018 2.49434 18.6039 2.1963 18.2363 2.1963ZM5.13249 1.33111H9.20784V2.19636H5.13249V1.33111ZM9.53996 7.37306C11.0025 8.21939 11.911 9.79246 11.911 11.4783C11.911 14.0924 9.78427 16.2191 7.17013 16.2191C4.55612 16.2191 2.42939 14.0924 2.42939 11.4783C2.42939 9.79246 3.33788 8.21946 4.80037 7.37306C5.00596 7.25408 5.13256 7.03455 5.13256 6.79697V3.52748H9.20791V6.79704C9.20777 7.03455 9.33437 7.25408 9.53996 7.37306Z" fill="#FDC500"/>
</g>
<defs>
<clipPath id="clip0_6_2391">
<rect width="20" height="20" fill="white"/>
</clipPath>
</defs>
</svg>
