<svg width="136" height="114" viewBox="0 0 136 114" fill="none" xmlns="http://www.w3.org/2000/svg">
<rect width="136" height="114" fill="white"/>
<path d="M16.4669 81.4917C14.8757 80.8077 13.0043 80.7142 11.2418 80.9582C10.2925 81.0904 9.30512 81.3276 8.66048 81.9249C8.01584 82.5223 7.89072 83.5711 8.63328 84.0841C9.07392 84.3896 9.68864 84.4352 10.2653 84.4306C11.647 84.417 13.1784 84.214 14.2827 84.9094C14.9138 85.3084 15.3326 85.9674 16.0834 86.1634C16.8341 86.3595 17.6528 85.9902 18.0418 85.4338C18.4015 84.8541 18.4814 84.1806 18.2648 83.5528C18.1748 83.1164 17.9656 82.7033 17.6538 82.3458C17.3419 81.9883 16.9357 81.696 16.4669 81.4917Z" fill="#EBEBEB"/>
<path d="M20.1062 75.5983C19.1352 76.7634 17.2448 76.378 16.369 75.6667C15.4931 74.9553 15.1232 73.927 14.7886 72.9466C14.0189 70.7031 13.241 68.3502 13.8149 66.0679C13.9527 65.376 14.315 64.7292 14.8621 64.1983C15.1392 63.9362 15.4937 63.7398 15.8899 63.629C16.2862 63.5181 16.7104 63.4966 17.1197 63.5667C18.0717 63.7788 18.6646 64.5608 19.0917 65.3041C20.3513 67.5001 21.0119 69.9036 21.0256 72.3402C21.0256 73.4802 20.8706 74.6635 20.1062 75.5983Z" fill="#EBEBEB"/>
<path d="M22.7746 77.2694C21.7193 76.2183 21.5207 74.6884 21.9885 73.3729C22.4564 72.0573 23.5199 70.9378 24.7521 70.0258C26.191 68.9521 27.8661 68.1242 29.6834 67.5885C30.3862 67.3495 31.1426 67.2413 31.9002 67.2716C32.2784 67.2905 32.6455 67.3863 32.9696 67.5508C33.2938 67.7152 33.5653 67.9434 33.7607 68.2155C34.2775 69.0454 33.7825 70.0509 33.2439 70.8717C32.2923 72.3215 31.2054 73.706 29.9935 75.0122C29.0252 76.061 27.9127 77.0961 26.433 77.5703C24.9533 78.0446 23.4193 77.9876 22.625 77.128" fill="#EBEBEB"/>
<path d="M20.1716 93.1494C20.1221 92.9759 20.0929 92.7987 20.0845 92.6205C20.041 92.2359 19.9848 91.7548 19.9159 91.1772C19.8312 90.4668 19.7022 89.7606 19.5297 89.0614C19.3036 88.2101 18.9971 87.3753 18.613 86.5648C18.2344 85.7547 17.7216 84.9933 17.0898 84.303C16.576 83.7422 15.9189 83.2849 15.1668 82.9647C14.6532 82.7514 14.1022 82.6082 13.5348 82.5406C13.3238 82.533 13.1142 82.5078 12.9092 82.4653C13.1216 82.4451 13.336 82.4451 13.5484 82.4653C14.1333 82.5027 14.7054 82.6278 15.2375 82.8347C16.0296 83.1477 16.7242 83.6105 17.2666 84.1867C17.9245 84.8861 18.4561 85.6628 18.8442 86.4918C19.2333 87.3145 19.5381 88.1635 19.7554 89.0295C19.9181 89.7376 20.0298 90.4533 20.09 91.1727C20.1444 91.786 20.1661 92.283 20.1743 92.625C20.1976 92.7993 20.1967 92.9753 20.1716 93.1494Z" fill="#E0E0E0"/>
<path d="M20.0546 92.0386C20.0351 91.9583 20.0296 91.8762 20.0383 91.7946V91.0924C20.0383 90.4836 20.0383 89.6013 20.0029 88.5137C19.9377 86.3386 19.7146 83.997 19.2821 80.6956C18.8741 77.5902 18.3247 73.9787 17.7453 71.6303C17.6229 71.0945 17.4978 70.6157 17.3781 70.1939C17.2585 69.7721 17.1714 69.4073 17.0789 69.1132L16.8831 68.4292C16.8556 68.3504 16.8383 68.2694 16.8314 68.1875C16.8759 68.26 16.9105 68.3365 16.9348 68.4155L17.1769 69.0995C17.2857 69.3913 17.3945 69.7516 17.5196 70.1711C17.6447 70.5906 17.7916 71.0717 17.9249 71.6052C18.643 74.3825 19.1824 77.1902 19.5405 80.0161C19.973 83.3244 20.1689 86.3363 20.1852 88.5183C20.2015 89.6081 20.1852 90.4927 20.1417 91.1015C20.1199 91.3865 20.1036 91.6191 20.09 91.8015C20.0876 91.8813 20.0758 91.9607 20.0546 92.0386Z" fill="#E0E0E0"/>
<path d="M20.0355 86.2291C20.0141 85.9854 20.0141 85.7408 20.0355 85.4972C20.0862 84.8318 20.177 84.169 20.3075 83.5113C20.4996 82.5356 20.7566 81.5697 21.0772 80.618C21.4543 79.4489 21.9372 78.3056 22.5216 77.198C23.5228 75.1543 24.9587 73.2801 26.7593 71.6667C27.0725 71.3913 27.4049 71.1317 27.7548 70.8892C27.9099 70.7821 28.0432 70.6612 28.1819 70.5883L28.5681 70.3603C28.8002 70.2117 29.0468 70.0798 29.3052 69.9658C29.346 70.0114 28.2608 70.5472 26.8926 71.7693C25.15 73.3988 23.7535 75.2665 22.7636 77.2915C22.1889 78.3929 21.7036 79.5256 21.3112 80.6818C20.9331 81.7466 20.6828 82.7224 20.4952 83.5455C20.3075 84.3686 20.2232 85.0457 20.147 85.5131C20.1333 85.7539 20.096 85.9934 20.0355 86.2291Z" fill="#E0E0E0"/>
<path d="M27.7712 95.7852L27.0368 104.207H14.1277L13.3933 95.7852H27.7712Z" fill="#E0E0E0"/>
<path d="M29.017 92.4648H11.8538V95.7845H29.017V92.4648Z" fill="#E0E0E0"/>
<path d="M29.0169 103.886V104.807H28.2118H12.1366V103.886H29.0169Z" fill="#EBEBEB"/>
<path d="M27.521 106.425L28.3125 104.807H12.8521L13.7741 106.425H27.521Z" fill="#EBEBEB"/>
<path d="M13.6327 98.5365C13.6488 98.5643 13.6689 98.5903 13.6925 98.614L13.8857 98.8283L14.6391 99.6355L14.6717 99.6719L14.7044 99.6332L16.5513 97.4923H16.4452L18.2649 99.6514L18.322 99.7198L18.3845 99.656L20.5415 97.5037H20.4191L20.5361 97.6291L22.4673 99.656L22.5298 99.7244L22.5897 99.6537L24.4093 97.4945H24.3033L26.5445 99.6355L26.5853 99.6742L26.6153 99.6309L27.317 98.6437L27.4965 98.3792C27.52 98.3501 27.5392 98.3187 27.5537 98.2857C27.5537 98.2857 27.5237 98.3131 27.4775 98.3678L27.2789 98.6231L26.5418 99.5921H26.6125C26.0359 99.029 25.2879 98.2925 24.4066 97.4261L24.3495 97.3714L24.3005 97.4307L22.4645 99.5785H22.5761L20.6721 97.5424L20.5524 97.4193L20.4817 97.3555L20.4191 97.4193L18.2676 99.5762H18.39L16.5513 97.4284L16.4969 97.3646L16.4452 97.4284L14.6364 99.5944H14.7017L13.921 98.8078L13.7116 98.6049C13.6626 98.557 13.6354 98.5342 13.6327 98.5365Z" fill="#F5F5F5"/>
<path d="M13.2137 95.7282C13.2137 95.767 16.4478 95.7966 20.4381 95.7966C24.4283 95.7966 27.6624 95.767 27.6624 95.7282C27.6624 95.6895 24.4283 95.6621 20.4381 95.6621C16.4478 95.6621 13.2137 95.6917 13.2137 95.7282Z" fill="#F5F5F5"/>
<path d="M12.5609 104.896C12.5609 104.935 16.0779 104.965 20.4136 104.965C24.7492 104.965 28.2662 104.935 28.2662 104.896C28.2662 104.857 24.7492 104.83 20.4136 104.83C16.0779 104.83 12.5609 104.86 12.5609 104.896Z" fill="#E0E0E0"/>
<path d="M122.569 11.6914H81.4205V61.685H122.569V11.6914Z" fill="#E0E0E0"/>
<path d="M120.507 11.6914H79.3588V61.685H120.507V11.6914Z" fill="#F5F5F5"/>
<path d="M115.393 17.1064H84.4696V56.27H115.393V17.1064Z" fill="white"/>
<path d="M115.393 56.2704C115.393 56.2704 115.393 56.2043 115.393 56.0789C115.393 55.9535 115.393 55.7665 115.393 55.5248C115.393 55.0324 115.393 54.3119 115.38 53.3748C115.38 51.4984 115.363 48.7646 115.352 45.3082C115.339 38.402 115.323 28.6231 115.301 17.1068L115.404 17.1935H84.4859L84.5919 17.1C84.5919 31.8744 84.5756 45.4974 84.5675 56.2636L84.4777 56.1883L106.986 56.2294L113.206 56.2476H114.838H115.401C115.401 56.2476 115.219 56.2476 114.857 56.2476H113.244L107.046 56.2681L84.4695 56.3069H84.3825V56.2316C84.3825 45.4655 84.3662 31.8356 84.358 17.0681V16.9746H84.475H115.393H115.497V17.1C115.475 28.6391 115.459 38.4385 115.445 45.3583C115.445 48.8057 115.423 51.5326 115.418 53.4067C115.418 54.3347 115.418 55.0483 115.418 55.5362C115.418 55.7734 115.418 55.9558 115.418 56.0834C115.399 56.2111 115.393 56.2704 115.393 56.2704Z" fill="#E0E0E0"/>
<path d="M120.621 11.6914C120.41 12.0076 120.164 12.3068 119.887 12.5852C119.411 13.121 118.731 13.8506 117.958 14.6372C117.186 15.4238 116.46 16.1237 115.924 16.6208C115.651 16.901 115.347 17.1598 115.018 17.3937C115.251 17.0892 115.514 16.8017 115.804 16.5341L117.776 14.5186L119.756 12.5031C120.017 12.2125 120.306 11.941 120.621 11.6914Z" fill="#E0E0E0"/>
<path d="M115.551 56.1445C117.089 58.1936 118.899 60.0904 120.945 61.7989L115.551 56.1445Z" fill="white"/>
<path d="M120.945 61.7989C120.602 61.5874 120.287 61.3467 120.004 61.0807C119.287 60.4692 118.608 59.8277 117.969 59.1587C117.33 58.4889 116.733 57.7918 116.179 57.0702C115.933 56.7802 115.723 56.4701 115.551 56.1445C115.829 56.4126 116.083 56.6976 116.31 56.9973C116.764 57.5308 117.398 58.2604 118.143 59.0492C118.888 59.8381 119.598 60.5107 120.121 60.9987C120.418 61.2487 120.693 61.5161 120.945 61.7989Z" fill="#E0E0E0"/>
<path d="M79.3533 61.6469L84.7416 56.0723L79.3533 61.6469Z" fill="white"/>
<path d="M84.7416 56.0719C84.7905 56.1038 83.6237 57.3783 82.1358 58.9173C80.648 60.4563 79.3995 61.6784 79.3533 61.6533C79.307 61.6283 80.4712 60.3469 81.9617 58.8056C83.4523 57.2643 84.6953 56.04 84.7416 56.0719Z" fill="#E0E0E0"/>
<path d="M79.3588 11.6911C79.4077 11.6591 80.5773 12.8311 81.9754 14.3131C83.3735 15.7951 84.4642 17.0194 84.4234 17.0491C84.3826 17.0787 83.2048 15.9091 81.8068 14.4271C80.4087 12.9451 79.3098 11.723 79.3588 11.6911Z" fill="#E0E0E0"/>
<path d="M84.592 23.0047C86.7381 21.0644 90.7855 20.1889 93.6904 21.2194C95.137 21.7587 96.3582 22.6481 97.1971 23.7735C98.0361 24.8989 98.4546 26.2088 98.3988 27.535C101.345 27.9431 103.613 30.1707 104.298 32.6057C104.984 35.0408 104.315 37.6217 103.145 39.9245C102.666 40.8639 102.103 41.785 101.878 42.7882C101.652 43.7914 101.831 44.9223 102.675 45.6587C103.681 46.5343 105.289 46.6163 106.629 47.0769C108.593 47.7609 110.002 49.2748 110.783 50.9301C111.564 52.5854 111.803 54.3752 112.031 56.1445H84.7416L84.592 23.0047Z" fill="#EBEBEB"/>
<path d="M86.1506 51.2493C86.1207 51.2288 92.1156 45.6018 99.5385 38.6865C106.961 31.7713 113.005 26.1784 113.035 26.2012C113.065 26.224 107.07 31.8465 99.6445 38.7595C92.2189 45.6724 86.1805 51.2721 86.1506 51.2493Z" fill="#FAFAFA"/>
<path d="M110.179 24.8633C110.206 24.8838 106.431 28.411 101.747 32.7361C97.0632 37.0613 93.2388 40.5543 93.2089 40.5315C93.179 40.5087 96.9544 36.9838 101.641 32.6563C106.327 28.3289 110.16 24.8519 110.179 24.8633Z" fill="#FAFAFA"/>
<path d="M108.449 35.5127C108.407 35.5615 108.358 35.6066 108.305 35.6472L107.875 36.0234L106.287 37.3641C104.946 38.5041 103.113 40.075 101.138 41.8602C99.1631 43.6455 97.4223 45.2962 96.1765 46.5023L94.7023 47.9319L94.2997 48.3195C94.2545 48.3657 94.2054 48.4091 94.1528 48.4494C94.1907 48.3985 94.2325 48.3498 94.2779 48.3035L94.6615 47.9022C94.996 47.5557 95.4775 47.0563 96.1004 46.4476C97.3271 45.2278 99.0597 43.5657 101.034 41.7804C103.009 39.9952 104.856 38.422 106.216 37.3048C106.893 36.7439 107.448 36.297 107.848 35.9915L108.297 35.6404C108.344 35.595 108.395 35.5523 108.449 35.5127Z" fill="#FAFAFA"/>
<path d="M33.6546 14.4163H32.8386V13.1213C32.8448 13.0264 32.8287 12.9313 32.791 12.8416C32.7534 12.7519 32.6949 12.6693 32.6191 12.5986C32.5433 12.5278 32.4516 12.4703 32.3493 12.4294C32.2469 12.3884 32.1359 12.3647 32.0226 12.3598H25.8401C25.7268 12.3647 25.6158 12.3884 25.5134 12.4294C25.411 12.4703 25.3193 12.5278 25.2435 12.5986C25.1677 12.6693 25.1093 12.7519 25.0716 12.8416C25.034 12.9313 25.0178 13.0264 25.0241 13.1213V14.4163H24.2081V13.1213C24.2019 12.9365 24.2392 12.7526 24.3179 12.5799C24.3966 12.4073 24.5151 12.2493 24.6667 12.1151C24.8183 11.9808 24.9999 11.8729 25.2012 11.7976C25.4026 11.7222 25.6196 11.6808 25.8401 11.6758H32.0471C32.2675 11.6808 32.4846 11.7222 32.6859 11.7976C32.8872 11.8729 33.0689 11.9808 33.2204 12.1151C33.372 12.2493 33.4905 12.4073 33.5692 12.5799C33.6479 12.7526 33.6852 12.9365 33.6791 13.1213L33.6546 14.4163Z" fill="#EBEBEB"/>
<path d="M42.4484 14.416H15.2865C13.9149 14.416 12.8031 15.348 12.8031 16.4977V30.3418C12.8031 31.4915 13.9149 32.4235 15.2865 32.4235H42.4484C43.8199 32.4235 44.9317 31.4915 44.9317 30.3418V16.4977C44.9317 15.348 43.8199 14.416 42.4484 14.416Z" fill="#EBEBEB"/>
<path d="M29.8928 19.7832H27.967V27.0199H29.8928V19.7832Z" fill="#F5F5F5"/>
<path d="M24.6133 22.5947V24.209H33.2466V22.5947H24.6133Z" fill="#F5F5F5"/>
<path d="M36.0999 23.4205C36.0931 23.3881 36.0886 23.3553 36.0862 23.3225C36.0862 23.2518 36.0863 23.1583 36.0618 23.0375C36.0618 22.9736 36.0563 22.9029 36.0455 22.8254C36.0455 22.7479 36.0155 22.6658 35.9992 22.5746C35.9665 22.3643 35.9155 22.1563 35.8469 21.9522C35.6782 21.3893 35.4086 20.8512 35.0472 20.3562C34.5231 19.6308 33.822 19.0065 32.99 18.524C32.158 18.0415 31.2138 17.7117 30.2192 17.5563C28.9658 17.364 27.6738 17.4553 26.4765 17.8208C25.8275 18.0099 25.2187 18.2847 24.6731 18.6348C24.3862 18.8108 24.1135 19.0028 23.8571 19.2093C23.6065 19.4243 23.373 19.6528 23.1581 19.8933C22.7173 20.3927 22.3739 20.9476 22.1408 21.5372C21.6517 22.7601 21.6517 24.0832 22.1408 25.3061C22.3717 25.8965 22.7152 26.4517 23.1581 26.9499C23.3723 27.191 23.6059 27.4195 23.8571 27.6339C24.1129 27.8418 24.3856 28.0345 24.6731 28.2108C25.2204 28.5586 25.8288 28.8332 26.4765 29.0247C27.675 29.3897 28.9678 29.4802 30.2219 29.2869C31.217 29.1294 32.1611 28.7975 32.9926 28.3131C33.8241 27.8287 34.5242 27.2025 35.0472 26.4757C35.4084 25.9806 35.6781 25.4425 35.8469 24.8797C35.9155 24.6763 35.9664 24.4691 35.9992 24.2595C36.0155 24.1683 36.0373 24.084 36.0455 24.0065C36.0536 23.9289 36.0455 23.8605 36.0618 23.7967C36.0618 23.6759 36.0808 23.5824 36.0862 23.5117C36.0883 23.4788 36.0929 23.4461 36.0999 23.4137C36.1047 23.4462 36.1047 23.4791 36.0999 23.5117C36.0999 23.5824 36.0999 23.6781 36.0999 23.799C36.0999 23.8628 36.0999 23.9335 36.0999 24.011C36.0999 24.0885 36.0754 24.1729 36.0591 24.2641C36.0328 24.4759 35.9864 24.6855 35.9203 24.8911C35.7603 25.462 35.496 26.0088 35.137 26.5122C34.6142 27.2546 33.9089 27.8954 33.0681 28.3918C32.2273 28.8883 31.2701 29.2292 30.26 29.3918C28.986 29.5921 27.6712 29.5032 26.452 29.1342C25.7899 28.9427 25.1683 28.6641 24.6106 28.3088C24.3232 28.1283 24.0506 27.9317 23.7946 27.7206C23.5368 27.5 23.2977 27.2646 23.0792 27.0161C22.6277 26.5059 22.276 25.9387 22.0374 25.3357C21.537 24.0879 21.537 22.7371 22.0374 21.4893C22.2753 20.8868 22.627 20.3203 23.0792 19.8113C23.2985 19.5625 23.5375 19.3264 23.7946 19.1045C24.0505 18.8939 24.3231 18.6982 24.6106 18.5185C25.1691 18.1637 25.7904 17.8845 26.452 17.6909C27.6717 17.3237 28.9862 17.2356 30.26 17.4355C31.2701 17.5981 32.2273 17.939 33.0681 18.4355C33.9089 18.932 34.6142 19.5727 35.137 20.3151C35.4958 20.8178 35.76 21.3638 35.9203 21.9339C35.9865 22.1403 36.0328 22.3507 36.0591 22.5632C36.0754 22.6544 36.0917 22.7388 36.0999 22.8163C36.108 22.8938 36.0999 22.9645 36.0999 23.0283C36.0999 23.1492 36.0999 23.2563 36.0999 23.3156C36.1053 23.3504 36.1053 23.3857 36.0999 23.4205Z" fill="#F5F5F5"/>
<path d="M54.5468 15.7318V13.0186H52.2593V15.7318H49.9636V31.3064H56.682V15.7318H54.5468Z" fill="#EBEBEB"/>
<path d="M64.5265 31.3154H9.10107V33.6866H64.5265V31.3154Z" fill="#E0E0E0"/>
<path d="M21.5479 33.6865H19.9349V39.2908H21.5479V33.6865Z" fill="#E0E0E0"/>
<path d="M53.8206 33.6865H52.2076V39.2908H53.8206V33.6865Z" fill="#E0E0E0"/>
<path d="M42.0457 19.9318V17.9414H40.3729V19.9318H38.6947V31.3159H43.607V19.9318H42.0457Z" fill="#FAFAFA"/>
<path d="M47.6218 19.9318V17.9414H45.949V19.9318H44.2708V31.3159H49.1804V19.9318H47.6218Z" fill="#F5F5F5"/>
<path d="M19.9349 23.9189H11.1112V31.3153H19.9349V23.9189Z" fill="#E0E0E0"/>
<path d="M19.8914 25.8187C19.8914 25.8666 17.9439 25.9054 15.5394 25.9054C13.1349 25.9054 11.1874 25.8666 11.1874 25.8187C11.1874 25.7709 13.1349 25.7344 15.5394 25.7344C17.9439 25.7344 19.8914 25.764 19.8914 25.8187Z" fill="#EBEBEB"/>
<path d="M15.8576 26.7947C15.8576 26.7947 15.8903 26.7947 15.9474 26.7947C16.0312 26.8144 16.1103 26.846 16.1813 26.8881C16.4434 27.0542 16.6172 27.2998 16.6655 27.5721C16.7758 27.9688 16.6947 28.3859 16.4397 28.7327C16.2807 28.9462 16.0371 29.1061 15.7516 29.1841C15.3082 29.2806 14.8376 29.2306 14.437 29.0442C14.0365 28.8579 13.7368 28.5496 13.6 28.1832C13.5468 27.9826 13.5569 27.7738 13.6294 27.5774C13.7019 27.3811 13.8343 27.204 14.0135 27.0637C14.2557 26.8814 14.5667 26.7765 14.892 26.7673C15.0091 26.7539 15.1283 26.7698 15.2348 26.8129C15.2348 26.8289 15.1096 26.8129 14.8975 26.8334C14.6022 26.8664 14.3275 26.9784 14.1141 27.1526C13.9626 27.2815 13.8528 27.4406 13.7952 27.615C13.7376 27.7894 13.7341 27.9732 13.785 28.149C13.9174 28.4657 14.1857 28.7299 14.5376 28.89C14.8896 29.0502 15.2999 29.0948 15.689 29.0154C15.9282 28.9538 16.1353 28.826 16.2765 28.6529C16.5116 28.3404 16.598 27.9652 16.5186 27.6018C16.4848 27.3534 16.347 27.1231 16.1296 26.952C15.9719 26.8403 15.8495 26.8129 15.8576 26.7947Z" fill="#EBEBEB"/>
<path d="M116.741 102.928L121.773 102.886L121.802 105.394C121.806 105.663 121.681 105.922 121.456 106.114C121.232 106.306 120.925 106.416 120.604 106.418L117.99 106.44C117.669 106.443 117.36 106.339 117.131 106.15C116.902 105.962 116.771 105.705 116.768 105.436L116.738 102.928L116.741 102.928Z" fill="#EBEBEB"/>
<path d="M121.856 105.279C121.019 105.349 120.178 105.378 119.337 105.366C118.496 105.395 117.654 105.38 116.816 105.32C117.653 105.25 118.494 105.222 119.335 105.236C120.175 105.206 121.017 105.22 121.856 105.279Z" fill="#E0E0E0"/>
<path d="M118.396 105.279C118.394 105.213 118.407 105.148 118.434 105.086C118.462 105.025 118.504 104.968 118.558 104.92C118.612 104.872 118.677 104.834 118.748 104.807C118.82 104.78 118.897 104.765 118.976 104.764H119.982C120.06 104.764 120.138 104.778 120.21 104.804C120.282 104.829 120.348 104.867 120.403 104.914C120.457 104.961 120.501 105.017 120.53 105.078C120.559 105.139 120.573 105.204 120.572 105.27L118.396 105.279Z" fill="#E0E0E0"/>
<path d="M114.273 83.044L115.646 102.112C115.666 102.515 115.869 102.898 116.215 103.179C116.561 103.461 117.022 103.621 117.504 103.626L121.165 103.596C121.635 103.585 122.083 103.426 122.421 103.152C122.759 102.878 122.962 102.507 122.99 102.114L124.772 82.9619L114.273 83.044Z" fill="#E0E0E0"/>
<path d="M124.639 84.5282C124.639 84.5647 122.346 84.6125 119.517 84.6376C116.688 84.6627 114.392 84.6513 114.392 84.6148C114.392 84.5783 116.685 84.5305 119.514 84.5077C122.343 84.4849 124.639 84.494 124.639 84.5282Z" fill="#EBEBEB"/>
<path d="M115.208 84.6266C115.128 84.367 115.099 84.0983 115.121 83.8309C115.092 83.5643 115.115 83.2955 115.189 83.0352C115.3 83.5627 115.306 84.1019 115.208 84.6312V84.6266Z" fill="#EBEBEB"/>
<path d="M116.041 84.6198C115.961 84.3602 115.931 84.0915 115.954 83.824C115.924 83.5575 115.947 83.2887 116.022 83.0283C116.132 83.5559 116.138 84.095 116.041 84.6243V84.6198Z" fill="#EBEBEB"/>
<path d="M116.873 84.6129C116.795 84.3531 116.765 84.0846 116.786 83.8172C116.758 83.5506 116.781 83.2821 116.854 83.0215C116.964 83.549 116.971 84.0882 116.873 84.6175V84.6129Z" fill="#EBEBEB"/>
<path d="M117.708 84.6038C117.597 84.0763 117.591 83.5371 117.689 83.0078C117.8 83.5353 117.806 84.0745 117.708 84.6038Z" fill="#EBEBEB"/>
<path d="M118.54 84.5882C118.43 84.0607 118.423 83.5215 118.521 82.9922C118.632 83.5197 118.638 84.0589 118.54 84.5882Z" fill="#EBEBEB"/>
<path d="M119.375 84.5882C119.265 84.0606 119.259 83.5215 119.356 82.9922C119.435 83.252 119.464 83.5205 119.443 83.7879C119.472 84.056 119.449 84.3261 119.375 84.5882Z" fill="#EBEBEB"/>
<path d="M120.208 84.5882C120.097 84.0606 120.091 83.5215 120.189 82.9922C120.269 83.2517 120.298 83.5205 120.276 83.7879C120.305 84.056 120.282 84.3264 120.208 84.5882Z" fill="#EBEBEB"/>
<path d="M121.04 84.5882C120.93 84.0606 120.923 83.5215 121.021 82.9922C121.101 83.2517 121.13 83.5205 121.108 83.7879C121.138 84.056 121.115 84.3264 121.04 84.5882Z" fill="#EBEBEB"/>
<path d="M121.875 84.5696C121.765 84.0421 121.758 83.5029 121.856 82.9736C121.966 83.5012 121.973 84.0403 121.875 84.5696Z" fill="#EBEBEB"/>
<path d="M122.707 84.5628C122.597 84.0352 122.591 83.4961 122.688 82.9668C122.799 83.4944 122.805 84.0335 122.707 84.5628Z" fill="#EBEBEB"/>
<path d="M123.542 84.5563C123.462 84.2967 123.433 84.028 123.455 83.7606C123.426 83.494 123.449 83.2252 123.523 82.9648C123.634 83.4924 123.64 84.0315 123.542 84.5608V84.5563Z" fill="#EBEBEB"/>
<path d="M124.375 84.5494C124.295 84.2899 124.265 84.0212 124.288 83.7537C124.258 83.4872 124.281 83.2184 124.356 82.958C124.466 83.4856 124.472 84.0247 124.375 84.554V84.5494Z" fill="#EBEBEB"/>
<path d="M118.91 92.0023L118.897 90.8942L120.205 90.8828L120.219 91.9202L121.285 91.9111L121.298 93.0009L120.118 93.0123L120.129 93.9608L119.035 93.9699L119.022 92.9508L117.735 92.9622L117.722 91.9955L118.91 92.0023Z" fill="white"/>
<path d="M122.229 92.4064C122.21 92.4064 122.229 92.1989 122.109 91.8433C121.952 91.3424 121.604 90.898 121.119 90.5779C120.787 90.3591 120.397 90.2112 119.982 90.1469C119.506 90.0746 119.016 90.1165 118.567 90.2678C118.072 90.4355 117.648 90.7248 117.352 91.0977C117.032 91.4977 116.865 91.9693 116.87 92.4506C116.876 92.9318 117.055 93.4004 117.384 93.7949C117.689 94.1634 118.119 94.4456 118.619 94.6043C119.071 94.7487 119.562 94.7827 120.036 94.7024C120.45 94.6288 120.836 94.4724 121.162 94.2464C121.641 93.919 121.979 93.4688 122.123 92.965C122.223 92.6071 122.21 92.3996 122.229 92.4019C122.236 92.4511 122.236 92.5009 122.229 92.5501C122.228 92.6934 122.21 92.8363 122.174 92.9764C122.046 93.4998 121.712 93.972 121.225 94.3171C120.888 94.5561 120.486 94.7228 120.055 94.8027C119.556 94.8921 119.038 94.8604 118.559 94.7115C118.03 94.5469 117.574 94.251 117.251 93.8633C116.903 93.4481 116.714 92.9543 116.709 92.4472C116.703 91.94 116.88 91.4432 117.218 91.0225C117.531 90.6289 117.98 90.3249 118.505 90.1515C118.947 90.0046 119.428 89.9594 119.898 90.0208C120.369 90.0821 120.811 90.2477 121.179 90.5003C121.674 90.8379 122.02 91.3052 122.161 91.8273C122.2 91.9663 122.222 92.1085 122.226 92.2514C122.233 92.3029 122.234 92.3548 122.229 92.4064Z" fill="white"/>
<path d="M105.457 96.0588C105.457 98.8085 105.457 103.25 105.457 105.288C105.457 105.578 105.594 105.855 105.838 106.06C106.082 106.264 106.412 106.38 106.757 106.38L115.717 106.396C116.062 106.397 116.393 106.283 116.638 106.079C116.883 105.875 117.021 105.598 117.023 105.309L117.047 96.1591C117.048 95.841 116.974 95.5258 116.83 95.2315C116.686 94.9372 116.474 94.6697 116.206 94.4442C115.938 94.2187 115.62 94.0396 115.27 93.9172C114.919 93.7948 114.543 93.7315 114.164 93.7309V92.3857L108.297 92.3721V93.6466H108.256C107.507 93.6661 106.797 93.9285 106.275 94.3786C105.753 94.8286 105.46 95.431 105.457 96.0588Z" fill="#F5F5F5"/>
<path d="M108.289 92.5449V93.156L114.156 93.3429L114.158 92.5563L108.289 92.5449Z" fill="#E0E0E0"/>
<path d="M108.433 90.4987L114.044 90.5102C114.26 90.5107 114.468 90.5832 114.62 90.7117C114.773 90.8403 114.858 91.0145 114.858 91.1959L114.854 92.516C114.854 92.5738 114.84 92.631 114.814 92.6843C114.787 92.7377 114.748 92.7861 114.699 92.8269C114.651 92.8676 114.593 92.8999 114.529 92.9219C114.465 92.9439 114.397 92.9551 114.328 92.955L108.137 92.9423C108.068 92.9422 108 92.9306 107.936 92.9084C107.873 92.8861 107.815 92.8536 107.766 92.8127C107.718 92.7717 107.679 92.7231 107.653 92.6697C107.627 92.6162 107.613 92.559 107.613 92.5012L107.617 91.1811C107.618 91.0001 107.704 90.8266 107.857 90.6987C108.01 90.5708 108.217 90.4989 108.433 90.4987Z" fill="#EBEBEB"/>
<path d="M108.542 92.9461C108.465 92.5444 108.44 92.137 108.468 91.7309C108.444 91.3245 108.471 90.9171 108.55 90.5156C108.623 90.9176 108.648 91.3247 108.623 91.7309C108.648 92.1372 108.62 92.5446 108.542 92.9461Z" fill="#E0E0E0"/>
<path d="M109.314 92.949C109.239 92.5472 109.215 92.1399 109.241 91.7338C109.216 91.3274 109.244 90.9201 109.322 90.5186C109.397 90.9204 109.422 91.3277 109.396 91.7338C109.42 92.1402 109.393 92.5475 109.314 92.949Z" fill="#E0E0E0"/>
<path d="M110.089 92.951C109.984 92.1432 109.984 91.3283 110.089 90.5205C110.166 90.9222 110.19 91.3296 110.163 91.7358C110.187 92.1419 110.163 92.549 110.089 92.951Z" fill="#E0E0E0"/>
<path d="M110.862 92.951C110.785 92.5493 110.76 92.1419 110.788 91.7358C110.764 91.3295 110.79 90.9222 110.867 90.5205C110.944 90.9222 110.968 91.3296 110.941 91.7358C110.965 92.142 110.939 92.5493 110.862 92.951Z" fill="#E0E0E0"/>
<path d="M111.634 92.9529C111.558 92.5512 111.533 92.1438 111.561 91.7377C111.536 91.3313 111.564 90.924 111.642 90.5225C111.716 90.9244 111.74 91.3316 111.716 91.7377C111.74 92.1441 111.713 92.5514 111.634 92.9529Z" fill="#E0E0E0"/>
<path d="M112.407 92.9559C112.334 92.5539 112.309 92.1467 112.333 91.7406C112.309 91.3343 112.336 90.9269 112.415 90.5254C112.492 90.9271 112.516 91.3345 112.488 91.7406C112.513 92.147 112.485 92.5544 112.407 92.9559Z" fill="#E0E0E0"/>
<path d="M113.182 92.9559C113.105 92.5542 113.081 92.1467 113.108 91.7406C113.084 91.3344 113.111 90.9271 113.187 90.5254C113.264 90.9278 113.289 91.336 113.261 91.7429C113.285 92.1484 113.259 92.555 113.182 92.9559Z" fill="#E0E0E0"/>
<path d="M113.968 92.9578C113.891 92.5561 113.867 92.1487 113.895 91.7426C113.87 91.3362 113.898 90.9288 113.976 90.5273C114.049 90.9293 114.074 91.3365 114.05 91.7426C114.074 92.1489 114.047 92.5563 113.968 92.9578Z" fill="#E0E0E0"/>
<path d="M115.38 97.1689H107.777C107.555 97.1689 107.375 97.32 107.375 97.5064V101.494C107.375 101.68 107.555 101.832 107.777 101.832H115.38C115.602 101.832 115.782 101.68 115.782 101.494V97.5064C115.782 97.32 115.602 97.1689 115.38 97.1689Z" fill="#EBEBEB"/>
<path d="M114.925 101.745C114.922 101.719 114.922 101.693 114.925 101.667C114.925 101.608 114.925 101.537 114.925 101.439C114.925 101.241 114.925 100.967 114.912 100.623C114.912 99.9092 114.898 98.9083 114.89 97.6885L114.95 97.7387H107.568C107.549 97.7524 107.712 97.6156 107.644 97.6748V98.7373C107.644 99.0862 107.644 99.4213 107.644 99.7702C107.644 100.454 107.644 101.099 107.644 101.717L107.576 101.658L112.864 101.699L114.387 101.717H114.798H114.944C114.901 101.72 114.857 101.72 114.814 101.717H114.417L112.91 101.729L107.573 101.747H107.503V101.688C107.503 101.067 107.503 100.415 107.503 99.7405V98.7464C107.503 98.5732 107.503 98.3953 107.503 98.2175V97.6862L107.581 97.6201L114.95 97.6475H115.012V97.6976C114.993 98.9288 114.98 99.9434 114.972 100.662C114.972 101.001 114.958 101.27 114.953 101.466C114.953 101.551 114.953 101.619 114.953 101.674C114.949 101.699 114.94 101.723 114.925 101.745Z" fill="#E0E0E0"/>
<path d="M113.794 99.0046C112.961 99.0687 112.125 99.0885 111.289 99.0639C110.453 99.0845 109.616 99.0616 108.784 98.9955C109.616 98.9327 110.453 98.9129 111.289 98.9362C112.125 98.9171 112.961 98.9399 113.794 99.0046Z" fill="#E0E0E0"/>
<path d="M113.791 99.7175C112.959 99.7817 112.122 99.8015 111.286 99.7768C110.451 99.7974 109.615 99.7745 108.784 99.7084C109.616 99.6456 110.451 99.6258 111.286 99.6491C112.122 99.6299 112.959 99.6527 113.791 99.7175Z" fill="#E0E0E0"/>
<path d="M113.789 100.404C112.956 100.467 112.119 100.487 111.283 100.463C110.448 100.482 109.613 100.46 108.781 100.395C109.614 100.331 110.45 100.311 111.286 100.336C112.121 100.315 112.957 100.338 113.789 100.404Z" fill="#E0E0E0"/>
<path d="M113.818 93.6878C112.909 93.7506 111.997 93.7704 111.085 93.747C110.177 93.7673 109.269 93.7437 108.365 93.6763C109.274 93.6149 110.187 93.5951 111.098 93.6171C112.006 93.5982 112.914 93.6218 113.818 93.6878Z" fill="#E0E0E0"/>
<path d="M105.933 104.759C105.909 104.615 105.9 104.47 105.906 104.325C105.906 104.027 105.906 103.628 105.887 103.147C105.887 102.148 105.887 100.771 105.887 99.2502C105.887 98.4909 105.901 97.7682 105.909 97.1047C105.878 96.5127 105.995 95.9218 106.251 95.3696C106.441 94.998 106.768 94.6872 107.184 94.4827C107.297 94.4297 107.418 94.3891 107.543 94.3619C107.586 94.35 107.632 94.3446 107.677 94.3459C107.517 94.3959 107.363 94.4561 107.214 94.526C106.827 94.7401 106.526 95.0478 106.352 95.4084C106.115 95.9516 106.013 96.5295 106.05 97.107C106.05 97.7682 106.05 98.4909 106.05 99.2502C106.05 100.773 106.023 102.15 106.001 103.147C106.001 103.628 105.979 104.027 105.971 104.325C105.972 104.47 105.96 104.615 105.933 104.759Z" fill="white"/>
<path d="M116.601 106.049C116.463 106.026 116.328 105.991 116.198 105.945C116.071 105.903 115.926 105.858 115.731 105.812C115.535 105.767 115.342 105.705 115.108 105.657C114.563 105.533 114.01 105.435 113.451 105.365C112.768 105.283 112.079 105.239 111.389 105.233C110.699 105.235 110.009 105.276 109.325 105.356C108.767 105.425 108.213 105.521 107.668 105.644C107.432 105.689 107.225 105.751 107.043 105.796C106.861 105.842 106.703 105.885 106.575 105.924C106.445 105.97 106.311 106.005 106.172 106.029C106.293 105.968 106.421 105.918 106.553 105.878C106.678 105.833 106.825 105.778 107.016 105.728C107.206 105.678 107.402 105.607 107.639 105.555C108.185 105.42 108.741 105.314 109.303 105.238C110.684 105.052 112.092 105.052 113.473 105.238C114.036 105.314 114.592 105.423 115.138 105.564C115.372 105.616 115.578 105.685 115.76 105.737C115.943 105.789 116.095 105.844 116.22 105.89C116.353 105.933 116.48 105.987 116.601 106.049Z" fill="white"/>
<path d="M25.0403 48.4297H22.5814V57.666H25.0403V48.4297Z" fill="#EBEBEB"/>
<path d="M18.3029 52.018V54.0791H29.3216V52.018H18.3029Z" fill="#EBEBEB"/>
<path d="M32.9637 53.0688C32.9527 53.0284 32.9463 52.9872 32.9447 52.9457C32.9447 52.8545 32.9284 52.7337 32.9148 52.5809C32.9148 52.4988 32.9012 52.4099 32.893 52.3119C32.8849 52.2138 32.8549 52.1067 32.8332 51.9904C32.7921 51.7223 32.7275 51.4571 32.64 51.1969C32.4236 50.4789 32.0788 49.7925 31.6173 49.1609C30.5307 47.6349 28.8423 46.4749 26.8439 45.8813C24.8455 45.2877 22.6626 45.2977 20.672 45.9096C20.2651 46.0323 19.8688 46.1785 19.4861 46.3474C19.0983 46.5254 18.7257 46.7258 18.3709 46.947C18.0086 47.1727 17.6643 47.418 17.34 47.6812C17.0241 47.9592 16.7298 48.254 16.4588 48.5635C15.893 49.2001 15.454 49.9092 15.1586 50.6634C14.5347 52.2228 14.5347 53.9103 15.1586 55.4697C15.454 56.2238 15.893 56.933 16.4588 57.5695C16.7316 57.8806 17.0287 58.1761 17.3482 58.4542C17.6719 58.718 18.0163 58.9632 18.3791 59.1883C18.7338 59.4103 19.1064 59.6115 19.4943 59.7903C19.8743 59.9596 20.2678 60.1066 20.672 60.2303C22.2011 60.6964 23.8509 60.8121 25.4511 60.5655C26.7216 60.3655 27.9271 59.9423 28.9885 59.3238C30.0499 58.7052 30.943 57.9053 31.6092 56.9767C32.0731 56.3479 32.4207 55.6637 32.64 54.9475C32.7272 54.6881 32.7918 54.4237 32.8332 54.1564C32.8549 54.0401 32.8794 53.9284 32.893 53.8349C32.9066 53.7414 32.893 53.6457 32.9148 53.5659C32.9148 53.4108 32.9365 53.29 32.9447 53.2011C32.9465 53.1589 32.9529 53.1169 32.9637 53.0757C32.9667 53.1174 32.9667 53.1593 32.9637 53.2011C32.9637 53.2923 32.9637 53.4131 32.9637 53.5681C32.9637 53.6502 32.9637 53.7391 32.9637 53.8395C32.9637 53.9398 32.9311 54.0447 32.912 54.1632C32.8767 54.4333 32.8176 54.7008 32.7353 54.9635C32.5283 55.6913 32.1908 56.3885 31.7343 57.0315C30.6422 58.5869 28.9353 59.773 26.9094 60.3843C24.8835 60.9956 22.6664 60.9936 20.6421 60.3785C20.2258 60.2499 19.8205 60.0976 19.429 59.9225C19.033 59.7421 18.653 59.5378 18.292 59.3115C17.9211 59.0818 17.5686 58.832 17.2367 58.5636C16.91 58.2803 16.6056 57.9795 16.3255 57.663C15.7486 57.013 15.3004 56.2893 14.9981 55.5198C14.6906 54.7265 14.5292 53.8984 14.5194 53.0643C14.5256 52.2335 14.6796 51.4082 14.9764 50.6155C15.2829 49.8449 15.7367 49.1211 16.32 48.4723C16.8611 47.8348 17.5248 47.277 18.2839 46.8216C18.9969 46.3698 19.7898 46.0144 20.634 45.7683C22.1928 45.2963 23.874 45.1829 25.5028 45.4399C26.7919 45.6473 28.0135 46.0823 29.0865 46.716C30.1596 47.3497 31.0594 48.1676 31.7261 49.1153C32.183 49.7573 32.5205 50.4538 32.7271 51.181C32.8098 51.4444 32.8689 51.7127 32.9039 51.9835C32.9229 52.0998 32.9447 52.2115 32.9556 52.3073C32.9664 52.4031 32.9556 52.4965 32.9556 52.5786C32.9556 52.7337 32.9556 52.8545 32.9556 52.9457C32.9613 52.9866 32.964 53.0277 32.9637 53.0688Z" fill="#EBEBEB"/>
<path d="M81.9101 45.6271C83.9528 44.8337 85.2312 43.0804 85.9901 41.2951C86.749 39.5099 87.0781 37.6289 87.924 35.8756C88.5442 34.5714 87.8614 32.4875 89.2595 31.7123C91.0085 30.741 90.9894 28.1623 90.3149 26.8764C89.5805 25.4742 87.5949 24.4345 87.448 23.9899C87.0917 22.8248 88.3021 21.5617 87.8533 20.4194C86.7979 17.7359 84.1867 18.0893 84.1867 18.0893C82.9981 16.8809 81.3906 15.2872 78.7794 14.7194C75.9506 14.1061 71.7808 13.6524 69.2594 14.895C66.7379 16.1376 64.891 16.9675 64.0778 19.3205" fill="#263238"/>
<path d="M76.6088 57.7404C76.7122 51.6346 76.704 49.3432 76.7068 49.3774C76.7068 49.3774 82.9628 48.495 84.2439 41.6459C84.8804 38.2396 84.66 32.6559 84.3064 28.0936C83.9855 23.9896 80.7269 18.9531 75.8445 19.3954L60.6125 22.6535C59.8971 22.7179 59.2366 23.005 58.7617 23.458C58.2867 23.911 58.0319 24.497 58.0476 25.0999L59.7612 57.6241" fill="#FFCCB0"/>
<path d="M81.1185 33.1468C81.1209 33.3756 81.0168 33.5961 80.8284 33.7617C80.64 33.9273 80.3821 34.0248 80.1094 34.0337C79.9757 34.0437 79.841 34.031 79.7133 33.9964C79.5856 33.9619 79.4675 33.9061 79.366 33.8325C79.2645 33.7589 79.1817 33.669 79.1225 33.568C79.0633 33.4671 79.0289 33.3571 79.0214 33.2448C79.019 33.0162 79.1226 32.7957 79.3104 32.6298C79.4981 32.464 79.7553 32.3657 80.0278 32.3556C80.1618 32.346 80.2967 32.359 80.4246 32.3938C80.5524 32.4285 80.6707 32.4845 80.7724 32.5582C80.8741 32.632 80.9571 32.722 81.0165 32.8231C81.076 32.9242 81.1107 33.0343 81.1185 33.1468Z" fill="#263238"/>
<path d="M82.3996 31.0078C82.269 31.1218 81.4748 30.6316 80.3487 30.6361C79.2226 30.6407 78.3958 31.1149 78.2734 30.9987C78.2135 30.9485 78.3441 30.741 78.7031 30.5221C79.1901 30.2367 79.7709 30.0853 80.365 30.0889C80.9507 30.0859 81.5223 30.2392 81.997 30.5267C82.3452 30.7433 82.4622 30.9508 82.3996 31.0078Z" fill="#263238"/>
<path d="M70.8587 33.1468C70.8624 33.3755 70.7592 33.5964 70.5711 33.7622C70.383 33.9279 70.125 34.0254 69.8523 34.0337C69.7186 34.0437 69.5839 34.031 69.4562 33.9964C69.3284 33.9619 69.2103 33.9061 69.1088 33.8325C69.0073 33.7589 68.9245 33.669 68.8653 33.568C68.8061 33.4671 68.7718 33.3571 68.7643 33.2448C68.7605 33.0159 68.8636 32.7947 69.0517 32.6286C69.2397 32.4625 69.4977 32.3645 69.7707 32.3556C69.9045 32.346 70.0392 32.359 70.167 32.3938C70.2947 32.4286 70.4128 32.4846 70.5143 32.5583C70.6157 32.6321 70.6985 32.7222 70.7576 32.8233C70.8168 32.9244 70.8511 33.0344 70.8587 33.1468Z" fill="#263238"/>
<path d="M71.3211 31.1972C71.1906 31.3135 70.3936 30.8233 69.2675 30.8278C68.1415 30.8324 67.3146 31.3043 67.1922 31.1903C67.1323 31.1379 67.2629 30.9327 67.6247 30.7115C68.1115 30.4277 68.6908 30.2764 69.2839 30.2783C69.8697 30.2766 70.4411 30.4307 70.9159 30.7184C71.264 30.9395 71.3837 31.147 71.3211 31.1972Z" fill="#263238"/>
<path d="M75.4283 38.1986C75.4283 38.1438 76.1246 38.0412 77.2588 37.9181C77.5472 37.8908 77.8192 37.8429 77.8681 37.6787C77.9171 37.5146 77.8137 37.2432 77.6723 36.9628C77.4003 36.3814 77.1283 35.7681 76.8182 35.1274C75.6296 32.5145 74.7673 30.3645 74.8924 30.3257C75.0176 30.287 76.0838 32.3777 77.2752 34.986C77.5599 35.632 77.8319 36.2476 78.0912 36.8328C78.2 37.1087 78.3904 37.4188 78.2435 37.7813C78.2016 37.8664 78.1372 37.9424 78.0553 38.0036C77.9733 38.0648 77.8758 38.1096 77.7702 38.1347C77.6116 38.1715 77.4479 38.1907 77.2833 38.1917C76.1436 38.2464 75.4337 38.251 75.4283 38.1986Z" fill="#263238"/>
<path d="M76.704 49.3781C76.704 49.3781 70.7418 49.6859 65.28 46.9521C65.28 46.9521 68.5223 51.763 76.704 51.1086V49.3781Z" fill="#EB996E"/>
<path d="M74.9577 40.4769C74.7429 40.2506 74.4629 40.0741 74.1439 39.964C73.825 39.8539 73.4779 39.8138 73.1353 39.8476C72.887 39.867 72.6458 39.9281 72.4262 40.0272C72.2066 40.1262 72.013 40.2613 71.8569 40.4244C71.7068 40.5822 71.618 40.7747 71.6024 40.9761C71.5869 41.1775 71.6453 41.378 71.7699 41.5507C72.0745 41.911 72.711 41.9908 73.2496 41.8631C73.7814 41.703 74.2703 41.4566 74.6884 41.1381C74.8146 41.0624 74.9234 40.9681 75.0094 40.8599C75.0513 40.8076 75.0736 40.7461 75.0736 40.6832C75.0736 40.6203 75.0513 40.5587 75.0094 40.5065" fill="#EB996E"/>
<path d="M72.1126 38.8576C72.2976 38.8576 72.303 39.8744 73.3502 40.5995C74.3974 41.3245 75.703 41.2105 75.7112 41.3542C75.7302 41.418 75.4228 41.5548 74.8734 41.5685C74.1562 41.5781 73.458 41.3754 72.9014 40.9962C72.3676 40.6317 72.0233 40.1077 71.9412 39.5347C71.895 39.1061 72.031 38.8507 72.1126 38.8576Z" fill="#263238"/>
<path d="M71.8215 28.4562C71.7127 28.7115 70.5866 28.593 69.2647 28.7298C67.9428 28.8666 66.8738 29.1698 66.697 28.9395C66.6182 28.8278 66.8031 28.5861 67.241 28.3376C67.8158 28.0312 68.4663 27.8387 69.1431 27.7746C69.8199 27.7106 70.5053 27.7768 71.147 27.9682C71.6257 28.1324 71.8705 28.333 71.8215 28.4562Z" fill="#263238"/>
<path d="M81.9781 29.2795C81.7796 29.4938 81.0044 29.2795 80.0741 29.2635C79.1439 29.2475 78.3496 29.4117 78.1701 29.1883C78.0912 29.0788 78.2136 28.8622 78.5591 28.6593C79.0193 28.409 79.5614 28.2854 80.1095 28.3059C80.6585 28.3103 81.1917 28.4603 81.6327 28.7345C81.9564 28.9557 82.0652 29.1837 81.9781 29.2795Z" fill="#263238"/>
<path d="M64.6217 18.8823C64.6183 19.5704 64.7958 20.2507 65.1416 20.8748C65.4874 21.4988 65.9931 22.0514 66.6225 22.493C67.252 22.9347 67.9899 23.2547 68.7836 23.4302C69.5774 23.6057 70.4075 23.6324 71.215 23.5084C72.4635 23.3169 73.8289 22.7879 74.9088 23.3465C76.0457 23.9325 76.092 25.3666 77.1011 26.1008C78.54 27.1496 80.8302 26.1646 82.658 26.6206C84.0697 26.9717 84.951 28.1026 85.8894 29.0534C86.8278 30.0041 88.2313 30.9093 89.643 30.5582C89.5532 29.4957 89.4608 28.4195 89.0827 27.4004C88.7046 26.3812 88.011 25.4122 86.9448 24.8285C86.36 24.5093 85.6827 24.3155 85.1387 23.9485C83.9691 23.155 83.6971 21.7756 82.9627 20.6675C82.4865 19.9554 81.8147 19.3486 81.003 18.8974C80.1913 18.4461 79.2631 18.1635 78.2952 18.0729C76.6904 17.9361 75.0312 18.3397 73.4672 18.0091C72.3084 17.7651 71.2912 17.1335 70.1243 16.9466C67.8395 16.5841 65.7179 17.9589 64.0614 19.3269" fill="#263238"/>
<path d="M71.9331 21.6098C70.9077 21.3635 68.816 20.8072 68.272 20.0639C67.0779 18.4451 64.9754 17.3416 62.832 17.4396C61.7203 17.5128 60.6667 17.8854 59.8284 18.5017C58.9901 19.1181 58.4122 19.9453 58.1808 20.8596C55.5805 20.8779 53.0427 22.2459 51.797 24.3047C51.1833 25.3558 50.8837 26.5162 50.924 27.6859C50.9643 28.8557 51.3432 29.9996 52.0282 31.0193C52.3899 31.5392 52.8442 32.059 52.8632 32.6746C52.8632 33.4361 52.2023 34.0426 51.7263 34.6696C50.4343 36.3887 50.5295 38.7485 51.5304 40.6181C52.5314 42.4877 53.2359 43.1489 54.6611 43.5228C57.4464 44.257 54.6775 48.9538 59.3123 48.9538L60.248 35.0321C60.3839 35.0939 60.5295 35.1392 60.6805 35.1666C63.425 35.6865 63.7867 31.1949 63.1747 29.909C64.1675 29.1702 65.1712 28.4224 65.9301 27.483C66.689 26.5437 67.3527 23.9855 67.1922 22.8318C68.1687 22.882 72.3819 21.7169 71.9331 21.6098Z" fill="#263238"/>
<path d="M60.4356 35.6022C60.3486 34.1453 58.4555 33.1717 56.9486 33.9036C56.1326 34.3026 55.4879 35.1097 55.5641 36.6555C55.7599 40.7801 60.6559 39.7586 60.6559 39.6401C60.6695 39.5671 60.5363 37.3076 60.4356 35.6022Z" fill="#FFCCB0"/>
<path d="M59.0893 38.1286C59.0648 38.1286 59.0049 38.1834 58.8635 38.2426C58.6627 38.3228 58.4328 38.335 58.2216 38.2768C57.6939 38.1355 57.2233 37.4583 57.1635 36.715C57.1325 36.3618 57.1966 36.0073 57.3512 35.6776C57.3916 35.5473 57.4691 35.4271 57.5772 35.3275C57.6852 35.2278 57.8204 35.1516 57.9713 35.1054C58.0683 35.0801 58.1728 35.084 58.2667 35.1165C58.3606 35.1489 58.4379 35.2079 58.4854 35.2832C58.5561 35.3972 58.5289 35.4816 58.5561 35.4861C58.5833 35.4907 58.6595 35.4132 58.6105 35.2444C58.578 35.1434 58.505 35.0549 58.4038 34.9936C58.3349 34.9531 58.2572 34.9244 58.175 34.9092C58.0929 34.8939 58.0079 34.8924 57.9251 34.9047C57.547 34.9389 57.2206 35.2444 57.0601 35.575C56.8694 35.9399 56.7873 36.3382 56.8208 36.7356C56.8915 37.5655 57.4382 38.3316 58.159 38.4729C58.2926 38.5005 58.4319 38.5026 58.5666 38.4789C58.7013 38.4552 58.8278 38.4064 58.9369 38.3361C59.0838 38.229 59.1056 38.1355 59.0893 38.1286Z" fill="#EB996E"/>
<path d="M86.292 17.9181C86.3009 17.9992 86.3009 18.0809 86.292 18.162C86.2678 18.4021 86.1834 18.6352 86.0445 18.846C85.8284 19.1756 85.5205 19.4564 85.1469 19.6646C84.6538 19.9476 84.0741 20.1059 83.4768 20.1206C82.7559 20.1278 82.0426 19.9976 81.3905 19.7398C80.6497 19.4465 79.9546 19.0782 79.3206 18.6431C78.6406 18.2008 77.9606 17.7038 77.1827 17.2751C76.3819 16.8317 75.4971 16.5056 74.5661 16.3107C73.6352 16.1146 72.6671 16.0759 71.7182 16.1967C70.8372 16.317 69.9965 16.592 69.2512 17.0038C68.5747 17.3748 67.9992 17.8611 67.5621 18.4311C67.1007 19.0438 66.8356 19.7459 66.7922 20.4696C66.7489 21.1932 66.9288 21.914 67.3145 22.5624C67.4912 22.8396 67.6998 23.1015 67.9374 23.3445C67.9374 23.3445 67.9184 23.3445 67.8857 23.3012C67.8531 23.2578 67.7987 23.2214 67.7389 23.1666C67.5574 22.9823 67.3988 22.7829 67.2656 22.5716C66.7787 21.7982 66.595 20.9158 66.7406 20.0499C66.8322 19.4517 67.0761 18.8771 67.456 18.365C67.8984 17.7803 68.4833 17.2807 69.1723 16.8989C69.9315 16.4746 70.7904 16.1916 71.691 16.069C72.6576 15.9428 73.6446 15.9808 74.5933 16.1807C75.5387 16.3798 76.4365 16.7129 77.248 17.1657C78.0341 17.6012 78.7141 18.1028 79.3913 18.5337C80.0146 18.9668 80.6988 19.3343 81.4286 19.6281C82.0641 19.882 82.7592 20.0136 83.4632 20.0134C84.0443 20.0056 84.6106 19.8584 85.0952 19.5893C85.4635 19.3901 85.7702 19.1205 85.9901 18.8027C86.1286 18.6007 86.2209 18.3788 86.2621 18.1484C86.2865 18.0116 86.2838 17.9181 86.292 17.9181Z" fill="white"/>
<path d="M52.496 37.9025C52.4593 37.8657 52.4282 37.8251 52.4035 37.7817C52.3268 37.6627 52.2605 37.5393 52.205 37.4123C52.0352 37.0142 51.9632 36.5913 51.9934 36.1692C52.0236 35.7472 52.1554 35.3346 52.3808 34.9563C52.6062 34.578 52.9205 34.2418 53.3049 33.968C53.6893 33.6942 54.1358 33.4885 54.6176 33.3631C55.1563 33.2297 55.7128 33.1531 56.2741 33.1351C57.4165 33.0803 58.5126 33.1031 59.4538 32.866C60.286 32.6535 61.0317 32.2518 61.608 31.7055C61.9986 31.3382 62.3073 30.915 62.5192 30.4561C62.6661 30.1277 62.7069 29.9362 62.7232 29.9385C62.7205 29.9863 62.7114 30.0337 62.696 30.0799C62.6662 30.2123 62.6244 30.3426 62.5709 30.4697C62.377 30.9437 62.076 31.3818 61.6842 31.7602C61.1037 32.3285 60.3439 32.7481 59.4918 32.9709C58.5235 33.2194 57.4138 33.1989 56.2822 33.2536C55.729 33.2722 55.1807 33.3488 54.6502 33.4816C54.162 33.6054 53.7105 33.8144 53.3256 34.0949C52.6659 34.5722 52.2309 35.2311 52.0989 35.9531C52.014 36.4395 52.0642 36.9358 52.2458 37.4032C52.3736 37.7293 52.496 37.8957 52.496 37.9025Z" fill="white"/>
<path d="M68.5168 30.0186C67.4329 30.1887 66.4248 30.6033 65.601 31.2178C65.9514 30.8501 66.3946 30.5519 66.8987 30.3445C67.4028 30.1372 67.9553 30.0259 68.5168 30.0186Z" fill="#EB996E"/>
<path d="M83.2048 30.8433C82.8864 30.6037 82.5348 30.397 82.1576 30.2277C81.7619 30.0928 81.3482 29.9987 80.9254 29.9473C81.3676 29.9003 81.8166 29.9596 82.2201 30.1182C82.6236 30.2769 82.9651 30.5283 83.2048 30.8433Z" fill="#EB996E"/>
<path d="M71.3402 39.3179C71.3239 39.3179 71.2831 39.2335 71.2967 39.0899C71.3206 38.8951 71.4156 38.7112 71.5687 38.5632C71.7192 38.4133 71.9217 38.3065 72.148 38.2577C72.3221 38.2235 72.4336 38.2417 72.4336 38.2577C72.4336 38.2736 72.3303 38.2896 72.1807 38.3398C71.9862 38.4054 71.8136 38.5094 71.6775 38.643C71.5439 38.7742 71.4505 38.9307 71.4055 39.099C71.3592 39.229 71.362 39.3156 71.3402 39.3179Z" fill="#EB996E"/>
<path d="M69.9611 39.7739C69.8819 39.6623 69.8414 39.5344 69.8442 39.4045C69.8199 39.09 69.9151 38.7771 70.1162 38.5108C70.3191 38.2459 70.6159 38.041 70.9648 37.9248C71.1043 37.8684 71.2594 37.8448 71.4136 37.8564C71.4136 37.8769 71.2477 37.902 71.0056 38.0023C70.6899 38.1285 70.4231 38.3268 70.236 38.5745C70.0488 38.8222 69.9488 39.1091 69.9475 39.4022C69.9394 39.628 69.9829 39.767 69.9611 39.7739Z" fill="#EB996E"/>
<path d="M50.3988 28.1625C50.4023 28.1032 50.4132 28.0443 50.4314 27.9869C50.4775 27.8209 50.5536 27.6617 50.6572 27.515C51.0562 26.9743 51.682 26.5782 52.4116 26.4046C52.9108 26.2822 53.4338 26.2427 53.9511 26.2883C54.5406 26.3423 55.1198 26.4572 55.6756 26.6303C56.8534 26.9723 58.042 27.5606 59.4183 27.8592C60.7177 28.1456 62.0978 28.0155 63.2889 27.4944C64.2617 27.0733 65.053 26.4076 65.5519 25.5906C65.8903 25.0418 66.0946 24.4418 66.153 23.8259C66.1699 23.6584 66.1763 23.4902 66.1721 23.322C66.1685 23.2636 66.1685 23.205 66.1721 23.1465C66.1893 23.2039 66.1984 23.2628 66.1993 23.322C66.2141 23.4913 66.2141 23.6612 66.1993 23.8305C66.1607 24.4564 65.9681 25.0689 65.6335 25.6294C65.1373 26.4678 64.3376 27.1533 63.3487 27.5879C62.1314 28.1266 60.7174 28.2633 59.3857 27.971C57.9794 27.6654 56.7935 27.059 55.6294 26.7284C55.0854 26.5553 54.5181 26.439 53.9402 26.3818C53.4378 26.3326 52.9288 26.3659 52.4415 26.4798C51.729 26.6415 51.1117 27.0162 50.7062 27.5332C50.5673 27.7292 50.4638 27.9412 50.3988 28.1625Z" fill="white"/>
<path d="M99.2337 106.426C99.2337 106.426 94.1772 93.0241 91.8707 88.3775L92.9859 78.5438L97.4575 63.0079L92.0175 57.7913L75.2814 54.0498L59.0756 54.426C59.0756 54.426 46.1121 56.6718 43.0276 58.6258C40.6939 60.1078 46.7758 82.3378 47.9073 90.9037C47.415 91.7086 43.9171 99.7547 41.9832 106.426H99.2337Z" fill="#667499"/>
<path d="M47.1158 66.4138C47.0777 66.4275 46.3869 65.1073 45.5736 63.4703C44.7603 61.8333 44.1238 60.4903 44.1619 60.4767C44.2 60.463 44.88 61.7877 45.696 63.4224C46.512 65.0572 47.1512 66.4024 47.1158 66.4138Z" fill="#263238"/>
<path d="M92.3957 83.1058C92.1237 82.7159 99.6744 91.7105 102.522 92.7365C105.242 93.7169 112.611 93.5801 113.595 92.7365C114.58 91.8929 116.454 84.8067 116.022 82.6156C115.589 80.4245 112.894 76.9521 112.894 76.9521L92.1292 57.8525L92.4012 83.1058" fill="#667499"/>
<g opacity="0.3">
<path d="M46.7159 86.3342C47.4966 84.9981 48.9654 84.0542 50.2873 83.0646C51.6092 82.0751 52.8931 80.8622 53.0699 79.3802C53.1297 78.8763 53.0699 78.3245 53.399 77.9004C53.943 77.2164 55.1017 77.2438 56.0211 76.9884C56.5111 76.8431 56.9525 76.6017 57.3088 76.2844C57.665 75.9672 57.9257 75.5832 58.0692 75.1644C58.2433 74.6446 58.2324 74.0678 58.567 73.6049C59.0729 72.9072 60.199 72.7157 61.1591 72.7796C64.4585 72.9962 66.9963 75.2465 70.0345 76.3455C73.8425 77.7249 78.5753 77.1161 81.6407 74.7814L77.0167 75.5156C75.4011 75.7732 73.731 76.0286 72.1207 75.7185C70.2711 75.3605 68.7507 74.298 67.1214 73.4795C65.1303 72.4809 62.9244 71.8311 60.7348 71.1858L54.0409 69.2182C52.7598 68.8397 51.4161 68.4567 50.0724 68.6163C49.2789 68.7191 48.5345 69.0033 47.9213 69.4377C47.308 69.8722 46.8495 70.44 46.5963 71.0787C47.8284 71.4207 49.1694 71.252 50.4559 71.1038C51.7425 70.9556 53.1025 70.837 54.2966 71.2679C55.4907 71.6988 56.3964 72.8776 55.9123 73.8876C55.254 75.2556 52.8305 75.2716 51.6935 76.3956C51.0407 77.0409 50.9238 77.9369 50.7035 78.7623C49.9772 81.4983 47.9209 83.8535 45.9163 86.1107" fill="black"/>
</g>
<path d="M51.1169 68.7557C51.1169 68.7557 64.2246 72.4174 64.9889 72.659C65.8974 72.944 67.1105 73.4753 67.2846 73.7648C67.4587 74.0544 70.4398 76.2181 74.0003 76.0266C77.5608 75.8351 81.4041 74.6791 81.4041 74.6791C81.4041 74.6791 81.0587 74.2938 79.6252 74.1502C78.1918 74.0065 72.2187 74.4397 69.7516 74.1023C69.7516 74.1023 69.2076 74.2824 67.2329 73.1561C66.5133 72.7791 65.7484 72.4666 64.9508 72.2236C63.7377 71.8702 57.5388 69.9846 57.5388 69.9846L50.4152 67.415L51.1169 68.7557Z" fill="#E0E0E0"/>
<path d="M51.1169 68.7557L51.068 68.6736L50.932 68.4183L50.388 67.4242L50.3662 67.3809L50.4179 67.3991C51.9438 67.9326 54.4843 68.8606 57.8027 70.0211L63.4249 71.7106C64.4368 72.0275 65.5357 72.2943 66.5638 72.7708C66.8358 72.8893 67.0779 72.9988 67.3308 73.147C67.5838 73.2952 67.8259 73.4183 68.0843 73.5437C68.3423 73.6712 68.6094 73.7854 68.884 73.8857C69.022 73.9353 69.1637 73.9772 69.3083 74.0111C69.4415 74.0474 69.5822 74.0606 69.7217 74.0499H69.7462C70.584 74.1413 71.4283 74.184 72.2731 74.1775C73.138 74.1775 74.0193 74.1775 74.9142 74.1479L77.6342 74.0772C78.0966 74.0772 78.5617 74.0613 79.0296 74.0772C79.5051 74.082 79.9781 74.1348 80.4385 74.2345C80.809 74.3009 81.1528 74.4461 81.4368 74.6563L81.5075 74.7179L81.4041 74.7498C80.3352 75.0553 79.2662 75.3107 78.2027 75.525C77.1542 75.7404 76.0916 75.9041 75.0203 76.0152C74.4991 76.0732 73.9739 76.1029 73.4481 76.1041C73.1761 76.1041 72.9259 76.0791 72.6675 76.0677C72.4091 76.0563 72.1561 76.0061 71.9059 75.9582C70.9291 75.7751 69.9916 75.4675 69.1261 75.0462C68.7064 74.8476 68.3046 74.6235 67.9238 74.3759C67.7337 74.2547 67.5521 74.1246 67.3798 73.986C67.339 73.9473 67.2955 73.9153 67.2574 73.8743L67.2003 73.8059L67.1568 73.7535C67.0852 73.684 67.004 73.6219 66.9147 73.5688C66.5473 73.3539 66.1577 73.1669 65.7505 73.0102C65.3581 72.8516 64.9527 72.7168 64.5374 72.6066L60.0005 71.3207L53.4725 69.4602L51.7045 68.9518L51.2448 68.8173L51.0925 68.7694C51.0925 68.7694 51.1496 68.7808 51.2557 68.8104L51.7208 68.9358L53.5051 69.426L60.063 71.25L64.6163 72.504C65.0355 72.6143 65.4445 72.7499 65.8403 72.9099C66.2553 73.0677 66.6523 73.257 67.0262 73.4753C67.1265 73.5333 67.2178 73.6015 67.2982 73.6782L67.3526 73.7466L67.3988 73.7991C67.4315 73.8333 67.4723 73.8675 67.5104 73.9017C67.6775 74.0362 67.8537 74.1625 68.038 74.2801C68.4128 74.5248 68.8092 74.745 69.224 74.9391C70.0794 75.3542 71.006 75.6564 71.9712 75.8351C72.216 75.8853 72.4689 75.9058 72.7192 75.9423C72.9694 75.9787 73.2278 75.9833 73.4835 75.9787C74.0039 75.9753 74.5235 75.9448 75.0393 75.8875C76.1043 75.7772 77.1606 75.6142 78.2027 75.3996C79.2635 75.1876 80.3325 74.9299 81.3905 74.6267L81.3579 74.7179C81.0929 74.5245 80.7738 74.3903 80.4304 74.328C79.5273 74.1183 78.5889 74.1753 77.6696 74.1821L74.9496 74.2505C74.052 74.271 73.1707 74.287 72.303 74.2801C71.4509 74.2848 70.5993 74.2406 69.7544 74.1479H69.7897C69.7002 74.1647 69.6073 74.1647 69.5177 74.1479C69.4385 74.1399 69.3602 74.1262 69.2838 74.1069C69.1337 74.0717 68.9865 74.0283 68.8432 73.9769C68.5631 73.8744 68.2906 73.758 68.0272 73.6281C67.7552 73.5004 67.5131 73.3636 67.2656 73.2268C67.0181 73.09 66.7678 72.9714 66.5121 72.8551C65.4976 72.3809 64.4096 72.1164 63.3923 71.7949L57.7755 70.0872C54.4625 68.9153 51.9248 67.9714 50.4097 67.4219L50.4397 67.3968L50.9456 68.3955C51 68.5072 51.0435 68.5915 51.0734 68.6554C51.0906 68.6879 51.1052 68.7215 51.1169 68.7557Z" fill="#263238"/>
<path d="M78.8365 75.0254C79.2418 74.9798 78.0205 75.0573 77.6397 74.9365C77.3894 74.859 77.2262 74.6355 76.9678 74.574C76.7094 74.5124 76.3613 74.6492 76.1165 74.5215C76.0273 74.4564 75.9577 74.3745 75.9133 74.2827C75.8689 74.1908 75.8509 74.0914 75.8608 73.9926C75.7411 72.563 75.6459 70.9625 75.9179 69.5489C75.9179 69.5489 75.7547 68.9789 75.6078 68.9766C75.461 68.9743 75.1155 69.1704 75.0965 69.8567C75.2311 71.0072 75.242 72.1655 75.1291 73.3177C75.1185 73.5219 75.0699 73.7235 74.985 73.9151C74.9409 74.0111 74.8731 74.0981 74.7859 74.1705C74.6986 74.2428 74.594 74.2987 74.479 74.3346C74.1608 74.4212 73.8072 74.2913 73.4862 74.3711C73.2693 74.4577 73.0602 74.5575 72.8606 74.6697C72.51 74.7666 72.1363 74.7894 71.7726 74.7359C71.4027 74.7176 70.9866 74.7518 70.7472 74.9889C70.7418 74.9889 73.6277 75.6068 78.8365 75.0254Z" fill="#667499"/>
<g opacity="0.3">
<path d="M75.7465 70.4357C76.3096 70.9031 77.2398 70.5337 78.0313 70.495C79.5001 70.422 80.7731 71.6031 82.231 71.4571C83.1939 71.3614 83.9854 70.7025 84.951 70.6318C85.9166 70.5611 86.8333 71.122 87.671 71.5985C88.5088 72.075 89.575 72.5105 90.4726 72.1366C91.8843 73.0691 93.0213 74.1339 93.1627 75.6364C93.1791 76.3259 93.2702 77.0127 93.4347 77.6884C93.655 78.4134 94.2181 79.4759 95.1129 79.4736C95.1401 76.7559 94.9334 74.1156 93.3803 71.7216C92.7598 70.7218 91.8176 69.8877 90.6603 69.314C89.0609 68.5616 87.1243 68.5 85.2992 68.63C83.4741 68.7599 81.6544 69.086 79.8184 69.0153C78.9616 68.9834 78.0885 68.8716 77.2561 69.0449C76.4238 69.2182 75.6241 69.7905 75.6241 70.5087" fill="black"/>
</g>
<path d="M105.536 75.9964C103.801 74.446 99.9762 70.8938 99.9762 70.8938C99.9762 70.8938 101.309 64.2179 101.595 63.0209C101.88 61.8239 100.327 61.5571 100.327 61.5571L97.8193 59.7468L97.501 58.6296L95.0993 56.8604C95.0993 56.8604 93.1137 57.0382 92.741 56.9538C92.5132 56.8907 92.2705 56.8748 92.0337 56.9074C91.7969 56.9399 91.5729 57.02 91.381 57.1408H89.8878L87.7553 57.9114L85.3644 58.8736C85.3644 58.8736 83.3516 59.4254 82.9926 60.3898C82.9141 60.5882 82.9287 60.8042 83.0334 60.994C83.1565 61.2146 83.3715 61.3899 83.638 61.4869C83.9045 61.5839 84.2041 61.5959 84.4804 61.5207L90.2278 60.0318L95.8527 66.3657L87.6111 68.8554C87.6111 68.8554 87.4697 69.0515 87.5948 69.6626C87.7199 70.2736 88.5794 70.5153 89.0881 70.6475C89.5967 70.7797 90.2305 70.2918 90.2305 70.2918C90.2305 70.2918 90.2305 70.5404 90.8017 71.2358C91.3729 71.9312 93.0947 72.6038 93.0947 72.6038L95.1156 79.4438C95.1156 79.4438 95.1809 79.5053 95.3087 79.6102C95.9641 80.1396 96.7505 80.5415 97.6122 80.7871C98.4739 81.0328 99.3896 81.1163 100.294 81.0316C101.199 80.9469 102.07 80.6962 102.846 80.2972C103.621 79.8982 104.283 79.3608 104.782 78.7233C105.598 77.7132 106.189 76.5824 105.536 75.9964Z" fill="#FFCCB0"/>
<path d="M42.9325 58.7002C42.9325 58.7002 27.3414 79.4482 26.2344 81.0442C25.1273 82.6402 22.7936 91.3407 25.5326 93.8874C27.7467 95.9394 30.4069 99.0904 36.5622 97.3371C42.7176 95.5838 47.9862 84.031 47.9862 84.031L46.3297 80.9849L42.9325 58.7002Z" fill="#667499"/>
<path d="M58.2134 55.0074V50.7324L77.9143 50.9923L78.918 55.4064H58.4881" fill="#667499"/>
<path d="M50.951 66.8881L48.3207 66.6807L42.6087 68.0669C41.9505 68.2151 41.3766 68.5001 41.0964 69.0222C40.6395 69.8727 41.1236 71.1745 42.1219 71.7012L41.9886 74.1363L42.7447 75.3378L43.0439 76.854L44.2516 77.2325L46.1747 78.8764L49.678 78.3064L55.6838 75.1919C55.6838 75.1919 57.1689 74.3597 57.0111 73.3679C56.9377 72.8982 55.9231 73.1125 55.9231 73.1125V72.2461C55.9231 72.2461 56.8398 71.7537 56.7691 71.1859C56.6875 70.5316 56.2115 70.3059 55.5315 70.1782C54.8515 70.0505 49.6671 70.1599 49.6671 70.1599L46.3515 70.4769L48.7995 69.4828C48.7995 69.4828 50.6599 69.1431 51.3291 69.0678C52.0662 68.9835 52.7924 68.8603 52.6727 68.0122C52.6772 67.8499 52.6211 67.6905 52.5123 67.5562C52.3327 67.35 52.0979 67.1822 51.8267 67.0661C51.5554 66.9501 51.2555 66.8891 50.951 66.8881Z" fill="#FFCCB0"/>
<path d="M47.0043 64.7515L48.1712 65.0342C48.1712 65.0342 49.5312 65.6657 48.3208 66.6758L45.0731 67.5399L42.8264 68.119L42.9543 67.1227C42.9527 66.7135 43.0749 66.3107 43.3094 65.9519C43.5439 65.593 43.8831 65.2899 44.2952 65.0707C44.6936 64.8588 45.1414 64.7208 45.6086 64.6657C46.0758 64.6107 46.5517 64.6399 47.0043 64.7515Z" fill="#FFCCB0"/>
<path d="M55.9341 72.2415L54.2205 72.4695C53.1624 72.6131 51.6963 72.8024 50.0861 73.0509C48.7109 73.2532 47.3626 73.5679 46.0605 73.9902L44.88 74.3619C44.7362 74.4136 44.588 74.4563 44.4366 74.4896C44.5717 74.4241 44.7127 74.3677 44.8582 74.3208C45.1302 74.2182 45.5328 74.0746 46.0333 73.9082C47.3321 73.4612 48.6845 73.1325 50.067 72.9278C51.68 72.6815 53.1515 72.5037 54.215 72.3828C55.2786 72.262 55.9395 72.2073 55.9341 72.2415Z" fill="#EB996E"/>
<path d="M55.8497 73.2061C55.8497 73.2061 55.8198 73.2311 55.76 73.2653C55.7001 73.2995 55.6104 73.3565 55.488 73.4181C55.1468 73.5922 54.7945 73.7505 54.4326 73.8923C53.5269 74.2685 52.2049 74.663 50.9456 75.4017C50.3436 75.7402 49.7063 76.0325 49.0416 76.2749C48.4894 76.4645 47.9094 76.591 47.3171 76.6511C46.9191 76.6913 46.5176 76.7005 46.1176 76.6785C45.9761 76.6785 45.8673 76.658 45.7939 76.6489C45.7205 76.6397 45.6797 76.6329 45.6824 76.6283C45.8282 76.6219 45.9744 76.6219 46.1203 76.6283C46.5161 76.6348 46.9119 76.6134 47.3035 76.5645C47.884 76.494 48.4515 76.3622 48.9926 76.1723C49.6497 75.9271 50.2803 75.635 50.8776 75.2991C51.2013 75.1258 51.5168 74.948 51.8377 74.8021C52.1587 74.6561 52.4742 74.5262 52.7789 74.4099L54.4109 73.8125C54.8705 73.6415 55.2269 73.4888 55.4798 73.3748C55.5983 73.3114 55.7219 73.255 55.8497 73.2061Z" fill="#EB996E"/>
<path d="M46.0007 70.4697C46.0007 70.5039 45.1384 70.7114 44.0967 71.0534C43.0549 71.3954 42.2471 71.7374 42.228 71.7009C42.383 71.5957 42.5541 71.5083 42.7367 71.441C43.1609 71.2535 43.5977 71.0868 44.045 70.9417C44.4894 70.7948 44.9435 70.6692 45.405 70.5655C45.5974 70.5109 45.7978 70.4787 46.0007 70.4697Z" fill="#EB996E"/>
<path d="M48.3208 66.6807C48.0951 66.7664 47.8601 66.8336 47.619 66.8814L46.8438 67.0683C46.5277 67.1523 46.2038 67.2141 45.8755 67.253C45.785 67.2598 45.694 67.2598 45.6035 67.253C45.51 67.2427 45.4185 67.222 45.3315 67.1915C45.179 67.1427 45.0339 67.0792 44.899 67.0022C44.6732 66.8719 44.4716 66.7144 44.3006 66.5348C44.1845 66.4154 44.0833 66.2863 43.9987 66.1495C43.9622 66.1018 43.9381 66.0482 43.928 65.9922C43.9497 65.9922 44.0749 66.1974 44.3768 66.4801C44.5514 66.6454 44.7518 66.7904 44.9725 66.911C45.1012 66.98 45.2379 67.0381 45.3805 67.0843C45.4533 67.1079 45.529 67.1247 45.6062 67.1345C45.6876 67.1413 45.7696 67.1413 45.851 67.1345C46.1731 67.0969 46.4914 67.039 46.803 66.9612L47.6 66.8039C47.8352 66.7444 48.0765 66.7032 48.3208 66.6807Z" fill="#EB996E"/>
<path d="M42.9895 75.5566L42.9596 77.7979L36.6655 81.8335L44.9398 88.6735C44.9398 88.6735 49.4713 82.1914 50.5865 80.8827C51.7017 79.574 51.9655 78.906 52.0498 78.1353C52.1022 77.7002 52.1022 77.2617 52.0498 76.8266L42.9895 75.5566Z" fill="#FFCCB0"/>
<path d="M48.7316 78.6146C48.6956 78.6332 48.6572 78.6485 48.6173 78.6602C48.5412 78.6876 48.4269 78.7263 48.2773 78.7719C47.8557 78.9089 47.4153 79.0008 46.9663 79.0455C46.6519 79.073 46.3342 79.0537 46.0279 78.9885C45.6743 78.9091 45.3469 78.7633 45.0704 78.5622C44.4578 78.0873 44.0439 77.4598 43.89 76.7724C43.7866 76.4167 43.7458 76.061 43.6479 75.735C43.5736 75.4202 43.3933 75.1298 43.1283 74.8982C42.8754 74.6702 42.5844 74.4969 42.364 74.2712C42.1639 74.0615 42.036 73.81 41.9941 73.5439C41.9465 73.1654 41.9825 72.7828 42.1002 72.4153C42.1383 72.2853 42.1736 72.1873 42.1981 72.1189C42.207 72.0836 42.2226 72.0497 42.2443 72.0186C42.2443 72.0186 42.2144 72.1645 42.1546 72.4244C42.0605 72.7875 42.0393 73.1612 42.092 73.5302C42.1361 73.782 42.2622 74.0187 42.4565 74.2142C42.6632 74.424 42.9543 74.5972 43.2236 74.8252C43.5062 75.0655 43.7031 75.3671 43.792 75.6962C43.8927 76.0359 43.9362 76.3802 44.0368 76.7359C44.183 77.4003 44.5785 78.0081 45.1656 78.471C45.4249 78.6636 45.7326 78.8046 46.066 78.8836C46.359 78.9502 46.6637 78.9734 46.9663 78.952C47.4083 78.9163 47.8443 78.8398 48.2664 78.724C48.4186 78.6795 48.5739 78.6429 48.7316 78.6146Z" fill="#EB996E"/>
<path d="M47.5238 81.909C47.4383 81.941 47.3455 81.9573 47.2518 81.9569C46.9907 81.9664 46.73 81.9323 46.4848 81.8566C46.1226 81.7412 45.7901 81.5686 45.5056 81.3481C45.1622 81.0805 44.8473 80.7884 44.5645 80.4749C44.0414 79.913 43.6003 79.3006 43.2507 78.6509C43.1202 78.4024 43.0277 78.1949 42.9787 78.0512C42.9425 77.9782 42.9179 77.9016 42.9053 77.8232C42.927 77.8232 43.0685 78.131 43.3541 78.6167C43.724 79.2493 44.1707 79.8482 44.6869 80.4042C44.9647 80.7121 45.2712 81.0011 45.6035 81.2683C45.872 81.4856 46.1866 81.6588 46.531 81.779C46.8472 81.8808 47.1857 81.9251 47.5238 81.909Z" fill="#EB996E"/>
<g opacity="0.6">
<path d="M78.8365 75.0254C79.2418 74.9798 78.0205 75.0573 77.6397 74.9365C77.3894 74.859 77.2262 74.6355 76.9678 74.574C76.7094 74.5124 76.3613 74.6492 76.1165 74.5215C76.0273 74.4564 75.9577 74.3745 75.9133 74.2827C75.8689 74.1908 75.8509 74.0914 75.8608 73.9926C75.7411 72.563 75.6459 70.9625 75.9179 69.5489C75.9179 69.5489 75.7547 68.9789 75.6078 68.9766C75.461 68.9743 75.1155 69.1704 75.0965 69.8567C75.2311 71.0072 75.242 72.1655 75.1291 73.3177C75.1185 73.5219 75.0699 73.7235 74.985 73.9151C74.9409 74.0111 74.8731 74.0981 74.7859 74.1705C74.6986 74.2428 74.594 74.2987 74.479 74.3346C74.1608 74.4212 73.8072 74.2913 73.4862 74.3711C73.2693 74.4577 73.0602 74.5575 72.8606 74.6697C72.51 74.7666 72.1363 74.7894 71.7726 74.7359C71.4027 74.7176 70.9866 74.7518 70.7472 74.9889C70.7418 74.9889 73.6277 75.6068 78.8365 75.0254Z" fill="white"/>
</g>
<path d="M79.5082 89.6748C79.5082 89.6748 79.4892 89.6862 79.4511 89.7022L79.277 89.7751L78.6079 90.0396L78.1156 90.2288C77.9361 90.2927 77.7348 90.3565 77.5199 90.4295C77.0902 90.5686 76.606 90.7441 76.0511 90.8855L75.1889 91.1294C74.887 91.2138 74.566 91.2799 74.2396 91.3574C73.5841 91.5262 72.8796 91.6538 72.1234 91.7998C70.4894 92.0792 68.8345 92.265 67.1703 92.3561C65.5058 92.4308 63.8371 92.408 62.1764 92.2877C61.4121 92.217 60.6831 92.16 60.0004 92.0597C59.6631 92.0118 59.3367 91.9753 59.0266 91.9229L58.1345 91.7656C57.5633 91.6744 57.0465 91.5376 56.6113 91.4509C56.3882 91.4008 56.1815 91.3574 55.9911 91.3096L55.4879 91.1773L54.778 90.9812L54.5958 90.9265C54.5732 90.9227 54.5519 90.9149 54.5332 90.9037L54.5985 90.9151L54.7862 90.9584L55.5042 91.134L56.021 91.2617C56.2114 91.3073 56.4209 91.346 56.6412 91.3939C57.09 91.4828 57.5932 91.6037 58.1644 91.6903L59.0566 91.8385C59.3666 91.8887 59.693 91.9229 60.0303 91.9685C60.6994 92.0665 61.4257 92.119 62.1873 92.1965C65.4961 92.4346 68.8287 92.2672 72.0799 91.6994C72.8252 91.5558 73.5378 91.4327 74.1906 91.2708C74.5198 91.191 74.838 91.1272 75.1399 91.0428L76.0049 90.8148C76.5489 90.6734 77.0439 90.5047 77.4737 90.3725C77.6886 90.3018 77.8926 90.2425 78.0748 90.181L78.5698 90.0008L79.258 89.7569L79.4375 89.6953L79.5082 89.6748Z" fill="#263238"/>
<path d="M86.175 92.6608C86.175 92.6608 86.1532 92.6608 86.1097 92.6608H85.9193L85.1903 92.622C84.8748 92.6015 84.4886 92.5787 84.0371 92.5605C83.5855 92.5422 83.0769 92.5126 82.5084 92.4989C81.3769 92.4579 80.0251 92.4396 78.5263 92.4465C77.0276 92.4533 75.3793 92.508 73.6548 92.6083C71.9303 92.7087 70.2875 92.8546 68.8159 93.0233C67.3444 93.192 65.9953 93.3699 64.8801 93.5431C64.3361 93.6229 63.8193 93.7119 63.3759 93.7825C62.9326 93.8532 62.5599 93.9216 62.2444 93.9786L61.5291 94.1017L61.3441 94.1314H61.2788L61.3386 94.1131L61.5236 94.0721L62.2335 93.9262C62.5409 93.8623 62.919 93.7871 63.3623 93.7119C63.8057 93.6366 64.3035 93.5386 64.8611 93.4519C65.9763 93.2695 67.309 93.0826 68.7969 92.907C70.2847 92.7315 71.9276 92.5901 73.6575 92.4852C75.3874 92.3803 77.0385 92.3416 78.5399 92.3325C80.0414 92.3233 81.3932 92.3598 82.5275 92.41C83.0932 92.4282 83.6155 92.4647 84.0561 92.4898C84.4967 92.5149 84.8938 92.5445 85.2094 92.5696L85.9356 92.6334L86.126 92.6517L86.175 92.6608Z" fill="#263238"/>
<path d="M34.903 81.2198C34.903 81.238 34.5494 81.165 33.9837 81.0784C32.5044 80.8521 30.9922 80.8198 29.5011 80.9826C28.9299 81.0442 28.579 81.1012 28.5736 81.083C28.6495 81.0501 28.7313 81.0278 28.8157 81.0168C28.9707 80.9826 29.2019 80.9416 29.4875 80.8983C30.9863 80.689 32.5189 80.7223 34.0027 80.9963C34.2747 81.051 34.5114 81.1012 34.6664 81.1445C34.749 81.1604 34.8286 81.1857 34.903 81.2198Z" fill="#263238"/>
<path d="M77.6722 69.6631L78.831 69.3234C79.4964 69.6911 80.2459 69.9385 81.0317 70.05C81.8175 70.1615 82.6224 70.1346 83.3951 69.9709C86.0444 69.4146 96.0921 66.4529 96.0921 66.4529C95.9931 65.576 95.7964 64.7089 95.5046 63.8628C94.9878 62.2896 93.5516 59.1729 93.5516 59.1729L81.0396 62.4127C81.0396 62.4127 78.7575 63.2153 77.6532 65.0347L77.286 65.4907L76.6604 65.5819" fill="#E0E0E0"/>
<path d="M76.6604 65.5885L76.8154 65.5589L77.2833 65.4836L77.645 65.0162C77.9414 64.5283 78.3278 64.0828 78.7902 63.6961C79.4384 63.1452 80.1982 62.6951 81.0342 62.3669L93.5462 59.111L93.6087 59.0928L93.6305 59.1452C94.1745 60.3285 94.7185 61.5597 95.219 62.8365C95.6992 64.0048 96.0204 65.2148 96.1764 66.4435V66.4868L96.1274 66.5005C92.0474 67.6929 88.3564 68.7486 85.3562 69.5329C84.6082 69.7244 83.901 69.9068 83.2319 70.0322C82.6112 70.1452 81.9723 70.1707 81.3415 70.1075C80.4408 70.0234 79.5781 69.7566 78.8282 69.33H78.85L77.9714 69.5785L77.7538 69.6378L77.6831 69.6537C77.7048 69.6435 77.7275 69.6351 77.7511 69.6287L77.9633 69.5625L78.8337 69.2958C79.5831 69.7057 80.438 69.9605 81.3279 70.0391C81.9505 70.0958 82.5799 70.0665 83.1911 69.9524C83.8521 69.8247 84.5511 69.6378 85.3046 69.4417C88.2966 68.6483 91.9822 67.5812 96.0594 66.3865L96.0132 66.4458C95.8562 65.2273 95.5368 64.0274 95.0612 62.8685C94.558 61.5939 94.014 60.3605 93.4782 59.1817L93.5625 59.2159L81.0559 62.4489C80.2285 62.7687 79.4745 63.2078 78.8282 63.7463C78.3656 64.1263 77.9756 64.5638 77.6722 65.0436C77.5254 65.2214 77.4002 65.3765 77.2996 65.4996L76.829 65.5611C76.7039 65.5862 76.6604 65.5885 76.6604 65.5885Z" fill="#263238"/>
<path d="M76.0948 65.5791L75.5154 65.741C75.5154 65.741 74.9986 65.4719 74.9496 65.9234L74.6776 66.0191C74.6776 66.0191 74.1336 65.6361 74.0738 66.2471L73.78 66.3839C73.78 66.3839 74.6776 69.7219 75.5099 70.3489L75.7819 70.2668C75.7819 70.2668 76.1519 70.5563 76.3259 70.3922C76.378 70.3369 76.4145 70.2726 76.4329 70.2039C76.4512 70.1353 76.4509 70.064 76.432 69.9955L76.6714 69.8974C76.6714 69.8974 76.8319 70.2007 77.0903 70.1095C77.3487 70.0183 77.2888 69.6922 77.2888 69.6922L77.7648 68.8851L76.0948 65.5791Z" fill="#E0E0E0"/>
<path d="M76.0947 65.5791C76.1449 65.6523 76.1886 65.7285 76.2253 65.8071C76.3151 65.9735 76.4347 66.1947 76.5816 66.4706C76.8917 67.0679 77.3187 67.8933 77.8301 68.8737V68.8942L77.8165 68.917L77.3459 69.7241V69.6922C77.3582 69.7752 77.3527 69.8594 77.3296 69.9407C77.3189 69.9882 77.2961 70.0331 77.2628 70.0724C77.2294 70.1118 77.1864 70.1446 77.1365 70.1687C77.0839 70.1931 77.0241 70.2041 76.9642 70.2004C76.9044 70.1968 76.847 70.1786 76.7992 70.1482C76.7127 70.0937 76.6443 70.0215 76.6007 69.9385L76.6931 69.9658L76.4538 70.0661L76.4919 70C76.52 70.0871 76.5178 70.1791 76.4855 70.2652C76.4533 70.3513 76.3922 70.4278 76.3096 70.4857C76.2564 70.5069 76.1978 70.5168 76.1389 70.5144C76.0801 70.512 76.0228 70.4975 75.9723 70.472C75.8799 70.4338 75.7939 70.3855 75.7167 70.3283H75.7901L75.6024 70.3876L75.529 70.4104L75.4855 70.4241L75.4583 70.399C75.146 70.0868 74.9054 69.7289 74.7483 69.3434C74.577 68.9831 74.4383 68.6275 74.3131 68.2832C74.0629 67.5992 73.8725 66.9562 73.7229 66.3999V66.3657L73.761 66.3497C73.8643 66.3019 73.9595 66.2563 74.0547 66.2152L74.0275 66.2494C74.0349 66.1759 74.055 66.1037 74.0874 66.0351C74.1018 65.9985 74.126 65.9652 74.158 65.9375C74.1901 65.9099 74.2291 65.8887 74.2723 65.8755C74.3547 65.8556 74.4429 65.8621 74.5199 65.8937C74.5883 65.9191 74.6524 65.9521 74.7103 65.9918H74.664L74.936 65.8983L74.9143 65.9257C74.9191 65.8569 74.9443 65.7903 74.9877 65.7319C75.011 65.7056 75.0409 65.6839 75.0751 65.6681C75.1094 65.6524 75.1473 65.643 75.1863 65.6407C75.3092 65.6398 75.4295 65.67 75.5317 65.7273H75.5099L75.9533 65.6156C75.9999 65.6013 76.0483 65.5914 76.0975 65.5859L75.9451 65.6384L75.5263 65.7683H75.5127C75.4177 65.7222 75.3096 65.6986 75.1999 65.6999C75.0802 65.6999 75.0095 65.8117 74.9986 65.9279V65.9462H74.9768L74.7048 66.0442H74.6803L74.6586 66.0305C74.6124 65.9936 74.5568 65.9658 74.4961 65.9493C74.4354 65.9327 74.371 65.9277 74.3077 65.9348C74.1935 65.9667 74.1499 66.1081 74.1363 66.2403V66.2631L74.1119 66.2745L73.8208 66.4136L73.848 66.3634C74.0058 66.9152 74.2043 67.5513 74.46 68.233C74.5851 68.575 74.732 68.9284 74.8979 69.2841C75.0487 69.6515 75.2762 69.9935 75.5698 70.2941L75.4991 70.2827L75.5725 70.2599L75.7602 70.2007L75.801 70.1893L75.8336 70.2121C75.956 70.3055 76.1546 70.4059 76.2552 70.358C76.3109 70.3129 76.3513 70.2562 76.3724 70.1937C76.3934 70.1312 76.3943 70.0652 76.3749 70.0023V69.9544L76.4239 69.9339L76.6632 69.8359L76.7285 69.8085L76.7584 69.8632C76.8319 69.9932 76.9787 70.1095 77.1066 70.0388C77.2344 69.9681 77.2643 69.8108 77.248 69.6899V69.6717V69.658L77.7267 68.8532V68.8965C77.2453 67.9207 76.84 67.0976 76.549 66.5025C76.413 66.2198 76.3015 65.9895 76.2199 65.8185C76.1383 65.6475 76.092 65.5837 76.0947 65.5791Z" fill="#263238"/>
<path d="M75.6921 65.5796C75.6921 65.5796 76.3014 68.4798 77.5961 70.0689L78.4937 69.6996C78.4937 69.6996 77.0358 67.4196 76.7638 65.2832C76.3848 65.314 76.0186 65.4153 75.6921 65.5796Z" fill="#EBEBEB"/>
<path d="M80.8602 74.638C80.8194 74.6588 80.7755 74.675 80.7296 74.6859C80.6453 74.7133 80.5174 74.7497 80.3488 74.7931C79.8744 74.9089 79.3909 74.9965 78.9018 75.0553C78.2843 75.1351 77.5418 75.1875 76.7258 75.2263C75.9098 75.265 74.9958 75.3061 74.0411 75.3129C73.1429 75.3271 72.2449 75.2782 71.3565 75.167C70.6295 75.0736 69.9176 74.9106 69.2349 74.6813C68.7731 74.5265 68.3319 74.3316 67.9184 74.0999C67.7742 74.0179 67.6654 73.9495 67.5947 73.8993C67.524 73.8491 67.4886 73.8241 67.4914 73.8195C67.4941 73.8149 67.6518 73.9084 67.9483 74.0612C68.3659 74.2769 68.8066 74.4593 69.2648 74.6061C69.9444 74.8202 70.6492 74.9731 71.3674 75.0621C72.2504 75.1649 73.1416 75.2099 74.033 75.1966C74.9822 75.1966 75.8853 75.1487 76.7094 75.1191C77.5336 75.0895 78.2707 75.0416 78.8854 74.9755C79.3725 74.9222 79.8556 74.8461 80.3325 74.7475C80.6725 74.6768 80.8547 74.6289 80.8602 74.638Z" fill="#263238"/>
<path d="M78.2653 54.4209C78.2068 54.4512 78.1448 54.4764 78.0803 54.4962L77.5363 54.6922L77.1419 54.829L76.6605 54.9681C76.3178 55.0661 75.9261 55.1847 75.48 55.2759L74.7864 55.4309L74.0221 55.5632C73.4944 55.6658 72.9341 55.7182 72.3221 55.7912C71.0146 55.914 69.6988 55.9628 68.3835 55.9371C67.0714 55.902 65.7627 55.8038 64.464 55.643C63.8656 55.5586 63.2971 55.4857 62.7722 55.3876C62.2472 55.2896 61.7549 55.2052 61.3088 55.1117C60.8627 55.0183 60.4656 54.9271 60.1147 54.845C59.7638 54.7629 59.4646 54.6877 59.2226 54.617L58.6622 54.4619C58.5962 54.4452 58.5317 54.4246 58.4691 54.4004C58.5377 54.4073 58.6051 54.4203 58.6704 54.4392L59.2389 54.5737C59.4837 54.6329 59.7829 54.7059 60.1365 54.7789C60.4901 54.8518 60.8845 54.9476 61.3333 55.0274C61.7821 55.1072 62.2662 55.2075 62.7939 55.2896C63.3216 55.3717 63.8819 55.4515 64.483 55.5336C65.7796 55.6893 67.0853 55.786 68.3944 55.8231C69.7021 55.8482 71.0105 55.8025 72.3112 55.6863C72.9096 55.6111 73.4808 55.5632 74.003 55.4583L74.7646 55.3329L75.461 55.1847C75.9043 55.1003 76.296 54.9864 76.6414 54.8952L77.1229 54.7675L77.52 54.6398L78.064 54.4642C78.1289 54.4434 78.1964 54.4288 78.2653 54.4209Z" fill="#263238"/>
<path d="M93.568 74.9316C93.574 74.9779 93.574 75.0245 93.568 75.0707C93.568 75.1733 93.5435 75.2987 93.5272 75.4629C93.4837 75.8186 93.4266 76.3088 93.3559 76.9038C93.1981 78.135 92.9832 79.8086 92.7439 81.6576C92.5045 83.5067 92.2815 85.178 92.121 86.4092C92.0448 87.0042 91.9823 87.4922 91.936 87.8478C91.917 88.0074 91.9034 88.1374 91.8898 88.24C91.8762 88.3426 91.8898 88.3722 91.8898 88.3768C91.8408 88.3768 91.8898 87.6176 92.0312 86.4C92.1727 85.1825 92.3712 83.4999 92.616 81.644C92.8608 79.788 93.0893 78.11 93.2661 76.8947C93.3559 76.2996 93.4293 75.814 93.4837 75.4583C93.5109 75.2987 93.5327 75.1688 93.549 75.0684C93.5489 75.0224 93.5553 74.9765 93.568 74.9316Z" fill="#263238"/>
<path d="M102.471 73.206C102.53 73.1954 102.592 73.19 102.653 73.1901C102.827 73.1814 103.001 73.1814 103.175 73.1901C103.82 73.2346 104.446 73.3898 105.016 73.6461C105.401 73.8286 105.765 74.04 106.104 74.2776C106.298 74.3962 106.488 74.5284 106.684 74.6629C106.88 74.7975 107.084 74.9343 107.285 75.0825C108.166 75.7182 109 76.3981 109.782 77.1185C110.56 77.8419 111.287 78.6032 111.958 79.3985C112.575 80.1327 113.079 80.8235 113.481 81.4117C113.884 82 114.169 82.497 114.36 82.8413L114.572 83.2403C114.599 83.2855 114.621 83.3329 114.637 83.3817C114.601 83.3408 114.571 83.2964 114.547 83.2494C114.485 83.1514 114.406 83.0214 114.311 82.8618C114.104 82.5244 113.799 82.0387 113.394 81.4551C112.989 80.8714 112.472 80.1897 111.852 79.4601C111.177 78.674 110.45 77.9197 109.676 77.2006C108.896 76.4834 108.068 75.8044 107.195 75.1668C106.999 75.0186 106.798 74.8795 106.602 74.745C106.406 74.6105 106.219 74.4783 106.031 74.3574C105.696 74.1206 105.338 73.9085 104.959 73.7236C104.402 73.4675 103.79 73.3049 103.159 73.2448C102.724 73.2015 102.473 73.2197 102.471 73.206Z" fill="#263238"/>
<path d="M91.713 68.208C91.7396 68.2576 91.7544 68.311 91.7565 68.3653C91.7782 68.5099 91.7782 68.6562 91.7565 68.8008C91.6866 69.2868 91.4161 69.7371 90.9919 70.0735C90.5677 70.41 90.0164 70.6114 89.4336 70.643C89.2602 70.6551 89.0857 70.6489 88.9141 70.6248C88.8496 70.6195 88.7868 70.604 88.7291 70.5792C88.7291 70.5564 89.0011 70.6043 89.4227 70.561C89.9758 70.5103 90.494 70.3096 90.8986 69.9894C91.3031 69.6692 91.5719 69.2471 91.664 68.7871C91.7266 68.436 91.6858 68.2103 91.713 68.208Z" fill="#EB996E"/>
<path d="M92.9859 67.6318C93.1716 67.7457 93.3318 67.8862 93.4592 68.0468C93.7797 68.4258 94.002 68.8569 94.112 69.3122C94.2252 69.769 94.2206 70.2409 94.0984 70.6962C94.0578 70.8858 93.9777 71.0679 93.8617 71.2342C93.8373 71.2342 93.9297 71.0222 94.0005 70.6802C94.1838 69.7805 93.9566 68.8558 93.364 68.0901C93.1491 67.8051 92.9696 67.6478 92.9859 67.6318Z" fill="#EB996E"/>
<path d="M94.0793 58.967C94.0429 58.9876 94.0036 59.0045 93.9624 59.0172L93.6197 59.138C93.1953 59.287 92.7612 59.4156 92.3195 59.5233C91.6619 59.6919 90.9745 59.7636 90.2877 59.7354C89.8796 59.7125 89.4784 59.6355 89.099 59.5074C88.8734 59.4524 88.6798 59.3299 88.555 59.1631C88.4981 59.0679 88.4827 58.959 88.5115 58.8553C88.5314 58.8035 88.5649 58.756 88.6097 58.7166C88.6544 58.6771 88.7092 58.6466 88.7699 58.6273C90.459 58.1417 91.9741 57.7312 93.0784 57.4303L94.3894 57.0814L94.7485 56.9925C94.7895 56.9796 94.8326 56.9719 94.8763 56.9697C94.8379 56.9876 94.7979 57.0029 94.7566 57.0153L94.4057 57.1248L93.111 57.5078L88.827 58.7344C88.7846 58.7461 88.7463 58.7664 88.7155 58.7935C88.6847 58.8205 88.6623 58.8535 88.6502 58.8895C88.6259 58.966 88.6365 59.0473 88.6801 59.1175C88.7888 59.2556 88.9513 59.358 89.1398 59.407C89.5061 59.5323 89.8933 59.6092 90.2877 59.635C90.9606 59.6674 91.6353 59.6058 92.2841 59.4526C92.8417 59.3273 93.2824 59.1927 93.5897 59.1038L93.9433 59.0035C93.9855 58.9843 94.0317 58.9719 94.0793 58.967Z" fill="#EB996E"/>
<path d="M88.5686 60.4198C88.5686 60.4198 88.4272 60.454 88.177 60.527C87.8252 60.643 87.4608 60.73 87.089 60.7869C86.8218 60.8231 86.5477 60.788 86.3056 60.6866C86.0323 60.5705 85.7927 60.4055 85.6038 60.2032C85.5179 60.116 85.457 60.0132 85.4261 59.903C85.3951 59.7928 85.3949 59.6781 85.4254 59.5679C85.456 59.4576 85.5164 59.3547 85.6021 59.2672C85.6877 59.1797 85.7963 59.1099 85.9194 59.0632L86.4144 58.89C87.7472 58.434 88.9576 58.0099 89.8389 57.7135L90.8834 57.3692C91.0086 57.3224 91.1388 57.2857 91.2723 57.2598C91.1544 57.3193 91.0306 57.3704 90.9024 57.4125L89.877 57.791C89.0066 58.1056 87.8016 58.5343 86.4688 58.9994L85.9765 59.1727C85.8303 59.2262 85.709 59.3183 85.6311 59.4349C85.5559 59.5451 85.523 59.6719 85.5366 59.7983C85.5502 59.9247 85.6098 60.0446 85.7072 60.1417C85.8831 60.3313 86.1057 60.4869 86.36 60.5977C86.5807 60.694 86.8318 60.7299 87.0781 60.7003C87.4473 60.6483 87.8111 60.572 88.1661 60.4723C88.2963 60.4377 88.4321 60.42 88.5686 60.4198Z" fill="#EB996E"/>
<path d="M100.433 64.1883C100.332 64.2717 100.223 64.348 100.107 64.4163C99.8008 64.6211 99.4782 64.8078 99.1412 64.9749C98.6383 65.232 98.0674 65.3808 97.4793 65.4081C97.128 65.4198 96.7776 65.3693 96.4511 65.2599C96.2786 65.2034 96.1165 65.1266 95.9697 65.0319C95.8045 64.9336 95.6822 64.7927 95.6215 64.6307C95.607 64.5849 95.604 64.5371 95.6129 64.4904C95.6219 64.4436 95.6424 64.399 95.6732 64.3593C95.7335 64.2925 95.8061 64.234 95.8881 64.1861L96.3124 63.9056L97.1121 63.3721L98.4721 62.4783L99.3969 61.881C99.5077 61.8044 99.626 61.7358 99.7505 61.6758C99.653 61.7639 99.5465 61.8448 99.4323 61.9175L98.5347 62.5422L97.191 63.4542L96.394 63.99L95.9724 64.275C95.9034 64.3158 95.8412 64.3641 95.7875 64.4186C95.768 64.4453 95.7553 64.4751 95.7502 64.5061C95.745 64.5371 95.7475 64.5686 95.7575 64.5987C95.8118 64.7344 95.9155 64.8525 96.054 64.9362C96.1902 65.0281 96.3402 65.1048 96.5001 65.1642C96.8086 65.2676 97.139 65.3172 97.4711 65.3101C98.041 65.2878 98.596 65.1509 99.0895 64.9111C99.4283 64.7535 99.7561 64.58 100.071 64.3913C100.184 64.3144 100.305 64.2464 100.433 64.1883Z" fill="#EB996E"/>
<path d="M95.1483 60.5726C94.8542 60.3856 94.6127 60.1466 94.4411 59.8726C94.2284 59.6201 94.0854 59.3312 94.0222 59.0267C94.0603 59.0131 94.2507 59.387 94.5662 59.811C94.8817 60.2351 95.1782 60.5498 95.1483 60.5726Z" fill="#EB996E"/>
<path d="M96.6497 61.7192C96.1385 61.2922 95.4646 61.0292 94.7457 60.9759C95.1156 60.9234 95.4957 60.9663 95.8358 61.099C96.1759 61.2318 96.4597 61.4481 96.6497 61.7192Z" fill="#EB996E"/>
<path d="M99.2338 66.4711C99.2338 66.4916 98.9264 66.503 98.445 66.5874C97.8196 66.6979 97.2185 66.8895 96.6634 67.1551C96.1109 67.4239 95.6109 67.7622 95.181 68.1583C94.8519 68.4638 94.6832 68.6804 94.6642 68.669C94.6858 68.6109 94.7189 68.5562 94.7621 68.5071C94.8628 68.3649 94.9774 68.2299 95.1048 68.1036C95.9464 67.2525 97.1271 66.6856 98.4287 66.5076C98.6228 66.4794 98.8192 66.4641 99.0162 66.462C99.0888 66.4545 99.1624 66.4576 99.2338 66.4711Z" fill="#EB996E"/>
<path d="M99.8431 71.1127C99.8094 71.1839 99.7636 71.2508 99.7071 71.311C99.566 71.4804 99.4096 71.6405 99.2392 71.7898C98.6721 72.2858 97.9758 72.665 97.2048 72.898C96.4338 73.131 95.6089 73.2113 94.7948 73.1327C94.5502 73.1094 94.3083 73.0697 94.0712 73.0142C93.9816 72.9987 93.8954 72.9718 93.8156 72.9344C93.8156 72.9139 94.1909 73.0096 94.8056 73.0484C95.6012 73.1018 96.4012 73.0118 97.1519 72.7845C97.9025 72.5572 98.5864 72.1978 99.1576 71.7305C99.6091 71.3635 99.824 71.1013 99.8431 71.1127Z" fill="#EB996E"/>
<path d="M32.4631 82.4764L38.5695 80.6113L46.4548 86.5211L44.1183 90.0209L32.4631 82.4764Z" fill="#667499"/>
<path d="M42.0131 93.4201C42.0368 93.3755 42.067 93.3333 42.1028 93.2948L42.3748 92.9345C42.6196 92.6199 42.9732 92.1616 43.4057 91.5779C43.8382 90.9942 44.355 90.2829 44.9017 89.4598C45.1737 89.0471 45.4457 88.6071 45.7177 88.1351C46.0108 87.652 46.2319 87.1404 46.376 86.6121L46.3977 86.6622L42.704 83.8624C41.1209 82.6677 39.6222 81.5322 38.2867 80.5222L38.3438 80.5359C37.7691 80.6403 37.2052 80.7829 36.6574 80.9622C36.1297 81.1287 35.6347 81.3042 35.175 81.4752C34.2502 81.8218 33.456 82.1592 32.8059 82.4397C32.1558 82.7201 31.6499 82.9641 31.3072 83.1237L30.9128 83.3129C30.8689 83.337 30.8225 83.3576 30.774 83.3745C30.8121 83.3444 30.8552 83.319 30.9019 83.2992L31.2854 83.094C31.6227 82.9208 32.1232 82.6745 32.7705 82.3804C33.4179 82.0863 34.2067 81.7443 35.1288 81.3909C35.5912 81.2153 36.0862 81.0352 36.6166 80.8665C37.1689 80.6817 37.7384 80.5353 38.3193 80.4287H38.3492L38.3737 80.4469L42.7964 83.778L46.512 86.5779L46.5392 86.6007V86.628C46.3899 87.1671 46.1615 87.6887 45.8592 88.1807C45.5872 88.655 45.2988 89.0927 45.0241 89.5054C44.4665 90.3285 43.9361 91.033 43.4982 91.6144C43.0603 92.1958 42.6822 92.6472 42.4347 92.955C42.3096 93.1078 42.2089 93.2264 42.1409 93.3039C42.1023 93.3456 42.0595 93.3845 42.0131 93.4201Z" fill="#263238"/>
<path d="M41.9805 87.9284C42.0604 87.7742 42.1637 87.6294 42.2878 87.4974C42.4973 87.2398 42.7965 86.8932 43.1446 86.5216C43.4928 86.15 43.8246 85.8239 44.0721 85.5959C44.1968 85.464 44.3391 85.3447 44.4965 85.2402C44.3999 85.3872 44.283 85.5242 44.1483 85.6484L43.248 86.5968L42.3694 87.5522C42.2559 87.6887 42.1255 87.8148 41.9805 87.9284Z" fill="#263238"/>
<path d="M38.3519 84.886C38.7441 84.4923 39.1715 84.1241 39.6303 83.7848C40.0568 83.4165 40.516 83.0758 41.0039 82.7656C40.6137 83.1608 40.1872 83.5298 39.7282 83.8691C39.3025 84.2383 38.8423 84.5783 38.3519 84.886Z" fill="#263238"/>
<path d="M95.9561 66.3822C95.8416 66.3359 95.7339 66.2785 95.6352 66.2112C95.3551 66.0419 95.0922 65.8535 94.8491 65.648C94.0376 64.9673 93.4359 64.1313 93.0961 63.2121C92.7564 62.2929 92.6887 61.3181 92.8989 60.3721C92.9628 60.0868 93.0538 59.8062 93.1709 59.5331C93.2079 59.4315 93.258 59.3336 93.3205 59.2412C93.3477 59.2412 93.1382 59.6699 93.0049 60.3812C92.8242 61.3147 92.9038 62.2707 93.2374 63.1741C93.571 64.0776 94.1497 64.904 94.928 65.5887C95.5155 66.12 95.9725 66.3617 95.9561 66.3822Z" fill="#263238"/>
<path d="M75.7819 70.2713C75.6364 70.1033 75.5158 69.9211 75.4229 69.7286C75.1699 69.2748 74.9492 68.8089 74.7619 68.3333C74.5389 67.7769 74.373 67.2639 74.2615 66.8923C74.1887 66.6933 74.1404 66.4885 74.1173 66.2812C74.2183 66.471 74.2993 66.6679 74.3594 66.8695C74.4927 67.2343 74.6749 67.7405 74.9034 68.2945C75.1319 68.8485 75.3495 69.341 75.5208 69.6944C75.625 69.8809 75.7122 70.0738 75.7819 70.2713Z" fill="#263238"/>
<path d="M74.7184 66.0586C74.8106 66.2496 74.8852 66.4462 74.9414 66.6468C75.072 67.0116 75.2569 67.5132 75.4854 68.0559C75.7139 68.5985 75.9669 69.0841 76.1518 69.4239C76.2603 69.6075 76.3513 69.7981 76.4238 69.9939C76.2748 69.829 76.1497 69.6499 76.0512 69.4603C75.7853 69.016 75.55 68.5593 75.3467 68.0923C75.141 67.6248 74.9685 67.1474 74.8299 66.6628C74.764 66.4659 74.7266 66.263 74.7184 66.0586Z" fill="#263238"/>
<path d="M74.9496 65.9512C75.0344 66.1437 75.1025 66.341 75.1536 66.5417C75.2733 66.9042 75.4555 67.4035 75.6976 67.9416C75.9397 68.4797 76.1899 68.9585 76.3749 69.3096C76.4839 69.4915 76.5749 69.6806 76.6469 69.8751C76.4982 69.7113 76.3722 69.5338 76.2715 69.3461C75.9994 68.9063 75.7587 68.4533 75.5507 67.9895C75.3413 67.5259 75.1713 67.0505 75.0421 66.5668C74.9815 66.3655 74.9504 66.1588 74.9496 65.9512Z" fill="#263238"/>
<path d="M77.2969 69.6993C77.1426 69.5391 77.0136 69.3628 76.9134 69.1749C76.6531 68.732 76.4286 68.275 76.2416 67.8069C76.0131 67.2597 75.8417 66.7558 75.7275 66.3887C75.655 66.1933 75.6049 65.9925 75.5779 65.7891C75.6824 65.9742 75.7653 66.1674 75.8254 66.3659C75.9614 66.7261 76.1491 67.2232 76.3694 67.7681C76.5897 68.313 76.8182 68.7987 76.9977 69.1361C77.1118 69.3182 77.2117 69.5064 77.2969 69.6993Z" fill="#263238"/>
<path d="M78.1538 68.4618C78.2599 67.9693 78.8637 67.6433 79.4567 67.5817C80.0551 67.5607 80.6533 67.6271 81.2247 67.7778C81.8068 67.8918 82.4296 67.9784 82.9927 67.812C83.602 67.6296 84.0453 67.1827 84.6247 66.9456C85.5685 66.5648 86.681 66.802 87.72 66.916C89.9151 67.1554 92.1319 66.8088 94.3052 66.46C90.8556 67.7535 87.2524 68.7371 83.5557 69.3943C82.4922 69.5836 81.3498 69.7386 80.3461 69.3943C79.9136 69.2416 79.5056 68.9976 79.0351 68.993C78.7969 69.0215 78.5551 69.0215 78.317 68.993C78.0858 68.936 77.9144 68.6624 78.0994 68.537" fill="#667499"/>
<g opacity="0.6">
<path d="M78.1538 68.4618C78.2599 67.9693 78.8637 67.6433 79.4567 67.5817C80.0551 67.5607 80.6533 67.6271 81.2247 67.7778C81.8068 67.8918 82.4296 67.9784 82.9927 67.812C83.602 67.6296 84.0453 67.1827 84.6247 66.9456C85.5685 66.5648 86.681 66.802 87.72 66.916C89.9151 67.1554 92.1319 66.8088 94.3052 66.46C90.8556 67.7535 87.2524 68.7371 83.5557 69.3943C82.4922 69.5836 81.3498 69.7386 80.3461 69.3943C79.9136 69.2416 79.5056 68.9976 79.0351 68.993C78.7969 69.0215 78.5551 69.0215 78.317 68.993C78.0858 68.936 77.9144 68.6624 78.0994 68.537" fill="white"/>
</g>
<g opacity="0.3">
<path d="M60.1664 92.0429C59.6387 92.0224 58.295 91.8035 57.7837 91.726C57.6123 92.711 58.7329 93.7324 59.8944 93.9308C61.0558 94.1291 62.3424 93.949 63.4957 93.7164C70.5377 92.2937 77.8001 92.6448 85.0299 92.28C85.4635 92.2829 85.8932 92.2107 86.292 92.068C86.49 91.9938 86.6578 91.8726 86.7747 91.7195C86.8917 91.5664 86.9527 91.388 86.9502 91.2062C86.8985 90.7502 86.3246 90.4583 85.7969 90.3147C83.6073 89.7219 81.2409 90.2759 78.9969 90.7228C72.5315 92.0087 66.7869 92.9002 60.1609 92.0429" fill="black"/>
</g>
<g opacity="0.3">
<path d="M59.296 54.56C60.7047 55.4058 62.1826 56.1677 63.7187 56.84C65.2618 57.5156 66.9584 57.9089 68.6963 57.9936C70.3039 58.037 71.8923 57.7269 73.4264 57.3256C74.3295 57.1182 75.1917 56.8018 75.9859 56.3862C76.7872 55.9635 77.3852 55.3177 77.6751 54.5622C71.7369 56.355 65.2322 56.3219 59.3205 54.4688" fill="black"/>
</g>
<g opacity="0.3">
<path d="M35.1967 81.4643C33.4474 81.3696 31.6999 81.6712 30.1375 82.3375C28.6334 82.9919 27.0612 83.8788 26.7865 85.2719C26.7076 85.6641 26.7511 86.1429 27.1591 86.3481C27.51 86.5259 27.9751 86.4073 28.307 86.2067C29.0305 85.7712 29.3732 85.0302 29.8302 84.3827C30.9617 82.7867 35.1967 81.4506 35.1967 81.4506" fill="black"/>
</g>
<g opacity="0.3">
<path d="M67.9184 81.2206C68.1904 81.4326 67.7878 82.315 66.5584 83.4094C65.8246 84.0591 64.976 84.6105 64.0424 85.0442C62.8393 85.617 61.4937 85.9472 60.112 86.0086C58.7885 86.0479 57.4665 85.9015 56.2006 85.5754C55.18 85.3192 54.2115 84.9349 53.3283 84.4354C52.7284 84.1069 52.1988 83.6961 51.7616 83.2202C51.4651 82.869 51.3781 82.6091 51.4896 82.4837C51.7453 82.217 52.7218 82.5498 54.2096 82.9397C56.0774 83.4489 58.0342 83.6901 59.9978 83.6534C61.0011 83.6038 61.9875 83.4142 62.9163 83.0925C63.7442 82.8091 64.5492 82.4808 65.3262 82.1098C66.7026 81.4463 67.6219 80.9903 67.9184 81.2206Z" fill="black"/>
</g>
<g opacity="0.3">
<path d="M91.3648 81.9952C91.4518 82.1411 91.3213 82.3623 90.9867 82.6473C90.9024 82.718 90.8045 82.7932 90.6957 82.8753C90.5758 82.9572 90.4505 83.0333 90.3203 83.1033C90.0121 83.28 89.6853 83.4327 89.3438 83.5593C89.1561 83.63 88.9549 83.7029 88.7454 83.7736C88.536 83.8443 88.3075 83.8967 88.0763 83.9583C87.5775 84.0855 87.0685 84.1822 86.5531 84.2479C84.1689 84.5465 81.7325 84.2574 79.5409 83.4157C79.0703 83.2317 78.6158 83.0198 78.1809 82.7818C77.9769 82.6678 77.7784 82.5675 77.5989 82.4489C77.4193 82.3304 77.2534 82.2209 77.0957 82.1024C76.8106 81.9005 76.5467 81.6785 76.3069 81.4389C76.2008 81.334 76.1029 81.236 76.0213 81.1379C75.9397 81.0399 75.8744 80.9441 75.8173 80.8552C75.5888 80.5041 75.5453 80.2601 75.6704 80.1416C75.9424 79.8908 76.8373 80.2328 78.1592 80.6797C78.3278 80.7344 78.4992 80.7937 78.676 80.8552C78.8528 80.9168 79.0513 80.9647 79.2417 81.0262C79.6252 81.1539 80.0577 81.2542 80.4848 81.3728C82.3845 81.8471 84.3589 82.0777 86.3409 82.0568C86.7952 82.0408 87.2385 82.0568 87.6465 82.0135C87.8533 81.9998 88.0545 81.9975 88.2477 81.9815C88.4408 81.9656 88.623 81.9451 88.7917 81.9337C90.2115 81.8105 91.1744 81.6897 91.3648 81.9952Z" fill="black"/>
</g>
<path d="M69.1696 79.0605C69.1373 79.1146 69.1 79.1664 69.0581 79.2156C68.9765 79.3113 68.8704 79.4618 68.7072 79.6374C68.2575 80.1461 67.7501 80.6173 67.1922 81.0441C65.3505 82.4749 63.0435 83.4148 60.5636 83.7449C58.0837 84.0749 55.5428 83.78 53.2631 82.8978C52.5759 82.6353 51.9201 82.3185 51.3047 81.9516C51.0816 81.8262 50.9266 81.7099 50.8151 81.6392C50.7565 81.6047 50.7019 81.5658 50.6519 81.5229C50.7143 81.5522 50.7743 81.5849 50.8314 81.621C50.9483 81.6848 51.1034 81.7965 51.3346 81.9128C52.8881 82.7811 54.6442 83.3625 56.4863 83.6183C59.1881 84.0088 61.9682 83.6392 64.3933 82.5672C66.0517 81.8446 67.5075 80.8342 68.6637 79.6032C68.8351 79.4322 68.9357 79.2863 69.0336 79.1951C69.074 79.1469 69.1196 79.1019 69.1696 79.0605Z" fill="#263238"/>
<path d="M60.762 54.5146C60.6941 54.3411 60.653 54.161 60.6396 53.9788C60.5739 53.5431 60.5376 53.1046 60.5308 52.6655C60.5234 52.2255 60.5452 51.7856 60.5961 51.3477C60.6037 51.1652 60.6393 50.9843 60.7022 50.8096C60.7242 50.9907 60.7242 51.1733 60.7022 51.3545C60.6859 51.6897 60.6696 52.1525 60.6777 52.6632C60.6859 53.1739 60.7185 53.6368 60.743 53.9719C60.7691 54.1519 60.7755 54.3336 60.762 54.5146Z" fill="#263238"/>
<path d="M65.3453 55.119C65.3277 54.9118 65.3277 54.7038 65.3453 54.4966C65.3453 54.1158 65.3453 53.5846 65.2936 53.0078C65.2419 52.4309 65.1603 51.902 65.0923 51.5258C65.0392 51.3232 65.0064 51.1173 64.9944 50.9102C65.0864 51.1032 65.1521 51.3044 65.1902 51.5098C65.3118 52.0009 65.3935 52.4983 65.435 52.9986C65.4741 53.4989 65.4741 54.0009 65.435 54.5012C65.4351 54.7094 65.405 54.9169 65.3453 55.119Z" fill="#263238"/>
<path d="M70.3392 55.0187C70.2895 54.818 70.2568 54.6145 70.2413 54.4099C70.1896 54.0337 70.1026 53.5162 69.9693 52.953C69.836 52.3899 69.6483 51.886 69.5123 51.5257C69.4242 51.3344 69.3533 51.1377 69.3002 50.9375C69.4284 51.1135 69.5307 51.3018 69.6048 51.4984C70.0245 52.4294 70.2766 53.4076 70.3528 54.4008C70.3787 54.6065 70.3741 54.814 70.3392 55.0187Z" fill="#263238"/>
<path d="M74.1798 54.5601C74.1362 54.5601 74.2994 53.7621 74.2532 52.7794C74.2069 51.7967 73.9812 51.0147 74.022 51.0078C74.1096 51.1681 74.1709 51.3376 74.2042 51.5117C74.311 51.9273 74.3747 52.35 74.3946 52.7748C74.4136 53.1993 74.3872 53.6243 74.3158 54.0448C74.2997 54.2211 74.2539 54.3945 74.1798 54.5601Z" fill="#263238"/>
<path d="M77.199 54.3121C77.1555 54.3121 77.2289 53.5916 77.1582 52.7161C77.0875 51.8406 76.9107 51.1201 76.9515 51.1201C77.0332 51.2643 77.0882 51.4181 77.1147 51.5761C77.3034 52.3251 77.3621 53.0931 77.2887 53.8561C77.2859 54.011 77.2556 54.1647 77.199 54.3121Z" fill="#263238"/>
<path d="M82.96 61.9658C82.96 61.9658 82.1603 63.4501 83.2864 65.4383L89.4607 63.8423C89.4607 63.8423 88.3972 61.6489 89.439 60.2969L82.96 61.9658Z" fill="#667499"/>
<path d="M92.1835 60.1914C92.1359 60.212 92.0857 60.228 92.0339 60.2393L91.596 60.3601L89.9776 60.7819L84.6219 62.1294C83.5774 62.3939 82.571 62.6196 81.6816 62.8818C80.8916 63.0991 80.1546 63.4335 79.5056 63.869C79.0702 64.1667 78.7113 64.5351 78.4502 64.952C78.2734 65.2484 78.2244 65.4308 78.2081 65.4286C78.2147 65.3838 78.2256 65.3396 78.2408 65.2963C78.284 65.1717 78.3377 65.0498 78.4012 64.9315C78.6474 64.498 79.0017 64.1139 79.4403 63.8052C80.0936 63.3531 80.8404 63.0054 81.6435 62.7792C82.5384 62.5079 83.5475 62.2822 84.5865 62.0154L89.9558 60.7021L91.5878 60.3168L92.0339 60.2165C92.0824 60.2031 92.1326 60.1947 92.1835 60.1914Z" fill="white"/>
<path d="M131.672 106.425C131.672 106.457 103.164 106.485 68.0027 106.485C32.8413 106.485 4.32751 106.457 4.32751 106.425C4.32751 106.394 32.8304 106.366 68.0027 106.366C103.175 106.366 131.672 106.394 131.672 106.425Z" fill="#263238"/>
</svg>
