<svg width="35" height="35" viewBox="0 0 35 35" fill="none" xmlns="http://www.w3.org/2000/svg">
<g clip-path="url(#clip0_6_2370)">
<path d="M15.4055 25.7778C16.0959 25.7778 16.6555 25.2182 16.6555 24.5278C16.6555 23.8375 16.0959 23.2778 15.4055 23.2778C14.7152 23.2778 14.1555 23.8375 14.1555 24.5278C14.1555 25.2182 14.7152 25.7778 15.4055 25.7778Z" fill="#3772FF"/>
<path d="M23 25.7778C23.6904 25.7778 24.25 25.2182 24.25 24.5278C24.25 23.8375 23.6904 23.2778 23 23.2778C22.3096 23.2778 21.75 23.8375 21.75 24.5278C21.75 25.2182 22.3096 25.7778 23 25.7778Z" fill="#3772FF"/>
<path d="M26.3779 10.9833C26.3262 10.9196 26.261 10.8681 26.187 10.8325C26.1131 10.797 26.0322 10.7783 25.9501 10.7777H14.3834L14.7445 11.8889H25.2223L23.739 18.5555H15.4057L12.8668 10.5166C12.8393 10.4313 12.7916 10.3539 12.7278 10.2911C12.6639 10.2282 12.5858 10.1817 12.5001 10.1555L10.2223 9.45552C10.1523 9.434 10.0787 9.42648 10.0058 9.4334C9.93281 9.44032 9.86194 9.46154 9.7972 9.49584C9.66644 9.56513 9.56857 9.68352 9.5251 9.82497C9.48164 9.96641 9.49614 10.1193 9.56542 10.2501C9.63471 10.3808 9.7531 10.4787 9.89455 10.5222L11.889 11.1333L14.439 19.1889L13.5279 19.9333L13.4557 20.0055C13.2303 20.2652 13.1025 20.5954 13.0944 20.9392C13.0863 21.283 13.1983 21.6188 13.4112 21.8889C13.5626 22.073 13.7551 22.2191 13.9731 22.3156C14.1911 22.4121 14.4287 22.4562 14.6668 22.4444H23.939C24.0863 22.4444 24.2276 22.3859 24.3318 22.2817C24.436 22.1775 24.4945 22.0362 24.4945 21.8889C24.4945 21.7415 24.436 21.6002 24.3318 21.496C24.2276 21.3918 24.0863 21.3333 23.939 21.3333H14.5779C14.5139 21.3311 14.4516 21.3125 14.3969 21.2792C14.3422 21.2459 14.2971 21.199 14.2658 21.1432C14.2345 21.0873 14.2182 21.0243 14.2184 20.9603C14.2185 20.8963 14.2352 20.8334 14.2668 20.7777L15.6057 19.6666H24.1834C24.3119 19.6698 24.4374 19.6283 24.5387 19.5493C24.64 19.4703 24.7108 19.3586 24.739 19.2333L26.5001 11.4555C26.517 11.3727 26.5148 11.2871 26.4936 11.2053C26.4724 11.1234 26.4328 11.0475 26.3779 10.9833Z" fill="#3772FF"/>
</g>
<circle cx="17.5" cy="17.5" r="17" stroke="#3772FF"/>
<defs>
<clipPath id="clip0_6_2370">
<rect width="20" height="20" fill="white" transform="translate(8 8)"/>
</clipPath>
</defs>
</svg>
