<svg width="20" height="20" viewBox="0 0 20 20" fill="none" xmlns="http://www.w3.org/2000/svg">
<path d="M12.7927 10.0575L10.2291 12.6211C10.19 12.6599 10.159 12.706 10.1378 12.7569C10.1165 12.8077 10.1056 12.8622 10.1055 12.9173C10.1054 12.9724 10.1162 13.0269 10.1373 13.0778C10.1583 13.1287 10.1892 13.1749 10.2282 13.2138L10.6782 13.6638C10.7169 13.7033 10.7632 13.7346 10.8142 13.7559C10.8652 13.7773 10.9199 13.7882 10.9752 13.7881C11.0305 13.7881 11.0852 13.7769 11.1361 13.7554C11.1871 13.7339 11.2332 13.7025 11.2718 13.6629L14.6355 10.2993C14.6747 10.2605 14.7058 10.2143 14.7271 10.1634C14.7484 10.1125 14.7594 10.0578 14.7595 10.0027C14.7596 9.94747 14.7488 9.89282 14.7276 9.84184C14.7065 9.79087 14.6755 9.74458 14.6364 9.70565L14.4582 9.52746C14.4496 9.51702 14.4405 9.50701 14.4309 9.49746L11.2682 6.33474C11.1883 6.25708 11.081 6.21416 10.9696 6.21536C10.8582 6.21655 10.7518 6.26175 10.6736 6.3411L10.1755 6.83928C10.0959 6.91734 10.0505 7.02378 10.0493 7.13524C10.0481 7.2467 10.0912 7.35408 10.1691 7.43383L12.7927 10.0575Z" fill="#3772FF"/>
<path d="M9.16365 10.0575L6.60092 12.6211C6.56177 12.6599 6.53066 12.706 6.50937 12.7568C6.48808 12.8076 6.47703 12.8621 6.47686 12.9171C6.47669 12.9722 6.48741 13.0268 6.50838 13.0777C6.52936 13.1286 6.56019 13.1749 6.5991 13.2139L7.05001 13.6639C7.08874 13.7032 7.13491 13.7344 7.18583 13.7556C7.23675 13.7769 7.29139 13.7878 7.34657 13.7877C7.40175 13.7876 7.45635 13.7766 7.5072 13.7551C7.55806 13.7337 7.60413 13.7024 7.64274 13.663L11.0064 10.2993C11.0457 10.2606 11.0769 10.2144 11.0983 10.1635C11.1196 10.1127 11.1307 10.0581 11.1309 10.0029C11.1311 9.9477 11.1203 9.89303 11.0992 9.84202C11.0782 9.79101 11.0472 9.74468 11.0082 9.70568L10.83 9.5275C10.8214 9.51706 10.8123 9.50705 10.8027 9.4975L7.6391 6.33478C7.55928 6.25739 7.45214 6.21465 7.34098 6.21584C7.22981 6.21704 7.12361 6.26206 7.04547 6.34114L6.54729 6.83932C6.46772 6.91738 6.42236 7.02382 6.42117 7.13528C6.41997 7.24674 6.46304 7.35412 6.54092 7.43387L9.16456 10.0575H9.16365Z" fill="#3772FF"/>
</svg>
