<svg width="20" height="20" viewBox="0 0 20 20" fill="none" xmlns="http://www.w3.org/2000/svg">
<path d="M12.7927 10.057L10.2291 12.6206C10.19 12.6594 10.159 12.7055 10.1378 12.7564C10.1165 12.8072 10.1056 12.8617 10.1055 12.9168C10.1054 12.9719 10.1162 13.0264 10.1373 13.0773C10.1583 13.1282 10.1892 13.1744 10.2282 13.2133L10.6782 13.6633C10.7169 13.7028 10.7632 13.7341 10.8142 13.7554C10.8652 13.7768 10.9199 13.7877 10.9752 13.7876C11.0305 13.7876 11.0852 13.7764 11.1361 13.7549C11.1871 13.7334 11.2332 13.702 11.2718 13.6624L14.6355 10.2988C14.6747 10.26 14.7058 10.2138 14.7271 10.1629C14.7484 10.112 14.7594 10.0573 14.7595 10.0022C14.7596 9.94698 14.7488 9.89233 14.7276 9.84135C14.7065 9.79038 14.6755 9.74409 14.6364 9.70516L14.4582 9.52698C14.4496 9.51653 14.4405 9.50652 14.4309 9.49698L11.2682 6.33425C11.1883 6.25659 11.081 6.21368 10.9696 6.21487C10.8582 6.21606 10.7518 6.26126 10.6736 6.34061L10.1755 6.83879C10.0959 6.91686 10.0505 7.02329 10.0493 7.13475C10.0481 7.24621 10.0912 7.35359 10.1691 7.43334L12.7927 10.057Z" fill="#D12B2F"/>
<path d="M9.16363 10.0575L6.60091 12.6211C6.56176 12.6599 6.53064 12.706 6.50935 12.7568C6.48806 12.8076 6.47702 12.8621 6.47685 12.9171C6.47668 12.9722 6.48739 13.0268 6.50837 13.0777C6.52935 13.1286 6.56018 13.1749 6.59909 13.2139L7.05 13.6639C7.08873 13.7032 7.1349 13.7344 7.18581 13.7556C7.23673 13.7769 7.29137 13.7878 7.34655 13.7877C7.40173 13.7876 7.45634 13.7766 7.50719 13.7551C7.55804 13.7337 7.60412 13.7024 7.64272 13.663L11.0064 10.2993C11.0456 10.2606 11.0769 10.2144 11.0982 10.1635C11.1196 10.1127 11.1307 10.0581 11.1309 10.0029C11.131 9.9477 11.1203 9.89303 11.0992 9.84202C11.0782 9.79101 11.0472 9.74468 11.0082 9.70568L10.83 9.5275C10.8214 9.51706 10.8123 9.50705 10.8027 9.4975L7.63909 6.33478C7.55927 6.25739 7.45213 6.21465 7.34096 6.21584C7.2298 6.21704 7.1236 6.26206 7.04545 6.34114L6.54727 6.83932C6.4677 6.91738 6.42234 7.02382 6.42115 7.13528C6.41996 7.24674 6.46303 7.35412 6.54091 7.43387L9.16454 10.0575H9.16363Z" fill="#D12B2F"/>
</svg>
