<svg width="16" height="16" viewBox="0 0 16 16" fill="none" xmlns="http://www.w3.org/2000/svg">
<path d="M13.3333 1.33325C13.5101 1.33325 13.6797 1.40349 13.8047 1.52851C13.9298 1.65354 14 1.82311 14 1.99992V13.9999C14 14.1767 13.9298 14.3463 13.8047 14.4713C13.6797 14.5963 13.5101 14.6666 13.3333 14.6666H4C3.82319 14.6666 3.65362 14.5963 3.5286 14.4713C3.40357 14.3463 3.33333 14.1767 3.33333 13.9999V12.6666H2V11.3333H3.33333V9.99992H2V8.66658H3.33333V7.33325H2V5.99992H3.33333V4.66658H2V3.33325H3.33333V1.99992C3.33333 1.82311 3.40357 1.65354 3.5286 1.52851C3.65362 1.40349 3.82319 1.33325 4 1.33325H13.3333ZM12.6667 2.66659H4.66667V13.3333H12.6667V2.66659ZM9.33333 5.33325V7.33325H11.3333V8.66658H9.33267L9.33333 10.6666H8L7.99933 8.66658H6V7.33325H8V5.33325H9.33333Z" fill="#D12B2F"/>
</svg>
