<svg width="16" height="16" viewBox="0 0 16 16" fill="none" xmlns="http://www.w3.org/2000/svg">
<g clip-path="url(#clip0_6_1804)">
<path d="M5.92444 14.2222C6.47672 14.2222 6.92444 13.7745 6.92444 13.2222C6.92444 12.6699 6.47672 12.2222 5.92444 12.2222C5.37215 12.2222 4.92444 12.6699 4.92444 13.2222C4.92444 13.7745 5.37215 14.2222 5.92444 14.2222Z" fill="#2B2A29"/>
<path d="M12 14.2222C12.5523 14.2222 13 13.7745 13 13.2222C13 12.6699 12.5523 12.2222 12 12.2222C11.4477 12.2222 11 12.6699 11 13.2222C11 13.7745 11.4477 14.2222 12 14.2222Z" fill="#2B2A29"/>
<path d="M14.7022 2.38669C14.6609 2.3357 14.6087 2.29452 14.5496 2.26608C14.4904 2.23765 14.4257 2.22268 14.36 2.22224H5.10668L5.39556 3.11113H13.7778L12.5911 8.44447H5.92445L3.89334 2.01335C3.87137 1.94511 3.83322 1.8832 3.78214 1.8329C3.73107 1.78259 3.66858 1.74539 3.60001 1.72447L1.77779 1.16447C1.72176 1.14725 1.66288 1.14123 1.60453 1.14677C1.54617 1.1523 1.48948 1.16928 1.43769 1.19672C1.33308 1.25215 1.25478 1.34686 1.22001 1.46002C1.18524 1.57318 1.19684 1.69552 1.25227 1.80012C1.30769 1.90473 1.4024 1.98303 1.51556 2.0178L3.11112 2.50669L5.15112 8.95113L4.42223 9.54669L4.36445 9.60447C4.18416 9.81224 4.08196 10.0764 4.07547 10.3514C4.06898 10.6264 4.1586 10.8951 4.3289 11.1111C4.45003 11.2584 4.60397 11.3754 4.77838 11.4525C4.9528 11.5297 5.14285 11.565 5.33334 11.5556H12.7511C12.869 11.5556 12.982 11.5088 13.0654 11.4254C13.1487 11.3421 13.1956 11.229 13.1956 11.1111C13.1956 10.9933 13.1487 10.8802 13.0654 10.7969C12.982 10.7135 12.869 10.6667 12.7511 10.6667H5.26223C5.21105 10.6649 5.16119 10.65 5.11746 10.6234C5.07373 10.5967 5.0376 10.5593 5.01258 10.5146C4.98756 10.4699 4.97449 10.4195 4.97462 10.3683C4.97475 10.3171 4.98809 10.2668 5.01334 10.2222L6.08445 9.33335H12.9467C13.0494 9.33587 13.1498 9.30269 13.2309 9.23949C13.3119 9.17628 13.3685 9.08695 13.3911 8.98669L14.8 2.76447C14.8135 2.69821 14.8117 2.62974 14.7948 2.56427C14.7779 2.49881 14.7462 2.43807 14.7022 2.38669Z" fill="#2B2A29"/>
</g>
<defs>
<clipPath id="clip0_6_1804">
<rect width="16" height="16" fill="white"/>
</clipPath>
</defs>
</svg>
